<svg xmlns="http://www.w3.org/2000/svg" xmlns:xlink="http://www.w3.org/1999/xlink" width="1080" zoomAndPan="magnify" viewBox="0 0 810 809.999993" height="1080" preserveAspectRatio="xMidYMid meet" version="1.0"><defs><clipPath id="91e7e6f6f9"><path d="M 63.75 63.75 L 746.25 63.75 L 746.25 746.25 L 63.75 746.25 Z M 63.75 63.75 " clip-rule="nonzero"/></clipPath><clipPath id="7c408b6af3"><path d="M 405 63.75 C 216.53125 63.75 63.75 216.53125 63.75 405 C 63.75 593.46875 216.53125 746.25 405 746.25 C 593.46875 746.25 746.25 593.46875 746.25 405 C 746.25 216.53125 593.46875 63.75 405 63.75 Z M 405 63.75 " clip-rule="nonzero"/></clipPath><clipPath id="7403683657"><path d="M 133.445312 288.171875 L 676.445312 288.171875 L 676.445312 522 L 133.445312 522 Z M 133.445312 288.171875 " clip-rule="nonzero"/></clipPath></defs><g clip-path="url(#91e7e6f6f9)"><g clip-path="url(#7c408b6af3)"><path stroke-linecap="butt" transform="matrix(0.75, 0, 0, 0.75, 63.75, 63.750017)" fill="none" stroke-linejoin="miter" d="M 454.999993 -0.0000223904 C 203.70833 -0.0000223904 -0.000000390432 203.708308 -0.000000390432 454.999971 C -0.000000390432 706.291635 203.70833 909.999965 454.999993 909.999965 C 706.291657 909.999965 909.999987 706.291635 909.999987 454.999971 C 909.999987 203.708308 706.291657 -0.0000223904 454.999993 -0.0000223904 Z M 454.999993 -0.0000223904 " stroke="#ffde59" stroke-width="78" stroke-opacity="1" stroke-miterlimit="4"/></g></g><path fill="#ffde59" d="M 411.042969 521.820312 L 411.042969 509.445312 L 136.917969 509.445312 L 136.917969 521.820312 Z M 515.226562 477.316406 L 515.226562 490.464844 L 393.847656 461.128906 L 273.472656 490.464844 L 273.472656 477.316406 L 393.847656 447.980469 Z M 515.226562 477.316406 " fill-opacity="1" fill-rule="nonzero"/><g clip-path="url(#7403683657)"><path fill="#ffde59" d="M 463.640625 521.820312 L 475.863281 521.820312 L 475.863281 488.441406 L 463.640625 488.441406 Z M 372.605469 338.738281 L 382.71875 338.738281 L 382.71875 317.5 L 399.914062 317.5 L 399.914062 338.742188 L 425.203125 338.742188 L 425.203125 381.222656 C 425.203125 383.757812 425.300781 386.300781 425.535156 388.1875 C 425.769531 390.074219 426.097656 391.304688 426.488281 392.308594 C 426.878906 393.3125 427.328125 394.085938 427.882812 394.753906 C 428.445312 395.425781 429.101562 395.988281 429.847656 396.449219 C 430.601562 396.917969 431.453125 397.304688 432.753906 397.609375 C 434.050781 397.910156 435.796875 398.132812 437.445312 398.25 C 439.089844 398.367188 440.640625 398.378906 441.929688 398.226562 C 443.21875 398.078125 444.246094 397.761719 445.296875 397.292969 C 446.410156 396.796875 447.449219 396.183594 448.417969 395.449219 C 449.410156 394.695312 450.304688 393.835938 451.097656 392.875 C 451.859375 391.953125 452.488281 390.953125 452.988281 389.867188 C 453.488281 388.777344 453.867188 387.578125 454.128906 386.144531 C 454.394531 384.714844 454.539062 383.050781 454.539062 381.390625 L 454.539062 338.742188 L 471.734375 338.742188 L 471.734375 410.554688 L 454.539062 410.554688 L 454.539062 405.976562 C 452.996094 407.242188 451.253906 408.253906 448.984375 409.113281 C 446.710938 409.976562 443.914062 410.6875 440.75 411.113281 C 437.582031 411.539062 434.050781 411.679688 430.898438 411.507812 C 427.746094 411.335938 424.976562 410.847656 422.5625 410.113281 C 420.152344 409.378906 418.101562 408.398438 416.300781 407.207031 C 414.496094 406.015625 412.941406 404.613281 411.703125 403.105469 C 409.191406 400.039062 408.011719 396.648438 408.007812 393.359375 L 408.007812 355.9375 L 399.917969 355.9375 L 399.917969 411.566406 L 382.71875 411.566406 L 382.71875 355.933594 L 373.578125 355.933594 C 373.65625 374.480469 373.605469 393.023438 373.617188 411.566406 L 356.421875 411.566406 L 356.421875 369.085938 C 356.421875 366.570312 356.324219 364.046875 356.09375 362.164062 C 355.863281 360.28125 355.535156 359.035156 355.144531 358.027344 C 354.753906 357.015625 354.308594 356.242188 353.757812 355.574219 C 353.207031 354.90625 352.558594 354.347656 351.789062 353.871094 C 351.023438 353.390625 350.136719 352.988281 348.808594 352.683594 C 347.476562 352.378906 345.703125 352.164062 344.078125 352.050781 C 342.457031 351.9375 340.988281 351.925781 339.71875 352.074219 C 338.53125 352.214844 337.398438 352.53125 336.308594 353.019531 C 335.199219 353.515625 334.164062 354.128906 333.195312 354.867188 C 332.210938 355.617188 331.320312 356.472656 330.53125 357.429688 C 329.765625 358.351562 329.132812 359.359375 328.632812 360.453125 C 328.128906 361.554688 327.75 362.765625 327.488281 364.199219 C 327.226562 365.628906 327.085938 367.273438 327.085938 368.917969 L 327.085938 411.566406 L 309.890625 411.566406 L 309.890625 362.183594 L 274.074219 397.125 C 279.597656 399.199219 286.171875 398.703125 292.585938 395.761719 C 295.851562 394.253906 299.035156 392.101562 301.800781 389.507812 L 301.800781 408.859375 C 293.949219 413.695312 284.457031 415.597656 275.5 414.125 C 270.945312 413.382812 266.65625 411.882812 262.636719 409.625 C 257.492188 415.53125 251.402344 420.621094 244.683594 424.609375 C 237.902344 428.628906 230.664062 431.472656 222.960938 433.144531 C 215.222656 434.820312 207.417969 435.25 199.542969 434.429688 C 191.683594 433.613281 184.152344 431.582031 176.945312 428.339844 C 169.773438 425.101562 163.289062 420.820312 157.496094 415.488281 C 151.707031 410.160156 146.90625 404.054688 143.085938 397.175781 C 135.4375 383.445312 132.449219 367.214844 134.53125 351.75 C 135.5625 343.972656 137.84375 336.378906 141.257812 329.351562 C 144.667969 322.324219 149.210938 315.863281 154.652344 310.277344 C 160.140625 304.640625 166.378906 300.011719 173.367188 296.390625 C 187.21875 289.179688 203.527344 286.585938 219.03125 289.117188 C 226.820312 290.378906 234.21875 292.828125 241.222656 296.46875 C 248.144531 300.070312 254.46875 304.785156 259.90625 310.40625 C 265.34375 316.027344 269.898438 322.5625 273.328125 329.636719 L 245.929688 329.636719 C 241.847656 324.6875 236.808594 320.515625 231.164062 317.457031 C 225.515625 314.402344 219.261719 312.457031 212.851562 311.742188 C 206.4375 311.027344 199.871094 311.542969 193.660156 313.269531 C 187.390625 315.015625 181.675781 317.878906 176.523438 321.859375 C 171.375 325.839844 167.167969 330.644531 163.902344 336.269531 C 160.675781 341.832031 158.539062 348.042969 157.640625 354.449219 C 156.742188 360.855469 157.082031 367.464844 158.640625 373.734375 C 160.199219 380 162.976562 385.929688 166.769531 391.117188 C 170.609375 396.363281 175.296875 400.699219 180.828125 404.121094 C 186.378906 407.542969 192.371094 409.789062 198.808594 410.855469 C 205.21875 411.917969 211.929688 411.75 218.472656 410.320312 C 225.011719 408.886719 231.378906 406.191406 237.058594 402.464844 L 247.332031 393.65625 C 245.210938 389.476562 243.890625 385.058594 243.363281 380.402344 C 242.847656 375.761719 243.164062 371.175781 244.320312 366.648438 C 245.476562 362.125 247.394531 357.953125 250.066406 354.128906 C 252.746094 350.304688 256.007812 347.074219 259.859375 344.4375 C 267.539062 339.128906 277.160156 336.914062 286.210938 338 C 290.773438 338.53125 295.191406 339.851562 299.222656 341.96875 C 303.253906 344.085938 306.898438 347 309.890625 350.472656 L 309.890625 339.75 L 327.085938 339.75 L 327.085938 344.332031 C 328.605469 343.078125 330.328125 342.074219 332.570312 341.21875 C 334.8125 340.363281 337.578125 339.652344 340.703125 339.21875 C 343.828125 338.785156 347.316406 338.628906 350.453125 338.785156 C 353.589844 338.9375 356.375 339.40625 358.792969 340.113281 C 361.207031 340.824219 363.257812 341.773438 365.066406 342.933594 C 366.875 344.09375 368.441406 345.464844 369.703125 346.945312 C 370.964844 348.425781 371.925781 350.019531 372.601562 351.722656 L 372.601562 338.738281 Z M 291.160156 356.074219 C 288.53125 354.839844 285.769531 354.132812 282.875 353.953125 C 279.992188 353.777344 277.183594 354.152344 274.445312 355.074219 C 271.75 355.984375 269.230469 357.417969 267.070312 359.273438 C 264.910156 361.128906 263.109375 363.398438 261.800781 365.925781 C 260.472656 368.484375 259.675781 371.203125 259.410156 374.074219 C 259.148438 376.960938 259.429688 379.796875 260.25 382.578125 Z M 496.011719 411.566406 L 478.8125 411.566406 L 478.8125 339.75 L 496.011719 339.75 L 496.011719 344.332031 C 497.230469 343.007812 498.617188 341.835938 499.9375 340.992188 C 502.507812 339.398438 504.816406 338.800781 507.136719 338.738281 L 525.34375 338.738281 L 525.34375 380.515625 L 554.679688 338.738281 L 574.910156 338.738281 L 508.148438 433.820312 L 487.917969 433.820312 L 507.136719 406.449219 L 507.136719 356.40625 C 505.507812 356.867188 504 357.578125 502.613281 358.550781 C 501.203125 359.539062 499.984375 360.722656 498.960938 362.105469 C 497.964844 363.457031 497.242188 364.929688 496.746094 366.761719 C 496.25 368.59375 496.007812 370.785156 496.007812 372.964844 L 496.007812 411.566406 Z M 612.335938 387.292969 L 655.832031 387.292969 L 655.832031 521.820312 L 630.542969 521.820312 L 630.542969 411.566406 L 617.351562 411.566406 C 618.777344 415.320312 619.835938 419.171875 620.527344 423.125 C 621.207031 427.015625 621.5 430.886719 621.296875 434.371094 C 621.089844 437.855469 620.390625 440.949219 619.363281 443.882812 C 618.335938 446.820312 616.980469 449.597656 615.207031 452.027344 C 613.433594 454.460938 611.242188 456.542969 609.523438 458.207031 C 607.796875 459.871094 606.492188 461.058594 605.265625 462.328125 L 571.273438 497.542969 L 623.460938 497.542969 L 623.460938 521.820312 L 537.480469 521.820312 L 537.480469 497.542969 L 592.882812 441.210938 C 593.898438 440.175781 594.710938 438.949219 595.417969 437.304688 C 596.125 435.660156 596.722656 433.589844 597.058594 431.558594 C 597.390625 429.53125 597.464844 427.546875 597.289062 425.773438 C 597.117188 424 596.695312 422.441406 596.015625 420.980469 C 595.339844 419.519531 594.40625 418.160156 593.195312 416.894531 C 591.988281 415.628906 590.503906 414.460938 588.84375 413.492188 C 585.421875 411.488281 581.378906 410.496094 577.46875 410.59375 C 575.46875 410.632812 573.511719 410.9375 571.589844 411.5 C 569.785156 412.035156 568.085938 412.8125 566.503906 413.832031 C 564.964844 414.820312 563.621094 416.023438 562.46875 417.441406 C 561.300781 418.886719 560.304688 420.589844 559.5 422.472656 C 558.691406 424.351562 558.074219 426.40625 557.777344 428.164062 C 557.484375 429.925781 557.511719 431.390625 557.800781 432.808594 L 533.480469 432.808594 C 533.394531 429.183594 533.832031 425.550781 534.894531 421.53125 C 535.960938 417.511719 537.648438 413.105469 540 409.050781 C 542.375 404.96875 545.328125 401.355469 548.855469 398.214844 C 552.355469 395.101562 556.261719 392.632812 560.574219 390.808594 C 564.859375 388.996094 569.484375 387.875 574.183594 387.492188 C 578.882812 387.105469 583.660156 387.453125 588.171875 388.5 C 592.679688 389.546875 596.914062 391.289062 600.996094 393.871094 C 605.078125 396.457031 609.003906 399.882812 612.335938 403.800781 Z M 671.203125 517.449219 L 673.292969 517.449219 L 673.292969 517.042969 C 672.882812 517.042969 672.566406 516.90625 672.382812 516.542969 L 670.796875 513.910156 C 671.65625 513.546875 672.246094 513 672.246094 512.046875 C 672.246094 510.324219 670.523438 510.007812 669.207031 510.007812 L 665.347656 510.007812 L 665.347656 510.367188 L 665.710938 510.367188 C 666.300781 510.367188 666.390625 510.640625 666.390625 511.140625 L 666.390625 516.269531 C 666.390625 516.996094 666.074219 517.039062 665.394531 517.039062 L 665.394531 517.449219 L 669.160156 517.449219 L 669.160156 517.039062 L 668.796875 517.039062 C 668.253906 517.039062 668.117188 516.769531 668.117188 516.269531 L 668.117188 513.910156 L 669.160156 513.910156 Z M 668.117188 513.546875 L 668.117188 510.503906 C 669.296875 510.503906 670.476562 510.503906 670.476562 512.046875 C 670.476562 513.136719 669.933594 513.546875 668.933594 513.546875 Z M 669.027344 520.808594 C 672.882812 520.808594 676.105469 517.632812 676.105469 513.726562 C 676.105469 509.824219 672.882812 506.648438 669.027344 506.648438 C 665.121094 506.648438 661.898438 509.824219 661.898438 513.726562 C 661.898438 517.632812 665.121094 520.808594 669.027344 520.808594 Z M 669.027344 520.039062 C 665.578125 520.039062 662.714844 517.179688 662.714844 513.726562 C 662.714844 510.277344 665.53125 507.417969 669.027344 507.417969 C 672.476562 507.417969 675.335938 510.277344 675.335938 513.726562 C 675.335938 517.179688 672.476562 520.039062 669.027344 520.039062 Z M 669.027344 520.039062 " fill-opacity="1" fill-rule="nonzero"/></g></svg>