<svg xmlns="http://www.w3.org/2000/svg" xmlns:xlink="http://www.w3.org/1999/xlink" width="1080" zoomAndPan="magnify" viewBox="0 0 810 809.999993" height="1080" preserveAspectRatio="xMidYMid meet" version="1.0"><defs><clipPath id="ec751ab19f"><path d="M 30 30 L 780 30 L 780 780 L 30 780 Z M 30 30 " clip-rule="nonzero"/></clipPath><clipPath id="79e6c45504"><path d="M 405 30 C 197.894531 30 30 197.894531 30 405 C 30 612.105469 197.894531 780 405 780 C 612.105469 780 780 612.105469 780 405 C 780 197.894531 612.105469 30 405 30 Z M 405 30 " clip-rule="nonzero"/></clipPath></defs><rect x="-81" width="972" fill="#ffffff" y="-80.999999" height="971.999992" fill-opacity="1"/><rect x="-81" width="972" fill="#ffffff" y="-80.999999" height="971.999992" fill-opacity="1"/><g clip-path="url(#ec751ab19f)"><g clip-path="url(#79e6c45504)"><path fill="#000000" d="M 30 30 L 780 30 L 780 780 L 30 780 Z M 30 30 " fill-opacity="1" fill-rule="nonzero"/></g></g><path fill="#ffde59" d="M 391.34375 64.628906 C 390.648438 64.675781 388.101562 64.816406 385.671875 64.953125 C 349.558594 67.015625 315.996094 74.28125 281.503906 87.476562 C 263.355469 94.445312 241.25 105.554688 224.214844 116.296875 C 206.828125 127.269531 190.765625 139.46875 175.601562 153.242188 C 170.695312 157.707031 156.691406 171.691406 152.660156 176.179688 C 129.050781 202.476562 110.464844 230.464844 96.066406 261.390625 C 77.292969 301.757812 66.875 344.46875 64.722656 389.722656 C 64.421875 396.132812 64.421875 413.867188 64.722656 420.277344 C 68.265625 495.554688 95.394531 565.484375 143.519531 623.285156 C 154.050781 635.925781 168.496094 650.671875 181.15625 661.714844 C 207.984375 685.117188 238.820312 704.46875 271.433594 718.425781 C 285.253906 724.351562 301.550781 730 315.785156 733.796875 C 338.632812 739.929688 360.71875 743.472656 385.785156 745.070312 C 391.992188 745.464844 411.992188 745.601562 419.121094 745.300781 C 441.828125 744.351562 463.703125 741.273438 485.554688 735.996094 C 518.773438 727.964844 550.507812 714.953125 579.746094 697.359375 C 604.050781 682.753906 624.445312 666.921875 644.558594 647.035156 C 671.089844 620.765625 692.382812 591.550781 709.167969 558.355469 C 729.628906 517.847656 741.757812 473.632812 744.816406 428.378906 C 745.53125 417.429688 745.742188 400.230469 745.277344 389.953125 C 744.328125 369.628906 741.757812 350.117188 737.523438 331.019531 C 725.183594 275.484375 699.304688 224.351562 661.714844 181.15625 C 657.753906 176.597656 652.984375 171.503906 647.707031 166.132812 C 634.792969 153.03125 623.589844 143.21875 609.050781 132.316406 C 592.058594 119.558594 575.578125 109.375 556.96875 100.140625 C 533.308594 88.402344 510.464844 80.046875 485.441406 73.980469 C 470.023438 70.253906 457.429688 68.125 437.5 65.878906 C 429.929688 65.046875 421.109375 64.675781 406.96875 64.605469 C 399.074219 64.582031 392.035156 64.582031 391.34375 64.628906 Z M 419.929688 92.5 C 454.816406 94.234375 487.941406 101.296875 519.328125 113.726562 C 564.976562 131.78125 604.398438 159.121094 637.382812 195.625 C 656.667969 216.945312 672.105469 239.535156 684.882812 265.183594 C 701.804688 299.144531 712.292969 334.976562 716.089844 371.898438 C 717.453125 385 717.824219 393.65625 717.660156 408.472656 C 717.476562 425.160156 716.621094 436.597656 714.351562 451.875 C 708.632812 490.695312 694.699219 529.816406 674.398438 564.144531 C 646.132812 611.945312 604.375 652.476562 556.019531 679.027344 C 516.296875 700.855469 473.378906 713.632812 428.84375 716.921875 C 412.546875 718.101562 393.472656 718.03125 378.265625 716.691406 C 350.023438 714.214844 324.421875 708.589844 298.402344 699.167969 C 263.703125 686.621094 230.53125 667.382812 203.03125 643.890625 C 163.867188 610.464844 134.421875 569.976562 115.371094 523.402344 C 103.65625 494.746094 96.503906 465.695312 93.566406 434.746094 C 92.570312 424.304688 92.40625 420.230469 92.382812 405.230469 C 92.382812 389.121094 92.660156 383.148438 94.027344 370.625 C 100.554688 310.230469 125.230469 252.058594 164.144531 205.347656 C 177.59375 189.214844 194.328125 172.777344 210.324219 160.070312 C 254.558594 124.839844 307.847656 102.199219 363.796875 94.839844 C 370.507812 93.957031 381.433594 92.964844 389.605469 92.523438 C 394.421875 92.246094 414.605469 92.246094 419.929688 92.5 Z M 419.929688 92.5 " fill-opacity="1" fill-rule="nonzero"/><path fill="#ffde59" d="M 402.570312 170.949219 C 399.976562 171.851562 399.234375 172.316406 388.609375 179.699219 C 387.292969 180.625 386.132812 181.390625 386.042969 181.390625 C 385.949219 181.390625 385.671875 181.574219 385.417969 181.804688 C 385.183594 182.035156 384.351562 182.640625 383.589844 183.125 C 382.359375 183.933594 377.058594 187.570312 376.390625 188.03125 C 376.273438 188.148438 375.996094 188.308594 375.785156 188.449219 C 375.371094 188.703125 373.265625 190.140625 362.40625 197.59375 C 361.203125 198.425781 360.046875 199.191406 359.839844 199.328125 C 358.425781 200.207031 357.429688 200.925781 357.359375 201.089844 C 357.316406 201.203125 357.175781 201.296875 357.082031 201.296875 C 356.96875 201.296875 355.785156 202.058594 354.492188 202.984375 C 352.082031 204.699219 349.097656 206.734375 344.003906 210.207031 C 338.308594 214.074219 335.71875 215.878906 335.183594 216.296875 C 335.070312 216.410156 334.722656 216.621094 334.46875 216.78125 C 334.191406 216.921875 332.015625 218.402344 329.605469 220.046875 C 327.222656 221.714844 325.09375 223.171875 324.90625 223.285156 C 324.722656 223.402344 323.890625 223.980469 323.054688 224.535156 C 320.949219 225.996094 317.015625 228.679688 313.332031 231.179688 C 311.621094 232.339844 309.515625 233.820312 308.65625 234.421875 C 307.800781 235.046875 307.035156 235.554688 306.96875 235.554688 C 306.898438 235.554688 306.410156 235.902344 305.855469 236.296875 C 305.300781 236.714844 304.628906 237.199219 304.398438 237.339844 C 304.167969 237.5 303.125 238.195312 302.105469 238.910156 C 301.089844 239.605469 300.09375 240.253906 299.90625 240.347656 C 299.722656 240.441406 299.421875 240.648438 299.214844 240.808594 C 298.867188 241.109375 294.191406 244.328125 288.101562 248.449219 C 286.644531 249.445312 285.394531 250.300781 285.324219 250.371094 C 285.253906 250.441406 284.492188 250.972656 283.589844 251.574219 C 280.300781 253.75 278.148438 256.15625 277.453125 258.355469 C 277.292969 258.867188 277.035156 259.535156 276.898438 259.839844 C 276.714844 260.253906 276.644531 285.808594 276.644531 353.933594 C 276.644531 451.621094 276.597656 447.683594 277.523438 450.253906 C 277.964844 451.503906 279.328125 453.472656 280.417969 454.46875 C 281.851562 455.765625 284.375 456.96875 286.367188 457.292969 C 287.59375 457.5 299.074219 457.546875 332.894531 457.476562 C 357.59375 457.429688 378.21875 457.316406 378.726562 457.222656 C 379.652344 457.058594 380.09375 456.875 382.128906 455.925781 C 383.542969 455.253906 385.671875 453.148438 386.433594 451.644531 C 387.546875 449.492188 387.660156 448.980469 387.683594 445.972656 C 387.707031 443.195312 387.617188 442.476562 386.828125 440.53125 C 386.667969 440.140625 386.410156 439.46875 386.25 439.027344 C 385.925781 438.101562 385.765625 437.660156 385.207031 436.367188 C 385 435.855469 384.746094 435.230469 384.652344 434.976562 C 384.535156 434.722656 384.351562 434.257812 384.214844 433.933594 C 384.097656 433.609375 383.703125 432.617188 383.355469 431.734375 C 383.007812 430.832031 382.640625 429.90625 382.523438 429.652344 C 382.222656 428.910156 380.207031 423.03125 379.953125 422.128906 C 379.144531 419.121094 378.125 414.816406 377.917969 413.332031 C 376.644531 404.839844 376.457031 399.699219 377.222656 395.046875 C 377.730469 391.875 377.894531 391.15625 378.148438 390.53125 C 378.242188 390.277344 378.632812 389.328125 378.980469 388.449219 C 379.328125 387.546875 379.859375 386.433594 380.160156 385.972656 C 380.464844 385.484375 380.695312 385.046875 380.695312 385 C 380.695312 384.929688 381.15625 384.234375 381.734375 383.425781 C 382.316406 382.617188 383.007812 381.597656 383.308594 381.15625 C 384.003906 380.140625 386.945312 377.359375 388.632812 376.109375 C 391.15625 374.234375 394.652344 372.476562 397.476562 371.667969 C 397.984375 371.527344 398.726562 371.296875 399.097656 371.179688 C 400.140625 370.855469 406.179688 370.230469 406.96875 370.371094 C 407.359375 370.441406 408.496094 370.601562 409.492188 370.742188 C 410.507812 370.855469 411.644531 371.066406 412.035156 371.179688 C 412.429688 371.296875 413.21875 371.527344 413.796875 371.691406 C 414.953125 371.992188 416.644531 372.640625 418.078125 373.308594 C 418.933594 373.726562 419.375 373.980469 421.179688 375.070312 C 423.21875 376.34375 427.984375 380.878906 429.421875 382.917969 C 430.09375 383.890625 431.621094 386.503906 431.621094 386.691406 C 431.621094 386.78125 431.875 387.359375 432.175781 388.007812 C 432.476562 388.632812 432.847656 389.558594 433.007812 390.070312 C 433.171875 390.578125 433.378906 391.203125 433.472656 391.457031 C 433.589844 391.714844 433.84375 392.800781 434.074219 393.890625 C 434.421875 395.484375 434.492188 396.875 434.492188 401.179688 C 434.46875 407.035156 434.28125 408.679688 432.777344 415.996094 C 432.476562 417.40625 431.15625 422.175781 430.71875 423.402344 C 430.578125 423.773438 430.09375 425.347656 429.628906 426.875 C 429.144531 428.402344 428.679688 429.746094 428.566406 429.859375 C 428.472656 430 428.378906 430.300781 428.378906 430.578125 C 428.378906 430.855469 428.285156 431.15625 428.195312 431.296875 C 428.078125 431.410156 427.800781 432.015625 427.59375 432.660156 C 427.359375 433.285156 426.992188 434.257812 426.734375 434.792969 C 426.503906 435.347656 426.296875 435.855469 426.296875 435.925781 C 426.296875 435.996094 426.132812 436.410156 425.949219 436.851562 C 424.976562 439.074219 424.792969 439.46875 423.566406 442.382812 C 423.054688 443.566406 419.816406 449.929688 419.535156 450.277344 C 419.421875 450.441406 418.796875 451.574219 418.148438 452.824219 C 417.5 454.074219 416.734375 455.464844 416.457031 455.925781 C 416.179688 456.367188 415.507812 457.617188 414.976562 458.703125 C 414.445312 459.792969 413.632812 461.296875 413.21875 462.058594 C 412.777344 462.824219 412.058594 464.167969 411.597656 465.070312 C 411.132812 465.949219 410.441406 467.269531 410.046875 467.964844 C 409.675781 468.65625 408.84375 470.230469 408.21875 471.433594 C 406.734375 474.257812 406.042969 475.441406 405.785156 475.53125 C 405.417969 475.648438 405.09375 475.253906 404.191406 473.519531 C 403.703125 472.570312 403.171875 471.574219 403.054688 471.320312 C 402.269531 469.859375 400.046875 467.269531 399.558594 467.269531 C 399.421875 467.269531 399.097656 467.082031 398.84375 466.851562 C 398.402344 466.457031 397.246094 465.925781 395.71875 465.441406 C 395.277344 465.300781 393.910156 465.183594 392.707031 465.183594 C 389.328125 465.183594 386.78125 466.273438 384.492188 468.703125 C 382.222656 471.066406 381.042969 474.953125 381.597656 478.195312 C 381.757812 479.121094 381.96875 480.09375 382.082031 480.347656 C 382.316406 480.972656 384.746094 485.855469 385.554688 487.292969 C 385.902344 487.917969 386.667969 489.328125 387.222656 490.417969 C 387.800781 491.503906 388.519531 492.800781 388.796875 493.308594 C 389.097656 493.820312 389.816406 495.160156 390.417969 496.320312 C 392.777344 500.785156 393.242188 501.644531 393.449219 501.875 C 393.566406 501.992188 393.65625 502.269531 393.65625 502.5 C 393.65625 502.730469 393.726562 502.917969 393.84375 502.917969 C 393.933594 502.917969 394.46875 503.820312 395.046875 504.929688 C 396.367188 507.453125 398.519531 509.722656 400.484375 510.671875 C 401.25 511.019531 402.058594 511.410156 402.316406 511.527344 C 402.941406 511.851562 408.472656 511.804688 408.773438 511.503906 C 408.910156 511.367188 409.191406 511.25 409.375 511.25 C 410 511.25 412.175781 510.023438 413.242188 509.097656 C 413.820312 508.589844 414.582031 507.730469 414.953125 507.199219 C 415.625 506.226562 417.683594 502.5 418.726562 500.371094 C 419.003906 499.792969 419.28125 499.28125 419.351562 499.214844 C 419.421875 499.144531 419.792969 498.472656 420.160156 497.707031 C 420.53125 496.945312 421.089844 495.925781 421.390625 495.441406 C 421.667969 494.953125 422.523438 493.402344 423.265625 491.96875 C 424.003906 490.53125 424.816406 489.003906 425.09375 488.542969 C 425.347656 488.078125 426.089844 486.667969 426.757812 485.417969 C 427.429688 484.144531 428.242188 482.59375 428.589844 481.96875 C 429.191406 480.902344 430 479.398438 432.035156 475.601562 C 434.328125 471.34375 435.160156 469.792969 435.832031 468.425781 C 436.25 467.59375 436.667969 466.875 436.78125 466.851562 C 436.875 466.804688 436.945312 466.574219 436.945312 466.34375 C 436.945312 466.109375 437.035156 465.855469 437.152344 465.785156 C 437.269531 465.71875 437.753906 464.882812 438.21875 463.980469 C 439.582031 461.34375 441.296875 458.125 441.527344 457.777344 C 441.574219 457.707031 460.324219 457.59375 483.195312 457.523438 C 509.769531 457.453125 525.160156 457.316406 525.832031 457.175781 C 529.074219 456.433594 532.128906 453.890625 533.726562 450.601562 C 534.535156 448.933594 534.515625 450.742188 534.515625 354.191406 C 534.515625 272.753906 534.46875 260.070312 534.191406 259.167969 C 533.195312 256.089844 530.972656 253.449219 527.871094 251.644531 C 527.082031 251.203125 520.578125 246.757812 516.109375 243.632812 C 511.992188 240.765625 510.554688 239.792969 509.027344 238.796875 C 507.964844 238.101562 499.746094 232.476562 497.015625 230.554688 C 495.484375 229.492188 493.957031 228.449219 493.589844 228.265625 C 493.03125 227.941406 490.09375 225.902344 484.28125 221.828125 C 482.847656 220.808594 479.398438 218.472656 478.425781 217.847656 C 477.617188 217.316406 472.453125 213.796875 472.246094 213.609375 C 472.128906 213.519531 471.296875 212.941406 470.394531 212.339844 C 469.515625 211.757812 468.195312 210.878906 467.5 210.394531 C 466.804688 209.90625 464.46875 208.285156 462.292969 206.828125 C 460.140625 205.347656 456.898438 203.125 455.117188 201.898438 C 453.332031 200.671875 451.714844 199.558594 451.527344 199.445312 C 451.34375 199.328125 449.304688 197.917969 447.015625 196.34375 C 444.722656 194.746094 441.226562 192.359375 439.257812 191.019531 C 437.292969 189.699219 434.675781 187.917969 433.472656 187.082031 C 432.269531 186.226562 429.167969 184.144531 426.621094 182.429688 C 424.050781 180.71875 419.929688 177.894531 417.476562 176.15625 C 412.453125 172.640625 410.785156 171.644531 408.796875 170.972656 C 407.058594 170.394531 404.191406 170.371094 402.570312 170.949219 Z M 402.570312 170.949219 " fill-opacity="1" fill-rule="nonzero"/><path fill="#ffde59" d="M 347.730469 529.605469 C 346.109375 530.53125 345.925781 530.996094 345.71875 534.445312 C 345.441406 539.214844 345.464844 594.816406 345.742188 596.644531 C 346.226562 599.722656 346.503906 600.554688 347.730469 602.984375 C 348.980469 605.417969 352.082031 608.355469 354.882812 609.722656 C 357.59375 611.042969 358.566406 611.25 362.082031 611.25 C 365.140625 611.25 366.25 611.066406 367.917969 610.253906 C 369.859375 609.328125 369.816406 609.492188 369.816406 602.292969 C 369.816406 595.347656 369.769531 595.070312 368.449219 594.144531 C 368.078125 593.867188 367.523438 593.65625 367.222656 593.65625 C 366.203125 593.65625 364.445312 592.871094 363.910156 592.152344 L 363.402344 591.457031 L 363.265625 561.875 L 363.125 532.292969 L 362.59375 531.203125 C 362.222656 530.464844 361.757812 529.953125 361.132812 529.605469 C 360.253906 529.097656 359.976562 529.074219 354.421875 529.074219 C 348.867188 529.074219 348.589844 529.097656 347.730469 529.605469 Z M 347.730469 529.605469 " fill-opacity="1" fill-rule="nonzero"/><path fill="#ffde59" d="M 442.640625 529.605469 C 442.128906 529.882812 441.503906 530.484375 441.25 530.925781 C 440.765625 531.734375 440.765625 531.804688 440.765625 569.816406 L 440.765625 607.894531 L 441.34375 608.75 C 442.476562 610.417969 442.570312 610.441406 449.445312 610.441406 C 455.09375 610.441406 455.625 610.394531 456.320312 610 C 457.941406 609.003906 457.941406 609.003906 458.054688 602.152344 C 458.148438 596.367188 458.171875 595.925781 458.632812 595.347656 C 459.003906 594.839844 459.304688 594.675781 460.160156 594.628906 C 461.203125 594.558594 461.226562 594.582031 462.152344 595.832031 C 462.683594 596.527344 463.101562 597.175781 463.101562 597.222656 C 463.101562 597.359375 464.976562 600.371094 467.152344 603.726562 C 467.824219 604.746094 468.84375 606.34375 469.445312 607.269531 C 471.597656 610.601562 472.523438 610.855469 481.78125 610.742188 C 488.03125 610.671875 488.773438 610.578125 489.304688 609.769531 C 489.652344 609.257812 489.492188 608.285156 488.910156 607.453125 C 488.589844 606.992188 488.332031 606.527344 488.332031 606.433594 C 488.332031 606.34375 488.125 606.019531 487.871094 605.695312 C 487.246094 604.90625 484.652344 600.878906 481.273438 595.464844 C 480.554688 594.304688 476.734375 588.308594 475.902344 587.015625 C 475.347656 586.203125 474.90625 585.484375 474.90625 585.441406 C 474.90625 585.324219 473.84375 583.703125 473.542969 583.332031 C 473.054688 582.753906 472.570312 581.550781 472.660156 581.179688 C 472.707031 580.972656 476.527344 574.90625 481.132812 567.683594 C 487.753906 557.292969 489.492188 554.375 489.492188 553.796875 C 489.492188 552.382812 489.351562 552.359375 480.625 552.382812 C 472.222656 552.40625 471.921875 552.453125 470.832031 553.65625 C 470.277344 554.257812 466.78125 559.582031 465.765625 561.367188 C 465.394531 561.992188 464.746094 563.007812 464.328125 563.609375 C 463.910156 564.214844 463.566406 564.792969 463.542969 564.882812 C 463.519531 565.253906 461.527344 567.847656 460.949219 568.285156 C 460.417969 568.679688 460.277344 568.679688 459.628906 568.425781 C 458.03125 567.777344 458.125 568.867188 458.078125 549.167969 C 458.007812 529.304688 458.148438 530.765625 456.34375 529.628906 C 455.484375 529.074219 455.417969 529.074219 449.515625 529.074219 C 443.773438 529.074219 443.519531 529.097656 442.640625 529.605469 Z M 442.640625 529.605469 " fill-opacity="1" fill-rule="nonzero"/><path fill="#ffde59" d="M 499.582031 529.605469 C 499.074219 529.882812 498.566406 530.324219 498.425781 530.578125 C 498.285156 530.832031 498.078125 531.109375 497.941406 531.203125 C 497.570312 531.480469 497.546875 543.21875 497.917969 543.65625 C 498.078125 543.84375 498.285156 544.191406 498.355469 544.398438 C 498.449219 544.628906 498.84375 545.023438 499.257812 545.277344 C 499.976562 545.71875 500.441406 545.742188 506.480469 545.742188 L 512.941406 545.742188 L 513.933594 544.722656 L 514.953125 543.726562 L 514.953125 537.546875 C 514.953125 533.65625 514.859375 531.179688 514.699219 530.902344 C 514.582031 530.648438 514.050781 530.140625 513.519531 529.769531 L 512.570312 529.074219 L 506.527344 529.074219 C 500.695312 529.074219 500.464844 529.097656 499.582031 529.605469 Z M 499.582031 529.605469 " fill-opacity="1" fill-rule="nonzero"/><path fill="#ffde59" d="M 597.941406 529.515625 C 597.035156 530.070312 596.320312 530.878906 596.089844 531.621094 C 595.972656 531.945312 595.832031 536.621094 595.765625 542.035156 L 595.625 551.875 L 590.878906 551.921875 C 585.648438 551.992188 584.46875 552.199219 583.472656 553.195312 C 582.570312 554.074219 582.5 554.839844 582.59375 560.949219 C 582.660156 566.042969 582.660156 566.089844 583.242188 566.691406 C 584.28125 567.800781 584.492188 567.847656 590.183594 567.964844 L 595.625 568.078125 L 595.765625 582.199219 C 595.855469 590.253906 596.019531 596.921875 596.15625 597.707031 C 597.175781 603.632812 600.949219 608.195312 606.734375 610.554688 C 608.078125 611.089844 609.746094 611.34375 612.316406 611.320312 C 616.042969 611.320312 618.148438 610.785156 619.398438 609.515625 C 619.929688 609.003906 620.023438 608.632812 620.183594 606.898438 C 620.441406 603.867188 620.117188 596.320312 619.699219 595.53125 C 619.234375 594.605469 618.03125 593.65625 617.339844 593.65625 C 616.828125 593.65625 615.785156 593.285156 614.722656 592.753906 C 614.535156 592.660156 614.214844 592.246094 613.980469 591.828125 C 613.589844 591.132812 613.566406 590.300781 613.609375 579.582031 L 613.679688 568.078125 L 619.003906 567.964844 C 621.945312 567.894531 624.535156 567.753906 624.792969 567.640625 C 625.371094 567.359375 625.601562 567.128906 626.179688 566.226562 C 626.574219 565.578125 626.621094 565.070312 626.597656 559.953125 C 626.597656 554.492188 626.597656 554.351562 626.066406 553.609375 C 625.117188 552.269531 624.421875 552.128906 618.773438 551.992188 L 613.679688 551.875 L 613.566406 541.921875 C 613.449219 532.40625 613.425781 531.921875 612.964844 531.042969 C 612.683594 530.484375 612.105469 529.90625 611.574219 529.605469 C 610.695312 529.097656 610.464844 529.074219 604.652344 529.074219 C 599.191406 529.074219 598.566406 529.121094 597.941406 529.515625 Z M 597.941406 529.515625 " fill-opacity="1" fill-rule="nonzero"/><path fill="#ffde59" d="M 205.925781 551.574219 C 201.804688 552.683594 200.855469 553.03125 198.171875 554.351562 C 195.785156 555.53125 193.703125 557.058594 191.597656 559.144531 C 189.839844 560.902344 187.40625 563.910156 187.40625 564.351562 C 187.40625 564.445312 187.152344 564.859375 186.828125 565.277344 C 186.503906 565.695312 186.25 566.132812 186.25 566.25 C 186.25 566.367188 185.972656 567.035156 185.625 567.730469 C 185.300781 568.425781 184.929688 569.191406 184.816406 569.398438 C 184.722656 569.628906 184.628906 570 184.628906 570.230469 C 184.628906 570.464844 184.558594 570.742188 184.46875 570.832031 C 183.796875 571.480469 183.148438 576.320312 183.125 580.464844 C 183.125 584.699219 183.496094 587.453125 184.398438 589.839844 C 184.492188 590.09375 184.699219 590.71875 184.859375 591.226562 C 185.140625 592.082031 185.785156 593.609375 186.644531 595.394531 C 188.007812 598.265625 190.765625 601.691406 193.773438 604.191406 C 197.152344 607.035156 200.023438 608.65625 204.121094 610.070312 C 207.476562 611.203125 210.601562 611.714844 214.515625 611.714844 C 218.75 611.714844 221.066406 611.390625 224.675781 610.300781 C 227.152344 609.535156 228.496094 608.957031 230.765625 607.707031 C 232.617188 606.667969 233.054688 606.320312 233.726562 605.371094 C 234.535156 604.28125 234.628906 602.871094 233.980469 601.714844 C 233.21875 600.371094 232.035156 598.195312 231.550781 597.246094 C 230.695312 595.625 229.582031 594.398438 228.703125 594.121094 C 227.824219 593.820312 225.972656 593.933594 225.207031 594.304688 C 223.378906 595.230469 223.21875 595.277344 220.625 595.949219 C 218.265625 596.550781 213.265625 596.480469 210.183594 595.785156 C 206.96875 595.09375 203.101562 592.058594 201.410156 588.933594 C 200.855469 587.894531 200.785156 587.59375 201.019531 587.359375 C 201.25 587.128906 204.699219 587.058594 218.054688 587.058594 L 234.769531 587.058594 L 235.878906 586.480469 C 237.269531 585.765625 238.449219 584.421875 238.910156 582.984375 C 239.558594 581.042969 239.214844 575.046875 238.265625 571.621094 C 238.101562 571.019531 237.894531 570.464844 237.800781 570.371094 C 237.707031 570.277344 237.640625 570.046875 237.640625 569.839844 C 237.640625 569.652344 237.429688 569.074219 237.199219 568.566406 C 236.945312 568.03125 236.527344 567.128906 236.273438 566.527344 C 235.695312 565.253906 233.609375 562.128906 232.5 560.855469 C 230.394531 558.496094 227.035156 555.808594 224.605469 554.558594 C 223.820312 554.144531 223.007812 553.726562 222.824219 553.632812 C 221.691406 553.03125 221.410156 552.917969 221.089844 552.917969 C 220.902344 552.917969 220.554688 552.824219 220.324219 552.707031 C 219.675781 552.382812 218.21875 551.96875 216.597656 551.621094 C 214.839844 551.25 207.222656 551.203125 205.925781 551.574219 Z M 214.257812 566.828125 C 216.042969 567.246094 218.242188 568.449219 219.46875 569.699219 C 220.765625 571.019531 221.898438 573.078125 221.898438 574.050781 L 221.898438 574.675781 L 211.898438 574.628906 L 201.875 574.558594 L 201.804688 573.980469 C 201.734375 573.285156 203.054688 570.996094 204.257812 569.746094 C 205.902344 568.054688 208.007812 567.015625 210.695312 566.597656 C 211.898438 566.410156 212.546875 566.457031 214.257812 566.828125 Z M 214.257812 566.828125 " fill-opacity="1" fill-rule="nonzero"/><path fill="#ffde59" d="M 268.773438 551.574219 C 268.265625 551.714844 267.429688 551.945312 266.921875 552.128906 C 266.390625 552.316406 265.808594 552.453125 265.578125 552.453125 C 265.371094 552.453125 265 552.546875 264.769531 552.660156 C 264.558594 552.777344 263.566406 553.242188 262.546875 553.703125 C 259.699219 555.023438 257.660156 556.457031 255.230469 558.890625 C 252.683594 561.433594 251.945312 562.429688 250.648438 565.070312 C 249.121094 568.101562 248.402344 570.695312 247.777344 575.140625 C 247.382812 577.941406 247.429688 600.601562 247.824219 605.09375 C 248.125 608.425781 248.589844 609.558594 249.839844 610.046875 C 252.964844 611.273438 261.828125 610.925781 263.703125 609.492188 C 265.183594 608.378906 265.183594 608.425781 265.183594 591.714844 L 265.183594 576.667969 L 265.808594 574.722656 C 266.273438 573.242188 266.667969 572.523438 267.453125 571.644531 C 268.632812 570.324219 270 569.351562 271.273438 568.910156 C 272.269531 568.589844 275.601562 568.542969 276.226562 568.867188 C 276.457031 568.980469 276.96875 569.214844 277.339844 569.375 C 279.097656 570.160156 280.949219 572.105469 281.574219 573.820312 C 282.269531 575.765625 282.359375 577.617188 282.523438 592.730469 C 282.683594 611.390625 282.339844 609.792969 286.503906 610.371094 C 290.070312 610.855469 296.574219 610.695312 298.65625 610.070312 C 299.050781 609.953125 299.628906 609.582031 299.929688 609.257812 L 300.484375 608.65625 L 300.625 592.660156 C 300.785156 575.925781 300.785156 575.625 301.898438 573.148438 C 302.359375 572.105469 304.515625 569.953125 305.578125 569.492188 C 306.089844 569.257812 306.691406 568.980469 306.898438 568.867188 C 307.5 568.566406 311.019531 568.609375 311.945312 568.957031 C 315 570.070312 316.597656 571.898438 317.640625 575.484375 C 318.03125 576.757812 318.054688 578.125 317.984375 591.691406 C 317.941406 604.746094 317.984375 606.621094 318.308594 607.546875 C 318.679688 608.589844 319.375 609.492188 320.117188 609.882812 C 321.621094 610.71875 329.167969 611.066406 331.96875 610.464844 C 334.535156 609.90625 334.953125 609.304688 335.324219 605.578125 C 335.648438 602.40625 335.484375 575.765625 335.140625 573.519531 C 334.605469 570.207031 333.933594 567.917969 332.964844 565.996094 C 331.320312 562.777344 330.902344 562.128906 329.121094 560.09375 C 326.734375 557.339844 324.121094 555.394531 320.625 553.726562 C 319.605469 553.265625 318.589844 552.777344 318.378906 552.660156 C 318.148438 552.546875 317.777344 552.453125 317.570312 552.453125 C 317.339844 552.453125 316.757812 552.316406 316.226562 552.128906 C 315.71875 551.96875 314.816406 551.691406 314.191406 551.550781 C 312.847656 551.226562 306.109375 551.203125 305.140625 551.527344 C 304.746094 551.644531 303.796875 551.898438 303.03125 552.105469 C 299.558594 553.03125 297.128906 554.097656 294.234375 555.972656 C 293.078125 556.734375 291.921875 557.316406 291.574219 557.316406 C 291.226562 557.316406 290.140625 556.757812 289.050781 556.042969 C 287.40625 554.953125 285.785156 554.097656 283.589844 553.148438 C 283.332031 553.03125 282.707031 552.824219 282.199219 552.660156 C 281.691406 552.523438 281.019531 552.292969 280.695312 552.199219 C 278.519531 551.433594 270.878906 551.042969 268.773438 551.574219 Z M 268.773438 551.574219 " fill-opacity="1" fill-rule="nonzero"/><path fill="#ffde59" d="M 397.59375 551.644531 C 396.898438 551.804688 395.996094 551.96875 395.578125 551.96875 C 395.183594 551.992188 394.769531 552.082031 394.699219 552.222656 C 394.628906 552.339844 394.28125 552.453125 393.933594 552.453125 C 392.824219 552.453125 388.84375 554.097656 386.25 555.601562 C 383.195312 557.382812 379.816406 560.300781 378.195312 562.523438 C 377.730469 563.148438 377.292969 563.726562 377.199219 563.796875 C 377.128906 563.867188 376.691406 564.515625 376.226562 565.230469 C 374.074219 568.632812 372.730469 572.152344 371.804688 576.875 C 371.320312 579.28125 371.320312 584.097656 371.78125 586.066406 C 371.96875 586.875 372.246094 588.03125 372.382812 588.679688 C 373.171875 592.292969 375.324219 596.734375 377.984375 600.253906 C 379.191406 601.851562 382.199219 604.699219 383.867188 605.785156 C 384.351562 606.109375 385.160156 606.667969 385.671875 607.015625 C 387.871094 608.472656 392.128906 610.253906 394.816406 610.832031 C 397.246094 611.34375 401.066406 611.550781 404.144531 611.296875 C 407.800781 611.019531 408.632812 610.855469 411.410156 609.90625 C 414.214844 608.933594 414.558594 608.933594 415.117188 610.023438 C 415.371094 610.507812 415.925781 611.109375 416.367188 611.367188 C 417.105469 611.804688 417.570312 611.828125 423.171875 611.828125 C 428.957031 611.828125 429.214844 611.804688 430 611.320312 C 430.441406 611.042969 431.019531 610.464844 431.273438 610.046875 C 431.714844 609.328125 431.734375 608.726562 431.804688 597.59375 C 431.898438 585.902344 431.621094 577.015625 431.132812 575.253906 C 430.996094 574.746094 430.785156 573.910156 430.648438 573.402344 C 429.121094 567.5 424.746094 561.089844 419.816406 557.476562 C 419.121094 556.96875 418.496094 556.480469 418.425781 556.410156 C 418.355469 556.34375 417.847656 556.019531 417.269531 555.71875 C 416.691406 555.417969 416.066406 555.023438 415.855469 554.859375 C 415.671875 554.675781 415.371094 554.535156 415.230469 554.535156 C 415.09375 554.535156 414.515625 554.304688 413.980469 554.003906 C 413.425781 553.703125 412.199219 553.242188 411.25 552.941406 C 410.300781 552.660156 409.167969 552.316406 408.726562 552.175781 C 406.320312 551.433594 399.792969 551.132812 397.59375 551.644531 Z M 405.117188 569.398438 C 408.933594 570.417969 412.707031 573.933594 413.84375 577.570312 C 414.398438 579.28125 414.675781 582.152344 414.445312 583.449219 C 413.84375 586.851562 412.894531 588.75 410.808594 590.855469 C 409.257812 592.40625 406.96875 593.75 404.882812 594.351562 C 403.796875 594.652344 399.027344 594.558594 397.824219 594.191406 C 396.273438 593.726562 394.746094 592.894531 393.703125 591.921875 C 393.355469 591.597656 393.007812 591.34375 392.917969 591.34375 C 392.800781 591.34375 392.246094 590.695312 391.667969 589.90625 C 390.554688 588.402344 389.582031 586.503906 389.191406 585.117188 C 388.820312 583.773438 388.726562 580.464844 389.050781 579.074219 C 389.492188 577.105469 390.765625 574.652344 392.128906 573.148438 C 393.402344 571.734375 395.925781 570.070312 397.5 569.558594 C 399.421875 568.957031 403.195312 568.867188 405.117188 569.398438 Z M 405.117188 569.398438 " fill-opacity="1" fill-rule="nonzero"/><path fill="#ffde59" d="M 546.667969 551.574219 C 544.375 552.175781 543.265625 552.523438 542.917969 552.707031 C 542.683594 552.824219 542.359375 552.917969 542.199219 552.917969 C 541.828125 552.917969 538.75 554.445312 537.152344 555.394531 C 534.167969 557.199219 530.253906 560.996094 528.726562 563.566406 C 528.589844 563.796875 528.355469 564.121094 528.21875 564.28125 C 527.824219 564.769531 525.832031 568.773438 525.832031 569.097656 C 525.832031 569.234375 525.742188 569.535156 525.625 569.769531 C 525.507812 569.976562 525.253906 570.742188 525.070312 571.433594 C 524.859375 572.128906 524.558594 573.171875 524.398438 573.75 C 523.980469 575.160156 523.980469 585.417969 524.398438 587.058594 C 524.90625 589.097656 525.417969 590.742188 525.625 591.15625 C 525.742188 591.390625 525.832031 591.714844 525.832031 591.898438 C 525.832031 592.429688 527.941406 596.367188 529.304688 598.402344 C 530.441406 600.09375 535.53125 605.464844 535.996094 605.464844 C 536.109375 605.464844 536.480469 605.695312 536.828125 605.972656 C 537.941406 606.875 543.03125 609.628906 543.566406 609.628906 C 543.632812 609.628906 544.027344 609.769531 544.421875 609.953125 C 545.625 610.464844 547.292969 610.878906 550.832031 611.503906 C 551.667969 611.644531 553.496094 611.804688 554.882812 611.828125 C 557.246094 611.898438 557.984375 611.828125 561.480469 611.25 C 564.027344 610.832031 564.375 610.765625 564.839844 610.578125 C 565.09375 610.464844 565.71875 610.253906 566.226562 610.09375 C 567.292969 609.769531 568.308594 609.328125 569.929688 608.542969 C 574.097656 606.503906 575.140625 605.507812 575.140625 603.542969 C 575.140625 602.382812 575.046875 602.152344 572.222656 596.945312 C 571.851562 596.273438 571.15625 595.347656 570.695312 594.882812 C 569.859375 594.074219 569.746094 594.027344 568.265625 594.027344 C 567.015625 594.003906 566.410156 594.144531 565.347656 594.628906 C 564.605469 595 563.910156 595.277344 563.796875 595.277344 C 563.65625 595.277344 563.378906 595.371094 563.148438 595.484375 C 561.226562 596.480469 554.628906 596.644531 550.949219 595.785156 C 549.816406 595.53125 546.898438 594.144531 546.898438 593.867188 C 546.898438 593.75 546.757812 593.65625 546.597656 593.65625 C 546.15625 593.65625 543.820312 591.25 542.847656 589.816406 C 541.898438 588.378906 541.644531 587.546875 542.082031 587.269531 C 542.246094 587.152344 549.882812 587.082031 559.050781 587.058594 L 575.71875 587.058594 L 576.78125 586.433594 C 577.984375 585.71875 578.867188 584.769531 579.535156 583.449219 C 580.230469 582.128906 580.207031 576.433594 579.515625 573.703125 C 579.257812 572.640625 578.980469 571.527344 578.910156 571.203125 C 578.867188 570.878906 578.726562 570.417969 578.609375 570.160156 C 578.519531 569.90625 578.195312 569.121094 577.917969 568.425781 C 577.082031 566.34375 576.691406 565.578125 576.132812 564.816406 C 575.832031 564.421875 575.601562 564.003906 575.601562 563.890625 C 575.601562 563.773438 574.839844 562.753906 573.910156 561.597656 C 572.058594 559.304688 569.234375 556.78125 567.269531 555.671875 C 566.574219 555.253906 565.949219 554.859375 565.878906 554.792969 C 565.765625 554.652344 563.425781 553.519531 562.523438 553.148438 C 561.550781 552.753906 559.328125 552.105469 557.175781 551.550781 C 556.019531 551.25 547.800781 551.25 546.667969 551.574219 Z M 554.492188 566.714844 C 556.757812 567.175781 558.472656 568.007812 560.023438 569.421875 C 561.921875 571.179688 563.402344 574.191406 562.5 574.535156 C 561.804688 574.792969 542.777344 574.699219 542.617188 574.421875 C 542.359375 574.003906 543.195312 572.128906 544.28125 570.71875 C 545.253906 569.421875 547.246094 567.871094 548.632812 567.316406 C 549.214844 567.082031 551.875 566.433594 552.523438 566.367188 C 552.617188 566.34375 553.519531 566.503906 554.492188 566.714844 Z M 554.492188 566.714844 " fill-opacity="1" fill-rule="nonzero"/><path fill="#ffde59" d="M 500.253906 552.382812 C 499.421875 552.5 498.449219 553.378906 497.941406 554.421875 C 497.640625 555.09375 497.59375 558.703125 497.59375 586.132812 C 497.59375 620.253906 497.707031 617.777344 496.132812 618.980469 C 495.625 619.375 495.046875 619.582031 494.492188 619.582031 C 493.679688 619.582031 492.222656 620.300781 491.644531 620.996094 C 490.902344 621.921875 490.648438 623.820312 490.648438 628.542969 C 490.648438 633.957031 490.878906 635.183594 492.128906 636.109375 C 493.566406 637.199219 498.472656 638.171875 499.90625 637.660156 C 500.324219 637.523438 500.996094 637.40625 501.390625 637.40625 C 502.292969 637.40625 505.394531 636.410156 506.574219 635.765625 C 507.941406 634.976562 510.230469 633.078125 511.066406 632.015625 C 511.480469 631.480469 511.992188 630.855469 512.175781 630.648438 C 512.800781 629.953125 513.957031 627.40625 514.722656 625.070312 C 514.929688 624.398438 515 616.132812 514.976562 589.421875 C 514.953125 551.226562 515.046875 553.890625 513.589844 552.800781 C 513.03125 552.359375 512.59375 552.339844 506.96875 552.316406 C 503.65625 552.292969 500.648438 552.316406 500.253906 552.382812 Z M 500.253906 552.382812 " fill-opacity="1" fill-rule="nonzero"/></svg>