<svg xmlns="http://www.w3.org/2000/svg" xmlns:xlink="http://www.w3.org/1999/xlink" width="1080" zoomAndPan="magnify" viewBox="0 0 810 809.999993" height="1080" preserveAspectRatio="xMidYMid meet" version="1.0"><path fill="#ffde59" d="M 400.371094 57.917969 C 385.324219 58.472656 368.496094 60.160156 354.769531 62.5 C 292.730469 73.078125 236.042969 99.859375 188.449219 141.089844 C 180.140625 148.285156 166.34375 161.757812 159.605469 169.234375 C 147.359375 182.824219 137.847656 195.023438 128.03125 209.746094 C 119.882812 221.945312 113.449219 233.054688 106.757812 246.433594 C 92.847656 274.28125 83.21875 302.640625 77.246094 333.332031 C 68.03125 380.578125 69.074219 430.695312 80.277344 477.570312 C 88.125 510.417969 100.601562 541.410156 117.800781 570.742188 C 142.199219 612.359375 175.71875 648.773438 215.648438 677.035156 C 235.808594 691.296875 259.515625 704.257812 282.660156 713.679688 C 314.882812 726.78125 346.621094 734.515625 381.15625 737.617188 C 391.851562 738.589844 397.476562 738.820312 410.441406 738.84375 C 431.457031 738.84375 445.183594 737.824219 464.605469 734.839844 C 489.976562 730.925781 515.300781 723.910156 539.605469 714.097656 C 554.027344 708.285156 570.464844 700.160156 584.121094 692.105469 C 610.300781 676.691406 632.617188 659.234375 654.304688 637.269531 C 669.90625 621.433594 682.800781 605.648438 694.976562 587.40625 C 726.898438 539.515625 746.042969 485.023438 750.949219 427.917969 C 751.851562 417.292969 752.082031 411.644531 752.082031 398.632812 C 752.105469 383.609375 751.691406 375.441406 750.230469 361.714844 C 745.117188 313.402344 729.628906 266.96875 704.421875 224.328125 C 693.285156 205.484375 679.375 186.714844 663.820312 169.46875 C 658.609375 163.703125 644.328125 149.558594 638.425781 144.328125 C 615.441406 123.980469 593.242188 108.75 565.878906 94.628906 C 551.457031 87.175781 531.296875 78.933594 514.605469 73.65625 C 486.992188 64.953125 460.878906 60.140625 431.273438 58.332031 C 425.855469 58.007812 405.507812 57.730469 400.371094 57.917969 Z M 430.808594 86.132812 C 449.027344 87.359375 463.332031 89.351562 479.304688 92.871094 C 519.816406 101.804688 559.953125 119.675781 593.402344 143.726562 C 622.015625 164.28125 648.542969 191.019531 667.640625 218.542969 C 671.992188 224.816406 672.824219 226.066406 675.417969 230.117188 C 693.007812 257.777344 706.273438 288.195312 714.46875 319.605469 C 719.628906 339.445312 722.617188 358.867188 724.027344 381.734375 C 724.421875 388.054688 724.421875 408.632812 724.027344 415.070312 C 722.660156 437.339844 720 455.160156 715.046875 474.792969 C 702.546875 524.351562 678.242188 569.859375 644.121094 607.660156 C 601.390625 654.953125 546.714844 687.570312 485 702.570312 C 468.195312 706.644531 451.433594 709.191406 432.015625 710.578125 C 426.15625 710.996094 422.984375 711.089844 412.292969 711.089844 C 399.859375 711.109375 396.714844 710.996094 386.25 710.183594 C 339.628906 706.574219 294.214844 692.246094 253.332031 668.285156 C 228.703125 653.84375 207.035156 636.734375 186.226562 615.277344 C 139.792969 567.382812 109.882812 505.160156 101.320312 438.566406 C 99.582031 425.183594 98.890625 413.726562 98.890625 398.632812 C 98.890625 385.277344 99.28125 376.921875 100.507812 365.183594 C 106.320312 309.328125 127.617188 255.300781 161.550781 210.324219 C 186.457031 177.339844 217.984375 149.214844 253.265625 128.542969 C 296.757812 103.03125 345.855469 88.308594 394.929688 86.019531 C 397.871094 85.878906 400.878906 85.742188 401.644531 85.695312 C 405.023438 85.484375 425.855469 85.808594 430.808594 86.132812 Z M 430.808594 86.132812 " fill-opacity="1" fill-rule="nonzero"/><path fill="#ffde59" d="M 381.042969 194.839844 C 369.722656 204.792969 353.308594 219.191406 344.582031 226.851562 C 335.855469 234.515625 315.972656 251.96875 300.371094 265.625 C 284.769531 279.28125 271.714844 290.765625 271.367188 291.109375 L 270.695312 291.734375 L 290.300781 314.328125 L 309.882812 336.945312 L 314.558594 332.824219 C 317.128906 330.554688 331.734375 317.707031 347.015625 304.28125 C 362.292969 290.855469 380.808594 274.582031 388.171875 268.101562 C 400 257.707031 401.597656 256.390625 401.945312 256.667969 C 402.40625 257.035156 491.898438 335.601562 492.730469 336.390625 L 493.332031 336.945312 L 512.984375 314.445312 C 523.820312 302.082031 532.683594 291.875 532.730469 291.78125 C 532.777344 291.714844 513.402344 274.605469 489.675781 253.820312 C 465.972656 233.007812 436.527344 207.175781 424.234375 196.367188 C 411.945312 185.578125 401.828125 176.757812 401.757812 176.757812 C 401.691406 176.757812 392.382812 184.90625 381.042969 194.839844 Z M 381.042969 194.839844 " fill-opacity="1" fill-rule="nonzero"/><path fill="#ffde59" d="M 562.105469 329.398438 C 557.058594 331.203125 554.027344 335.484375 554.027344 340.878906 C 554.027344 344.351562 555.140625 347.082031 557.546875 349.445312 C 559.882812 351.734375 562.800781 352.917969 566.226562 352.917969 C 569.492188 352.917969 572.246094 351.757812 574.605469 349.445312 C 581.179688 342.964844 578.171875 331.898438 569.144531 329.214844 C 567.199219 328.632812 564.050781 328.726562 562.105469 329.398438 Z M 562.105469 329.398438 " fill-opacity="1" fill-rule="nonzero"/><path fill="#ffde59" d="M 231.621094 387.292969 L 231.621094 435.785156 L 252.429688 435.785156 L 252.5 413.609375 L 252.570312 391.457031 L 253.171875 389.675781 C 255.183594 383.796875 259.214844 380.371094 265.53125 379.191406 C 267.917969 378.726562 270.878906 378.820312 273.171875 379.421875 C 278.566406 380.832031 282.058594 384.628906 283.242188 390.417969 C 283.679688 392.5 283.703125 393.703125 283.703125 414.191406 L 283.703125 435.785156 L 304.558594 435.785156 L 304.492188 410.71875 C 304.398438 383.007812 304.445312 383.910156 302.871094 379.191406 C 299.628906 369.492188 291.480469 362.800781 280.578125 360.878906 C 277.964844 360.417969 271.527344 360.347656 269.121094 360.765625 C 262.59375 361.875 258.820312 363.703125 254.839844 367.640625 L 252.453125 370 L 252.453125 338.796875 L 231.621094 338.796875 Z M 231.621094 387.292969 " fill-opacity="1" fill-rule="nonzero"/><path fill="#ffde59" d="M 342.847656 359.882812 C 336.992188 360.324219 330.625 362.359375 326.132812 365.253906 C 317.316406 370.902344 311.714844 380.046875 309.929688 391.667969 C 309.398438 395.253906 309.398438 402.382812 309.929688 405.808594 C 311.367188 414.628906 314.699219 421.457031 320.277344 426.992188 C 328.726562 435.371094 341.109375 438.820312 355.484375 436.804688 C 363.773438 435.671875 370.808594 432.707031 376.945312 427.800781 C 377.847656 427.058594 378.609375 426.390625 378.609375 426.320312 C 378.609375 426.203125 368.867188 415.324219 367.523438 413.957031 C 367.128906 413.566406 367.082031 413.589844 365.972656 414.445312 C 360.441406 418.796875 352.339844 421.273438 345.996094 420.554688 C 343.566406 420.277344 340.554688 419.421875 338.773438 418.519531 C 336.621094 417.429688 334.304688 415.347656 332.847656 413.148438 C 331.480469 411.109375 330.160156 408.007812 329.859375 406.15625 L 329.699219 405.230469 L 355.71875 405.183594 L 381.734375 405.117188 L 381.945312 402.222656 C 382.175781 398.957031 381.851562 393.078125 381.25 389.90625 C 379.769531 381.804688 376.621094 375.347656 371.691406 370.230469 C 365.742188 364.003906 358.820312 360.785156 349.582031 359.882812 C 346.804688 359.605469 346.574219 359.605469 342.847656 359.882812 Z M 351.597656 377.753906 C 356.734375 379.535156 360 383.332031 361.828125 389.628906 C 362.152344 390.71875 362.40625 391.667969 362.40625 391.714844 C 362.40625 391.757812 355.070312 391.804688 346.089844 391.804688 L 329.769531 391.804688 L 329.90625 391.15625 C 331.621094 383.355469 335.671875 378.867188 342.382812 377.316406 C 343.285156 377.105469 344.816406 377.035156 346.78125 377.082031 C 349.328125 377.128906 350.070312 377.246094 351.597656 377.753906 Z M 351.597656 377.753906 " fill-opacity="1" fill-rule="nonzero"/><path fill="#ffde59" d="M 503.957031 360.117188 C 497.917969 360.695312 492.359375 362.359375 488.03125 364.882812 C 485.578125 366.320312 482.058594 369.769531 480.71875 372.058594 C 478.566406 375.71875 477.640625 379.214844 477.660156 383.679688 C 477.683594 387.871094 478.308594 390.785156 479.769531 393.632812 C 480.742188 395.507812 481.179688 396.109375 482.941406 397.917969 C 487.800781 402.847656 494.214844 405.207031 507.683594 406.96875 C 518.125 408.332031 522.128906 410.371094 522.128906 414.28125 C 522.128906 418.03125 518.378906 420.394531 511.433594 420.996094 C 502.222656 421.78125 492.015625 419.605469 484.699219 415.324219 L 482.546875 414.050781 L 481.296875 416.410156 C 475.183594 427.847656 474.652344 428.933594 474.953125 429.214844 C 476.042969 430.277344 481.644531 433.007812 485.09375 434.167969 C 492.570312 436.667969 500.578125 437.777344 509.605469 437.570312 C 515.277344 437.453125 519.257812 436.921875 523.054688 435.832031 C 536.042969 432.035156 543.03125 423.285156 542.429688 411.503906 C 542.269531 408.195312 541.828125 406.410156 540.53125 403.726562 C 538.21875 398.933594 533.867188 395.417969 527.222656 393.007812 C 523.589844 391.691406 521.066406 391.132812 511.96875 389.722656 C 508.75 389.214844 505.253906 388.589844 504.214844 388.308594 C 501.714844 387.660156 499.769531 386.621094 499.027344 385.484375 C 497.683594 383.449219 498.285156 380.507812 500.417969 378.84375 C 502.570312 377.105469 505.207031 376.503906 510.253906 376.503906 C 516.667969 376.527344 524.191406 378.265625 531.757812 381.527344 C 532.847656 381.992188 533.75 382.339844 533.796875 382.292969 C 534.097656 381.945312 540.601562 366.921875 540.53125 366.804688 C 540.347656 366.527344 535.484375 364.515625 532.546875 363.519531 C 523.890625 360.554688 513.007812 359.257812 503.957031 360.117188 Z M 503.957031 360.117188 " fill-opacity="1" fill-rule="nonzero"/><path fill="#ffde59" d="M 429.421875 360.230469 C 422.523438 361.273438 417.753906 363.542969 413.332031 367.894531 C 412.269531 368.957031 411.34375 369.816406 411.320312 369.816406 C 411.273438 369.816406 411.25 368.03125 411.25 365.878906 L 411.25 361.945312 L 392.035156 361.945312 L 392.035156 457.082031 L 411.945312 457.082031 L 411.945312 426.457031 L 413.65625 428.101562 C 418.980469 433.148438 425.554688 435.601562 433.820312 435.601562 C 446.597656 435.601562 457.546875 429.351562 464.234375 418.242188 C 469.882812 408.820312 471.132812 395.785156 467.453125 384.515625 C 463.980469 373.820312 455.695312 365.347656 445.464844 361.96875 C 441.457031 360.648438 439.351562 360.300781 434.515625 360.207031 C 432.105469 360.160156 429.816406 360.183594 429.421875 360.230469 Z M 435.441406 378.589844 C 440.554688 379.90625 444.792969 383.378906 447.128906 388.242188 C 448.726562 391.527344 449.097656 393.402344 449.074219 397.941406 C 449.074219 401.527344 449.003906 402.058594 448.449219 403.910156 C 446.296875 410.972656 441.691406 415.417969 434.882812 417.082031 C 432.105469 417.753906 427.640625 417.753906 425.023438 417.058594 C 417.292969 415.023438 412.058594 408.820312 411.042969 400.484375 C 410.695312 397.683594 410.71875 396.410156 411.132812 393.980469 C 412.617188 385.601562 418.285156 379.699219 426.296875 378.242188 C 428.679688 377.824219 433.054688 377.984375 435.441406 378.589844 Z M 435.441406 378.589844 " fill-opacity="1" fill-rule="nonzero"/><path fill="#ffde59" d="M 557.082031 399.097656 L 557.082031 435.554688 L 576.527344 435.554688 L 576.527344 362.640625 L 557.082031 362.640625 Z M 557.082031 399.097656 " fill-opacity="1" fill-rule="nonzero"/><path fill="#ffde59" d="M 533.632812 458.632812 C 533.542969 458.703125 533.472656 480.578125 533.472656 507.246094 L 533.472656 555.695312 L 553.609375 555.695312 L 553.609375 526.042969 L 557.015625 526.109375 L 560.417969 526.179688 L 571.089844 540.925781 L 581.734375 555.671875 L 594.050781 555.695312 L 606.367188 555.695312 L 592.359375 536.367188 C 582.660156 522.984375 578.402344 516.921875 578.566406 516.734375 C 578.679688 516.574219 584.882812 508.84375 592.339844 499.515625 C 599.816406 490.183594 605.925781 482.5 605.925781 482.429688 C 605.925781 482.359375 600.464844 482.316406 593.796875 482.316406 L 581.667969 482.316406 L 571.203125 495.394531 L 560.71875 508.472656 L 553.609375 508.472656 L 553.566406 483.519531 L 553.496094 458.589844 L 543.632812 458.519531 C 538.21875 458.496094 533.703125 458.542969 533.632812 458.632812 Z M 533.632812 458.632812 " fill-opacity="1" fill-rule="nonzero"/><path fill="#ffde59" d="M 412.175781 507.316406 L 412.175781 555.925781 L 431.621094 555.925781 L 431.621094 458.703125 L 412.175781 458.703125 Z M 412.175781 507.316406 " fill-opacity="1" fill-rule="nonzero"/><path fill="#ffde59" d="M 312.523438 479.421875 C 308.101562 480.253906 304.257812 481.804688 301.574219 483.820312 C 300.230469 484.839844 297.199219 487.871094 296.273438 489.144531 L 295.765625 489.839844 L 295.765625 485.371094 L 295.742188 480.925781 L 276.296875 480.925781 L 276.296875 555.925781 L 296.179688 555.925781 L 296.273438 533.75 C 296.367188 509.859375 296.34375 510.507812 297.59375 507.292969 C 300.070312 500.996094 305.925781 497.476562 313.21875 497.894531 C 317.246094 498.125 319.929688 499.257812 322.382812 501.757812 C 324.144531 503.542969 325.300781 505.671875 326.109375 508.589844 C 326.644531 510.441406 326.644531 510.464844 326.714844 533.054688 L 326.78125 555.695312 L 346.875 555.695312 L 346.945312 533.285156 C 347.015625 511.132812 347.035156 510.878906 347.523438 509.144531 C 349.144531 503.402344 352.917969 499.582031 358.355469 498.148438 C 360.554688 497.570312 364.953125 497.570312 367.035156 498.148438 C 369.445312 498.796875 371.480469 500 373.101562 501.734375 C 374.90625 503.632812 375.902344 505.507812 376.714844 508.402344 L 377.316406 510.671875 L 377.40625 533.171875 L 377.476562 555.695312 L 397.617188 555.695312 L 397.523438 530.046875 C 397.429688 502.546875 397.453125 503.425781 396.226562 498.84375 C 395.578125 496.503906 393.308594 491.898438 391.828125 489.929688 C 389.28125 486.597656 384.90625 483.148438 381.273438 481.644531 C 376.644531 479.699219 372.128906 478.957031 366.574219 479.167969 C 357.660156 479.492188 351.179688 482.128906 345.949219 487.570312 C 345.117188 488.425781 344.027344 489.746094 343.542969 490.484375 C 343.054688 491.226562 342.59375 491.734375 342.5 491.644531 C 342.40625 491.550781 341.875 490.832031 341.296875 490.070312 C 337.246094 484.722656 331.320312 481.089844 324.328125 479.628906 C 321.875 479.121094 314.816406 479.003906 312.523438 479.421875 Z M 312.523438 479.421875 " fill-opacity="1" fill-rule="nonzero"/><path fill="#ffde59" d="M 231.898438 480.023438 C 214.445312 481.457031 201.714844 493.867188 199.097656 512.015625 C 198.589844 515.578125 198.589844 522.246094 199.097656 525.71875 C 200.972656 538.519531 207.640625 548.148438 218.332031 553.472656 C 224.003906 556.273438 229.859375 557.546875 237.222656 557.546875 C 248.378906 557.546875 258.933594 554.050781 266.25 547.941406 C 267.128906 547.199219 267.894531 546.550781 267.941406 546.527344 C 267.984375 546.480469 265.441406 543.609375 262.269531 540.140625 C 259.121094 536.667969 256.503906 533.773438 256.480469 533.726562 C 256.433594 533.679688 255.949219 534.003906 255.417969 534.445312 C 249.953125 538.933594 241.691406 541.457031 235.140625 540.671875 C 228.65625 539.882812 224.257812 537.105469 221.203125 531.851562 C 220.53125 530.71875 218.890625 526.273438 218.890625 525.625 C 218.890625 525.441406 225.808594 525.371094 244.90625 525.371094 L 270.925781 525.371094 L 271.066406 524.351562 C 271.320312 522.683594 271.25 515.484375 270.972656 513.21875 C 270.046875 505.765625 267.707031 499.398438 263.84375 493.890625 C 262.292969 491.667969 257.753906 487.269531 255.464844 485.765625 C 250.253906 482.316406 245.023438 480.554688 238.242188 480 C 236.597656 479.882812 235.046875 479.792969 234.769531 479.792969 C 234.492188 479.816406 233.21875 479.929688 231.898438 480.023438 Z M 238.007812 497.359375 C 244.445312 498.402344 248.773438 502.59375 250.855469 509.859375 C 251.109375 510.695312 251.296875 511.503906 251.296875 511.644531 C 251.296875 511.875 247.917969 511.945312 235.09375 511.945312 L 218.890625 511.945312 L 219.027344 511.296875 C 220.300781 505.417969 223.21875 501.109375 227.429688 498.980469 C 230.578125 497.40625 234.515625 496.804688 238.007812 497.359375 Z M 238.007812 497.359375 " fill-opacity="1" fill-rule="nonzero"/><path fill="#ffde59" d="M 477.105469 480.601562 C 466.828125 482.199219 457.871094 488.171875 452.292969 497.128906 C 449.421875 501.734375 447.292969 507.941406 446.667969 513.449219 C 446.109375 518.402344 446.480469 525.070312 447.570312 529.628906 C 450.925781 543.679688 461.433594 554.304688 474.746094 557.082031 C 485.484375 559.328125 495.648438 556.667969 502.523438 549.839844 C 503.519531 548.867188 504.375 548.054688 504.445312 548.054688 C 504.492188 548.054688 504.535156 549.816406 504.535156 551.992188 L 504.535156 555.925781 L 523.679688 555.925781 L 523.820312 537.105469 C 523.910156 526.78125 523.980469 510.207031 523.980469 500.300781 L 524.003906 482.316406 L 504.535156 482.316406 L 504.535156 490.230469 L 502.546875 488.242188 C 497.152344 482.847656 490.371094 480.183594 482.082031 480.253906 C 480.484375 480.277344 478.265625 480.417969 477.105469 480.601562 Z M 490.183594 499.121094 C 492.359375 499.515625 496.019531 501.296875 497.964844 502.894531 C 500.808594 505.207031 503.125 509.050781 504.214844 513.242188 C 504.722656 515.183594 504.816406 516.042969 504.839844 518.890625 C 504.839844 521.132812 504.699219 522.800781 504.46875 523.890625 C 502.800781 531.320312 498.402344 536.273438 491.574219 538.449219 C 489.191406 539.214844 484.746094 539.492188 482.199219 539.050781 C 473.75 537.570312 467.964844 531.089844 466.804688 521.804688 C 466.15625 516.691406 467.382812 510.832031 469.953125 506.945312 C 471.109375 505.160156 473.75 502.5 475.417969 501.457031 C 479.445312 498.890625 484.628906 498.054688 490.183594 499.121094 Z M 490.183594 499.121094 " fill-opacity="1" fill-rule="nonzero"/></svg>