<svg xmlns="http://www.w3.org/2000/svg" xmlns:xlink="http://www.w3.org/1999/xlink" width="1080" zoomAndPan="magnify" viewBox="0 0 810 809.999993" height="1080" preserveAspectRatio="xMidYMid meet" version="1.0"><defs><clipPath id="25f6cc7735"><path d="M 30 30 L 780 30 L 780 780 L 30 780 Z M 30 30 " clip-rule="nonzero"/></clipPath><clipPath id="a1b7d0cc20"><path d="M 405 30 C 197.894531 30 30 197.894531 30 405 C 30 612.105469 197.894531 780 405 780 C 612.105469 780 780 612.105469 780 405 C 780 197.894531 612.105469 30 405 30 Z M 405 30 " clip-rule="nonzero"/></clipPath></defs><rect x="-81" width="972" fill="#ffffff" y="-80.999999" height="971.999992" fill-opacity="1"/><rect x="-81" width="972" fill="#ffffff" y="-80.999999" height="971.999992" fill-opacity="1"/><g clip-path="url(#25f6cc7735)"><g clip-path="url(#a1b7d0cc20)"><path fill="#000000" d="M 30 30 L 780 30 L 780 780 L 30 780 Z M 30 30 " fill-opacity="1" fill-rule="nonzero"/></g></g><path fill="#ffde59" d="M 394.371094 67.667969 C 379.324219 68.222656 362.496094 69.910156 348.769531 72.25 C 286.730469 82.828125 230.042969 109.609375 182.449219 150.839844 C 174.140625 158.035156 160.34375 171.507812 153.605469 178.984375 C 141.359375 192.574219 131.847656 204.773438 122.03125 219.496094 C 113.882812 231.695312 107.449219 242.804688 100.757812 256.183594 C 86.847656 284.03125 77.21875 312.390625 71.246094 343.082031 C 62.03125 390.328125 63.074219 440.445312 74.277344 487.320312 C 82.125 520.167969 94.601562 551.160156 111.800781 580.492188 C 136.199219 622.109375 169.71875 658.523438 209.648438 686.785156 C 229.808594 701.046875 253.515625 714.007812 276.660156 723.429688 C 308.882812 736.53125 340.621094 744.265625 375.15625 747.367188 C 385.851562 748.339844 391.476562 748.570312 404.441406 748.59375 C 425.457031 748.59375 439.183594 747.574219 458.605469 744.589844 C 483.976562 740.675781 509.300781 733.660156 533.605469 723.847656 C 548.027344 718.035156 564.464844 709.910156 578.121094 701.855469 C 604.300781 686.441406 626.617188 668.984375 648.304688 647.019531 C 663.90625 631.183594 676.800781 615.398438 688.976562 597.15625 C 720.898438 549.265625 740.042969 494.773438 744.949219 437.667969 C 745.851562 427.042969 746.082031 421.394531 746.082031 408.382812 C 746.105469 393.359375 745.691406 385.191406 744.230469 371.464844 C 739.117188 323.152344 723.628906 276.71875 698.421875 234.078125 C 687.285156 215.234375 673.375 196.464844 657.820312 179.21875 C 652.609375 173.453125 638.328125 159.308594 632.425781 154.078125 C 609.441406 133.730469 587.242188 118.5 559.878906 104.378906 C 545.457031 96.925781 525.296875 88.683594 508.605469 83.40625 C 480.992188 74.703125 454.878906 69.890625 425.273438 68.082031 C 419.855469 67.757812 399.507812 67.480469 394.371094 67.667969 Z M 424.808594 95.882812 C 443.027344 97.109375 457.332031 99.101562 473.304688 102.621094 C 513.816406 111.554688 553.953125 129.425781 587.402344 153.476562 C 616.015625 174.03125 642.542969 200.769531 661.640625 228.292969 C 665.992188 234.566406 666.824219 235.816406 669.417969 239.867188 C 687.007812 267.527344 700.273438 297.945312 708.46875 329.355469 C 713.628906 349.195312 716.617188 368.617188 718.027344 391.484375 C 718.421875 397.804688 718.421875 418.382812 718.027344 424.820312 C 716.660156 447.089844 714 464.910156 709.046875 484.542969 C 696.546875 534.101562 672.242188 579.609375 638.121094 617.410156 C 595.390625 664.703125 540.714844 697.320312 479 712.320312 C 462.195312 716.394531 445.433594 718.941406 426.015625 720.328125 C 420.15625 720.746094 416.984375 720.839844 406.292969 720.839844 C 393.859375 720.859375 390.714844 720.746094 380.25 719.933594 C 333.628906 716.324219 288.214844 701.996094 247.332031 678.035156 C 222.703125 663.59375 201.035156 646.484375 180.226562 625.027344 C 133.792969 577.132812 103.882812 514.910156 95.320312 448.316406 C 93.582031 434.933594 92.890625 423.476562 92.890625 408.382812 C 92.890625 395.027344 93.28125 386.671875 94.507812 374.933594 C 100.320312 319.078125 121.617188 265.050781 155.550781 220.074219 C 180.457031 187.089844 211.984375 158.964844 247.265625 138.292969 C 290.757812 112.78125 339.855469 98.058594 388.929688 95.769531 C 391.871094 95.628906 394.878906 95.492188 395.644531 95.445312 C 399.023438 95.234375 419.855469 95.558594 424.808594 95.882812 Z M 424.808594 95.882812 " fill-opacity="1" fill-rule="nonzero"/><path fill="#ffde59" d="M 375.042969 204.589844 C 363.722656 214.542969 347.308594 228.941406 338.582031 236.601562 C 329.855469 244.265625 309.972656 261.71875 294.371094 275.375 C 278.769531 289.03125 265.714844 300.515625 265.367188 300.859375 L 264.695312 301.484375 L 284.300781 324.078125 L 303.882812 346.695312 L 308.558594 342.574219 C 311.128906 340.304688 325.734375 327.457031 341.015625 314.03125 C 356.292969 300.605469 374.808594 284.332031 382.171875 277.851562 C 394 267.457031 395.597656 266.140625 395.945312 266.417969 C 396.40625 266.785156 485.898438 345.351562 486.730469 346.140625 L 487.332031 346.695312 L 506.984375 324.195312 C 517.820312 311.832031 526.683594 301.625 526.730469 301.53125 C 526.777344 301.464844 507.402344 284.355469 483.675781 263.570312 C 459.972656 242.757812 430.527344 216.925781 418.234375 206.117188 C 405.945312 195.328125 395.828125 186.507812 395.757812 186.507812 C 395.691406 186.507812 386.382812 194.65625 375.042969 204.589844 Z M 375.042969 204.589844 " fill-opacity="1" fill-rule="nonzero"/><path fill="#ffde59" d="M 556.105469 339.148438 C 551.058594 340.953125 548.027344 345.234375 548.027344 350.628906 C 548.027344 354.101562 549.140625 356.832031 551.546875 359.195312 C 553.882812 361.484375 556.800781 362.667969 560.226562 362.667969 C 563.492188 362.667969 566.246094 361.507812 568.605469 359.195312 C 575.179688 352.714844 572.171875 341.648438 563.144531 338.964844 C 561.199219 338.382812 558.050781 338.476562 556.105469 339.148438 Z M 556.105469 339.148438 " fill-opacity="1" fill-rule="nonzero"/><path fill="#ffde59" d="M 225.621094 397.042969 L 225.621094 445.535156 L 246.429688 445.535156 L 246.5 423.359375 L 246.570312 401.207031 L 247.171875 399.425781 C 249.183594 393.546875 253.214844 390.121094 259.53125 388.941406 C 261.917969 388.476562 264.878906 388.570312 267.171875 389.171875 C 272.566406 390.582031 276.058594 394.378906 277.242188 400.167969 C 277.679688 402.25 277.703125 403.453125 277.703125 423.941406 L 277.703125 445.535156 L 298.558594 445.535156 L 298.492188 420.46875 C 298.398438 392.757812 298.445312 393.660156 296.871094 388.941406 C 293.628906 379.242188 285.480469 372.550781 274.578125 370.628906 C 271.964844 370.167969 265.527344 370.097656 263.121094 370.515625 C 256.59375 371.625 252.820312 373.453125 248.839844 377.390625 L 246.453125 379.75 L 246.453125 348.546875 L 225.621094 348.546875 Z M 225.621094 397.042969 " fill-opacity="1" fill-rule="nonzero"/><path fill="#ffde59" d="M 336.847656 369.632812 C 330.992188 370.074219 324.625 372.109375 320.132812 375.003906 C 311.316406 380.652344 305.714844 389.796875 303.929688 401.417969 C 303.398438 405.003906 303.398438 412.132812 303.929688 415.558594 C 305.367188 424.378906 308.699219 431.207031 314.277344 436.742188 C 322.726562 445.121094 335.109375 448.570312 349.484375 446.554688 C 357.773438 445.421875 364.808594 442.457031 370.945312 437.550781 C 371.847656 436.808594 372.609375 436.140625 372.609375 436.070312 C 372.609375 435.953125 362.867188 425.074219 361.523438 423.707031 C 361.128906 423.316406 361.082031 423.339844 359.972656 424.195312 C 354.441406 428.546875 346.339844 431.023438 339.996094 430.304688 C 337.566406 430.027344 334.554688 429.171875 332.773438 428.269531 C 330.621094 427.179688 328.304688 425.097656 326.847656 422.898438 C 325.480469 420.859375 324.160156 417.757812 323.859375 415.90625 L 323.699219 414.980469 L 349.71875 414.933594 L 375.734375 414.867188 L 375.945312 411.972656 C 376.175781 408.707031 375.851562 402.828125 375.25 399.65625 C 373.769531 391.554688 370.621094 385.097656 365.691406 379.980469 C 359.742188 373.753906 352.820312 370.535156 343.582031 369.632812 C 340.804688 369.355469 340.574219 369.355469 336.847656 369.632812 Z M 345.597656 387.503906 C 350.734375 389.285156 354 393.082031 355.828125 399.378906 C 356.152344 400.46875 356.40625 401.417969 356.40625 401.464844 C 356.40625 401.507812 349.070312 401.554688 340.089844 401.554688 L 323.769531 401.554688 L 323.90625 400.90625 C 325.621094 393.105469 329.671875 388.617188 336.382812 387.066406 C 337.285156 386.855469 338.816406 386.785156 340.78125 386.832031 C 343.328125 386.878906 344.070312 386.996094 345.597656 387.503906 Z M 345.597656 387.503906 " fill-opacity="1" fill-rule="nonzero"/><path fill="#ffde59" d="M 497.957031 369.867188 C 491.917969 370.445312 486.359375 372.109375 482.03125 374.632812 C 479.578125 376.070312 476.058594 379.519531 474.71875 381.808594 C 472.566406 385.46875 471.640625 388.964844 471.660156 393.429688 C 471.683594 397.621094 472.308594 400.535156 473.769531 403.382812 C 474.742188 405.257812 475.179688 405.859375 476.941406 407.667969 C 481.800781 412.597656 488.214844 414.957031 501.683594 416.71875 C 512.125 418.082031 516.128906 420.121094 516.128906 424.03125 C 516.128906 427.78125 512.378906 430.144531 505.433594 430.746094 C 496.222656 431.53125 486.015625 429.355469 478.699219 425.074219 L 476.546875 423.800781 L 475.296875 426.160156 C 469.183594 437.597656 468.652344 438.683594 468.953125 438.964844 C 470.042969 440.027344 475.644531 442.757812 479.09375 443.917969 C 486.570312 446.417969 494.578125 447.527344 503.605469 447.320312 C 509.277344 447.203125 513.257812 446.671875 517.054688 445.582031 C 530.042969 441.785156 537.03125 433.035156 536.429688 421.253906 C 536.269531 417.945312 535.828125 416.160156 534.53125 413.476562 C 532.21875 408.683594 527.867188 405.167969 521.222656 402.757812 C 517.589844 401.441406 515.066406 400.882812 505.96875 399.472656 C 502.75 398.964844 499.253906 398.339844 498.214844 398.058594 C 495.714844 397.410156 493.769531 396.371094 493.027344 395.234375 C 491.683594 393.199219 492.285156 390.257812 494.417969 388.59375 C 496.570312 386.855469 499.207031 386.253906 504.253906 386.253906 C 510.667969 386.277344 518.191406 388.015625 525.757812 391.277344 C 526.847656 391.742188 527.75 392.089844 527.796875 392.042969 C 528.097656 391.695312 534.601562 376.671875 534.53125 376.554688 C 534.347656 376.277344 529.484375 374.265625 526.546875 373.269531 C 517.890625 370.304688 507.007812 369.007812 497.957031 369.867188 Z M 497.957031 369.867188 " fill-opacity="1" fill-rule="nonzero"/><path fill="#ffde59" d="M 423.421875 369.980469 C 416.523438 371.023438 411.753906 373.292969 407.332031 377.644531 C 406.269531 378.707031 405.34375 379.566406 405.320312 379.566406 C 405.273438 379.566406 405.25 377.78125 405.25 375.628906 L 405.25 371.695312 L 386.035156 371.695312 L 386.035156 466.832031 L 405.945312 466.832031 L 405.945312 436.207031 L 407.65625 437.851562 C 412.980469 442.898438 419.554688 445.351562 427.820312 445.351562 C 440.597656 445.351562 451.546875 439.101562 458.234375 427.992188 C 463.882812 418.570312 465.132812 405.535156 461.453125 394.265625 C 457.980469 383.570312 449.695312 375.097656 439.464844 371.71875 C 435.457031 370.398438 433.351562 370.050781 428.515625 369.957031 C 426.105469 369.910156 423.816406 369.933594 423.421875 369.980469 Z M 429.441406 388.339844 C 434.554688 389.65625 438.792969 393.128906 441.128906 397.992188 C 442.726562 401.277344 443.097656 403.152344 443.074219 407.691406 C 443.074219 411.277344 443.003906 411.808594 442.449219 413.660156 C 440.296875 420.722656 435.691406 425.167969 428.882812 426.832031 C 426.105469 427.503906 421.640625 427.503906 419.023438 426.808594 C 411.292969 424.773438 406.058594 418.570312 405.042969 410.234375 C 404.695312 407.433594 404.71875 406.160156 405.132812 403.730469 C 406.617188 395.351562 412.285156 389.449219 420.296875 387.992188 C 422.679688 387.574219 427.054688 387.734375 429.441406 388.339844 Z M 429.441406 388.339844 " fill-opacity="1" fill-rule="nonzero"/><path fill="#ffde59" d="M 551.082031 408.847656 L 551.082031 445.304688 L 570.527344 445.304688 L 570.527344 372.390625 L 551.082031 372.390625 Z M 551.082031 408.847656 " fill-opacity="1" fill-rule="nonzero"/><path fill="#ffde59" d="M 527.632812 468.382812 C 527.542969 468.453125 527.472656 490.328125 527.472656 516.996094 L 527.472656 565.445312 L 547.609375 565.445312 L 547.609375 535.792969 L 551.015625 535.859375 L 554.417969 535.929688 L 565.089844 550.675781 L 575.734375 565.421875 L 588.050781 565.445312 L 600.367188 565.445312 L 586.359375 546.117188 C 576.660156 532.734375 572.402344 526.671875 572.566406 526.484375 C 572.679688 526.324219 578.882812 518.59375 586.339844 509.265625 C 593.816406 499.933594 599.925781 492.25 599.925781 492.179688 C 599.925781 492.109375 594.464844 492.066406 587.796875 492.066406 L 575.667969 492.066406 L 565.203125 505.144531 L 554.71875 518.222656 L 547.609375 518.222656 L 547.566406 493.269531 L 547.496094 468.339844 L 537.632812 468.269531 C 532.21875 468.246094 527.703125 468.292969 527.632812 468.382812 Z M 527.632812 468.382812 " fill-opacity="1" fill-rule="nonzero"/><path fill="#ffde59" d="M 406.175781 517.066406 L 406.175781 565.675781 L 425.621094 565.675781 L 425.621094 468.453125 L 406.175781 468.453125 Z M 406.175781 517.066406 " fill-opacity="1" fill-rule="nonzero"/><path fill="#ffde59" d="M 306.523438 489.171875 C 302.101562 490.003906 298.257812 491.554688 295.574219 493.570312 C 294.230469 494.589844 291.199219 497.621094 290.273438 498.894531 L 289.765625 499.589844 L 289.765625 495.121094 L 289.742188 490.675781 L 270.296875 490.675781 L 270.296875 565.675781 L 290.179688 565.675781 L 290.273438 543.5 C 290.367188 519.609375 290.34375 520.257812 291.59375 517.042969 C 294.070312 510.746094 299.925781 507.226562 307.21875 507.644531 C 311.246094 507.875 313.929688 509.007812 316.382812 511.507812 C 318.144531 513.292969 319.300781 515.421875 320.109375 518.339844 C 320.644531 520.191406 320.644531 520.214844 320.714844 542.804688 L 320.78125 565.445312 L 340.875 565.445312 L 340.945312 543.035156 C 341.015625 520.882812 341.035156 520.628906 341.523438 518.894531 C 343.144531 513.152344 346.917969 509.332031 352.355469 507.898438 C 354.554688 507.320312 358.953125 507.320312 361.035156 507.898438 C 363.445312 508.546875 365.480469 509.75 367.101562 511.484375 C 368.90625 513.382812 369.902344 515.257812 370.714844 518.152344 L 371.316406 520.421875 L 371.40625 542.921875 L 371.476562 565.445312 L 391.617188 565.445312 L 391.523438 539.796875 C 391.429688 512.296875 391.453125 513.175781 390.226562 508.59375 C 389.578125 506.253906 387.308594 501.648438 385.828125 499.679688 C 383.28125 496.347656 378.90625 492.898438 375.273438 491.394531 C 370.644531 489.449219 366.128906 488.707031 360.574219 488.917969 C 351.660156 489.242188 345.179688 491.878906 339.949219 497.320312 C 339.117188 498.175781 338.027344 499.496094 337.542969 500.234375 C 337.054688 500.976562 336.59375 501.484375 336.5 501.394531 C 336.40625 501.300781 335.875 500.582031 335.296875 499.820312 C 331.246094 494.472656 325.320312 490.839844 318.328125 489.378906 C 315.875 488.871094 308.816406 488.753906 306.523438 489.171875 Z M 306.523438 489.171875 " fill-opacity="1" fill-rule="nonzero"/><path fill="#ffde59" d="M 225.898438 489.773438 C 208.445312 491.207031 195.714844 503.617188 193.097656 521.765625 C 192.589844 525.328125 192.589844 531.996094 193.097656 535.46875 C 194.972656 548.269531 201.640625 557.898438 212.332031 563.222656 C 218.003906 566.023438 223.859375 567.296875 231.222656 567.296875 C 242.378906 567.296875 252.933594 563.800781 260.25 557.691406 C 261.128906 556.949219 261.894531 556.300781 261.941406 556.277344 C 261.984375 556.230469 259.441406 553.359375 256.269531 549.890625 C 253.121094 546.417969 250.503906 543.523438 250.480469 543.476562 C 250.433594 543.429688 249.949219 543.753906 249.417969 544.195312 C 243.953125 548.683594 235.691406 551.207031 229.140625 550.421875 C 222.65625 549.632812 218.257812 546.855469 215.203125 541.601562 C 214.53125 540.46875 212.890625 536.023438 212.890625 535.375 C 212.890625 535.191406 219.808594 535.121094 238.90625 535.121094 L 264.925781 535.121094 L 265.066406 534.101562 C 265.320312 532.433594 265.25 525.234375 264.972656 522.96875 C 264.046875 515.515625 261.707031 509.148438 257.84375 503.640625 C 256.292969 501.417969 251.753906 497.019531 249.464844 495.515625 C 244.253906 492.066406 239.023438 490.304688 232.242188 489.75 C 230.597656 489.632812 229.046875 489.542969 228.769531 489.542969 C 228.492188 489.566406 227.21875 489.679688 225.898438 489.773438 Z M 232.007812 507.109375 C 238.445312 508.152344 242.773438 512.34375 244.855469 519.609375 C 245.109375 520.445312 245.296875 521.253906 245.296875 521.394531 C 245.296875 521.625 241.917969 521.695312 229.09375 521.695312 L 212.890625 521.695312 L 213.027344 521.046875 C 214.300781 515.167969 217.21875 510.859375 221.429688 508.730469 C 224.578125 507.15625 228.515625 506.554688 232.007812 507.109375 Z M 232.007812 507.109375 " fill-opacity="1" fill-rule="nonzero"/><path fill="#ffde59" d="M 471.105469 490.351562 C 460.828125 491.949219 451.871094 497.921875 446.292969 506.878906 C 443.421875 511.484375 441.292969 517.691406 440.667969 523.199219 C 440.109375 528.152344 440.480469 534.820312 441.570312 539.378906 C 444.925781 553.429688 455.433594 564.054688 468.746094 566.832031 C 479.484375 569.078125 489.648438 566.417969 496.523438 559.589844 C 497.519531 558.617188 498.375 557.804688 498.445312 557.804688 C 498.492188 557.804688 498.535156 559.566406 498.535156 561.742188 L 498.535156 565.675781 L 517.679688 565.675781 L 517.820312 546.855469 C 517.910156 536.53125 517.980469 519.957031 517.980469 510.050781 L 518.003906 492.066406 L 498.535156 492.066406 L 498.535156 499.980469 L 496.546875 497.992188 C 491.152344 492.597656 484.371094 489.933594 476.082031 490.003906 C 474.484375 490.027344 472.265625 490.167969 471.105469 490.351562 Z M 484.183594 508.871094 C 486.359375 509.265625 490.019531 511.046875 491.964844 512.644531 C 494.808594 514.957031 497.125 518.800781 498.214844 522.992188 C 498.722656 524.933594 498.816406 525.792969 498.839844 528.640625 C 498.839844 530.882812 498.699219 532.550781 498.46875 533.640625 C 496.800781 541.070312 492.402344 546.023438 485.574219 548.199219 C 483.191406 548.964844 478.746094 549.242188 476.199219 548.800781 C 467.75 547.320312 461.964844 540.839844 460.804688 531.554688 C 460.15625 526.441406 461.382812 520.582031 463.953125 516.695312 C 465.109375 514.910156 467.75 512.25 469.417969 511.207031 C 473.445312 508.640625 478.628906 507.804688 484.183594 508.871094 Z M 484.183594 508.871094 " fill-opacity="1" fill-rule="nonzero"/></svg>