<svg xmlns="http://www.w3.org/2000/svg" xmlns:xlink="http://www.w3.org/1999/xlink" width="1080" zoomAndPan="magnify" viewBox="0 0 810 809.999993" height="1080" preserveAspectRatio="xMidYMid meet" version="1.0"><defs><clipPath id="c417a81f67"><path d="M 63.75 63.75 L 746.25 63.75 L 746.25 746.25 L 63.75 746.25 Z M 63.75 63.75 " clip-rule="nonzero"/></clipPath><clipPath id="ac9105b70d"><path d="M 405 63.75 C 216.53125 63.75 63.75 216.53125 63.75 405 C 63.75 593.46875 216.53125 746.25 405 746.25 C 593.46875 746.25 746.25 593.46875 746.25 405 C 746.25 216.53125 593.46875 63.75 405 63.75 Z M 405 63.75 " clip-rule="nonzero"/></clipPath></defs><g clip-path="url(#c417a81f67)"><g clip-path="url(#ac9105b70d)"><path stroke-linecap="butt" transform="matrix(0.75, 0, 0, 0.75, 63.75, 63.750017)" fill="none" stroke-linejoin="miter" d="M 454.999993 -0.0000223904 C 203.70833 -0.0000223904 -0.000000390432 203.708308 -0.000000390432 454.999971 C -0.000000390432 706.291635 203.70833 909.999965 454.999993 909.999965 C 706.291657 909.999965 909.999987 706.291635 909.999987 454.999971 C 909.999987 203.708308 706.291657 -0.0000223904 454.999993 -0.0000223904 Z M 454.999993 -0.0000223904 " stroke="#ffde59" stroke-width="78" stroke-opacity="1" stroke-miterlimit="4"/></g></g><path fill="#ffde59" d="M 403.421875 248.054688 C 391.929688 249.117188 380.390625 252.984375 370.316406 259.144531 C 361.960938 264.242188 353.46875 272.125 347.851562 280.027344 C 344.5 284.746094 340.652344 291.753906 338.90625 296.285156 C 338.484375 297.394531 338.011719 298.667969 337.820312 299.117188 C 336.855469 301.667969 335.582031 306.433594 334.777344 310.46875 C 332.960938 319.742188 333.078125 332.4375 335.085938 341.472656 C 335.34375 342.628906 335.699219 344.28125 335.886719 345.132812 C 336.074219 345.980469 336.691406 347.988281 337.230469 349.613281 C 338.199219 352.542969 338.363281 352.917969 339.332031 355.089844 C 339.617188 355.703125 339.828125 356.292969 339.828125 356.386719 C 339.828125 356.742188 343.011719 362.921875 343.910156 364.316406 C 344.382812 365.046875 344.785156 365.707031 344.785156 365.777344 C 344.785156 365.96875 346.292969 368.136719 346.480469 368.210938 C 346.578125 368.257812 346.671875 368.421875 346.671875 368.5625 C 346.671875 368.726562 347.285156 369.671875 348.039062 370.664062 C 348.769531 371.65625 349.597656 372.761719 349.855469 373.117188 C 350.117188 373.472656 350.566406 374.015625 350.871094 374.296875 C 351.15625 374.605469 351.390625 374.957031 351.390625 375.125 C 351.390625 375.265625 351.554688 375.335938 351.746094 375.242188 C 351.957031 375.171875 352.097656 375.242188 352.097656 375.476562 C 352.097656 375.664062 352.191406 375.761719 352.335938 375.691406 C 352.476562 375.617188 352.5 375.714844 352.429688 375.902344 C 352.335938 376.160156 352.429688 376.28125 352.6875 376.28125 C 352.902344 376.28125 353.019531 376.375 352.925781 376.492188 C 352.851562 376.609375 365.925781 389.847656 381.972656 405.894531 L 411.160156 435.082031 L 420.789062 425.457031 C 426.097656 420.144531 430.441406 415.710938 430.441406 415.589844 C 430.441406 415.238281 429.425781 414.484375 429.117188 414.601562 C 428.953125 414.671875 428.644531 414.507812 428.410156 414.246094 C 428.199219 414.011719 428.128906 413.796875 428.269531 413.796875 C 428.410156 413.796875 428.644531 413.988281 428.765625 414.199219 C 428.90625 414.433594 429.023438 414.507812 429.023438 414.386719 C 429.023438 413.988281 418.289062 403.390625 418.050781 403.582031 C 417.957031 403.675781 417.933594 403.652344 418.003906 403.511719 C 418.191406 403.179688 411.726562 396.738281 411.445312 396.972656 C 411.351562 397.066406 411.328125 397.042969 411.398438 396.902344 C 411.585938 396.574219 410.785156 395.792969 410.5 396.03125 C 410.40625 396.148438 410.382812 396.101562 410.453125 395.960938 C 410.640625 395.652344 403.207031 388.242188 402.972656 388.480469 C 402.878906 388.597656 402.832031 388.550781 402.878906 388.382812 C 402.925781 388.242188 401.652344 386.804688 400.070312 385.175781 C 398.464844 383.570312 397.167969 382.296875 397.167969 382.34375 C 397.167969 382.390625 396.835938 382.0625 396.4375 381.589844 C 396.035156 381.140625 395.609375 380.832031 395.492188 380.90625 C 395.375 380.976562 395.304688 380.929688 395.328125 380.808594 C 395.375 380.667969 394.101562 379.253906 392.519531 377.625 C 390.914062 376.019531 389.617188 374.722656 389.617188 374.746094 C 389.617188 374.746094 387.5625 372.714844 385.085938 370.191406 C 382.585938 367.667969 380.058594 365.164062 379.496094 364.644531 C 378.929688 364.101562 377.867188 363.019531 377.132812 362.261719 C 376.402344 361.484375 375.105469 360.117188 374.230469 359.21875 C 373.335938 358.296875 372.628906 357.472656 372.628906 357.355469 C 372.628906 357.261719 372.460938 357.167969 372.273438 357.167969 C 372.085938 357.167969 371.917969 356.953125 371.917969 356.71875 C 371.917969 356.457031 371.847656 356.222656 371.730469 356.175781 C 371.519531 356.082031 369.089844 352.964844 369.089844 352.777344 C 369.089844 352.683594 368.734375 352.140625 368.308594 351.527344 C 367.269531 350.039062 364.367188 344.117188 364.367188 343.457031 C 364.367188 343.265625 364.226562 342.914062 364.039062 342.652344 C 363.875 342.394531 363.636719 341.804688 363.542969 341.355469 C 363.449219 340.90625 363.257812 340.269531 363.117188 339.941406 C 362.71875 339.019531 362.03125 336.070312 361.488281 332.980469 C 360.875 329.535156 360.757812 322.40625 361.253906 319.058594 C 362.101562 313.347656 363.636719 308.179688 365.714844 303.957031 C 366.328125 302.726562 366.515625 302.136719 366.257812 302.304688 C 366.113281 302.375 366.019531 302.328125 366.019531 302.210938 C 366.019531 302.066406 366.1875 301.949219 366.375 301.949219 C 366.824219 301.949219 367.269531 301.101562 367.082031 300.535156 C 366.964844 300.179688 367.011719 300.109375 367.292969 300.203125 C 367.742188 300.367188 368.167969 299.589844 367.980469 298.882812 C 367.859375 298.433594 367.90625 298.363281 368.214844 298.480469 C 368.449219 298.574219 368.710938 298.410156 368.945312 298.03125 C 369.207031 297.65625 369.253906 297.464844 369.0625 297.464844 C 368.757812 297.464844 368.992188 297.113281 369.277344 297.113281 C 369.773438 297.089844 370.03125 296.6875 369.890625 296.121094 C 369.75 295.625 369.796875 295.53125 370.101562 295.648438 C 370.574219 295.839844 371.023438 295.273438 370.808594 294.753906 C 370.691406 294.421875 370.738281 294.351562 371.046875 294.46875 C 371.519531 294.65625 371.964844 294.089844 371.753906 293.574219 C 371.636719 293.242188 371.683594 293.171875 371.992188 293.289062 C 372.4375 293.453125 372.769531 293.054688 372.675781 292.441406 C 372.628906 292.226562 372.722656 292.039062 372.863281 292.039062 C 373.003906 292.039062 373.242188 291.777344 373.382812 291.449219 C 373.523438 291.117188 373.808594 290.859375 373.996094 290.859375 C 374.253906 290.859375 374.160156 291.070312 373.6875 291.566406 C 373.3125 291.945312 373.074219 292.273438 373.148438 292.273438 C 373.359375 292.273438 376.378906 289.113281 376.285156 288.996094 C 376.214844 288.949219 375.976562 289.160156 375.71875 289.46875 C 375.460938 289.773438 375.246094 289.914062 375.222656 289.773438 C 375.222656 289.441406 376.664062 287.933594 377.914062 286.964844 C 378.410156 286.5625 378.976562 286.117188 379.164062 285.949219 C 379.328125 285.761719 379.636719 285.691406 379.824219 285.761719 C 380.011719 285.832031 380.226562 285.761719 380.320312 285.621094 C 380.414062 285.457031 380.390625 285.433594 380.226562 285.527344 C 379.753906 285.808594 379.917969 285.527344 380.722656 284.628906 C 381.144531 284.15625 381.640625 283.78125 381.78125 283.78125 C 381.949219 283.78125 382.066406 283.660156 382.066406 283.542969 C 382.066406 283.402344 382.253906 283.308594 382.492188 283.308594 C 383.105469 283.308594 384.261719 282.199219 384.117188 281.773438 C 384 281.515625 384.09375 281.445312 384.496094 281.515625 C 384.78125 281.5625 385.441406 281.375 385.960938 281.113281 C 386.480469 280.832031 387.09375 280.59375 387.328125 280.546875 C 387.5625 280.5 388.011719 280.3125 388.320312 280.097656 C 388.648438 279.886719 389.074219 279.769531 389.261719 279.863281 C 389.476562 279.933594 389.59375 279.910156 389.523438 279.816406 C 389.40625 279.601562 391.316406 278.589844 391.835938 278.589844 C 392.023438 278.589844 392.210938 278.46875 392.261719 278.304688 C 392.332031 278.140625 392.804688 278.023438 393.320312 278.023438 C 393.863281 278 394.242188 277.929688 394.171875 277.808594 C 394.125 277.714844 394.289062 277.644531 394.550781 277.644531 C 394.832031 277.644531 395.042969 277.527344 395.042969 277.386719 C 395.042969 277.21875 395.328125 277.195312 395.824219 277.289062 C 396.320312 277.386719 396.460938 277.363281 396.273438 277.21875 C 396.011719 277.054688 396.082031 276.960938 396.554688 276.890625 C 396.957031 276.820312 397.097656 276.867188 397.003906 277.03125 C 396.910156 277.171875 397.003906 277.171875 397.214844 277.007812 C 397.402344 276.84375 397.640625 276.773438 397.734375 276.867188 C 397.828125 276.960938 397.992188 276.914062 398.089844 276.75 C 398.183594 276.582031 398.65625 276.441406 399.125 276.417969 C 399.597656 276.394531 399.929688 276.324219 399.882812 276.253906 C 399.835938 276.160156 400.023438 276.0625 400.304688 276.039062 C 400.589844 275.992188 401.15625 275.945312 401.535156 275.898438 C 401.933594 275.851562 402.382812 275.804688 402.546875 275.78125 C 402.714844 275.78125 402.808594 275.664062 402.738281 275.566406 C 402.570312 275.308594 406.914062 275.167969 413.097656 275.238281 C 417.886719 275.261719 418.757812 275.378906 423.242188 276.488281 C 427.230469 277.503906 427.65625 277.621094 428.222656 278 C 428.550781 278.210938 428.953125 278.328125 429.09375 278.28125 C 429.261719 278.234375 429.945312 278.496094 430.652344 278.847656 C 431.359375 279.226562 432.066406 279.53125 432.234375 279.53125 C 432.421875 279.53125 432.5625 279.625 432.5625 279.746094 C 432.5625 279.863281 432.917969 280.027344 433.34375 280.121094 C 434.828125 280.429688 435.015625 280.5 434.664062 280.734375 C 434.425781 280.878906 434.59375 280.949219 435.183594 280.949219 C 436.03125 280.949219 437.28125 281.609375 436.574219 281.679688 C 436.386719 281.703125 436.597656 281.796875 437.046875 281.867188 C 437.566406 281.964844 437.847656 282.152344 437.800781 282.339844 C 437.730469 282.695312 438.226562 283.121094 439.40625 283.6875 C 439.855469 283.921875 440.421875 284.347656 440.65625 284.652344 C 440.894531 284.9375 441.175781 285.195312 441.292969 285.195312 C 441.90625 285.195312 447.289062 290.550781 449.339844 293.21875 C 455.359375 300.980469 458.164062 306.929688 460.078125 315.871094 C 460.691406 318.65625 460.714844 319.199219 460.738281 325.191406 C 460.738281 331.210938 460.714844 331.730469 460.125 334.511719 C 459.769531 336.140625 459.203125 338.40625 458.875 339.585938 C 454.507812 354.640625 442.285156 367.335938 427.347656 372.363281 C 425.601562 372.953125 423.761719 373.542969 423.242188 373.660156 C 422.722656 373.800781 422.15625 374.015625 421.96875 374.132812 C 421.734375 374.296875 424.800781 377.484375 434.214844 386.875 C 441.128906 393.765625 446.863281 399.402344 446.933594 399.402344 C 447.21875 399.402344 469.492188 376.941406 470.933594 375.21875 C 473.148438 372.574219 474.375 370.921875 476.289062 368.019531 C 478.71875 364.316406 479.050781 363.726562 481.171875 359.40625 C 484.546875 352.542969 486.648438 345.980469 488.015625 338.003906 C 488.699219 334.066406 488.839844 332.222656 488.464844 331.777344 C 488.25 331.492188 488.226562 331.375 488.441406 331.234375 C 488.746094 331.042969 488.769531 323.117188 488.464844 319.058594 C 488.179688 315.351562 487.734375 312.238281 487.449219 312.050781 C 487.308594 311.953125 487.167969 311.128906 487.167969 310.183594 C 487.144531 309.265625 487.023438 308.4375 486.929688 308.34375 C 486.8125 308.273438 486.695312 307.992188 486.671875 307.730469 C 486.601562 306.882812 486.128906 304.921875 485.65625 303.367188 C 484.097656 298.433594 483.296875 296.214844 483.011719 296.097656 C 482.894531 296.050781 482.824219 295.839844 482.824219 295.648438 C 482.824219 295.460938 482.519531 294.632812 482.164062 293.832031 C 481.785156 293.054688 481.363281 292.109375 481.21875 291.730469 C 481.078125 291.378906 480.84375 291.09375 480.699219 291.09375 C 480.582031 291.09375 480.464844 290.835938 480.464844 290.503906 C 480.464844 290.175781 480.253906 289.703125 479.992188 289.441406 C 479.734375 289.183594 479.519531 288.78125 479.519531 288.546875 C 479.519531 288.335938 479.308594 287.886719 479.050781 287.554688 C 478.789062 287.226562 478.578125 286.824219 478.578125 286.660156 C 478.578125 286.515625 478.484375 286.375 478.363281 286.375 C 478.246094 286.375 478.105469 286.1875 478.035156 285.949219 C 477.679688 284.9375 475.367188 281.398438 473.8125 279.507812 C 473.316406 278.894531 472.914062 278.328125 472.914062 278.234375 C 472.914062 277.976562 472.277344 277.433594 472.113281 277.527344 C 472.039062 277.597656 472.015625 277.574219 472.089844 277.480469 C 472.277344 277.242188 471.097656 275.757812 468.738281 273.230469 C 468.429688 272.925781 468.195312 272.570312 468.195312 272.476562 C 468.195312 272.359375 467.980469 272.21875 467.722656 272.148438 C 467.464844 272.074219 467.25 271.863281 467.25 271.675781 C 467.25 271.460938 467.039062 271.226562 466.777344 271.15625 C 466.519531 271.085938 466.308594 270.871094 466.308594 270.683594 C 466.308594 270.496094 466.09375 270.28125 465.835938 270.210938 C 465.574219 270.140625 465.363281 269.929688 465.363281 269.738281 C 465.363281 269.550781 465.152344 269.339844 464.890625 269.269531 C 464.632812 269.195312 464.417969 268.984375 464.417969 268.84375 C 464.417969 268.679688 463.921875 268.207031 463.332031 267.757812 C 462.742188 267.308594 461.964844 266.648438 461.632812 266.292969 C 461.304688 265.941406 460.949219 265.679688 460.832031 265.753906 C 460.738281 265.824219 460.644531 265.777344 460.644531 265.632812 C 460.644531 264.949219 449.625 257.351562 448.632812 257.351562 C 448.46875 257.351562 448.136719 257.140625 447.855469 256.878906 C 447.570312 256.621094 447.144531 256.40625 446.910156 256.40625 C 446.675781 256.40625 446.273438 256.195312 446.011719 255.9375 C 445.753906 255.675781 445.28125 255.464844 444.953125 255.464844 C 444.621094 255.464844 444.363281 255.371094 444.363281 255.273438 C 444.363281 254.96875 443.183594 254.496094 442.898438 254.660156 C 442.757812 254.757812 442.710938 254.707031 442.78125 254.589844 C 442.96875 254.285156 441.128906 253.503906 440.773438 253.71875 C 440.632812 253.8125 440.585938 253.789062 440.65625 253.648438 C 440.796875 253.410156 436.386719 251.6875 435.464844 251.617188 C 435.160156 251.617188 434.921875 251.523438 434.921875 251.429688 C 434.921875 251.289062 433.601562 250.910156 432.917969 250.863281 C 432.800781 250.863281 432.5625 250.769531 432.421875 250.671875 C 431.925781 250.367188 428.078125 249.539062 427.84375 249.683594 C 427.703125 249.753906 427.609375 249.730469 427.609375 249.589844 C 427.609375 249.46875 427.160156 249.304688 426.617188 249.210938 C 426.050781 249.140625 424.871094 248.902344 423.949219 248.714844 C 419.609375 247.84375 409.273438 247.488281 403.421875 248.054688 Z M 374.988281 290.128906 C 374.988281 290.246094 374.820312 290.457031 374.632812 290.621094 C 374.253906 290.953125 374.207031 290.859375 374.421875 290.292969 C 374.5625 289.890625 374.988281 289.773438 374.988281 290.128906 Z M 409.933594 432.675781 C 410.074219 432.675781 410.097656 432.792969 410.027344 432.933594 C 409.863281 433.195312 408.964844 432.535156 408.964844 432.15625 C 408.964844 432.039062 409.132812 432.109375 409.34375 432.296875 C 409.53125 432.511719 409.816406 432.675781 409.933594 432.675781 Z M 409.933594 432.675781 " fill-opacity="1" fill-rule="nonzero"/><path fill="#ffde59" d="M 376.851562 288.429688 C 376.542969 288.804688 376.566406 288.828125 376.945312 288.523438 C 377.324219 288.214844 377.441406 288.027344 377.253906 288.027344 C 377.207031 288.027344 377.015625 288.214844 376.851562 288.429688 Z M 376.851562 288.429688 " fill-opacity="1" fill-rule="nonzero"/><path fill="#ffde59" d="M 408.257812 298.550781 C 407.929688 298.597656 406.890625 298.765625 405.945312 298.90625 C 399.953125 299.777344 393.203125 303.980469 389.335938 309.21875 C 388.105469 310.867188 386.03125 314.953125 385.417969 316.886719 C 384.425781 320.046875 384.308594 320.875 384.308594 325.308594 C 384.308594 329.179688 384.378906 329.910156 384.875 331.800781 C 385.179688 332.957031 385.535156 334.015625 385.652344 334.136719 C 385.746094 334.277344 385.839844 334.511719 385.839844 334.703125 C 385.839844 335.148438 388.105469 339.632812 388.554688 340.105469 C 388.742188 340.292969 388.910156 340.53125 388.910156 340.648438 C 388.910156 340.765625 389.167969 341.121094 389.5 341.449219 C 389.828125 341.78125 390.089844 342.085938 390.089844 342.160156 C 390.089844 342.628906 394.523438 346.6875 396.105469 347.65625 C 398.019531 348.859375 400.023438 349.898438 400.824219 350.109375 C 401.34375 350.253906 401.980469 350.464844 402.21875 350.605469 C 403.207031 351.125 406.113281 351.808594 407.667969 351.855469 C 408.589844 351.902344 409.957031 352 410.738281 352.09375 C 413.402344 352.375 419.46875 351.265625 420.527344 350.277344 C 420.789062 350.039062 421 349.945312 421 350.0625 C 421 350.417969 422.347656 349.875 422.511719 349.449219 C 422.605469 349.261719 422.816406 349.144531 422.984375 349.214844 C 423.171875 349.285156 423.691406 349.121094 424.117188 348.835938 C 424.539062 348.554688 425.296875 348.105469 425.816406 347.84375 C 426.308594 347.585938 426.898438 347.136719 427.136719 346.832031 C 427.371094 346.546875 427.679688 346.3125 427.820312 346.3125 C 427.960938 346.3125 428.199219 346.097656 428.363281 345.839844 C 428.527344 345.578125 428.789062 345.367188 428.90625 345.367188 C 429.332031 345.367188 431.40625 343.101562 431.335938 342.75 C 431.289062 342.558594 431.429688 342.441406 431.644531 342.488281 C 432.066406 342.558594 432.421875 341.921875 432.164062 341.546875 C 432.089844 341.402344 432.136719 341.355469 432.28125 341.449219 C 432.421875 341.519531 432.753906 341.308594 433.035156 340.953125 C 433.367188 340.53125 433.4375 340.269531 433.269531 340.222656 C 433.105469 340.152344 433.246094 339.988281 433.554688 339.847656 C 433.886719 339.679688 434.097656 339.351562 434.097656 339.019531 C 434.097656 338.738281 434.285156 338.382812 434.5 338.265625 C 435.277344 337.839844 436.929688 333.355469 437.636719 329.816406 C 438.179688 327.128906 438.039062 322.054688 437.304688 319.058594 C 437.023438 317.902344 436.667969 316.886719 436.527344 316.792969 C 436.292969 316.648438 436.222656 316.296875 436.125 315.09375 C 436.125 314.855469 436.007812 314.738281 435.867188 314.808594 C 435.75 314.878906 435.632812 314.738281 435.632812 314.503906 C 435.632812 314.007812 434.6875 312.023438 434.402344 311.90625 C 434.285156 311.859375 434.214844 311.71875 434.214844 311.625 C 434.214844 311.175781 432.679688 308.957031 431.808594 308.132812 C 431.574219 307.917969 431.382812 307.613281 431.382812 307.449219 C 431.382812 307.304688 431.171875 307.09375 430.910156 307.023438 C 430.652344 306.953125 430.441406 306.761719 430.441406 306.644531 C 430.441406 306.339844 428.527344 304.570312 428.03125 304.402344 C 427.796875 304.332031 427.609375 304.191406 427.609375 304.097656 C 427.609375 303.882812 425.554688 302.492188 423.949219 301.570312 C 421.425781 300.179688 416.375 298.597656 414.628906 298.691406 C 414.441406 298.691406 413.046875 298.644531 411.5625 298.574219 C 410.074219 298.503906 408.589844 298.480469 408.257812 298.550781 Z M 408.257812 298.550781 " fill-opacity="1" fill-rule="nonzero"/><path fill="#ffde59" d="M 402.949219 453.488281 C 402.855469 454.054688 402.832031 469.582031 402.878906 487.964844 L 402.949219 521.398438 L 417.460938 521.398438 L 417.460938 505.707031 C 417.460938 497.070312 417.554688 490.015625 417.671875 490.015625 C 417.957031 490.015625 419.609375 491.832031 424.304688 497.332031 C 426.570312 499.972656 428.976562 502.734375 429.613281 503.488281 C 430.273438 504.222656 432.398438 506.699219 434.332031 508.964844 C 436.292969 511.253906 437.992188 513.09375 438.132812 513.070312 C 438.273438 513.046875 440.304688 510.78125 442.640625 508.066406 C 444.976562 505.332031 449.363281 500.257812 452.382812 496.742188 C 455.40625 493.25 457.929688 490.226562 457.976562 490.085938 C 458.046875 489.921875 458.238281 489.78125 458.425781 489.78125 C 458.707031 489.78125 458.753906 492.234375 458.753906 505.566406 C 458.753906 520.3125 458.78125 521.351562 459.15625 521.496094 C 459.628906 521.683594 464.511719 521.660156 469.800781 521.46875 L 473.386719 521.328125 L 473.386719 452.378906 L 471.898438 453.914062 C 471.097656 454.761719 469.160156 456.886719 467.628906 458.632812 C 466.070312 460.378906 464.089844 462.621094 463.214844 463.585938 C 457.152344 470.40625 454.128906 473.804688 446.722656 482.183594 C 442.121094 487.375 438.25 491.644531 438.109375 491.644531 C 437.894531 491.644531 435.207031 488.671875 429.378906 482.039062 C 427.394531 479.796875 425.484375 477.652344 417.109375 468.1875 C 413.097656 463.660156 408.425781 458.394531 406.75 456.507812 C 405.074219 454.621094 403.5625 452.945312 403.398438 452.757812 C 403.160156 452.496094 403.066406 452.613281 402.949219 453.488281 Z M 402.949219 453.488281 " fill-opacity="1" fill-rule="nonzero"/><path fill="#ffde59" d="M 523.625 454.925781 C 522.890625 456.25 520.816406 460.09375 519.046875 463.46875 C 517.277344 466.84375 515.035156 471.042969 514.089844 472.789062 C 513.144531 474.535156 510.90625 478.738281 509.136719 482.109375 C 507.339844 485.484375 504.179688 491.433594 502.101562 495.324219 C 500.027344 499.21875 496.886719 505.164062 495.09375 508.539062 C 493.300781 511.914062 491.035156 516.160156 490.070312 517.976562 C 489.078125 519.796875 488.300781 521.28125 488.324219 521.304688 C 488.464844 521.398438 503.140625 521.566406 503.683594 521.46875 C 504.226562 521.351562 504.605469 520.761719 506.773438 516.304688 C 508.144531 513.519531 509.324219 511.253906 509.417969 511.253906 C 509.535156 511.230469 516.589844 511.207031 525.132812 511.183594 L 540.636719 511.136719 L 543.328125 516.328125 L 546.015625 521.519531 L 553.757812 521.421875 C 558.027344 521.375 561.566406 521.304688 561.613281 521.257812 C 561.730469 521.140625 561.117188 519.890625 559.445312 516.796875 C 557.035156 512.339844 554.511719 507.644531 553.144531 505 C 552.316406 503.441406 551.066406 501.058594 550.3125 499.691406 C 549.578125 498.320312 548.304688 495.9375 547.480469 494.382812 C 546.652344 492.824219 544.363281 488.53125 542.40625 484.824219 C 540.425781 481.121094 538.277344 477.085938 537.640625 475.859375 C 536.980469 474.632812 535.234375 471.328125 533.746094 468.542969 C 532.261719 465.757812 530.488281 462.453125 529.851562 461.226562 C 529.191406 460 528.035156 457.804688 527.257812 456.390625 C 526.503906 454.949219 525.746094 453.511719 525.582031 453.132812 C 525.441406 452.78125 525.226562 452.496094 525.132812 452.496094 C 525.015625 452.496094 524.355469 453.605469 523.625 454.925781 Z M 525.464844 482.015625 C 525.535156 482.277344 527.328125 486.003906 529.453125 490.277344 C 531.574219 494.570312 533.320312 498.226562 533.320312 498.394531 C 533.320312 498.558594 533.179688 498.722656 533.039062 498.769531 C 532.875 498.816406 529.097656 498.816406 524.636719 498.746094 L 516.566406 498.628906 L 519.28125 493.082031 C 520.792969 490.039062 522.65625 486.191406 523.480469 484.542969 C 524.285156 482.867188 525.039062 481.519531 525.132812 481.519531 C 525.25 481.519531 525.394531 481.734375 525.464844 482.015625 Z M 525.464844 482.015625 " fill-opacity="1" fill-rule="nonzero"/><path fill="#ffde59" d="M 187.910156 487.820312 L 187.984375 521.28125 L 195.226562 521.351562 L 202.496094 521.398438 L 202.542969 511.679688 L 202.613281 501.933594 L 211.460938 501.789062 C 220.285156 501.648438 221.441406 501.554688 225.007812 500.632812 C 234.066406 498.320312 240.390625 491.550781 241.902344 482.582031 C 242.324219 480.128906 242.089844 474.558594 241.476562 472.269531 C 239.613281 465.40625 235.128906 460.09375 228.6875 457.144531 C 226.539062 456.179688 225.242188 455.730469 222.433594 455.070312 C 220.382812 454.574219 219.71875 454.550781 204.074219 454.457031 L 187.839844 454.359375 Z M 218.070312 467.128906 C 224.132812 468.070312 228.355469 473.828125 227.484375 479.964844 C 227.035156 483.195312 226.164062 485.011719 224.109375 486.902344 C 223.234375 487.679688 222.292969 488.269531 221.324219 488.625 C 219.886719 489.144531 219.53125 489.167969 211.179688 489.261719 L 202.496094 489.332031 L 202.496094 488.316406 C 202.449219 479.871094 202.542969 467.246094 202.636719 467.105469 C 202.800781 466.820312 216.203125 466.84375 218.070312 467.128906 Z M 218.070312 467.128906 " fill-opacity="1" fill-rule="nonzero"/><path fill="#ffde59" d="M 257.945312 454.550781 C 257.898438 455.351562 257.96875 521.257812 258.019531 521.304688 C 258.136719 521.398438 271.773438 521.566406 272.058594 521.46875 C 272.292969 521.375 272.339844 519.230469 272.339844 511.089844 C 272.316406 505.449219 272.363281 500.777344 272.433594 500.707031 C 272.601562 500.539062 281.070312 500.351562 281.683594 500.492188 C 282.039062 500.585938 283.40625 502.191406 285.460938 504.953125 C 294.355469 516.726562 298.039062 521.398438 298.535156 521.421875 C 299.265625 521.496094 315.167969 521.351562 315.265625 521.257812 C 315.3125 521.234375 315.097656 520.832031 314.792969 520.410156 C 313.753906 518.96875 302.710938 504.550781 300.609375 501.933594 C 299.476562 500.515625 298.535156 499.21875 298.535156 499.078125 C 298.535156 498.9375 298.863281 498.675781 299.265625 498.511719 C 300.28125 498.085938 302.664062 496.527344 304.03125 495.347656 C 309.507812 490.769531 312.597656 482.722656 311.796875 475.195312 C 311.277344 470.597656 309.976562 467.007812 307.617188 463.707031 C 303.9375 458.5625 298.179688 455.351562 291.335938 454.621094 C 288.835938 454.359375 257.945312 454.289062 257.945312 454.550781 Z M 289.777344 467.128906 C 293.152344 467.695312 295.324219 469.488281 296.667969 472.835938 C 297.449219 474.796875 297.566406 479.066406 296.90625 481.238281 C 296.03125 484.09375 293.601562 486.546875 290.722656 487.445312 C 289.425781 487.84375 288.457031 487.890625 280.8125 487.890625 L 272.339844 487.890625 L 272.316406 486.996094 C 272.246094 484 272.386719 467.222656 272.484375 467.078125 C 272.671875 466.796875 288.03125 466.867188 289.777344 467.128906 Z M 289.777344 467.128906 " fill-opacity="1" fill-rule="nonzero"/><path fill="#ffde59" d="M 331.570312 487.890625 L 331.570312 521.398438 L 382.539062 521.398438 L 382.539062 508.894531 L 364.320312 508.847656 L 346.082031 508.777344 L 346.082031 501.765625 C 346.082031 497.921875 346.175781 494.6875 346.269531 494.570312 C 346.386719 494.476562 353.585938 494.382812 362.269531 494.382812 L 378.054688 494.382812 L 378.125 488.175781 L 378.171875 481.992188 L 346.269531 481.992188 L 346.105469 480.175781 C 345.914062 478.21875 345.964844 467.667969 346.128906 467.175781 C 346.222656 466.960938 350.09375 466.890625 364.390625 466.890625 L 382.539062 466.890625 L 382.539062 454.386719 L 331.570312 454.386719 Z M 331.570312 487.890625 " fill-opacity="1" fill-rule="nonzero"/><path fill="#ffde59" d="M 576.503906 487.84375 C 576.503906 519.558594 576.527344 521.351562 576.929688 521.421875 C 577.140625 521.46875 580.375 521.496094 584.101562 521.445312 L 590.898438 521.375 L 590.945312 510.96875 L 591.015625 500.539062 L 595.734375 500.445312 C 599.417969 500.375 600.550781 500.421875 600.832031 500.683594 C 601.042969 500.847656 602.863281 503.183594 604.890625 505.875 C 611.875 515.148438 616.808594 521.398438 617.160156 521.421875 C 617.988281 521.46875 633.960938 521.351562 634.03125 521.28125 C 634.152344 521.164062 625.46875 509.742188 619.425781 502.097656 C 618.269531 500.632812 617.328125 499.289062 617.328125 499.101562 C 617.328125 498.910156 617.867188 498.488281 618.554688 498.15625 C 623.980469 495.417969 628.203125 490.0625 629.855469 483.761719 C 630.351562 481.898438 630.421875 481.144531 630.398438 477.507812 C 630.375 473.828125 630.304688 473.121094 629.761719 471.042969 C 627.566406 462.832031 621.832031 457.359375 613.054688 455.046875 C 611.121094 454.550781 610.671875 454.527344 593.800781 454.457031 L 576.503906 454.359375 Z M 609.136719 467.246094 C 609.894531 467.433594 610.882812 467.789062 611.378906 468.046875 C 612.582031 468.660156 614.1875 470.3125 614.871094 471.65625 C 616.523438 474.890625 616.546875 479.847656 614.917969 483.007812 C 614.304688 484.234375 612.464844 486.074219 611.191406 486.710938 C 608.972656 487.84375 608.5 487.890625 599.464844 487.890625 L 590.898438 487.890625 L 590.898438 477.558594 C 590.898438 471.871094 590.96875 467.128906 591.0625 467.054688 C 591.132812 466.960938 594.933594 466.890625 599.511719 466.890625 C 606.09375 466.890625 608.078125 466.960938 609.136719 467.246094 Z M 609.136719 467.246094 " fill-opacity="1" fill-rule="nonzero"/></svg>