<svg xmlns="http://www.w3.org/2000/svg" xmlns:xlink="http://www.w3.org/1999/xlink" width="1080" zoomAndPan="magnify" viewBox="0 0 810 809.999993" height="1080" preserveAspectRatio="xMidYMid meet" version="1.0"><defs><clipPath id="fc9b5eb01f"><path d="M 30 30 L 780 30 L 780 780 L 30 780 Z M 30 30 " clip-rule="nonzero"/></clipPath><clipPath id="e215f34bf5"><path d="M 405 30 C 197.894531 30 30 197.894531 30 405 C 30 612.105469 197.894531 780 405 780 C 612.105469 780 780 612.105469 780 405 C 780 197.894531 612.105469 30 405 30 Z M 405 30 " clip-rule="nonzero"/></clipPath><clipPath id="6a0d882bcb"><path d="M 63.75 63.75 L 746.25 63.75 L 746.25 746.25 L 63.75 746.25 Z M 63.75 63.75 " clip-rule="nonzero"/></clipPath><clipPath id="ab3d101db1"><path d="M 405 63.75 C 216.53125 63.75 63.75 216.53125 63.75 405 C 63.75 593.46875 216.53125 746.25 405 746.25 C 593.46875 746.25 746.25 593.46875 746.25 405 C 746.25 216.53125 593.46875 63.75 405 63.75 Z M 405 63.75 " clip-rule="nonzero"/></clipPath></defs><rect x="-81" width="972" fill="#ffffff" y="-80.999999" height="971.999992" fill-opacity="1"/><rect x="-81" width="972" fill="#ffffff" y="-80.999999" height="971.999992" fill-opacity="1"/><g clip-path="url(#fc9b5eb01f)"><g clip-path="url(#e215f34bf5)"><path fill="#000000" d="M 30 30 L 780 30 L 780 780 L 30 780 Z M 30 30 " fill-opacity="1" fill-rule="nonzero"/></g></g><g clip-path="url(#6a0d882bcb)"><g clip-path="url(#ab3d101db1)"><path stroke-linecap="butt" transform="matrix(0.75, 0, 0, 0.75, 63.75, 63.750017)" fill="none" stroke-linejoin="miter" d="M 454.999993 -0.0000223904 C 203.70833 -0.0000223904 -0.000000390432 203.708308 -0.000000390432 454.999971 C -0.000000390432 706.291635 203.70833 909.999965 454.999993 909.999965 C 706.291657 909.999965 909.999987 706.291635 909.999987 454.999971 C 909.999987 203.708308 706.291657 -0.0000223904 454.999993 -0.0000223904 Z M 454.999993 -0.0000223904 " stroke="#ffde59" stroke-width="78" stroke-opacity="1" stroke-miterlimit="4"/></g></g><path fill="#ffde59" d="M 246.886719 151.152344 C 243.058594 151.890625 239.1875 155.371094 238.1875 158.9375 C 237.882812 160.023438 237.753906 202.476562 237.753906 291.035156 L 237.753906 421.527344 L 238.796875 423.703125 C 239.320312 424.875 240.539062 426.617188 241.449219 427.484375 C 244.539062 430.488281 244.277344 430.445312 271.027344 430.445312 L 295.039062 430.445312 L 295.953125 427.007812 C 296.472656 425.136719 296.910156 423.484375 296.910156 423.355469 C 296.910156 423.222656 295.386719 422.003906 293.558594 420.570312 C 285.339844 414.4375 276.246094 405.824219 270.160156 398.472656 C 263.9375 390.992188 257.589844 380.335938 254.628906 372.460938 C 251.019531 362.851562 249.714844 355.0625 250.0625 344.753906 C 250.410156 334.402344 252.585938 326.050781 257.023438 318.222656 C 263.632812 306.566406 275.59375 295.910156 290.296875 288.644531 C 308.738281 279.511719 329.445312 274.636719 355.847656 273.160156 L 361.066406 272.898438 L 361.066406 277.640625 L 353.019531 277.945312 C 332.054688 278.683594 314.65625 282.03125 298.867188 288.296875 C 278.421875 296.429688 264.113281 310.4375 258.242188 328.097656 C 254.585938 339.011719 253.628906 352.671875 255.804688 363.023438 C 258.980469 378.117188 266.851562 391.382812 280.421875 404.5625 C 288.167969 412.089844 298.476562 420.179688 298.867188 419.046875 C 311.4375 381.945312 329.792969 348.84375 352.976562 321.484375 C 355.410156 318.613281 360.71875 312.914062 364.71875 308.871094 C 383.207031 290.125 401.5625 276.726562 423.703125 265.808594 C 448.625 253.542969 471.722656 247.105469 502.648438 243.84375 C 518.523438 242.148438 548.449219 242.800781 564.847656 245.148438 C 566.414062 245.367188 568.023438 245.582031 568.457031 245.582031 C 569.15625 245.582031 569.199219 243.277344 569.199219 203.261719 C 569.199219 156.5 569.285156 158.199219 566.457031 154.847656 C 565.632812 153.933594 564.023438 152.675781 562.847656 152.066406 L 560.714844 150.976562 L 404.5625 150.933594 C 318.699219 150.890625 247.714844 150.976562 246.886719 151.152344 Z M 375.898438 269.984375 C 379.421875 273.289062 378.898438 278.25 374.769531 280.421875 C 367.808594 284.164062 362.109375 274.03125 368.679688 269.59375 C 370.722656 268.199219 374.203125 268.417969 375.898438 269.984375 Z M 375.898438 269.984375 " fill-opacity="1" fill-rule="nonzero"/><path fill="#ffde59" d="M 517.699219 245.625 C 496.125 246.84375 473.636719 251.714844 453.539062 259.5 L 449.886719 260.9375 L 452.367188 262.199219 C 453.714844 262.894531 457.105469 264.417969 459.890625 265.632812 L 464.980469 267.851562 L 467.371094 266.679688 C 486.207031 257.285156 504.476562 251.324219 523.699219 248.191406 C 530.3125 247.105469 540.359375 246.0625 545.058594 245.972656 L 548.535156 245.886719 L 545.710938 245.582031 C 542.011719 245.148438 525.351562 245.191406 517.699219 245.625 Z M 517.699219 245.625 " fill-opacity="1" fill-rule="nonzero"/><path fill="#ffde59" d="M 552.148438 247.628906 C 552.453125 247.757812 552.84375 247.714844 552.972656 247.582031 C 553.148438 247.453125 552.886719 247.324219 552.410156 247.367188 C 551.929688 247.367188 551.800781 247.496094 552.148438 247.628906 Z M 552.148438 247.628906 " fill-opacity="1" fill-rule="nonzero"/><path fill="#ffde59" d="M 542.011719 248.28125 C 522.4375 250.195312 506.128906 254.238281 488.425781 261.632812 C 484.902344 263.113281 473.417969 268.765625 472.070312 269.722656 C 471.199219 270.332031 471.199219 270.332031 472.027344 270.636719 C 472.460938 270.8125 473.851562 271.332031 475.027344 271.769531 C 476.246094 272.246094 480.03125 273.59375 483.464844 274.769531 C 489.640625 276.855469 489.773438 276.902344 490.644531 276.117188 C 492.121094 274.769531 499.472656 269.808594 504.605469 266.679688 C 518.828125 257.980469 533.445312 251.804688 547.015625 248.800781 L 551.582031 247.800781 L 548.535156 247.886719 C 546.882812 247.886719 543.925781 248.105469 542.011719 248.28125 Z M 542.011719 248.28125 " fill-opacity="1" fill-rule="nonzero"/><path fill="#ffde59" d="M 562.238281 249.671875 C 553.234375 252.847656 543.796875 260.371094 535.53125 270.984375 C 532.703125 274.59375 524.746094 286.121094 524.960938 286.296875 C 525.003906 286.339844 528.570312 287.078125 532.878906 287.949219 C 537.183594 288.820312 541.664062 289.730469 542.796875 289.949219 C 546.972656 290.820312 546.625 291.167969 549.191406 283.730469 C 551.234375 277.902344 553.105469 272.941406 555.714844 266.460938 C 557.714844 261.546875 561.890625 254.066406 564.5 250.714844 C 565.195312 249.84375 565.585938 249.019531 565.414062 248.933594 C 565.195312 248.800781 563.761719 249.148438 562.238281 249.671875 Z M 562.238281 249.671875 " fill-opacity="1" fill-rule="nonzero"/><path fill="#ffde59" d="M 567.371094 250.496094 C 564.890625 254.5 561.671875 263.765625 558.585938 275.855469 C 557.0625 281.902344 554.84375 291.429688 554.84375 291.949219 C 554.84375 291.992188 555.671875 292.125 556.714844 292.253906 C 557.714844 292.429688 560.5 292.820312 562.847656 293.210938 C 565.238281 293.558594 567.632812 293.863281 568.199219 293.863281 L 569.199219 293.863281 L 569.199219 271.246094 C 569.199219 258.804688 569.066406 248.628906 568.894531 248.628906 C 568.675781 248.628906 568.023438 249.453125 567.371094 250.496094 Z M 567.371094 250.496094 " fill-opacity="1" fill-rule="nonzero"/><path fill="#ffde59" d="M 549.625 250.585938 C 533.964844 254.804688 520.917969 260.980469 507.214844 270.722656 C 500.910156 275.203125 496.820312 278.640625 497.296875 279.074219 C 497.644531 279.378906 512.914062 283.597656 515.523438 284.121094 C 516.785156 284.382812 517.046875 284.164062 520.960938 279.207031 C 528.355469 269.941406 538.878906 259.761719 546.320312 254.71875 C 547.535156 253.933594 550.320312 252.324219 552.582031 251.148438 C 554.886719 250.019531 556.367188 249.0625 555.886719 249.105469 C 555.453125 249.105469 552.625 249.800781 549.625 250.585938 Z M 549.625 250.585938 " fill-opacity="1" fill-rule="nonzero"/><path fill="#ffde59" d="M 438.707031 266.15625 C 430.398438 270.375 429.921875 270.636719 422.398438 275.246094 C 413.132812 280.902344 404.476562 287.164062 396.691406 293.863281 C 391.46875 298.34375 379.988281 309.4375 379.988281 310 C 379.988281 310.4375 385.425781 313.960938 392.167969 317.875 L 398.039062 321.265625 L 403.257812 315.742188 C 420.484375 297.472656 436.183594 284.597656 454.714844 273.636719 C 457.847656 271.769531 460.457031 270.113281 460.457031 269.984375 C 460.414062 269.59375 447.101562 262.546875 446.449219 262.546875 C 446.144531 262.546875 442.667969 264.199219 438.707031 266.15625 Z M 438.707031 266.15625 " fill-opacity="1" fill-rule="nonzero"/><path fill="#ffde59" d="M 461.066406 276.378906 C 443.710938 287.730469 428.835938 301.214844 413.785156 319.179688 C 411.175781 322.3125 408.261719 326.183594 408.261719 326.488281 C 408.261719 326.964844 430.488281 337.144531 433.269531 337.96875 C 433.96875 338.1875 434.402344 337.796875 435.445312 336.144531 C 437.96875 332.097656 446.320312 320.570312 450.453125 315.4375 C 459.71875 303.957031 470.242188 292.90625 479.726562 284.816406 C 482.292969 282.640625 484.378906 280.683594 484.335938 280.511719 C 484.335938 280.292969 480.941406 278.769531 476.855469 277.074219 C 472.722656 275.378906 468.9375 273.769531 468.417969 273.507812 C 467.894531 273.203125 467.199219 272.984375 466.851562 272.984375 C 466.546875 272.984375 463.9375 274.507812 461.066406 276.378906 Z M 461.066406 276.378906 " fill-opacity="1" fill-rule="nonzero"/><path fill="#ffde59" d="M 485.902344 289.210938 C 474.375 300.910156 465.199219 312.828125 454.453125 329.964844 C 451.015625 335.492188 446.972656 342.582031 446.972656 343.101562 C 446.972656 343.625 458.019531 347.582031 470.242188 351.539062 C 474.332031 352.84375 477.898438 354.019531 478.203125 354.105469 C 478.550781 354.238281 479.03125 353.671875 479.464844 352.671875 C 487.730469 332.75 497.90625 313.21875 509.257812 295.558594 C 512.695312 290.125 513 289.515625 512.085938 289.515625 C 511.695312 289.515625 507.042969 288.035156 501.691406 286.253906 L 491.992188 283.035156 Z M 485.902344 289.210938 " fill-opacity="1" fill-rule="nonzero"/><path fill="#ffde59" d="M 521.003906 293.125 C 520.308594 293.949219 512.042969 310.566406 510.171875 314.871094 C 506.691406 322.875 503.910156 329.921875 500.910156 338.011719 C 496.992188 348.582031 493.863281 358.371094 494.253906 358.675781 C 495.035156 359.328125 526.613281 367.375 528.355469 367.375 C 528.789062 367.375 529.222656 365.765625 529.964844 361.589844 C 533.488281 341.710938 538.445312 319.484375 542.707031 304.609375 C 543.621094 301.300781 544.316406 298.429688 544.1875 298.257812 C 544.101562 298.039062 542.753906 297.648438 541.273438 297.386719 C 538.707031 296.867188 536.140625 296.257812 526.265625 293.601562 C 521.65625 292.386719 521.613281 292.386719 521.003906 293.125 Z M 521.003906 293.125 " fill-opacity="1" fill-rule="nonzero"/><path fill="#ffde59" d="M 552.496094 304.171875 C 550.363281 315.875 548.101562 334.230469 546.625 351.496094 C 545.449219 365.328125 545.101562 371.289062 545.535156 371.289062 C 545.710938 371.289062 550.710938 372.246094 556.671875 373.464844 C 562.628906 374.636719 567.847656 375.636719 568.328125 375.636719 C 569.199219 375.636719 569.199219 375.246094 569.199219 339.535156 L 569.199219 303.433594 L 568.242188 303.214844 C 562.457031 301.996094 554.453125 300.386719 553.886719 300.386719 C 553.363281 300.386719 553.015625 301.257812 552.496094 304.171875 Z M 552.496094 304.171875 " fill-opacity="1" fill-rule="nonzero"/><path fill="#ffde59" d="M 375.679688 314.21875 C 357.71875 334.445312 342.230469 358.28125 330.402344 384.03125 C 328.097656 389.078125 328.050781 389.207031 328.878906 389.859375 C 329.792969 390.558594 346.363281 398.910156 348.105469 399.605469 C 349.105469 399.953125 349.234375 399.820312 350.496094 397.039062 C 361.542969 372.550781 375.464844 349.582031 390.949219 330.183594 C 393.078125 327.574219 394.777344 325.3125 394.777344 325.136719 C 394.777344 325.007812 393.339844 324.007812 391.644531 322.917969 C 389.90625 321.789062 385.988281 319.136719 382.945312 316.960938 C 379.902344 314.785156 377.246094 313.003906 377.074219 313.003906 C 376.855469 313.003906 376.246094 313.566406 375.679688 314.21875 Z M 375.679688 314.21875 " fill-opacity="1" fill-rule="nonzero"/><path fill="#ffde59" d="M 401.648438 335.273438 C 389.6875 352.238281 377.378906 375.464844 368.503906 397.691406 C 366.722656 402.171875 365.199219 406.128906 365.113281 406.433594 C 364.980469 407.042969 368.027344 408.390625 378.246094 412.261719 C 387.859375 415.871094 394.949219 418.265625 395.253906 417.917969 C 395.386719 417.742188 395.777344 416.742188 396.082031 415.65625 C 397.039062 412.4375 405.347656 391.949219 408.261719 385.640625 C 414.046875 372.984375 423.613281 354.757812 428.53125 347.015625 C 429.355469 345.753906 430.007812 344.667969 430.007812 344.582031 C 430.007812 344.449219 428.878906 343.839844 427.53125 343.1875 C 424.398438 341.753906 407.476562 332.707031 406.304688 331.878906 C 405.824219 331.53125 405.257812 331.269531 404.953125 331.269531 C 404.695312 331.269531 403.214844 333.097656 401.648438 335.273438 Z M 401.648438 335.273438 " fill-opacity="1" fill-rule="nonzero"/><path fill="#ffde59" d="M 441.578125 353.195312 C 438.664062 358.457031 432.359375 372.375 427.964844 383.25 C 423.222656 395.039062 414.394531 420.4375 414.21875 422.875 C 414.132812 424.09375 414.261719 424.136719 418.265625 425.3125 C 420.527344 425.964844 425.964844 427.398438 430.269531 428.484375 L 438.140625 430.488281 L 445.277344 430.355469 L 452.367188 430.226562 L 453.191406 427.398438 C 459.0625 406.910156 465.980469 386.292969 472.503906 369.808594 C 473.808594 366.503906 474.722656 363.632812 474.503906 363.414062 C 474.332031 363.242188 470.328125 361.632812 465.675781 359.847656 C 461.023438 358.066406 454.019531 355.238281 450.148438 353.542969 L 443.101562 350.496094 Z M 441.578125 353.195312 " fill-opacity="1" fill-rule="nonzero"/><path fill="#ffde59" d="M 489.46875 372.898438 C 485.074219 387.425781 475.246094 426.832031 475.246094 429.792969 C 475.246094 430.355469 477.984375 430.445312 497.601562 430.445312 L 520.003906 430.445312 L 520.222656 428.574219 C 520.394531 427.574219 520.960938 422.613281 521.570312 417.613281 C 522.179688 412.566406 523.570312 402.300781 524.613281 394.777344 C 525.703125 387.25 526.613281 380.683594 526.703125 380.203125 C 526.789062 379.292969 527.613281 379.550781 512.871094 375.464844 C 508.085938 374.117188 501.34375 372.15625 497.863281 371.070312 C 494.382812 369.984375 491.339844 369.113281 491.078125 369.113281 C 490.816406 369.113281 490.078125 370.808594 489.46875 372.898438 Z M 489.46875 372.898438 " fill-opacity="1" fill-rule="nonzero"/><path fill="#ffde59" d="M 544.621094 383.902344 C 544.363281 384.335938 543.578125 407.433594 543.40625 420.351562 L 543.273438 430.488281 L 552.453125 430.355469 L 561.671875 430.226562 L 563.542969 428.964844 C 564.585938 428.269531 565.980469 427.09375 566.675781 426.355469 C 569.023438 423.789062 569.199219 422.265625 569.199219 404.695312 L 569.199219 388.6875 L 568.242188 388.511719 C 567.675781 388.382812 565.109375 387.859375 562.457031 387.339844 C 559.847656 386.816406 554.800781 385.773438 551.234375 384.988281 C 547.710938 384.207031 544.710938 383.726562 544.621094 383.902344 Z M 544.621094 383.902344 " fill-opacity="1" fill-rule="nonzero"/><path fill="#ffde59" d="M 324.179688 398.125 C 320.179688 407.78125 312.566406 428.703125 312.566406 430.09375 C 312.566406 430.269531 318.179688 430.445312 325.09375 430.445312 L 337.578125 430.445312 L 339.621094 424.441406 C 340.710938 421.136719 342.710938 415.65625 344.058594 412.261719 C 345.40625 408.824219 346.496094 405.953125 346.496094 405.867188 C 346.496094 405.78125 345.363281 405.085938 344.015625 404.300781 C 340.578125 402.386719 332.011719 397.167969 329.007812 395.125 C 327.660156 394.210938 326.441406 393.472656 326.355469 393.472656 C 326.226562 393.472656 325.269531 395.558594 324.179688 398.125 Z M 324.179688 398.125 " fill-opacity="1" fill-rule="nonzero"/><path fill="#ffde59" d="M 359.542969 421.960938 C 358.109375 426.3125 356.933594 430.050781 356.933594 430.183594 C 356.933594 430.3125 364.632812 430.445312 374.070312 430.445312 L 391.210938 430.445312 L 391.6875 429.09375 C 392.253906 427.441406 392.167969 427.3125 390.121094 426.398438 C 389.207031 426.007812 385.730469 424.527344 382.378906 423.09375 C 379.03125 421.699219 373.941406 419.394531 371.070312 418.046875 C 368.199219 416.699219 365.023438 415.21875 364.023438 414.785156 L 362.199219 413.957031 Z M 359.542969 421.960938 " fill-opacity="1" fill-rule="nonzero"/><path fill="#ffde59" d="M 581.8125 416.089844 C 581.8125 416.828125 582.117188 416.960938 583.988281 416.960938 L 586.117188 416.960938 L 586.25 422.703125 C 586.378906 427.789062 586.464844 428.484375 587.160156 428.617188 C 587.816406 428.746094 587.902344 428.269531 587.902344 422.875 L 587.902344 416.960938 L 590.292969 416.960938 C 592.382812 416.960938 592.6875 416.871094 592.6875 416.089844 C 592.6875 415.261719 592.382812 415.21875 587.25 415.21875 C 582.117188 415.21875 581.8125 415.261719 581.8125 416.089844 Z M 581.8125 416.089844 " fill-opacity="1" fill-rule="nonzero"/><path fill="#ffde59" d="M 594.207031 415.742188 C 594.078125 416.089844 594.035156 419.089844 594.078125 422.398438 C 594.207031 427.746094 594.296875 428.484375 594.949219 428.617188 C 595.644531 428.746094 595.730469 428.183594 595.816406 423.179688 L 595.949219 417.613281 L 597.863281 423.179688 C 599.515625 428.09375 599.863281 428.746094 600.644531 428.617188 C 601.386719 428.53125 601.863281 427.484375 603.300781 423.265625 L 605.082031 418.046875 L 605.214844 423.398438 C 605.300781 428.183594 605.386719 428.746094 606.082031 428.617188 C 606.734375 428.484375 606.824219 427.789062 606.824219 421.960938 L 606.824219 415.4375 L 605.5625 415.4375 C 604.34375 415.4375 604.257812 415.609375 602.515625 420.742188 C 601.558594 423.703125 600.644531 426.09375 600.515625 426.09375 C 600.386719 426.09375 599.515625 423.703125 598.515625 420.742188 C 596.90625 415.828125 596.6875 415.4375 595.601562 415.308594 C 594.90625 415.21875 594.339844 415.394531 594.207031 415.742188 Z M 594.207031 415.742188 " fill-opacity="1" fill-rule="nonzero"/><path fill="#ffde59" d="M 234.707031 452.976562 L 236.230469 454.28125 L 236.449219 486.816406 C 236.578125 504.734375 236.535156 520.089844 236.363281 520.917969 C 236.1875 521.875 235.535156 522.875 234.621094 523.613281 L 233.1875 524.789062 L 240.929688 524.699219 C 248.148438 524.65625 249.84375 524.394531 247.757812 523.742188 C 245.714844 523.089844 245.582031 521.960938 245.582031 505.867188 L 245.582031 490.773438 L 250.324219 490.992188 C 257.804688 491.296875 257.457031 490.949219 268.417969 509.304688 C 271.507812 514.523438 274.898438 519.742188 275.945312 520.917969 C 278.421875 523.789062 280.121094 524.308594 287.339844 524.570312 L 293.210938 524.746094 L 291.167969 523.699219 C 288.253906 522.222656 285.816406 519.089844 276.246094 504.605469 C 268.765625 493.296875 265.199219 488.730469 263.851562 488.730469 C 262.765625 488.730469 263.632812 487.988281 265.9375 486.902344 C 270.722656 484.640625 275.117188 479.683594 276.945312 474.550781 C 279.511719 467.328125 275.988281 459.0625 268.679688 455.105469 C 264.070312 452.582031 260.980469 452.148438 246.453125 451.886719 L 233.1875 451.671875 Z M 261.675781 457.238281 C 266.503906 459.457031 268.679688 462.847656 268.984375 468.71875 C 269.375 476.507812 265.808594 482.335938 258.761719 485.554688 C 256.5 486.597656 255.71875 486.726562 251.019531 486.726562 L 245.800781 486.773438 L 245.667969 471.765625 C 245.625 463.5 245.667969 456.5 245.800781 456.148438 C 246.019531 455.671875 247.191406 455.585938 252.671875 455.84375 C 258.371094 456.105469 259.589844 456.324219 261.675781 457.238281 Z M 261.675781 457.238281 " fill-opacity="1" fill-rule="nonzero"/><path fill="#ffde59" d="M 302.300781 453.234375 L 303.867188 454.671875 L 303.867188 521.875 L 302.257812 523.351562 L 300.648438 524.832031 L 322.136719 524.746094 L 343.625 524.613281 L 344.40625 520.265625 C 344.796875 517.871094 345.277344 515.21875 345.40625 514.390625 L 345.667969 512.871094 L 344.40625 514.828125 C 341.667969 519.089844 340.058594 519.699219 331.140625 519.960938 C 325.136719 520.132812 316.394531 519.613281 313.523438 518.871094 L 312.566406 518.65625 L 312.65625 502.910156 L 312.785156 487.207031 L 320.832031 487.078125 C 329.75 486.945312 332.140625 487.292969 334.011719 489.078125 L 335.230469 490.25 L 335.140625 485.335938 C 335.097656 482.683594 335.011719 480.464844 334.882812 480.464844 C 334.75 480.464844 334.097656 480.941406 333.402344 481.507812 C 331.75 482.902344 329.445312 483.160156 320.179688 482.988281 L 312.785156 482.855469 L 312.65625 469.460938 L 312.566406 456.105469 L 324.3125 456.105469 C 337.273438 456.105469 337.925781 456.238281 339.40625 458.714844 C 340.449219 460.5 341.015625 460.371094 340.667969 458.367188 C 340.535156 457.5 340.40625 455.628906 340.40625 454.234375 L 340.40625 451.757812 L 300.78125 451.757812 Z M 302.300781 453.234375 " fill-opacity="1" fill-rule="nonzero"/><path fill="#ffde59" d="M 426.136719 452.800781 C 426.789062 453.367188 427.53125 454.191406 427.789062 454.714844 C 428.136719 455.367188 428.269531 465.109375 428.269531 488.292969 C 428.269531 523.351562 428.269531 523.046875 426.09375 523.742188 C 425.617188 523.875 425.222656 524.222656 425.222656 524.441406 C 425.222656 524.917969 466.675781 524.832031 467.414062 524.394531 C 467.765625 524.179688 469.15625 515.652344 469.15625 514 C 469.15625 513.871094 468.328125 514.566406 467.328125 515.566406 C 463.761719 519.003906 463.980469 518.960938 449.667969 519.089844 L 436.96875 519.21875 L 437.054688 486.945312 L 437.1875 454.714844 L 438.882812 453.234375 L 440.578125 451.757812 L 432.792969 451.757812 L 425.007812 451.800781 Z M 426.136719 452.800781 " fill-opacity="1" fill-rule="nonzero"/><path fill="#ffde59" d="M 457.410156 456.410156 L 457.410156 461.109375 L 458.238281 459.761719 C 458.671875 459.019531 459.585938 458.019531 460.238281 457.5 C 461.414062 456.585938 461.847656 456.542969 471.808594 456.542969 L 482.203125 456.542969 L 482.203125 521.4375 L 480.683594 522.960938 C 479.855469 523.789062 479.160156 524.570312 479.160156 524.65625 C 479.160156 524.699219 482.507812 524.789062 486.554688 524.789062 C 490.644531 524.789062 493.949219 524.699219 493.949219 524.570312 C 493.949219 524.484375 493.296875 523.832031 492.558594 523.136719 L 491.121094 521.875 L 490.992188 489.207031 L 490.902344 456.542969 L 511.695312 456.542969 L 513.128906 457.714844 C 513.871094 458.367188 514.785156 459.5 515.089844 460.238281 C 515.609375 461.414062 515.652344 461.109375 515.695312 456.628906 L 515.695312 451.757812 L 457.410156 451.757812 Z M 457.410156 456.410156 " fill-opacity="1" fill-rule="nonzero"/><path fill="#ffde59" d="M 522.65625 451.972656 C 522.65625 452.0625 523.613281 453.0625 524.746094 454.148438 C 525.917969 455.238281 529.832031 460.5 533.53125 465.980469 C 537.226562 471.460938 541.664062 478.027344 543.40625 480.59375 L 546.578125 485.335938 L 546.578125 502.34375 C 546.578125 512.695312 546.40625 520.046875 546.144531 521.003906 C 545.882812 521.875 545.101562 523.046875 544.40625 523.613281 L 543.144531 524.613281 L 550.710938 524.613281 C 557.84375 524.613281 559.5 524.394531 557.453125 523.742188 C 555.367188 523.089844 555.277344 522.132812 555.277344 503.953125 L 555.277344 486.945312 L 563.324219 470.9375 C 571.15625 455.324219 571.9375 454.019531 574.679688 452.367188 C 575.332031 451.972656 574.417969 451.84375 570.328125 451.800781 C 565.285156 451.757812 565.152344 451.757812 565.847656 452.539062 C 566.238281 452.976562 566.589844 453.757812 566.589844 454.28125 C 566.589844 455.191406 553.539062 481.769531 553.105469 481.769531 C 552.496094 481.726562 536.921875 457.585938 536.707031 456.367188 C 536.488281 454.933594 537.226562 454.019531 539.882812 452.324219 C 540.535156 451.929688 538.835938 451.800781 531.703125 451.800781 C 526.703125 451.757812 522.65625 451.84375 522.65625 451.972656 Z M 522.65625 451.972656 " fill-opacity="1" fill-rule="nonzero"/><path fill="#ffde59" d="M 385.121094 452.671875 C 384.292969 454.714844 371.503906 485.46875 370.636719 487.425781 C 369.636719 489.730469 360.890625 510.824219 358.890625 515.695312 C 357.152344 519.960938 356.019531 522.089844 354.933594 523.089844 C 354.367188 523.65625 353.890625 524.222656 353.890625 524.351562 C 353.890625 524.484375 356.152344 524.613281 358.890625 524.613281 C 361.632812 524.613281 363.894531 524.527344 363.894531 524.394531 C 363.894531 524.265625 363.503906 523.832031 363.023438 523.394531 C 362.546875 523.003906 362.152344 522.132812 362.152344 521.480469 C 362.152344 520.785156 363.808594 516.347656 365.808594 511.566406 L 369.417969 502.867188 L 382.859375 502.734375 L 396.34375 502.648438 L 399.734375 511.171875 C 401.5625 515.871094 403.128906 520.351562 403.128906 521.046875 C 403.171875 521.960938 402.824219 522.65625 402.039062 523.351562 C 401.386719 523.917969 400.867188 524.394531 400.867188 524.484375 C 400.867188 524.570312 404.605469 524.613281 409.171875 524.613281 C 416.699219 524.613281 417.351562 524.570312 416.480469 523.960938 C 413.261719 521.785156 413.21875 521.742188 399.386719 486.945312 C 391.992188 468.417969 385.816406 453.019531 385.640625 452.671875 C 385.382812 452.191406 385.292969 452.191406 385.121094 452.671875 Z M 388.90625 483.507812 C 391.6875 490.554688 394.082031 496.601562 394.210938 496.863281 C 394.386719 497.296875 391.992188 497.429688 383.074219 497.429688 C 376.8125 497.429688 371.722656 497.339844 371.722656 497.253906 C 371.722656 497.082031 375.375 488.25 376.246094 486.335938 C 376.898438 484.902344 381.988281 472.636719 382.640625 470.9375 C 382.902344 470.328125 383.207031 470.070312 383.421875 470.285156 C 383.640625 470.503906 386.078125 476.464844 388.90625 483.507812 Z M 388.90625 483.507812 " fill-opacity="1" fill-rule="nonzero"/><path fill="#ffde59" d="M 346.058594 534.445312 C 338.796875 534.878906 334.96875 536.097656 329.3125 539.835938 C 323.222656 543.796875 317.4375 550.320312 314.785156 556.234375 C 312.351562 561.628906 311.957031 563.675781 311.957031 570.285156 C 312.003906 575.59375 312.132812 576.851562 313.175781 580.289062 C 317.484375 594.601562 326.441406 604.039062 338.96875 607.34375 C 342.667969 608.300781 344.101562 608.476562 349.976562 608.476562 C 362.242188 608.476562 369.503906 605.734375 376.59375 598.425781 C 381.769531 593.078125 385.207031 586.769531 387.46875 578.417969 C 388.730469 573.765625 388.816406 563.761719 387.644531 559.628906 C 383.902344 546.839844 374.160156 537.53125 362.109375 535.226562 C 358.066406 534.488281 351.28125 534.140625 346.058594 534.445312 Z M 357.804688 539.359375 C 364.851562 541.316406 370.679688 546.101562 374.203125 552.886719 C 377.03125 558.324219 377.8125 561.804688 377.8125 568.761719 C 377.8125 578.722656 375.8125 586.597656 371.765625 592.816406 C 369.375 596.425781 365.15625 600.515625 362.242188 601.996094 C 355.847656 605.214844 344.886719 605.167969 338.230469 601.949219 C 334.535156 600.167969 329.75 595.035156 327.488281 590.511719 C 325.183594 585.8125 324.007812 582.203125 323.179688 577.027344 C 322.355469 572.113281 322.617188 564.28125 323.660156 560.28125 C 325.355469 554.0625 328.921875 547.929688 332.792969 544.492188 C 335.402344 542.1875 340.144531 539.75 343.539062 538.96875 C 346.886719 538.226562 354.28125 538.402344 357.804688 539.359375 Z M 357.804688 539.359375 " fill-opacity="1" fill-rule="nonzero"/><path fill="#ffde59" d="M 229.664062 536.574219 C 232.1875 538.183594 232.316406 538.445312 241.015625 560.0625 C 244.539062 568.804688 250.238281 582.941406 253.671875 591.554688 C 257.152344 600.125 260.109375 607.429688 260.328125 607.78125 C 260.546875 608.214844 262.632812 602.996094 266.460938 592.597656 C 269.636719 583.898438 272.507812 576.332031 272.8125 575.722656 C 273.332031 574.679688 273.378906 574.679688 273.683594 575.503906 C 278.378906 587.816406 286.90625 608.386719 287.078125 607.910156 C 287.816406 605.996094 295.386719 585.160156 303.304688 563.324219 C 311.4375 540.882812 312.480469 538.359375 313.917969 536.878906 L 315.527344 535.269531 L 311.351562 535.269531 C 308.085938 535.269531 307.304688 535.402344 307.695312 535.792969 C 308 536.097656 308.21875 536.75 308.21875 537.316406 C 308.21875 538.140625 303.867188 550.449219 291.601562 584.203125 C 290.382812 587.554688 289.253906 590.46875 289.078125 590.640625 C 288.90625 590.859375 286.207031 584.597656 283.078125 576.722656 L 277.378906 562.414062 L 280.726562 553.320312 C 282.597656 548.277344 284.6875 542.664062 285.339844 540.839844 C 286.164062 538.578125 286.992188 537.097656 287.863281 536.359375 L 289.167969 535.269531 L 281.25 535.269531 L 281.730469 536.316406 C 282.121094 537.140625 282.03125 537.96875 281.25 540.359375 C 280.511719 542.753906 276.726562 553.84375 275.769531 556.582031 C 275.421875 557.585938 268.636719 541.445312 268.636719 539.621094 C 268.636719 537.878906 268.808594 537.53125 270.550781 536.226562 L 271.8125 535.269531 L 254.152344 535.269531 L 255.976562 536.574219 C 258.285156 538.273438 258.847656 539.183594 262.023438 546.925781 C 267.941406 561.195312 270.8125 568.371094 270.8125 568.894531 C 270.855469 569.589844 262.851562 590.945312 262.546875 590.945312 C 262.417969 590.945312 260.414062 586.207031 258.109375 580.375 C 255.761719 574.589844 251.585938 564.28125 248.800781 557.453125 C 241.625 539.792969 241.929688 540.578125 242.363281 538.792969 C 242.625 537.792969 243.277344 536.921875 244.234375 536.269531 L 245.714844 535.269531 L 227.574219 535.269531 Z M 229.664062 536.574219 " fill-opacity="1" fill-rule="nonzero"/><path fill="#ffde59" d="M 397.300781 535.835938 C 399.691406 537.226562 399.605469 535.488281 399.605469 571.675781 L 399.605469 605.082031 L 398.082031 606.472656 L 396.515625 607.910156 L 411.785156 607.910156 L 410.261719 606.429688 L 408.695312 604.996094 L 408.695312 574.417969 L 413.046875 574.417969 C 415.742188 574.417969 417.960938 574.636719 418.828125 575.027344 C 421.222656 575.984375 423.441406 579.027344 430.660156 591.164062 C 440.40625 607.429688 441.011719 607.953125 451.234375 607.910156 L 455.890625 607.867188 L 454.324219 607.039062 C 451.582031 605.605469 448.496094 601.644531 439.359375 587.902344 C 432.488281 577.503906 430.007812 574.113281 428.441406 572.9375 L 426.398438 571.371094 L 428.53125 570.414062 C 432.792969 568.546875 436.53125 564.890625 439.230469 559.933594 C 440.578125 557.367188 440.664062 556.976562 440.664062 552.886719 C 440.664062 548.753906 440.578125 548.40625 439.1875 545.839844 C 436.664062 541.144531 432.574219 538.011719 426.703125 536.316406 C 424.570312 535.707031 421.789062 535.53125 410.21875 535.402344 C 398.605469 535.269531 396.472656 535.359375 397.300781 535.835938 Z M 425.355469 540.621094 C 430.183594 543.011719 432.445312 547.535156 432.097656 553.972656 C 431.703125 560.585938 428.441406 565.585938 422.65625 568.457031 C 419.960938 569.761719 419.484375 569.851562 414.261719 570.023438 L 408.695312 570.15625 L 408.695312 539.097656 L 415.785156 539.273438 C 422.484375 539.402344 422.960938 539.445312 425.355469 540.621094 Z M 425.355469 540.621094 " fill-opacity="1" fill-rule="nonzero"/><path fill="#ffde59" d="M 459.671875 536.269531 C 460.28125 536.792969 461.023438 537.664062 461.28125 538.183594 C 461.933594 539.488281 461.933594 602.996094 461.28125 604.734375 C 461.066406 605.386719 460.324219 606.386719 459.671875 606.910156 L 458.5 607.867188 L 479.855469 607.910156 L 501.210938 607.910156 L 501.734375 603.863281 C 501.996094 601.691406 502.34375 599.167969 502.472656 598.339844 L 502.734375 596.816406 L 500.953125 598.6875 C 497.472656 602.34375 496.777344 602.472656 482.855469 602.472656 L 470.679688 602.472656 L 470.679688 537.792969 L 472.113281 536.53125 L 473.503906 535.269531 L 458.5 535.269531 Z M 459.671875 536.269531 " fill-opacity="1" fill-rule="nonzero"/><path fill="#ffde59" d="M 510.085938 536.488281 L 511.566406 537.792969 L 511.695312 569.808594 C 511.78125 601.644531 511.78125 601.863281 510.867188 603.996094 C 510.347656 605.167969 509.695312 606.386719 509.347656 606.648438 C 509 606.910156 508.738281 607.300781 508.738281 607.519531 C 508.738281 608.082031 536.226562 607.996094 541.230469 607.429688 C 545.925781 606.910156 551.710938 605.386719 554.84375 603.777344 C 569.71875 596.253906 579.113281 575.941406 575.027344 560.238281 C 574.027344 556.324219 572.675781 553.625 569.894531 549.886719 C 565.238281 543.578125 561.324219 540.488281 555.191406 538.273438 C 548.667969 535.878906 546.230469 535.617188 526.613281 535.402344 L 508.605469 535.183594 Z M 543.101562 539.835938 C 544.882812 540.230469 548.015625 541.316406 550.015625 542.273438 C 552.972656 543.664062 554.277344 544.621094 557.191406 547.535156 C 563.066406 553.453125 565.980469 560.324219 566.457031 569.242188 C 566.894531 577.722656 564.980469 583.988281 559.890625 590.859375 C 554.886719 597.558594 551.496094 599.992188 544.621094 601.863281 C 541.535156 602.734375 539.96875 602.820312 530.921875 602.863281 L 520.699219 602.90625 L 520.570312 570.765625 L 520.480469 538.621094 L 530.136719 538.878906 C 536.664062 539.054688 540.925781 539.359375 543.101562 539.835938 Z M 543.101562 539.835938 " fill-opacity="1" fill-rule="nonzero"/><path fill="#ffde59" d="M 581.160156 536.488281 C 577.855469 537.140625 575.722656 539.535156 575.722656 542.707031 C 575.722656 549.492188 584.769531 551.710938 587.945312 545.710938 C 588.421875 544.882812 588.769531 543.664062 588.769531 542.96875 C 588.769531 539.097656 584.898438 535.792969 581.160156 536.488281 Z M 585.464844 538.792969 C 587.945312 540.96875 588.117188 544.058594 585.8125 546.625 C 583.550781 549.144531 579.203125 548.667969 577.679688 545.710938 C 576.808594 544.058594 576.851562 541.1875 577.722656 539.792969 C 579.507812 537.140625 583.074219 536.664062 585.464844 538.792969 Z M 585.464844 538.792969 " fill-opacity="1" fill-rule="nonzero"/><path fill="#ffde59" d="M 579.636719 542.925781 C 579.636719 545.710938 579.769531 546.625 580.203125 546.492188 C 580.464844 546.363281 580.769531 545.578125 580.855469 544.710938 C 580.984375 543.273438 581.074219 543.144531 581.855469 543.535156 C 582.289062 543.796875 582.988281 544.578125 583.335938 545.273438 C 583.726562 546.015625 584.292969 546.578125 584.683594 546.578125 C 585.25 546.578125 585.203125 546.363281 584.464844 545.316406 C 583.335938 543.753906 583.335938 543.753906 584.464844 542.621094 C 585.074219 542.011719 585.25 541.445312 585.03125 540.792969 C 584.640625 539.445312 584.074219 539.183594 581.726562 539.183594 L 579.636719 539.183594 Z M 583.769531 541.144531 C 583.769531 541.796875 583.421875 542.054688 582.378906 542.144531 C 581.074219 542.273438 580.941406 542.1875 580.941406 541.144531 C 580.941406 540.097656 581.074219 540.011719 582.378906 540.140625 C 583.421875 540.230469 583.769531 540.488281 583.769531 541.144531 Z M 583.769531 541.144531 " fill-opacity="1" fill-rule="nonzero"/><path fill="#ffde59" d="M 237.753906 632.269531 L 237.753906 633.574219 L 569.199219 633.574219 L 569.199219 630.964844 L 237.753906 630.964844 Z M 237.753906 632.269531 " fill-opacity="1" fill-rule="nonzero"/><path fill="#ffde59" d="M 247.929688 641.621094 C 247.582031 642.488281 248.105469 643.140625 249.105469 643.140625 C 249.714844 643.140625 249.933594 642.835938 249.933594 642.054688 C 249.933594 641.273438 249.714844 640.96875 249.0625 640.96875 C 248.585938 640.96875 248.0625 641.273438 247.929688 641.621094 Z M 247.929688 641.621094 " fill-opacity="1" fill-rule="nonzero"/><path fill="#ffde59" d="M 251.238281 642.054688 C 251.238281 643.011719 251.410156 643.1875 252.238281 643.054688 C 252.847656 642.96875 253.195312 642.621094 253.195312 642.054688 C 253.195312 641.488281 252.847656 641.140625 252.238281 641.054688 C 251.410156 640.925781 251.238281 641.097656 251.238281 642.054688 Z M 251.238281 642.054688 " fill-opacity="1" fill-rule="nonzero"/><path fill="#ffde59" d="M 275.59375 642.054688 C 275.59375 643.011719 275.769531 643.1875 276.597656 643.054688 C 277.203125 642.96875 277.554688 642.621094 277.554688 642.054688 C 277.554688 641.488281 277.203125 641.140625 276.597656 641.054688 C 275.769531 640.925781 275.59375 641.097656 275.59375 642.054688 Z M 275.59375 642.054688 " fill-opacity="1" fill-rule="nonzero"/><path fill="#ffde59" d="M 428.574219 641.273438 C 428.398438 641.402344 428.269531 641.925781 428.269531 642.359375 C 428.269531 642.925781 428.574219 643.140625 429.355469 643.140625 C 430.226562 643.140625 430.445312 642.925781 430.445312 642.054688 C 430.445312 641.273438 430.226562 640.96875 429.660156 640.96875 C 429.226562 640.96875 428.703125 641.097656 428.574219 641.273438 Z M 428.574219 641.273438 " fill-opacity="1" fill-rule="nonzero"/><path fill="#ffde59" d="M 531.355469 642.054688 C 531.355469 642.835938 531.574219 643.140625 532.226562 643.140625 C 532.878906 643.140625 533.097656 642.835938 533.097656 642.054688 C 533.097656 641.273438 532.878906 640.96875 532.226562 640.96875 C 531.574219 640.96875 531.355469 641.273438 531.355469 642.054688 Z M 531.355469 642.054688 " fill-opacity="1" fill-rule="nonzero"/><path fill="#ffde59" d="M 349.84375 644.492188 C 347.539062 645.839844 348.191406 649.015625 351.105469 650.839844 C 353.0625 652.058594 353.933594 653.710938 353.105469 654.539062 C 352.324219 655.320312 351.0625 654.710938 350.933594 653.449219 C 350.800781 652.449219 350.582031 652.277344 349.453125 652.277344 C 348.234375 652.277344 348.148438 652.363281 348.453125 653.449219 C 349.019531 655.886719 349.84375 656.625 351.933594 656.625 C 354.019531 656.625 355.585938 655.582031 355.671875 654.101562 C 355.847656 651.710938 355.195312 650.667969 352.453125 648.925781 C 351.234375 648.144531 350.84375 647.621094 350.933594 646.925781 C 351.105469 645.535156 352.453125 645.449219 353.0625 646.796875 C 353.410156 647.578125 353.933594 647.925781 354.671875 647.925781 C 355.585938 647.925781 355.671875 647.796875 355.457031 646.710938 C 354.890625 644.402344 351.976562 643.230469 349.84375 644.492188 Z M 349.84375 644.492188 " fill-opacity="1" fill-rule="nonzero"/><path fill="#ffde59" d="M 400.5625 644.96875 C 398.777344 646.882812 398.691406 654.015625 400.472656 655.800781 C 401.429688 656.757812 403.867188 656.929688 404.738281 656.0625 C 405.214844 655.625 405.347656 655.625 405.519531 656.0625 C 405.652344 656.367188 406 656.625 406.347656 656.625 C 406.824219 656.625 406.957031 655.886719 406.957031 653.40625 C 406.957031 650.230469 406.957031 650.1875 405.738281 650.015625 C 405.042969 649.929688 404.257812 649.929688 403.996094 650.015625 C 403.214844 650.277344 403.390625 651.839844 404.171875 651.839844 C 404.648438 651.839844 404.78125 652.191406 404.695312 652.972656 C 404.519531 654.496094 403.34375 655.277344 402.433594 654.496094 C 401.476562 653.667969 401.429688 646.96875 402.386719 646.1875 C 403.214844 645.492188 404.34375 645.925781 404.648438 647.058594 C 405 648.363281 406.957031 648.230469 406.957031 646.925781 C 406.957031 645.1875 405.953125 644.359375 403.648438 644.144531 C 401.824219 643.96875 401.386719 644.054688 400.5625 644.96875 Z M 400.5625 644.96875 " fill-opacity="1" fill-rule="nonzero"/><path fill="#ffde59" d="M 433.574219 644.707031 C 432.878906 645.1875 432.617188 645.796875 432.617188 647.011719 C 432.617188 648.796875 433.402344 649.882812 435.878906 651.40625 C 437.140625 652.191406 437.402344 652.625 437.316406 653.539062 C 437.230469 654.40625 436.96875 654.667969 436.097656 654.667969 C 435.226562 654.667969 434.96875 654.40625 434.878906 653.449219 C 434.75 652.539062 434.488281 652.277344 433.664062 652.277344 C 432.792969 652.277344 432.617188 652.492188 432.617188 653.582031 C 432.617188 655.410156 433.96875 656.625 436.054688 656.625 C 438.359375 656.625 439.664062 655.496094 439.707031 653.449219 C 439.75 651.710938 438.707031 650.277344 436.230469 648.753906 C 434.707031 647.796875 434.359375 646.449219 435.488281 646.011719 C 436.316406 645.707031 437.402344 646.449219 437.402344 647.316406 C 437.402344 647.664062 437.839844 647.925781 438.492188 647.925781 C 439.925781 647.925781 439.925781 646.535156 438.492188 645.101562 C 437.273438 643.839844 435.054688 643.664062 433.574219 644.707031 Z M 433.574219 644.707031 " fill-opacity="1" fill-rule="nonzero"/><path fill="#ffde59" d="M 536.226562 644.882812 C 534.226562 646.753906 535.054688 648.753906 539.183594 651.839844 C 540.316406 652.710938 540.535156 653.148438 540.316406 653.929688 C 539.835938 655.363281 538.359375 655.191406 537.75 653.582031 C 537.402344 652.625 536.96875 652.277344 536.183594 652.277344 C 535.226562 652.277344 535.183594 652.40625 535.402344 653.84375 C 535.75 655.84375 536.75 656.582031 539.054688 656.625 C 540.488281 656.625 541.054688 656.410156 541.75 655.496094 C 543.054688 653.84375 542.925781 651.972656 541.492188 650.710938 C 540.792969 650.144531 539.578125 649.101562 538.75 648.40625 C 537.316406 647.1875 537.269531 647.058594 537.96875 646.359375 C 538.835938 645.449219 540.054688 645.839844 540.054688 647.058594 C 540.054688 647.710938 540.359375 647.925781 541.144531 647.925781 C 542.011719 647.925781 542.230469 647.710938 542.230469 646.839844 C 542.230469 644.273438 538.273438 642.96875 536.226562 644.882812 Z M 536.226562 644.882812 " fill-opacity="1" fill-rule="nonzero"/><path fill="#ffde59" d="M 237.753906 645.316406 C 237.753906 646.011719 238.058594 646.1875 239.058594 646.1875 L 240.320312 646.1875 L 240.449219 651.277344 L 240.582031 656.410156 L 241.667969 656.410156 C 242.886719 656.410156 242.84375 656.539062 242.929688 650.015625 L 242.972656 646.230469 L 244.148438 646.101562 C 244.886719 646.011719 245.410156 645.664062 245.496094 645.1875 C 245.625 644.535156 245.234375 644.445312 241.710938 644.445312 C 238.058594 644.445312 237.753906 644.492188 237.753906 645.316406 Z M 237.753906 645.316406 " fill-opacity="1" fill-rule="nonzero"/><path fill="#ffde59" d="M 246.886719 649.667969 C 246.886719 655.886719 247.277344 656.625 250.585938 656.625 C 253.890625 656.625 254.28125 655.886719 254.28125 649.667969 L 254.28125 644.445312 L 252.105469 644.445312 L 252.105469 648.972656 C 252.105469 654.015625 251.933594 654.886719 250.847656 654.886719 C 249.367188 654.886719 249.0625 653.972656 249.0625 649.144531 L 249.0625 644.445312 L 246.886719 644.445312 Z M 246.886719 649.667969 " fill-opacity="1" fill-rule="nonzero"/><path fill="#ffde59" d="M 256.542969 650.40625 L 256.675781 656.410156 L 257.761719 656.410156 C 258.71875 656.410156 258.847656 656.234375 258.894531 654.667969 C 259.023438 651.363281 258.980469 651.40625 260.328125 651.40625 C 261.808594 651.40625 262.113281 652.015625 262.113281 654.710938 C 262.113281 656.582031 262.15625 656.625 263.460938 656.625 C 264.503906 656.625 264.765625 656.496094 264.546875 655.929688 C 264.417969 655.539062 264.285156 654.40625 264.285156 653.363281 C 264.285156 652.234375 264.027344 651.1875 263.589844 650.796875 C 262.980469 650.144531 262.980469 650.058594 263.589844 649.40625 C 264.546875 648.492188 264.460938 646.054688 263.503906 645.1875 C 262.894531 644.621094 261.851562 644.445312 259.546875 644.445312 L 256.414062 644.445312 Z M 261.894531 646.664062 C 262.066406 646.882812 262.066406 647.578125 261.9375 648.1875 C 261.71875 649.015625 261.371094 649.230469 260.242188 649.230469 C 258.847656 649.230469 258.804688 649.1875 258.980469 647.710938 C 259.152344 646.359375 259.328125 646.1875 260.414062 646.1875 C 261.066406 646.1875 261.761719 646.40625 261.894531 646.664062 Z M 261.894531 646.664062 " fill-opacity="1" fill-rule="nonzero"/><path fill="#ffde59" d="M 266.460938 650.535156 L 266.460938 656.625 L 267.546875 656.625 C 268.550781 656.625 268.636719 656.453125 268.636719 654.710938 C 268.636719 651.667969 269.550781 651.492188 270.765625 654.277344 C 271.59375 656.191406 271.984375 656.625 272.8125 656.625 C 274.160156 656.625 274.160156 655.84375 272.8125 653.234375 C 271.070312 649.753906 271.070312 649.40625 272.507812 647.058594 C 273.246094 645.839844 273.855469 644.796875 273.855469 644.664062 C 273.855469 644.535156 273.289062 644.445312 272.636719 644.445312 C 271.550781 644.445312 271.203125 644.796875 270.113281 646.925781 L 268.855469 649.449219 L 268.722656 646.925781 C 268.59375 644.621094 268.503906 644.445312 267.546875 644.445312 L 266.460938 644.445312 Z M 266.460938 650.535156 " fill-opacity="1" fill-rule="nonzero"/><path fill="#ffde59" d="M 275.59375 650.535156 L 275.59375 656.625 L 277.769531 656.625 L 277.769531 644.445312 L 275.59375 644.445312 Z M 275.59375 650.535156 " fill-opacity="1" fill-rule="nonzero"/><path fill="#ffde59" d="M 280.511719 647.363281 C 281.46875 649.449219 281.945312 651.234375 282.121094 653.363281 C 282.335938 656.234375 282.382812 656.410156 283.425781 656.410156 C 284.425781 656.410156 284.46875 656.277344 284.511719 653.582031 C 284.554688 651.449219 284.859375 650.1875 285.6875 648.578125 C 287.511719 645.011719 287.601562 644.445312 286.253906 644.445312 C 285.46875 644.445312 285.035156 644.75 284.730469 645.535156 C 284.46875 646.144531 284.078125 647.144531 283.816406 647.796875 L 283.339844 649.015625 L 282.46875 646.710938 C 281.730469 644.707031 281.46875 644.445312 280.378906 644.445312 L 279.117188 644.445312 Z M 280.511719 647.363281 " fill-opacity="1" fill-rule="nonzero"/><path fill="#ffde59" d="M 288.863281 650.449219 L 288.863281 656.410156 L 292.039062 656.539062 C 295.167969 656.667969 295.167969 656.667969 295.167969 655.496094 C 295.167969 654.40625 295.082031 654.363281 293.210938 654.539062 L 291.253906 654.667969 L 291.253906 650.972656 L 292.949219 650.972656 C 294.253906 650.972656 294.691406 650.796875 294.863281 650.101562 C 295.082031 649.320312 294.863281 649.230469 293.167969 649.230469 C 291.253906 649.230469 291.253906 649.230469 291.253906 647.710938 C 291.253906 646.1875 291.253906 646.1875 293.210938 646.1875 C 294.863281 646.1875 295.167969 646.054688 295.167969 645.316406 C 295.167969 644.535156 294.863281 644.445312 292.039062 644.445312 L 288.863281 644.445312 Z M 288.863281 650.449219 " fill-opacity="1" fill-rule="nonzero"/><path fill="#ffde59" d="M 311.871094 650.40625 L 311.914062 656.410156 L 313.003906 656.410156 C 313.960938 656.410156 314.089844 656.191406 314.21875 654.667969 C 314.4375 651.582031 314.742188 651.492188 316.089844 654.101562 C 317.136719 656.148438 317.570312 656.625 318.441406 656.625 C 319.046875 656.625 319.527344 656.496094 319.527344 656.367188 C 319.527344 656.234375 318.832031 654.667969 318.003906 652.84375 L 316.480469 649.535156 L 317.789062 647.273438 C 318.527344 646.011719 319.09375 644.882812 319.09375 644.707031 C 319.09375 644.578125 318.527344 644.445312 317.875 644.445312 C 316.832031 644.445312 316.480469 644.796875 315.527344 646.710938 L 314.351562 649.015625 L 314.351562 646.710938 C 314.308594 644.535156 314.265625 644.445312 313.089844 644.445312 L 311.871094 644.445312 Z M 311.871094 650.40625 " fill-opacity="1" fill-rule="nonzero"/><path fill="#ffde59" d="M 320.917969 650.40625 C 321.050781 656.277344 321.09375 656.410156 322.050781 656.539062 C 323.007812 656.667969 323.007812 656.667969 323.007812 650.582031 L 323.007812 644.445312 L 320.789062 644.445312 Z M 320.917969 650.40625 " fill-opacity="1" fill-rule="nonzero"/><path fill="#ffde59" d="M 325.269531 650.40625 L 325.398438 656.410156 L 326.878906 656.539062 C 329.574219 656.800781 331.226562 656.277344 331.921875 654.886719 C 332.75 653.320312 332.75 652.40625 331.921875 650.839844 C 331.445312 649.882812 331.402344 649.363281 331.75 648.710938 C 332.359375 647.578125 331.878906 645.054688 331.011719 644.707031 C 330.617188 644.578125 329.183594 644.445312 327.746094 644.445312 L 325.136719 644.445312 Z M 329.75 647.449219 C 329.75 648.492188 328.53125 649.667969 327.964844 649.101562 C 327.792969 648.925781 327.617188 648.1875 327.574219 647.492188 C 327.488281 646.273438 327.617188 646.144531 328.617188 646.273438 C 329.488281 646.359375 329.75 646.664062 329.75 647.449219 Z M 329.878906 652.796875 C 330.011719 654.363281 329.964844 654.453125 328.792969 654.453125 C 327.617188 654.453125 327.574219 654.363281 327.703125 652.667969 C 327.878906 651.1875 328.007812 650.929688 328.835938 651.058594 C 329.53125 651.144531 329.792969 651.539062 329.878906 652.796875 Z M 329.878906 652.796875 " fill-opacity="1" fill-rule="nonzero"/><path fill="#ffde59" d="M 334.402344 650.40625 C 334.535156 656.0625 334.578125 656.410156 335.402344 656.410156 C 336.144531 656.410156 336.273438 656.0625 336.402344 653.886719 C 336.535156 651.449219 336.578125 651.40625 337.839844 651.40625 C 339.273438 651.40625 339.363281 651.539062 339.753906 654.539062 C 340.015625 656.410156 340.144531 656.625 341.144531 656.625 C 342.230469 656.625 342.230469 656.582031 342.015625 653.972656 C 341.839844 652.492188 341.535156 651.058594 341.230469 650.710938 C 340.882812 650.277344 340.925781 649.882812 341.449219 649.144531 C 342.40625 647.796875 342.320312 646.359375 341.277344 645.316406 C 340.578125 644.621094 339.839844 644.445312 337.359375 644.445312 L 334.273438 644.445312 Z M 339.449219 647.796875 C 339.578125 649.1875 339.535156 649.230469 338.058594 649.230469 C 336.535156 649.230469 336.492188 649.1875 336.492188 647.664062 C 336.492188 646.1875 336.535156 646.144531 337.925781 646.273438 C 339.144531 646.40625 339.316406 646.578125 339.449219 647.796875 Z M 339.449219 647.796875 " fill-opacity="1" fill-rule="nonzero"/><path fill="#ffde59" d="M 344.320312 650.535156 L 344.320312 656.625 L 346.496094 656.625 L 346.496094 644.445312 L 344.320312 644.445312 Z M 344.320312 650.535156 " fill-opacity="1" fill-rule="nonzero"/><path fill="#ffde59" d="M 372.59375 650.582031 L 372.59375 656.714844 L 375.246094 656.539062 C 377.378906 656.367188 378.117188 656.148438 378.726562 655.363281 C 379.726562 654.148438 379.8125 651.277344 378.898438 650.535156 C 378.421875 650.101562 378.378906 649.839844 378.726562 649.40625 C 379.421875 648.578125 379.378906 645.96875 378.726562 645.144531 C 378.292969 644.621094 377.378906 644.445312 375.375 644.445312 L 372.59375 644.445312 Z M 376.726562 647.710938 C 376.726562 648.710938 376.507812 649.058594 375.769531 649.144531 C 374.898438 649.273438 374.769531 649.101562 374.769531 647.710938 C 374.769531 646.316406 374.898438 646.144531 375.769531 646.273438 C 376.507812 646.359375 376.726562 646.710938 376.726562 647.710938 Z M 377.160156 651.839844 C 377.550781 653.058594 377.074219 654.320312 376.074219 654.582031 C 374.941406 654.886719 374.769531 654.582031 374.769531 652.625 C 374.769531 651.144531 374.898438 650.972656 375.8125 650.972656 C 376.507812 650.972656 376.984375 651.277344 377.160156 651.839844 Z M 377.160156 651.839844 " fill-opacity="1" fill-rule="nonzero"/><path fill="#ffde59" d="M 381.726562 649.578125 C 381.726562 655.710938 381.945312 656.234375 385.078125 656.496094 C 386.902344 656.714844 387.425781 656.582031 388.207031 655.800781 C 389.035156 654.972656 389.121094 654.40625 389.121094 649.667969 L 389.121094 644.445312 L 386.945312 644.445312 L 386.945312 649.101562 C 386.945312 651.710938 386.773438 654.058594 386.554688 654.363281 C 386.382812 654.710938 385.730469 654.886719 385.164062 654.800781 C 384.121094 654.667969 384.121094 654.582031 383.988281 649.535156 L 383.859375 644.445312 L 381.726562 644.445312 Z M 381.726562 649.578125 " fill-opacity="1" fill-rule="nonzero"/><path fill="#ffde59" d="M 391.382812 650.40625 L 391.515625 656.410156 L 394.6875 656.539062 C 397.820312 656.667969 397.820312 656.667969 397.820312 655.539062 C 397.820312 654.496094 397.691406 654.40625 396.125 654.625 C 395.210938 654.710938 394.296875 654.667969 394.082031 654.496094 C 393.863281 654.363281 393.6875 652.058594 393.6875 649.449219 L 393.6875 644.664062 L 392.472656 644.535156 L 391.253906 644.402344 Z M 391.382812 650.40625 " fill-opacity="1" fill-rule="nonzero"/><path fill="#ffde59" d="M 410.914062 646.054688 C 410.042969 649.273438 408.695312 655.363281 408.695312 655.972656 C 408.695312 656.367188 409.128906 656.625 409.738281 656.625 C 410.566406 656.625 410.871094 656.320312 411.175781 655.015625 C 411.480469 653.667969 411.738281 653.449219 412.785156 653.363281 C 413.4375 653.363281 414.089844 653.539062 414.132812 653.800781 C 414.21875 654.015625 414.394531 654.757812 414.523438 655.410156 C 414.742188 656.320312 415.046875 656.625 415.871094 656.625 C 417.21875 656.625 417.21875 656.496094 415.871094 650.667969 C 414.304688 644.054688 414.480469 644.445312 412.828125 644.445312 C 411.480469 644.445312 411.304688 644.578125 410.914062 646.054688 Z M 413.347656 651.234375 C 413.21875 651.363281 412.828125 651.40625 412.523438 651.320312 C 412.042969 651.234375 412 650.710938 412.347656 648.796875 L 412.785156 646.40625 L 413.175781 648.710938 C 413.4375 649.972656 413.480469 651.101562 413.347656 651.234375 Z M 413.347656 651.234375 " fill-opacity="1" fill-rule="nonzero"/><path fill="#ffde59" d="M 418.265625 650.535156 L 418.265625 656.625 L 419.351562 656.625 C 420.394531 656.625 420.4375 656.496094 420.4375 654.058594 C 420.4375 651.320312 420.832031 650.839844 422.441406 651.449219 C 423.179688 651.710938 423.441406 652.277344 423.65625 654.191406 C 423.960938 656.410156 424.050781 656.625 425.09375 656.625 C 426.179688 656.625 426.179688 656.582031 426.007812 653.753906 C 425.921875 652.015625 425.617188 650.753906 425.222656 650.535156 C 424.746094 650.230469 424.789062 650.058594 425.355469 649.449219 C 426.355469 648.492188 426.269531 646.359375 425.222656 645.316406 C 424.527344 644.621094 423.789062 644.445312 421.308594 644.445312 L 418.265625 644.445312 Z M 423.484375 647.710938 C 423.484375 649.144531 423.398438 649.230469 421.960938 649.230469 C 420.527344 649.230469 420.4375 649.144531 420.4375 647.710938 C 420.4375 646.273438 420.527344 646.1875 421.960938 646.1875 C 423.398438 646.1875 423.484375 646.273438 423.484375 647.710938 Z M 423.484375 647.710938 " fill-opacity="1" fill-rule="nonzero"/><path fill="#ffde59" d="M 428.269531 650.535156 L 428.269531 656.625 L 430.445312 656.625 L 430.445312 644.445312 L 428.269531 644.445312 Z M 428.269531 650.535156 " fill-opacity="1" fill-rule="nonzero"/><path fill="#ffde59" d="M 440.882812 645.316406 C 440.882812 646.011719 441.1875 646.1875 442.1875 646.1875 L 443.449219 646.1875 L 443.578125 651.277344 C 443.710938 656.234375 443.753906 656.410156 444.710938 656.539062 C 445.667969 656.667969 445.667969 656.625 445.667969 651.449219 L 445.667969 646.1875 L 446.972656 646.1875 C 447.972656 646.1875 448.277344 646.011719 448.277344 645.316406 C 448.277344 644.535156 447.972656 644.445312 444.578125 644.445312 C 441.1875 644.445312 440.882812 644.535156 440.882812 645.316406 Z M 440.882812 645.316406 " fill-opacity="1" fill-rule="nonzero"/><path fill="#ffde59" d="M 451.539062 644.96875 C 451.453125 645.273438 450.800781 647.925781 450.105469 650.882812 C 449.058594 655.277344 448.929688 656.320312 449.40625 656.496094 C 450.453125 656.886719 451.234375 656.320312 451.539062 654.972656 C 451.929688 653.101562 454.800781 652.667969 454.800781 654.453125 C 454.800781 655.929688 455.324219 656.625 456.367188 656.625 C 456.933594 656.625 457.410156 656.453125 457.410156 656.234375 C 457.410156 656.015625 456.933594 653.710938 456.324219 651.101562 C 455.714844 648.535156 455.148438 645.96875 455.019531 645.402344 C 454.84375 644.621094 454.496094 644.445312 453.234375 644.445312 C 452.410156 644.445312 451.671875 644.707031 451.539062 644.96875 Z M 453.886719 650.40625 C 453.933594 651.144531 453.671875 651.40625 453.019531 651.40625 C 452.367188 651.40625 452.191406 651.1875 452.367188 650.625 C 452.453125 650.230469 452.714844 649.1875 452.886719 648.363281 L 453.234375 646.839844 L 453.539062 648.144531 C 453.714844 648.839844 453.84375 649.882812 453.886719 650.40625 Z M 453.886719 650.40625 " fill-opacity="1" fill-rule="nonzero"/><path fill="#ffde59" d="M 458.714844 650.535156 L 458.714844 656.625 L 459.804688 656.625 C 460.890625 656.625 460.890625 656.625 460.890625 652.363281 L 460.890625 648.144531 L 461.890625 650.972656 C 463.542969 655.625 464.023438 656.410156 465.242188 656.410156 L 466.328125 656.410156 L 466.457031 650.40625 L 466.589844 644.445312 L 465.457031 644.445312 C 464.242188 644.445312 464.285156 644.273438 464.328125 649.230469 L 464.371094 652.492188 L 463.238281 649.667969 C 462.632812 648.101562 461.933594 646.316406 461.675781 645.621094 C 461.328125 644.707031 460.933594 644.445312 459.976562 644.445312 L 458.714844 644.445312 Z M 458.714844 650.535156 " fill-opacity="1" fill-rule="nonzero"/><path fill="#ffde59" d="M 484.03125 647.363281 C 484.988281 649.40625 485.46875 651.234375 485.640625 653.363281 C 485.859375 656.105469 485.988281 656.410156 486.902344 656.539062 C 487.816406 656.667969 487.859375 656.539062 487.859375 654.015625 C 487.859375 651.972656 488.121094 650.796875 489.121094 648.882812 C 491.078125 644.925781 491.164062 644.445312 489.816406 644.445312 C 488.6875 644.445312 488.46875 644.75 487.25 648.144531 C 486.988281 648.839844 486.773438 648.621094 486.03125 646.710938 C 485.292969 644.707031 485.03125 644.445312 483.945312 644.445312 L 482.683594 644.445312 Z M 484.03125 647.363281 " fill-opacity="1" fill-rule="nonzero"/><path fill="#ffde59" d="M 492.644531 649.667969 C 492.644531 655.886719 493.035156 656.625 496.339844 656.625 C 499.648438 656.625 500.039062 655.886719 500.039062 649.667969 L 500.039062 644.445312 L 497.863281 644.445312 L 497.863281 654.453125 L 496.734375 654.710938 C 495.078125 655.148438 494.820312 654.40625 494.820312 649.101562 L 494.820312 644.445312 L 492.644531 644.445312 Z M 492.644531 649.667969 " fill-opacity="1" fill-rule="nonzero"/><path fill="#ffde59" d="M 502.300781 650.40625 L 502.429688 656.410156 L 504.605469 656.410156 L 504.519531 652.277344 L 504.386719 648.144531 L 505.648438 651.40625 C 507.390625 656.105469 507.738281 656.625 508.957031 656.625 L 510.042969 656.625 L 510.042969 644.445312 L 508.957031 644.445312 C 507.867188 644.445312 507.867188 644.492188 507.824219 648.449219 C 507.78125 652.40625 507.78125 652.449219 507.214844 650.753906 C 505.433594 645.449219 504.996094 644.664062 503.5625 644.535156 L 502.167969 644.402344 Z M 502.300781 650.40625 " fill-opacity="1" fill-rule="nonzero"/><path fill="#ffde59" d="M 512.914062 649.535156 C 512.261719 652.363281 511.609375 655.105469 511.476562 655.667969 C 511.261719 656.582031 511.390625 656.667969 512.476562 656.539062 C 513.433594 656.453125 513.785156 656.148438 513.871094 655.320312 C 514.085938 653.753906 514.695312 653.234375 515.914062 653.449219 C 516.652344 653.625 517.046875 654.058594 517.21875 654.972656 C 517.523438 656.320312 518.308594 656.886719 519.351562 656.496094 C 519.828125 656.320312 519.699219 655.148438 518.613281 650.363281 L 517.304688 644.445312 L 514.132812 644.445312 Z M 516.304688 649.535156 C 516.566406 651.234375 516.480469 651.40625 515.652344 651.40625 C 514.828125 651.40625 514.738281 651.234375 515 650.058594 C 515.132812 649.320312 515.261719 648.273438 515.261719 647.796875 C 515.261719 646.273438 516 647.535156 516.304688 649.535156 Z M 516.304688 649.535156 " fill-opacity="1" fill-rule="nonzero"/><path fill="#ffde59" d="M 521.351562 650.582031 C 521.351562 656.667969 521.351562 656.667969 522.351562 656.539062 C 523.265625 656.410156 523.308594 656.234375 523.265625 652.277344 C 523.265625 649.796875 523.351562 648.492188 523.570312 649.015625 C 523.789062 649.492188 524.527344 651.363281 525.222656 653.148438 C 526.308594 655.929688 526.613281 656.410156 527.613281 656.539062 L 528.746094 656.667969 L 528.746094 644.445312 L 526.484375 644.445312 L 526.660156 648.578125 C 526.746094 650.839844 526.789062 652.710938 526.746094 652.710938 C 526.703125 652.710938 526.222656 651.40625 525.65625 649.753906 C 524.222656 645.359375 523.65625 644.445312 522.4375 644.445312 L 521.351562 644.445312 Z M 521.351562 650.582031 " fill-opacity="1" fill-rule="nonzero"/><path fill="#ffde59" d="M 531.007812 650.40625 L 531.136719 656.410156 L 533.3125 656.410156 L 533.445312 650.40625 L 533.574219 644.445312 L 530.878906 644.445312 Z M 531.007812 650.40625 " fill-opacity="1" fill-rule="nonzero"/><path fill="#ffde59" d="M 543.621094 645.1875 C 543.707031 645.707031 544.230469 646.011719 545.1875 646.101562 L 546.578125 646.230469 L 546.578125 651.449219 C 546.578125 656.625 546.578125 656.667969 547.582031 656.539062 C 548.492188 656.410156 548.535156 656.234375 548.667969 651.277344 L 548.796875 646.1875 L 550.058594 646.1875 C 551.058594 646.1875 551.363281 646.011719 551.363281 645.316406 C 551.363281 644.492188 551.058594 644.445312 547.40625 644.445312 C 543.882812 644.445312 543.492188 644.535156 543.621094 645.1875 Z M 543.621094 645.1875 " fill-opacity="1" fill-rule="nonzero"/><path fill="#ffde59" d="M 553.363281 649.535156 C 552.667969 652.363281 552.058594 655.105469 551.929688 655.667969 C 551.710938 656.582031 551.84375 656.667969 552.929688 656.539062 C 554.019531 656.453125 554.191406 656.191406 554.320312 654.972656 C 554.453125 653.710938 554.582031 653.582031 555.929688 653.582031 C 557.28125 653.582031 557.453125 653.710938 557.714844 655.105469 C 557.933594 656.320312 558.191406 656.625 559.019531 656.625 C 560.324219 656.625 560.324219 656.410156 558.890625 649.796875 L 557.714844 644.445312 L 554.539062 644.445312 Z M 556.714844 649.753906 C 556.933594 651.234375 556.84375 651.40625 556.0625 651.40625 C 555.277344 651.40625 555.191406 651.234375 555.453125 649.753906 C 555.582031 648.882812 555.714844 647.839844 555.714844 647.492188 C 555.757812 646.359375 556.410156 647.925781 556.714844 649.753906 Z M 556.714844 649.753906 " fill-opacity="1" fill-rule="nonzero"/><path fill="#ffde59" d="M 561.804688 650.535156 C 561.804688 656.667969 561.804688 656.667969 562.804688 656.539062 C 563.71875 656.410156 563.761719 656.234375 563.675781 652.277344 C 563.628906 649.625 563.761719 648.449219 563.976562 649.015625 C 564.195312 649.492188 564.933594 651.363281 565.632812 653.148438 C 566.71875 655.972656 567.066406 656.410156 568.066406 656.539062 L 569.199219 656.667969 L 569.199219 644.445312 L 566.980469 644.445312 L 567.109375 648.320312 C 567.195312 650.449219 567.152344 652.101562 567.023438 652.015625 C 566.9375 651.886719 566.238281 650.1875 565.5 648.230469 C 564.328125 645.054688 564.023438 644.664062 562.976562 644.535156 L 561.804688 644.402344 Z M 561.804688 650.535156 " fill-opacity="1" fill-rule="nonzero"/><path fill="#ffde59" d="M 301.085938 648.449219 C 300.085938 649.839844 300.214844 651.277344 301.476562 652.492188 C 302.652344 653.710938 302.910156 653.753906 304.476562 653.148438 C 307.609375 651.972656 306.609375 647.492188 303.214844 647.492188 C 302.171875 647.492188 301.519531 647.796875 301.085938 648.449219 Z M 301.085938 648.449219 " fill-opacity="1" fill-rule="nonzero"/><path fill="#ffde59" d="M 361.71875 648.667969 C 359.542969 651.449219 362.980469 654.886719 365.765625 652.710938 C 366.632812 652.015625 366.9375 651.363281 366.9375 650.363281 C 366.9375 647.492188 363.503906 646.40625 361.71875 648.667969 Z M 361.71875 648.667969 " fill-opacity="1" fill-rule="nonzero"/><path fill="#ffde59" d="M 473.199219 647.839844 C 472.941406 648.015625 472.503906 648.710938 472.242188 649.363281 C 471.636719 650.929688 472.375 652.492188 474.027344 653.191406 C 475.113281 653.625 475.460938 653.582031 476.464844 652.84375 C 477.898438 651.753906 478.246094 649.535156 477.160156 648.320312 C 476.417969 647.492188 474.203125 647.230469 473.199219 647.839844 Z M 473.199219 647.839844 " fill-opacity="1" fill-rule="nonzero"/></svg>