<svg xmlns="http://www.w3.org/2000/svg" xmlns:xlink="http://www.w3.org/1999/xlink" width="1080" zoomAndPan="magnify" viewBox="0 0 810 809.999993" height="1080" preserveAspectRatio="xMidYMid meet" version="1.0"><defs><clipPath id="954e1ac031"><path d="M 30 30 L 780 30 L 780 780 L 30 780 Z M 30 30 " clip-rule="nonzero"/></clipPath><clipPath id="351e4b72b6"><path d="M 405 30 C 197.894531 30 30 197.894531 30 405 C 30 612.105469 197.894531 780 405 780 C 612.105469 780 780 612.105469 780 405 C 780 197.894531 612.105469 30 405 30 Z M 405 30 " clip-rule="nonzero"/></clipPath><clipPath id="15be26a120"><path d="M 63.75 63.75 L 746.25 63.75 L 746.25 746.25 L 63.75 746.25 Z M 63.75 63.75 " clip-rule="nonzero"/></clipPath><clipPath id="90e6501f0d"><path d="M 405 63.75 C 216.53125 63.75 63.75 216.53125 63.75 405 C 63.75 593.46875 216.53125 746.25 405 746.25 C 593.46875 746.25 746.25 593.46875 746.25 405 C 746.25 216.53125 593.46875 63.75 405 63.75 Z M 405 63.75 " clip-rule="nonzero"/></clipPath></defs><rect x="-81" width="972" fill="#ffffff" y="-80.999999" height="971.999992" fill-opacity="1"/><rect x="-81" width="972" fill="#ffffff" y="-80.999999" height="971.999992" fill-opacity="1"/><g clip-path="url(#954e1ac031)"><g clip-path="url(#351e4b72b6)"><path fill="#000000" d="M 30 30 L 780 30 L 780 780 L 30 780 Z M 30 30 " fill-opacity="1" fill-rule="nonzero"/></g></g><g clip-path="url(#15be26a120)"><g clip-path="url(#90e6501f0d)"><path stroke-linecap="butt" transform="matrix(0.75, 0, 0, 0.75, 63.75, 63.750017)" fill="none" stroke-linejoin="miter" d="M 454.999993 -0.0000223904 C 203.70833 -0.0000223904 -0.000000390432 203.708308 -0.000000390432 454.999971 C -0.000000390432 706.291635 203.70833 909.999965 454.999993 909.999965 C 706.291657 909.999965 909.999987 706.291635 909.999987 454.999971 C 909.999987 203.708308 706.291657 -0.0000223904 454.999993 -0.0000223904 Z M 454.999993 -0.0000223904 " stroke="#ffde59" stroke-width="78" stroke-opacity="1" stroke-miterlimit="4"/></g></g><path fill="#ffde59" d="M 398.601562 168.09375 C 391.117188 168.648438 387.933594 169.101562 382.828125 170.367188 C 382.019531 170.566406 381.054688 170.800781 380.699219 170.871094 C 378.308594 171.394531 370.980469 174.488281 369.410156 175.640625 C 369.179688 175.808594 368.6875 176.113281 368.308594 176.3125 C 367.929688 176.523438 367.113281 177.078125 366.484375 177.550781 C 365.855469 178.03125 365.183594 178.535156 364.996094 178.660156 L 364.648438 178.914062 L 362.941406 178.671875 C 361.433594 178.460938 360.699219 178.429688 356.671875 178.398438 C 353.046875 178.355469 351.746094 178.386719 350.332031 178.523438 C 349.355469 178.617188 347.960938 178.734375 347.238281 178.796875 C 343.675781 179.070312 336.074219 180.558594 331.976562 181.785156 C 331.460938 181.929688 330.625 182.183594 330.101562 182.339844 C 327.65625 183.0625 321.890625 185.371094 318.894531 186.804688 C 318.441406 187.027344 317.574219 187.476562 316.953125 187.824219 C 316.347656 188.167969 315.351562 188.714844 314.742188 189.039062 C 313.328125 189.792969 311.921875 190.652344 310.027344 191.921875 C 307.886719 193.347656 308.390625 192.992188 304.835938 195.683594 C 303.390625 196.785156 301.136719 198.714844 299.636719 200.140625 C 298.800781 200.9375 298.683594 201.007812 298.296875 201.007812 C 297.4375 201.007812 295.140625 201.636719 293.726562 202.265625 C 290.089844 203.871094 285.820312 206.273438 283.011719 208.273438 C 282.351562 208.746094 281.609375 209.269531 281.367188 209.4375 C 279.65625 210.652344 277.089844 212.625 276.011719 213.546875 C 275.664062 213.839844 275.078125 214.332031 274.699219 214.625 C 271.804688 216.941406 265.757812 222.738281 262.332031 226.492188 C 257.632812 231.628906 252.625 237.886719 248.996094 243.148438 C 248.617188 243.695312 248.0625 244.5 247.769531 244.929688 C 247.214844 245.71875 247.066406 245.949219 244.980469 249.113281 C 242.445312 252.992188 239.269531 258.578125 236.667969 263.746094 C 235.863281 265.363281 234.8125 267.554688 234.339844 268.621094 C 233.859375 269.691406 233.347656 270.832031 233.179688 271.167969 C 233.011719 271.496094 232.757812 272.058594 232.621094 272.425781 C 232.488281 272.785156 232.066406 273.8125 231.691406 274.710938 C 231.324219 275.601562 230.746094 277.09375 230.410156 278.015625 C 229.289062 281.136719 229.164062 281.464844 229.039062 281.671875 C 228.964844 281.789062 228.878906 282.050781 228.839844 282.25 C 228.742188 282.722656 228.386719 283.726562 228.242188 283.894531 C 228.1875 283.96875 228.113281 284.273438 228.09375 284.578125 C 228.0625 284.878906 227.96875 285.300781 227.875 285.5 C 227.78125 285.699219 227.664062 286.003906 227.621094 286.179688 C 227.582031 286.347656 227.414062 286.863281 227.253906 287.3125 C 227.109375 287.761719 227.003906 288.160156 227.046875 288.191406 C 227.128906 288.289062 227.453125 287.972656 227.8125 287.460938 C 228.410156 286.566406 230.222656 284.273438 230.933594 283.507812 C 231.34375 283.078125 231.941406 282.386719 232.265625 281.988281 C 233.921875 279.921875 239.164062 275.289062 242.046875 273.339844 C 242.507812 273.023438 243.148438 272.5625 243.472656 272.324219 C 243.785156 272.070312 244.089844 271.871094 244.132812 271.871094 C 244.175781 271.871094 244.476562 271.695312 244.804688 271.484375 C 247.601562 269.679688 250.433594 268.214844 253.777344 266.820312 C 255.609375 266.054688 258.882812 264.910156 260.023438 264.648438 C 260.285156 264.585938 261.09375 264.367188 261.816406 264.175781 C 262.539062 263.976562 263.554688 263.738281 264.070312 263.644531 C 264.582031 263.546875 265.621094 263.359375 266.367188 263.214844 C 267.980469 262.898438 269.917969 262.648438 270.683594 262.648438 C 270.976562 262.648438 271.542969 262.585938 271.941406 262.5 C 272.738281 262.332031 273.609375 262.300781 277.949219 262.300781 C 282.195312 262.289062 282.90625 262.3125 283.378906 262.480469 C 283.609375 262.5625 283.914062 262.605469 284.050781 262.574219 C 284.3125 262.5 284.941406 262.019531 286.042969 261 C 286.710938 260.394531 289.0625 258.484375 290.476562 257.394531 C 291.984375 256.242188 295.277344 254.007812 295.71875 253.839844 C 295.863281 253.789062 296.273438 253.546875 296.617188 253.308594 C 297.394531 252.78125 301.671875 250.488281 301.871094 250.488281 C 301.902344 250.488281 302.625 250.152344 303.472656 249.753906 C 307.269531 247.929688 312.867188 246.074219 318.148438 244.878906 C 319.835938 244.5 322.980469 243.902344 323.707031 243.832031 C 324.050781 243.800781 324.972656 243.683594 325.75 243.570312 C 326.523438 243.464844 327.730469 243.316406 328.421875 243.265625 C 329.113281 243.203125 330.171875 243.097656 330.78125 243.035156 C 332.332031 242.875 343.707031 242.960938 344.144531 243.140625 C 344.3125 243.210938 345.007812 243.285156 345.667969 243.316406 C 347.070312 243.371094 347.554688 243.410156 348.917969 243.621094 C 349.460938 243.703125 350.289062 243.820312 350.75 243.882812 C 353.109375 244.207031 354.472656 244.417969 354.964844 244.523438 C 355.625 244.648438 355.738281 244.605469 356.621094 243.808594 C 358.988281 241.660156 365.332031 238.484375 370.710938 236.734375 C 371.609375 236.441406 372.890625 236.03125 373.550781 235.8125 C 374.882812 235.359375 377.136719 234.730469 379.054688 234.25 C 379.746094 234.082031 380.761719 233.832031 381.308594 233.683594 C 382.207031 233.453125 382.972656 233.285156 385.972656 232.667969 C 386.496094 232.5625 387.199219 232.445312 387.542969 232.40625 C 387.890625 232.375 388.445312 232.277344 388.769531 232.183594 C 389.105469 232.101562 389.640625 232.007812 389.976562 231.984375 C 390.3125 231.953125 390.984375 231.828125 391.464844 231.714844 C 391.945312 231.597656 392.398438 231.523438 392.460938 231.546875 C 392.585938 231.597656 394.734375 231.355469 395.089844 231.25 C 395.289062 231.199219 397.597656 231 400.855469 230.769531 C 402.617188 230.644531 409.609375 230.71875 410.5 230.863281 C 410.847656 230.925781 411.894531 231.03125 412.828125 231.085938 C 415.660156 231.261719 419.589844 231.859375 424.703125 232.875 C 427.882812 233.515625 431.949219 234.492188 432.691406 234.804688 C 432.914062 234.898438 433.183594 234.972656 433.320312 234.972656 C 433.761719 234.972656 438.992188 236.648438 441.351562 237.550781 C 442.988281 238.179688 446.613281 239.730469 447.609375 240.226562 C 449.390625 241.117188 452 242.804688 453.007812 243.714844 C 454.066406 244.667969 454.128906 244.691406 455.542969 244.429688 C 457.988281 243.976562 458.648438 243.871094 459.664062 243.777344 C 460.242188 243.714844 460.972656 243.632812 461.289062 243.570312 C 461.601562 243.515625 462.597656 243.421875 463.492188 243.359375 C 464.382812 243.308594 465.378906 243.203125 465.691406 243.128906 C 466.132812 243.023438 467.820312 242.992188 472.820312 242.992188 C 478.542969 242.992188 479.519531 243.011719 480.554688 243.171875 C 481.207031 243.273438 482.035156 243.359375 482.402344 243.359375 C 482.769531 243.359375 483.648438 243.453125 484.359375 243.570312 C 485.074219 243.683594 486.132812 243.851562 486.710938 243.945312 C 490.148438 244.480469 492.539062 245.003906 495.621094 245.894531 C 496.425781 246.125 497.347656 246.378906 497.664062 246.460938 C 498.597656 246.703125 500.191406 247.238281 500.808594 247.519531 C 501.121094 247.667969 501.59375 247.84375 501.855469 247.929688 C 502.988281 248.265625 503.867188 248.609375 504.886719 249.113281 C 505.484375 249.40625 506.058594 249.648438 506.152344 249.648438 C 506.386719 249.648438 511.257812 252.113281 511.617188 252.414062 C 511.773438 252.550781 512.308594 252.855469 512.8125 253.097656 C 513.671875 253.515625 517.351562 255.925781 518.703125 256.953125 C 520.230469 258.128906 522.171875 259.671875 522.621094 260.066406 C 524.46875 261.734375 525.390625 262.5 525.628906 262.5625 C 525.796875 262.617188 526.175781 262.574219 526.542969 262.488281 C 526.890625 262.40625 527.550781 262.34375 528.011719 262.34375 C 528.472656 262.34375 529.980469 262.320312 531.363281 262.28125 C 534.8125 262.1875 537.320312 262.332031 541.324219 262.867188 C 542.8125 263.054688 543.484375 263.179688 545.933594 263.683594 C 546.511719 263.808594 547.089844 263.90625 547.214844 263.90625 C 547.328125 263.90625 547.632812 264 547.886719 264.113281 C 548.136719 264.230469 548.472656 264.324219 548.628906 264.324219 C 548.890625 264.324219 553.808594 265.917969 555.054688 266.398438 C 557.507812 267.355469 562.089844 269.617188 563.597656 270.613281 C 563.914062 270.824219 564.457031 271.160156 564.804688 271.347656 C 565.808594 271.914062 569.375 274.460938 570.882812 275.699219 C 574.417969 278.601562 578.714844 283.023438 581.136719 286.234375 C 582.582031 288.160156 582.78125 288.371094 582.78125 287.960938 C 582.78125 287.753906 579.886719 279.167969 579.449219 278.054688 C 579.269531 277.625 579.007812 276.933594 578.851562 276.535156 C 578.527344 275.675781 578.335938 275.214844 577.761719 273.882812 C 577.519531 273.359375 577.332031 272.886719 577.332031 272.855469 C 577.332031 272.824219 577.070312 272.207031 576.753906 271.496094 C 576.441406 270.78125 575.914062 269.597656 575.589844 268.851562 C 574.332031 266.011719 570.988281 259.523438 569.15625 256.359375 C 567.6875 253.820312 566.511719 251.871094 565.957031 251.011719 C 565.601562 250.464844 565.003906 249.523438 564.648438 248.914062 C 564.28125 248.308594 563.390625 246.945312 562.664062 245.875 C 561.941406 244.816406 561.273438 243.839844 561.1875 243.714844 C 559.089844 240.625 554.144531 234.164062 551.804688 231.472656 C 551.398438 231 550.738281 230.222656 550.328125 229.730469 C 547.351562 226.15625 539.675781 218.441406 536.710938 216.042969 C 536.363281 215.757812 535.515625 215.035156 534.824219 214.425781 C 531.261719 211.324219 525.179688 207.035156 520.933594 204.65625 C 518.734375 203.421875 515.765625 202.058594 514.332031 201.628906 C 512.757812 201.15625 512.496094 201.09375 511.804688 201.074219 L 511.070312 201.050781 L 510.421875 200.421875 C 508.082031 198.160156 505.0625 195.683594 501.742188 193.304688 C 499.726562 191.859375 498.835938 191.292969 495.410156 189.25 C 493.929688 188.367188 488.972656 185.882812 487.339844 185.203125 C 482.359375 183.136719 480.136719 182.371094 475.546875 181.167969 C 474.621094 180.925781 474.121094 180.808594 471.773438 180.265625 C 470.722656 180.023438 467.996094 179.511719 466.058594 179.207031 C 464.78125 178.996094 463.878906 178.914062 459.140625 178.523438 C 456.949219 178.347656 449.746094 178.304688 448.636719 178.472656 C 448.238281 178.523438 447.285156 178.640625 446.507812 178.722656 C 444.875 178.914062 445.199219 179.027344 443.269531 177.558594 C 442.566406 177.027344 441.8125 176.492188 441.582031 176.375 C 441.351562 176.261719 440.835938 175.957031 440.449219 175.695312 C 437.640625 173.878906 432.441406 171.785156 427.691406 170.558594 C 423.90625 169.574219 419.546875 168.785156 416.421875 168.515625 C 415.816406 168.449219 414.714844 168.355469 413.960938 168.292969 C 413.214844 168.21875 412.273438 168.148438 411.863281 168.125 C 410.523438 168.03125 399.726562 168.011719 398.601562 168.09375 Z M 398.601562 168.09375 " fill-opacity="1" fill-rule="nonzero"/><path fill="#ffde59" d="M 390.59375 280.960938 C 390.550781 281 386.777344 281.210938 381.640625 281.453125 C 379.945312 281.535156 378.550781 281.621094 378.539062 281.640625 C 378.464844 281.734375 371.871094 295.046875 371.871094 295.089844 C 371.871094 295.121094 370.382812 298.152344 368.570312 301.820312 C 366.757812 305.480469 365.269531 308.496094 365.269531 308.507812 C 365.269531 308.527344 364.871094 309.378906 364.378906 310.394531 C 363.886719 311.410156 363.488281 312.261719 363.488281 312.292969 C 363.488281 312.324219 362.773438 313.792969 361.902344 315.5625 C 361.035156 317.335938 359.976562 319.535156 359.554688 320.457031 C 359.136719 321.378906 358.289062 323.171875 357.667969 324.441406 C 357.050781 325.710938 356.191406 327.523438 355.761719 328.476562 C 355.332031 329.429688 354.367188 331.453125 353.621094 332.972656 C 352.878906 334.496094 352.269531 335.816406 352.269531 335.898438 C 352.269531 336.023438 352.386719 336.035156 352.929688 335.984375 C 353.289062 335.941406 353.75 335.867188 353.949219 335.816406 C 354.148438 335.761719 354.765625 335.667969 355.308594 335.605469 C 355.855469 335.542969 356.664062 335.425781 357.09375 335.34375 C 357.523438 335.257812 358.464844 335.125 359.1875 335.039062 C 362.5625 334.660156 365.246094 334.328125 365.582031 334.265625 C 365.929688 334.191406 365.992188 334.105469 366.546875 333.039062 C 366.882812 332.398438 367.292969 331.539062 367.46875 331.117188 C 367.648438 330.6875 368.425781 329.0625 369.1875 327.503906 C 369.953125 325.929688 370.835938 324.105469 371.148438 323.445312 C 372.175781 321.265625 388.433594 288.832031 388.644531 288.539062 C 388.761719 288.371094 389.367188 287.238281 389.988281 286.003906 C 390.617188 284.777344 391.445312 283.171875 391.832031 282.4375 C 392.21875 281.695312 392.511719 281.054688 392.480469 281 C 392.417969 280.90625 390.6875 280.867188 390.59375 280.960938 Z M 390.59375 280.960938 " fill-opacity="1" fill-rule="nonzero"/><path fill="#ffde59" d="M 402.972656 282.375 C 402.597656 283.140625 401.945312 284.355469 401.527344 285.078125 C 401.117188 285.804688 400.332031 287.28125 399.789062 288.382812 C 399.242188 289.472656 398.539062 290.835938 398.226562 291.390625 C 396.8125 293.9375 396.433594 294.671875 394.808594 297.921875 C 393.855469 299.816406 392.902344 301.664062 392.691406 302.007812 C 392.480469 302.355469 392.3125 302.679688 392.3125 302.730469 C 392.3125 302.796875 392.230469 302.929688 392.136719 303.046875 C 391.957031 303.257812 391.945312 304.0625 392 317.734375 L 392.050781 332.199219 L 394.148438 332.15625 C 395.300781 332.136719 397.804688 332.09375 399.703125 332.050781 L 403.164062 331.988281 L 403.171875 328.214844 C 403.195312 323.519531 403.195312 321.484375 403.140625 317.105469 C 403.046875 307.039062 403.058594 300.488281 403.183594 300.511719 C 403.257812 300.53125 403.867188 301.273438 404.546875 302.175781 C 405.226562 303.078125 406.183594 304.316406 406.675781 304.945312 C 407.167969 305.5625 407.933594 306.539062 408.371094 307.101562 C 408.8125 307.660156 409.359375 308.371094 409.578125 308.6875 C 409.796875 308.992188 410.332031 309.691406 410.773438 310.238281 C 411.214844 310.78125 412.429688 312.375 413.476562 313.769531 C 414.527344 315.175781 415.4375 316.316406 415.511719 316.316406 C 415.59375 316.316406 416.160156 315.667969 416.789062 314.871094 C 417.417969 314.085938 418.488281 312.753906 419.160156 311.914062 C 419.839844 311.078125 421.066406 309.546875 421.894531 308.507812 C 422.722656 307.46875 423.730469 306.210938 424.128906 305.710938 C 424.539062 305.214844 425.542969 303.957031 426.382812 302.910156 C 427.210938 301.863281 427.933594 301.011719 427.984375 301.011719 C 428.070312 301.011719 428.039062 320.929688 427.933594 329.335938 C 427.921875 331.046875 427.945312 332.480469 427.984375 332.535156 C 428.039062 332.574219 429.171875 332.648438 430.5 332.691406 C 431.84375 332.722656 433.480469 332.808594 434.140625 332.871094 C 434.800781 332.933594 435.984375 333.039062 436.761719 333.089844 C 437.535156 333.140625 438.351562 333.226562 438.5625 333.257812 L 438.949219 333.320312 L 439.011719 329.777344 C 439.035156 327.816406 439.085938 324.167969 439.117188 321.664062 C 439.140625 319.160156 439.210938 315.847656 439.277344 314.316406 C 439.328125 312.785156 439.378906 307.429688 439.378906 302.429688 C 439.378906 296.820312 439.421875 293.078125 439.484375 292.691406 C 439.546875 292.332031 439.601562 289.871094 439.621094 287.207031 L 439.640625 282.375 L 439.171875 282.300781 C 438.910156 282.261719 438.40625 282.207031 438.050781 282.195312 C 437.691406 282.175781 437.347656 282.125 437.261719 282.082031 C 437.136719 281.996094 435.25 281.871094 432.808594 281.777344 C 432.273438 281.757812 431.757812 281.714844 431.65625 281.683594 C 431.382812 281.597656 430.1875 281.527344 428.742188 281.503906 L 427.484375 281.472656 L 426.695312 282.523438 C 426.265625 283.097656 425.742188 283.800781 425.542969 284.074219 C 424.621094 285.339844 423.875 286.367188 423.34375 287.082031 C 423.027344 287.5 422.671875 287.984375 422.554688 288.152344 C 422.355469 288.421875 421.507812 289.597656 418.207031 294.09375 C 417.429688 295.164062 416.582031 296.347656 416.320312 296.746094 C 416.058594 297.132812 415.804688 297.449219 415.742188 297.449219 C 415.628906 297.4375 415.511719 297.28125 414.105469 295.246094 C 413.605469 294.523438 412.785156 293.371094 412.292969 292.679688 C 411.789062 291.988281 410.792969 290.59375 410.082031 289.585938 C 408.058594 286.746094 406.980469 285.226562 406.484375 284.578125 C 406.246094 284.25 405.773438 283.601562 405.449219 283.140625 C 404.664062 282.019531 403.84375 280.992188 403.75 280.992188 C 403.699219 280.992188 403.351562 281.621094 402.972656 282.375 Z M 402.972656 282.375 " fill-opacity="1" fill-rule="nonzero"/><path fill="#ffde59" d="M 352.898438 284.878906 C 352.0625 284.976562 350.320312 285.246094 349.125 285.46875 C 348.632812 285.550781 347.953125 285.667969 347.605469 285.707031 C 347.261719 285.75 346.597656 285.867188 346.136719 285.960938 C 345.675781 286.042969 345.089844 286.148438 344.828125 286.167969 C 344.566406 286.203125 344.050781 286.296875 343.675781 286.378906 C 343.296875 286.472656 342.816406 286.535156 342.59375 286.546875 C 342.386719 286.546875 341.789062 286.640625 341.285156 286.746094 C 340.78125 286.863281 339.808594 287.050781 339.113281 287.175781 C 338.421875 287.300781 335.476562 287.867188 332.5625 288.453125 C 329.648438 289.03125 327.152344 289.515625 327.007812 289.535156 C 326.859375 289.554688 326.421875 289.648438 326.011719 289.746094 C 325.203125 289.933594 323.894531 290.214844 322.449219 290.519531 C 320.980469 290.835938 320.507812 290.9375 319.722656 291.136719 L 318.988281 291.328125 L 319.019531 292.480469 C 319.039062 293.109375 319.125 295.835938 319.207031 298.550781 C 319.292969 301.253906 319.40625 304.964844 319.46875 306.777344 C 319.523438 308.59375 319.597656 310.972656 319.628906 312.070312 C 319.648438 313.164062 319.722656 314.292969 319.773438 314.589844 C 319.835938 314.871094 319.890625 316.800781 319.910156 318.863281 C 319.933594 322.324219 319.941406 322.628906 320.121094 322.722656 C 320.308594 322.828125 320.371094 323.234375 320.203125 323.234375 C 320.140625 323.234375 320.121094 324.023438 320.140625 325.195312 C 320.289062 332.679688 320.371094 335.574219 320.445312 335.6875 C 320.488281 335.761719 320.539062 336.515625 320.550781 337.367188 C 320.570312 338.214844 320.625 339.628906 320.664062 340.511719 C 320.738281 341.90625 320.769531 342.105469 320.917969 342.0625 C 321.011719 342.03125 321.515625 341.914062 322.027344 341.789062 C 322.550781 341.675781 323.800781 341.390625 324.804688 341.160156 C 325.8125 340.929688 327.449219 340.574219 328.421875 340.375 C 329.40625 340.175781 330.265625 339.988281 330.339844 339.957031 C 330.550781 339.882812 337.027344 338.605469 339.167969 338.226562 C 341.933594 337.722656 341.757812 337.816406 342.28125 336.644531 C 342.523438 336.097656 342.960938 335.113281 343.253906 334.453125 C 343.558594 333.792969 344.144531 332.472656 344.578125 331.515625 C 345.007812 330.5625 345.636719 329.210938 345.980469 328.5 C 346.328125 327.796875 346.609375 327.175781 346.609375 327.136719 C 346.609375 327.082031 346.296875 327.105469 345.90625 327.175781 C 345.507812 327.25 344.554688 327.40625 343.78125 327.535156 C 343.003906 327.660156 341.546875 327.921875 340.550781 328.121094 C 339.542969 328.320312 338.613281 328.476562 338.476562 328.476562 C 338.339844 328.476562 337.394531 328.644531 336.367188 328.855469 C 335.339844 329.0625 334.175781 329.296875 333.769531 329.367188 C 333.371094 329.453125 332.824219 329.558594 332.5625 329.621094 C 332.300781 329.683594 331.933594 329.734375 331.757812 329.734375 L 331.410156 329.734375 L 331.410156 327.449219 C 331.410156 326.203125 331.367188 325.019531 331.304688 324.828125 C 331.253906 324.628906 331.199219 323.246094 331.191406 321.738281 C 331.179688 319.535156 331.210938 318.980469 331.328125 318.929688 C 331.671875 318.75 342.34375 316.789062 346.664062 316.109375 C 347.417969 315.992188 348.550781 315.792969 349.179688 315.6875 C 349.816406 315.574219 350.457031 315.480469 350.605469 315.480469 C 350.761719 315.480469 351.035156 315.449219 351.222656 315.40625 L 351.566406 315.34375 L 351.484375 313.394531 C 351.441406 312.324219 351.367188 310.101562 351.335938 308.457031 C 351.285156 305.941406 351.253906 305.46875 351.128906 305.5 C 350.550781 305.625 349.679688 305.773438 348.128906 306.003906 C 347.15625 306.148438 345.949219 306.339844 345.457031 306.421875 C 344.964844 306.515625 344.167969 306.652344 343.675781 306.726562 C 342.4375 306.9375 341.136719 307.167969 340.269531 307.355469 C 339.871094 307.4375 339.292969 307.535156 339.011719 307.554688 C 338.714844 307.585938 338.160156 307.679688 337.773438 307.773438 C 337.386719 307.867188 336.882812 307.964844 336.671875 307.984375 C 336.460938 308.003906 335.929688 308.097656 335.5 308.195312 C 335.070312 308.277344 334.355469 308.425781 333.925781 308.519531 C 332.21875 308.863281 330.960938 309.074219 330.875 309.023438 C 330.824219 308.992188 330.78125 308.246094 330.78125 307.375 C 330.78125 306.496094 330.730469 304.210938 330.664062 302.28125 C 330.519531 298.234375 330.433594 298.589844 331.652344 298.390625 C 332.070312 298.328125 333.308594 298.109375 334.398438 297.898438 C 335.5 297.691406 336.746094 297.460938 337.175781 297.386719 C 337.605469 297.3125 338.644531 297.125 339.480469 296.976562 C 340.320312 296.832031 341.714844 296.589844 342.574219 296.453125 C 343.445312 296.304688 344.808594 296.074219 345.613281 295.929688 C 346.421875 295.792969 348.121094 295.507812 349.386719 295.300781 C 351.808594 294.914062 353.351562 294.640625 353.664062 294.546875 C 353.851562 294.492188 353.863281 294.285156 353.820312 289.746094 C 353.800781 286.746094 353.75 284.953125 353.6875 284.890625 C 353.632812 284.847656 353.277344 284.839844 352.898438 284.878906 Z M 352.898438 284.878906 " fill-opacity="1" fill-rule="nonzero"/><path fill="#ffde59" d="M 467.367188 287.5625 C 466.886719 288.707031 466.394531 289.921875 466.269531 290.269531 C 466.152344 290.613281 465.808594 291.390625 465.503906 291.988281 C 465.199219 292.585938 464.957031 293.152344 464.957031 293.257812 C 464.957031 293.359375 464.769531 293.84375 464.539062 294.316406 C 464.308594 294.796875 464.121094 295.246094 464.121094 295.3125 C 464.121094 295.382812 464.003906 295.667969 463.855469 295.941406 C 463.710938 296.210938 463.59375 296.503906 463.59375 296.589844 C 463.59375 296.671875 463.5 296.894531 463.394531 297.070312 C 463.28125 297.25 463.101562 297.679688 462.976562 298.035156 C 462.859375 298.382812 462.503906 299.210938 462.191406 299.890625 C 461.867188 300.5625 461.601562 301.179688 461.601562 301.273438 C 461.601562 301.371094 461.476562 301.683594 461.320312 301.988281 C 461.027344 302.574219 460.0625 304.851562 459.652344 305.941406 C 459.421875 306.570312 459.117188 307.261719 458.5 308.644531 C 458.363281 308.949219 458.25 309.242188 458.25 309.304688 C 458.25 309.367188 458.058594 309.808594 457.828125 310.289062 C 457.597656 310.773438 457.410156 311.242188 457.410156 311.339844 C 457.410156 311.421875 457.222656 311.871094 456.992188 312.335938 C 456.761719 312.796875 456.570312 313.265625 456.570312 313.394531 C 456.570312 313.519531 456.414062 313.925781 456.226562 314.316406 C 456.027344 314.691406 455.839844 315.144531 455.796875 315.320312 C 455.753906 315.488281 455.660156 315.710938 455.585938 315.792969 C 455.503906 315.878906 455.367188 316.210938 455.261719 316.527344 C 455.15625 316.839844 454.945312 317.34375 454.777344 317.636719 C 454.613281 317.933594 454.476562 318.277344 454.476562 318.394531 C 454.476562 318.519531 454.308594 318.960938 454.097656 319.378906 C 453.886719 319.796875 453.679688 320.3125 453.636719 320.511719 C 453.554688 320.898438 452.925781 322.386719 452.578125 323.035156 C 452.472656 323.246094 452.378906 323.5 452.378906 323.582031 C 452.378906 323.675781 452.222656 324.054688 452.023438 324.429688 C 451.824219 324.820312 451.582031 325.375 451.5 325.679688 C 451.414062 325.984375 451.214844 326.464844 451.058594 326.746094 C 450.910156 327.042969 450.722656 327.503906 450.648438 327.796875 C 450.566406 328.078125 450.386719 328.539062 450.25 328.800781 C 450.105469 329.0625 449.957031 329.441406 449.914062 329.640625 C 449.875 329.839844 449.726562 330.21875 449.589844 330.488281 C 449.453125 330.753906 449.148438 331.464844 448.917969 332.0625 C 448.6875 332.660156 448.394531 333.351562 448.28125 333.601562 C 448.144531 333.90625 448.101562 334.097656 448.175781 334.167969 C 448.226562 334.222656 448.625 334.296875 449.046875 334.316406 C 450 334.359375 451.824219 334.535156 452.589844 334.660156 C 452.902344 334.714844 453.617188 334.808594 454.160156 334.871094 C 454.707031 334.933594 455.585938 335.027344 456.101562 335.09375 C 456.625 335.15625 457.558594 335.300781 458.175781 335.417969 C 459.140625 335.605469 459.328125 335.617188 459.445312 335.488281 C 459.515625 335.40625 459.738281 334.894531 459.914062 334.347656 C 460.105469 333.800781 460.34375 333.203125 460.449219 333.039062 C 460.554688 332.859375 460.671875 332.554688 460.710938 332.355469 C 460.753906 332.15625 460.953125 331.664062 461.140625 331.277344 C 461.332031 330.878906 461.539062 330.375 461.601562 330.144531 C 461.667969 329.914062 461.875 329.378906 462.066406 328.96875 C 462.253906 328.550781 462.441406 328.078125 462.484375 327.902344 C 462.527344 327.734375 462.746094 327.15625 462.976562 326.621094 C 463.195312 326.085938 463.386719 325.59375 463.386719 325.519531 C 463.394531 325.164062 463.523438 325.132812 464.539062 325.289062 C 465.082031 325.375 465.839844 325.488281 466.214844 325.542969 C 466.59375 325.59375 467.234375 325.710938 467.632812 325.792969 C 468.039062 325.886719 468.511719 325.960938 468.679688 325.960938 C 468.855469 325.960938 469.519531 326.054688 470.148438 326.171875 C 471.175781 326.359375 472.664062 326.613281 474.390625 326.894531 C 475.417969 327.0625 480.515625 328.078125 480.945312 328.203125 C 481.332031 328.308594 481.363281 328.351562 481.550781 329 C 481.65625 329.378906 482.023438 330.554688 482.359375 331.621094 C 482.703125 332.691406 483.101562 334.011719 483.25 334.558594 C 483.40625 335.101562 483.710938 336.097656 483.929688 336.757812 C 484.160156 337.417969 484.445312 338.414062 484.570312 338.960938 C 484.695312 339.503906 484.875 340.019531 484.957031 340.082031 C 485.054688 340.15625 485.316406 340.21875 485.554688 340.21875 C 485.796875 340.21875 486.34375 340.3125 486.773438 340.425781 C 487.203125 340.542969 487.703125 340.636719 487.894531 340.636719 C 488.082031 340.636719 488.375 340.710938 488.53125 340.792969 C 488.699219 340.878906 489.035156 340.972656 489.289062 341.003906 C 489.863281 341.085938 491.425781 341.421875 492.789062 341.757812 C 495.136719 342.335938 495.746094 342.503906 495.964844 342.617188 C 496.550781 342.933594 496.542969 342.671875 495.871094 340.691406 C 495.578125 339.820312 495.15625 338.476562 494.9375 337.703125 C 494.707031 336.925781 494.339844 335.722656 494.097656 335.027344 C 493.867188 334.335938 493.460938 333.039062 493.207031 332.136719 C 492.957031 331.234375 492.546875 329.914062 492.316406 329.199219 C 492.078125 328.488281 491.730469 327.335938 491.53125 326.644531 C 491.34375 325.949219 490.890625 324.535156 490.535156 323.5 C 490.1875 322.460938 489.65625 320.78125 489.371094 319.777344 C 489.078125 318.769531 488.660156 317.386719 488.429688 316.695312 C 488.199219 316.011719 487.777344 314.691406 487.496094 313.761719 C 487.222656 312.835938 486.582031 310.847656 486.089844 309.347656 C 485.242188 306.738281 484.925781 305.730469 484.402344 303.894531 C 484.265625 303.433594 483.679688 301.640625 483.101562 299.914062 C 482.515625 298.183594 481.898438 296.242188 481.71875 295.613281 C 481.476562 294.734375 479.140625 287.511719 479.066406 287.417969 C 479.066406 287.40625 478.511719 287.300781 477.851562 287.175781 C 477.191406 287.050781 476.363281 286.882812 476.015625 286.789062 C 475.671875 286.695312 475.03125 286.589844 474.601562 286.535156 C 474.171875 286.496094 473.605469 286.402344 473.34375 286.335938 C 473.082031 286.265625 472.472656 286.179688 471.980469 286.136719 C 471.488281 286.097656 470.953125 286.003906 470.785156 285.9375 C 470.628906 285.867188 470.082031 285.761719 469.582031 285.707031 C 469.089844 285.65625 468.585938 285.582031 468.460938 285.550781 C 468.261719 285.488281 468.164062 285.667969 467.367188 287.5625 Z M 473.554688 302.605469 C 473.742188 303.203125 473.953125 303.832031 474.035156 304.023438 C 474.121094 304.199219 474.183594 304.515625 474.183594 304.714844 C 474.183594 304.914062 474.277344 305.300781 474.382812 305.582031 C 474.601562 306.140625 475.347656 308.519531 475.546875 309.292969 C 475.609375 309.554688 475.777344 310.089844 475.910156 310.5 C 476.332031 311.769531 476.605469 312.660156 477.011719 314.0625 C 477.234375 314.808594 477.578125 315.980469 477.800781 316.664062 C 478.019531 317.34375 478.164062 317.933594 478.125 317.964844 C 478.082031 318.003906 477.621094 317.933594 477.085938 317.804688 C 476.101562 317.574219 474.613281 317.304688 472.765625 317 C 472.191406 316.90625 471.507812 316.777344 471.246094 316.726562 C 470.984375 316.664062 470.09375 316.527344 469.253906 316.421875 C 467.546875 316.191406 467.421875 316.128906 467.503906 315.4375 C 467.535156 315.21875 467.703125 314.746094 467.871094 314.390625 C 468.050781 314.042969 468.226562 313.601562 468.269531 313.433594 C 468.3125 313.257812 468.523438 312.734375 468.742188 312.261719 C 468.972656 311.777344 469.152344 311.339844 469.152344 311.265625 C 469.152344 311.191406 469.296875 310.824219 469.476562 310.449219 C 469.652344 310.070312 469.917969 309.421875 470.050781 308.992188 C 470.199219 308.570312 470.429688 308.027344 470.566406 307.773438 C 470.710938 307.535156 470.828125 307.21875 470.828125 307.082031 C 470.828125 306.945312 470.996094 306.507812 471.195312 306.109375 C 471.394531 305.710938 471.59375 305.214844 471.625 305.015625 C 471.667969 304.816406 471.875 304.292969 472.097656 303.855469 C 472.328125 303.414062 472.503906 302.984375 472.503906 302.890625 C 472.503906 302.636719 473.007812 301.539062 473.125 301.539062 C 473.175781 301.539062 473.375 302.019531 473.554688 302.605469 Z M 473.554688 302.605469 " fill-opacity="1" fill-rule="nonzero"/><path fill="#ffde59" d="M 505.261719 293.675781 C 505.222656 293.738281 505.453125 294.316406 505.765625 294.964844 C 506.082031 295.613281 506.816406 297.101562 507.390625 298.289062 C 508.386719 300.332031 508.933594 301.472656 509.632812 303.003906 C 509.8125 303.382812 510.03125 303.875 510.148438 304.105469 C 510.253906 304.335938 510.890625 305.667969 511.574219 307.0625 C 512.253906 308.445312 513.074219 310.164062 513.386719 310.867188 C 513.703125 311.570312 514.519531 313.289062 515.210938 314.671875 C 515.890625 316.066406 516.511719 317.375 516.585938 317.574219 C 516.886719 318.371094 517.476562 319.691406 518.210938 321.171875 L 518.964844 322.710938 L 518.417969 323.476562 C 518.113281 323.886719 517.632812 324.515625 517.351562 324.859375 C 515.871094 326.675781 515.546875 327.082031 515.390625 327.324219 C 515.304688 327.472656 514.96875 327.910156 514.644531 328.308594 C 514.332031 328.699219 513.902344 329.242188 513.703125 329.515625 C 513.503906 329.789062 513.125 330.269531 512.863281 330.605469 C 512.601562 330.929688 512.160156 331.515625 511.867188 331.894531 C 511.585938 332.28125 511.15625 332.816406 510.921875 333.101562 C 510.691406 333.371094 510.410156 333.738281 510.292969 333.917969 C 510.179688 334.097656 509.445312 335.058594 508.671875 336.066406 C 507.894531 337.082031 506.878906 338.414062 506.417969 339.035156 C 505.453125 340.332031 504.738281 341.265625 503.480469 342.871094 C 502.988281 343.488281 502.589844 344.042969 502.589844 344.097656 C 502.589844 344.242188 502.757812 344.304688 503.417969 344.421875 C 503.753906 344.472656 504.171875 344.589844 504.332031 344.671875 C 504.496094 344.757812 504.792969 344.832031 504.96875 344.832031 C 505.160156 344.832031 505.492188 344.902344 505.703125 344.988281 C 505.921875 345.0625 506.574219 345.25 507.160156 345.394531 C 507.738281 345.542969 508.472656 345.753906 508.785156 345.867188 C 509.089844 345.984375 509.75 346.171875 510.242188 346.296875 C 510.734375 346.421875 511.386719 346.613281 511.6875 346.726562 C 511.992188 346.832031 512.339844 346.925781 512.464844 346.925781 C 512.589844 346.925781 512.769531 347 512.863281 347.082031 C 512.96875 347.179688 513.292969 347.273438 513.605469 347.316406 C 513.921875 347.347656 514.300781 347.441406 514.445312 347.515625 C 514.792969 347.691406 514.886719 347.617188 515.484375 346.71875 C 515.734375 346.339844 516.269531 345.585938 516.679688 345.039062 C 517.085938 344.496094 517.539062 343.855469 517.695312 343.625 C 517.84375 343.394531 518.441406 342.546875 519.027344 341.738281 C 520.925781 339.117188 521.207031 338.707031 521.824219 337.808594 C 522.160156 337.3125 522.726562 336.550781 523.074219 336.109375 C 523.710938 335.300781 524.476562 334.160156 524.636719 333.78125 C 524.75 333.5 524.929688 333.6875 525.273438 334.472656 C 525.441406 334.839844 525.714844 335.425781 525.871094 335.773438 C 526.039062 336.128906 526.175781 336.453125 526.175781 336.507812 C 526.175781 336.558594 526.363281 336.980469 526.59375 337.441406 C 526.824219 337.902344 527.015625 338.382812 527.015625 338.507812 C 527.015625 338.644531 527.203125 339.105469 527.433594 339.535156 C 527.664062 339.964844 527.851562 340.4375 527.851562 340.5625 C 527.851562 340.699219 527.949219 340.898438 528.0625 341.003906 C 528.179688 341.109375 528.273438 341.308594 528.273438 341.445312 C 528.273438 341.582031 528.441406 342.011719 528.640625 342.386719 C 528.839844 342.765625 529.027344 343.238281 529.070312 343.445312 C 529.109375 343.644531 529.320312 344.179688 529.539062 344.621094 C 529.769531 345.070312 529.949219 345.5 529.949219 345.574219 C 529.949219 345.660156 530.042969 345.859375 530.160156 346.035156 C 530.273438 346.203125 530.367188 346.421875 530.367188 346.507812 C 530.367188 346.589844 530.484375 346.894531 530.632812 347.179688 C 530.777344 347.460938 530.894531 347.753906 530.894531 347.816406 C 530.894531 347.890625 530.964844 348.007812 531.050781 348.078125 C 531.132812 348.152344 531.207031 348.34375 531.207031 348.5 C 531.207031 348.667969 531.394531 349.160156 531.625 349.601562 C 531.867188 350.070312 532.046875 350.554688 532.046875 350.753906 C 532.046875 350.953125 532.109375 351.171875 532.191406 351.257812 C 532.371094 351.433594 532.882812 352.617188 532.882812 352.847656 C 532.882812 352.933594 532.96875 353.089844 533.074219 353.195312 C 533.167969 353.289062 533.316406 353.507812 533.386719 353.675781 C 533.492188 353.917969 533.566406 353.960938 533.785156 353.90625 C 534.058594 353.835938 534.875 354.210938 534.875 354.402344 C 534.875 354.453125 535.011719 354.472656 535.179688 354.441406 C 535.402344 354.402344 535.632812 354.453125 535.976562 354.632812 C 536.238281 354.777344 536.574219 354.894531 536.722656 354.894531 C 536.859375 354.894531 537.152344 354.988281 537.359375 355.101562 C 537.582031 355.21875 537.851562 355.3125 537.96875 355.3125 C 538.085938 355.3125 538.484375 355.46875 538.859375 355.660156 C 539.238281 355.847656 540.035156 356.160156 540.640625 356.351562 C 541.25 356.539062 542.066406 356.855469 542.457031 357.054688 C 542.84375 357.253906 543.253906 357.410156 543.347656 357.410156 C 543.441406 357.410156 543.847656 357.578125 544.246094 357.777344 C 544.960938 358.132812 545.570312 358.246094 545.570312 358.027344 C 545.570312 357.976562 545.472656 357.746094 545.371094 357.535156 C 544.992188 356.800781 544.4375 355.574219 544.207031 354.976562 C 544.082031 354.640625 543.933594 354.347656 543.882812 354.316406 C 543.828125 354.273438 543.785156 354.179688 543.785156 354.085938 C 543.785156 354.003906 543.609375 353.542969 543.378906 353.078125 C 543.15625 352.609375 542.9375 352.085938 542.90625 351.917969 C 542.863281 351.757812 542.738281 351.488281 542.613281 351.328125 C 542.496094 351.171875 542.425781 350.972656 542.445312 350.890625 C 542.476562 350.816406 542.414062 350.636719 542.320312 350.492188 C 542.058594 350.113281 541.269531 348.351562 541.269531 348.152344 C 541.269531 348.058594 540.988281 347.441406 540.640625 346.757812 C 540.296875 346.089844 540.011719 345.425781 540.011719 345.292969 C 540.011719 345.164062 539.949219 344.988281 539.875 344.914062 C 539.644531 344.683594 539.46875 344.296875 539.53125 344.148438 C 539.550781 344.074219 539.488281 343.929688 539.375 343.824219 C 539.269531 343.730469 539.175781 343.605469 539.175781 343.539062 C 539.175781 343.488281 538.984375 343.058594 538.753906 342.578125 C 538.523438 342.09375 538.335938 341.601562 538.335938 341.484375 C 538.335938 341.359375 537.957031 340.511719 537.496094 339.589844 C 537.035156 338.667969 536.660156 337.828125 536.660156 337.722656 C 536.660156 337.609375 536.375 336.96875 536.03125 336.277344 C 535.683594 335.59375 535.402344 334.957031 535.402344 334.871094 C 535.402344 334.789062 535.304688 334.527344 535.203125 334.296875 C 534.332031 332.503906 533.628906 330.984375 533.242188 330.050781 C 532.980469 329.441406 532.558594 328.507812 532.308594 327.972656 C 532.046875 327.441406 531.835938 326.945312 531.835938 326.875 C 531.835938 326.8125 532.097656 326.445312 532.421875 326.066406 C 532.738281 325.6875 533.460938 324.820312 534.015625 324.128906 C 535.085938 322.796875 538.546875 318.601562 538.648438 318.519531 C 538.679688 318.488281 539.101562 317.984375 539.574219 317.398438 C 540.042969 316.820312 540.609375 316.128906 540.839844 315.878906 C 541.0625 315.636719 541.730469 314.828125 542.328125 314.105469 C 542.925781 313.382812 544.132812 311.945312 544.992188 310.929688 C 545.863281 309.902344 546.710938 308.886719 546.890625 308.675781 C 547.058594 308.457031 547.339844 308.152344 547.519531 307.996094 L 547.824219 307.722656 L 547.539062 307.46875 C 547.382812 307.335938 547.015625 307.167969 546.710938 307.101562 C 546.40625 307.03125 546.101562 306.9375 546.03125 306.871094 C 545.96875 306.820312 545.640625 306.707031 545.316406 306.621094 C 544.992188 306.539062 544.613281 306.402344 544.488281 306.316406 C 544.363281 306.234375 543.839844 306.011719 543.316406 305.824219 C 542.800781 305.644531 542.277344 305.425781 542.160156 305.351562 C 542.046875 305.269531 541.847656 305.207031 541.710938 305.207031 C 541.5625 305.207031 541.175781 305.058594 540.832031 304.890625 C 540.496094 304.714844 540.128906 304.578125 540.011719 304.578125 C 539.898438 304.578125 539.625 304.484375 539.414062 304.367188 C 539.195312 304.253906 538.890625 304.15625 538.722656 304.15625 C 538.566406 304.15625 538.1875 304.011719 537.886719 303.84375 C 537.570312 303.664062 537.203125 303.527344 537.066406 303.527344 C 536.929688 303.527344 536.554688 303.394531 536.230469 303.226562 C 535.839844 303.035156 535.578125 302.960938 535.484375 303.015625 C 535.402344 303.066406 535.074219 303.496094 534.761719 303.96875 C 534.457031 304.453125 533.890625 305.226562 533.515625 305.699219 C 533.136719 306.171875 532.527344 306.988281 532.152344 307.5 C 531.773438 308.027344 531.375 308.570312 531.261719 308.707031 C 531.144531 308.84375 530.839844 309.273438 530.578125 309.660156 C 530.316406 310.050781 529.90625 310.582031 529.675781 310.855469 C 529.4375 311.117188 529.089844 311.601562 528.890625 311.914062 C 528.703125 312.230469 528.1875 312.972656 527.75 313.5625 C 527.320312 314.148438 526.761719 314.914062 526.523438 315.257812 C 526.050781 315.929688 525.894531 316.023438 525.789062 315.710938 C 525.757812 315.617188 525.621094 315.289062 525.484375 314.988281 C 525.347656 314.691406 525.234375 314.398438 525.234375 314.355469 C 525.234375 314.304688 525.066406 313.917969 524.855469 313.488281 C 524.644531 313.066406 524.46875 312.597656 524.457031 312.449219 C 524.445312 312.304688 524.351562 312.007812 524.238281 311.808594 C 523.765625 310.929688 523.242188 309.785156 523.242188 309.628906 C 523.242188 309.535156 523.050781 309.085938 522.820312 308.632812 C 522.589844 308.183594 522.402344 307.730469 522.402344 307.636719 C 522.402344 307.542969 522.308594 307.3125 522.191406 307.144531 C 522.078125 306.96875 521.984375 306.757812 521.984375 306.671875 C 521.984375 306.589844 521.792969 306.140625 521.5625 305.679688 C 521.332031 305.214844 521.144531 304.777344 521.144531 304.691406 C 521.144531 304.609375 521.027344 304.304688 520.894531 304.011719 C 520.378906 302.929688 520.054688 302.207031 519.875 301.746094 C 519.488281 300.710938 519.246094 300.175781 518.941406 299.609375 C 518.773438 299.285156 518.628906 298.917969 518.628906 298.800781 C 518.628906 298.675781 518.535156 298.464844 518.417969 298.320312 C 518.304688 298.171875 518.210938 297.921875 518.210938 297.773438 C 518.210938 297.332031 518 297.144531 517.382812 297.03125 C 517.066406 296.976562 516.753906 296.871094 516.667969 296.800781 C 516.585938 296.734375 516.324219 296.640625 516.082031 296.601562 C 515.484375 296.503906 514.015625 296.105469 513.753906 295.980469 C 513.542969 295.875 513.011719 295.71875 511.605469 295.34375 C 510.640625 295.089844 510.285156 294.984375 509.875 294.847656 C 509.707031 294.796875 509.300781 294.691406 508.984375 294.617188 C 508.671875 294.554688 508.199219 294.410156 507.9375 294.304688 C 507.675781 294.199219 507.296875 294.117188 507.097656 294.117188 C 506.898438 294.117188 506.46875 293.988281 506.152344 293.84375 C 505.515625 293.550781 505.359375 293.519531 505.261719 293.675781 Z M 505.261719 293.675781 " fill-opacity="1" fill-rule="nonzero"/><path fill="#ffde59" d="M 293.640625 299.335938 C 293.546875 299.398438 293.117188 299.441406 292.699219 299.441406 C 291.871094 299.417969 290.214844 299.566406 290.035156 299.683594 C 289.878906 299.777344 288.914062 299.976562 288.433594 300.007812 C 288.222656 300.027344 287.90625 300.113281 287.730469 300.214844 C 287.539062 300.3125 287.308594 300.382812 287.207031 300.382812 C 287.101562 300.382812 286.828125 300.476562 286.597656 300.59375 C 286.367188 300.710938 286.09375 300.804688 285.988281 300.804688 C 285.757812 300.804688 284.363281 301.273438 283.945312 301.496094 C 283.789062 301.570312 283.578125 301.640625 283.484375 301.640625 C 283.378906 301.640625 283 301.757812 282.644531 301.894531 C 281.921875 302.167969 281.941406 302.15625 279.625 302.921875 C 278.734375 303.214844 277.675781 303.613281 277.277344 303.800781 C 276.890625 304 276.460938 304.15625 276.335938 304.15625 C 276.210938 304.15625 275.925781 304.253906 275.695312 304.367188 C 275.464844 304.484375 275.148438 304.578125 274.992188 304.578125 C 274.835938 304.578125 274.554688 304.671875 274.363281 304.785156 C 274.175781 304.902344 273.933594 304.996094 273.828125 304.996094 C 273.726562 304.996094 273.527344 305.082031 273.367188 305.175781 C 273.074219 305.363281 272.320312 305.667969 271.511719 305.898438 C 271.230469 305.972656 270.882812 306.117188 270.746094 306.210938 C 270.601562 306.296875 269.816406 306.601562 268.988281 306.882812 C 268.148438 307.167969 267.300781 307.492188 267.078125 307.585938 L 266.679688 307.773438 L 266.679688 309.242188 C 266.679688 310.050781 266.722656 310.804688 266.773438 310.917969 C 266.828125 311.035156 266.859375 311.578125 266.847656 312.136719 C 266.828125 312.710938 266.867188 313.246094 266.933594 313.363281 C 266.996094 313.488281 267.046875 314.460938 267.058594 315.855469 C 267.066406 317.449219 267.109375 318.214844 267.195312 318.363281 C 267.320312 318.570312 267.339844 320.289062 267.214844 320.679688 C 267.183594 320.792969 267.226562 321.015625 267.308594 321.179688 C 267.433594 321.414062 267.464844 321.9375 267.464844 323.644531 C 267.464844 325.3125 267.5 325.855469 267.613281 326.015625 C 267.730469 326.183594 267.738281 326.464844 267.675781 327.375 C 267.625 328.171875 267.632812 328.570312 267.71875 328.675781 C 267.792969 328.769531 267.863281 329.703125 267.90625 331.085938 C 267.949219 332.335938 268.03125 334.054688 268.085938 334.925781 C 268.148438 335.785156 268.222656 337.179688 268.253906 338.015625 C 268.328125 339.863281 268.390625 341.015625 268.523438 342.734375 C 268.578125 343.457031 268.660156 345.082031 268.714844 346.351562 C 268.765625 347.617188 268.859375 349.335938 268.921875 350.175781 C 269.082031 352.335938 269.121094 353.164062 269.195312 354.976562 C 269.226562 355.867188 269.28125 356.644531 269.320312 356.707031 C 269.363281 356.78125 269.386719 357.148438 269.363281 357.535156 C 269.332031 358.207031 269.351562 358.246094 269.550781 358.246094 C 269.679688 358.246094 270.003906 358.132812 270.277344 357.996094 C 270.546875 357.859375 271.105469 357.628906 271.503906 357.484375 C 271.910156 357.335938 272.539062 357.074219 272.917969 356.90625 C 273.292969 356.738281 273.945312 356.496094 274.375 356.371094 C 274.804688 356.234375 275.570312 355.953125 276.074219 355.722656 C 276.574219 355.5 277.070312 355.3125 277.183594 355.3125 C 277.289062 355.3125 277.476562 355.25 277.59375 355.164062 C 277.707031 355.082031 278.066406 354.945312 278.367188 354.851562 C 279.773438 354.464844 280.140625 354.328125 280.191406 354.210938 C 280.214844 354.136719 280.203125 353.730469 280.152344 353.308594 C 280.097656 352.878906 280.035156 351.550781 279.992188 350.332031 C 279.953125 349.128906 279.886719 348.089844 279.855469 348.027344 C 279.816406 347.976562 279.785156 347.429688 279.773438 346.820312 C 279.722656 344.160156 279.5625 340.65625 279.449219 339.796875 C 279.394531 339.328125 279.375 338.886719 279.40625 338.058594 L 279.417969 337.628906 L 281.019531 337.082031 C 281.890625 336.78125 282.78125 336.496094 282.980469 336.453125 C 283.179688 336.414062 283.496094 336.296875 283.683594 336.203125 C 283.871094 336.109375 284.113281 336.023438 284.21875 336.023438 C 284.332031 336.023438 284.625 335.929688 284.878906 335.816406 C 285.621094 335.480469 285.738281 335.523438 286.292969 336.308594 C 286.578125 336.707031 286.964844 337.230469 287.171875 337.492188 C 287.382812 337.753906 288.148438 338.738281 288.863281 339.695312 C 289.585938 340.648438 290.351562 341.664062 290.582031 341.96875 C 290.8125 342.261719 291.335938 342.964844 291.734375 343.507812 C 292.140625 344.066406 293.035156 345.261719 293.726562 346.171875 C 294.417969 347.09375 295.140625 348.058594 295.320312 348.332031 C 295.707031 348.875 295.789062 348.898438 296.722656 348.613281 C 297.089844 348.5 297.65625 348.363281 297.972656 348.300781 C 298.285156 348.226562 299.019531 348.015625 299.59375 347.828125 C 300.171875 347.628906 301.117188 347.347656 301.691406 347.1875 C 302.269531 347.03125 303.023438 346.820312 303.371094 346.707031 C 303.714844 346.601562 304.28125 346.445312 304.628906 346.359375 C 304.972656 346.265625 305.78125 346.035156 306.410156 345.824219 C 307.046875 345.625 307.636719 345.460938 307.71875 345.460938 C 307.804688 345.449219 308.011719 345.394531 308.179688 345.324219 L 308.472656 345.195312 L 307.78125 344.316406 C 307.40625 343.84375 307.089844 343.40625 307.089844 343.363281 C 307.089844 343.308594 306.847656 342.996094 306.554688 342.660156 C 306.261719 342.324219 305.9375 341.882812 305.832031 341.683594 C 305.726562 341.484375 305.519531 341.203125 305.359375 341.054688 C 305.191406 340.910156 304.867188 340.480469 304.617188 340.101562 C 304.375 339.726562 304.09375 339.347656 303.988281 339.265625 C 303.894531 339.179688 303.601562 338.8125 303.347656 338.4375 C 303.097656 338.058594 302.613281 337.398438 302.269531 336.96875 C 301.933594 336.539062 300.949219 335.25 300.097656 334.097656 C 299.25 332.953125 298.128906 331.496094 297.625 330.867188 C 297.109375 330.226562 296.734375 329.671875 296.785156 329.621094 C 296.828125 329.578125 297.039062 329.398438 297.246094 329.242188 C 298.097656 328.59375 299.46875 327.3125 299.941406 326.738281 C 300.214844 326.414062 300.707031 325.824219 301.03125 325.4375 C 302.773438 323.382812 304.25 320.457031 304.929688 317.734375 C 305.457031 315.636719 305.625 314.398438 305.625 312.511719 C 305.625 310.867188 305.589844 310.46875 305.308594 309.054688 C 304.890625 306.9375 304.667969 306.253906 304.039062 304.984375 C 303.222656 303.371094 302.183594 302.15625 300.71875 301.109375 C 300.234375 300.761719 299.691406 300.457031 299.511719 300.414062 C 299.324219 300.382812 299.101562 300.300781 299.019531 300.226562 C 298.800781 300.046875 297.761719 299.734375 297.605469 299.796875 C 297.53125 299.816406 297.382812 299.785156 297.277344 299.714844 C 297.070312 299.566406 296.335938 299.460938 295.140625 299.386719 C 294.761719 299.367188 294.324219 299.316406 294.144531 299.285156 C 293.976562 299.253906 293.746094 299.285156 293.640625 299.335938 Z M 290.894531 310.207031 C 291.878906 310.4375 293.234375 311.441406 293.609375 312.238281 C 294.144531 313.382812 294.230469 313.8125 294.28125 315.605469 C 294.324219 317.261719 294.3125 317.398438 294.039062 318.332031 C 293.664062 319.597656 293.285156 320.351562 292.46875 321.453125 C 291.828125 322.3125 291.15625 322.964844 290.476562 323.402344 C 290.308594 323.507812 290.140625 323.625 290.109375 323.664062 C 289.960938 323.832031 288.527344 324.703125 288.273438 324.765625 C 288.105469 324.808594 287.644531 325.007812 287.238281 325.207031 C 286.828125 325.417969 286.386719 325.574219 286.25 325.5625 C 286.113281 325.554688 285.882812 325.636719 285.726562 325.75 C 285.570312 325.867188 285.277344 325.972656 285.066406 326.003906 C 284.867188 326.023438 284.542969 326.140625 284.355469 326.253906 C 284.164062 326.371094 283.925781 326.445312 283.820312 326.414062 C 283.703125 326.382812 283.441406 326.464844 283.230469 326.589844 C 283.023438 326.726562 282.707031 326.832031 282.539062 326.820312 C 282.363281 326.820312 282.046875 326.925781 281.839844 327.0625 C 281.628906 327.199219 281.273438 327.355469 281.042969 327.40625 C 280.8125 327.460938 280.277344 327.660156 279.847656 327.847656 C 279.425781 328.027344 279.019531 328.152344 278.933594 328.121094 C 278.820312 328.078125 278.789062 327.648438 278.789062 325.824219 C 278.789062 324.179688 278.757812 323.5625 278.660156 323.457031 C 278.566406 323.371094 278.515625 322.890625 278.503906 322 C 278.441406 318.78125 278.285156 315.058594 278.179688 314.429688 C 278.074219 313.75 278.148438 313.382812 278.390625 313.382812 C 278.453125 313.382812 278.839844 313.214844 279.257812 313.015625 C 279.667969 312.816406 280.191406 312.605469 280.421875 312.554688 C 280.789062 312.460938 285.464844 310.917969 286.335938 310.605469 C 287.613281 310.144531 289.761719 309.953125 290.894531 310.207031 Z M 290.894531 310.207031 " fill-opacity="1" fill-rule="nonzero"/><path fill="#ffde59" d="M 401.328125 368.226562 C 401.128906 368.269531 400.039062 368.3125 398.917969 368.3125 C 397.796875 368.320312 396.644531 368.375 396.347656 368.4375 C 396.066406 368.5 395.65625 368.53125 395.457031 368.53125 C 395.257812 368.519531 394.882812 368.5625 394.621094 368.613281 C 394.359375 368.679688 393.601562 368.75 392.941406 368.773438 C 392.28125 368.804688 391.414062 368.878906 391.003906 368.941406 C 389.820312 369.117188 388.707031 369.234375 388.570312 369.179688 C 388.507812 369.148438 388.058594 369.222656 387.574219 369.347656 C 387.09375 369.464844 386.347656 369.578125 385.917969 369.609375 C 385.488281 369.632812 384.683594 369.738281 384.136719 369.832031 C 383.59375 369.925781 382.648438 370.09375 382.039062 370.199219 C 381.433594 370.3125 380.5625 370.449219 380.101562 370.511719 C 379.640625 370.574219 379.09375 370.667969 378.894531 370.722656 C 378.695312 370.773438 377.605469 371.015625 376.484375 371.257812 C 374.253906 371.726562 369.285156 372.945312 368.78125 373.132812 C 368.613281 373.195312 368.027344 373.363281 367.46875 373.511719 C 366.035156 373.886719 359.679688 376.003906 358.140625 376.613281 C 355.445312 377.691406 353.738281 378.449219 351.851562 379.378906 C 349.996094 380.304688 349.890625 380.34375 349.335938 380.304688 C 349.019531 380.273438 348.664062 380.230469 348.550781 380.1875 C 347.910156 379.988281 336.976562 379.777344 335.539062 379.9375 C 335.027344 380 333.714844 380.074219 332.617188 380.09375 C 331.527344 380.125 330.300781 380.199219 329.890625 380.261719 C 329.492188 380.324219 328.707031 380.417969 328.160156 380.472656 C 326.808594 380.605469 326.316406 380.671875 325.695312 380.785156 C 325.414062 380.847656 324.867188 380.910156 324.492188 380.941406 C 324.113281 380.964844 323.578125 381.035156 323.285156 381.101562 C 323.003906 381.164062 322.40625 381.257812 321.976562 381.320312 C 321.546875 381.371094 321.074219 381.457031 320.925781 381.519531 C 320.78125 381.570312 320.339844 381.664062 319.933594 381.730469 C 319.535156 381.78125 319.03125 381.875 318.832031 381.929688 C 317.929688 382.179688 316.125 382.578125 315.792969 382.609375 C 315.59375 382.628906 315.234375 382.722656 315.015625 382.820312 C 314.785156 382.921875 314.40625 383.019531 314.167969 383.039062 C 313.9375 383.050781 313.589844 383.144531 313.410156 383.238281 C 313.222656 383.332031 312.980469 383.40625 312.878906 383.40625 C 312.761719 383.40625 312.488281 383.480469 312.269531 383.574219 C 312.039062 383.679688 311.597656 383.816406 311.285156 383.886719 C 309.796875 384.222656 307.34375 385.03125 306.179688 385.574219 C 305.757812 385.765625 305.359375 385.921875 305.289062 385.921875 C 305.214844 385.921875 304.511719 386.183594 303.734375 386.5 C 302.960938 386.824219 301.964844 387.230469 301.535156 387.398438 C 300.589844 387.777344 300.496094 387.820312 297.707031 389.183594 C 296.503906 389.78125 295.253906 390.417969 294.953125 390.609375 C 294.648438 390.796875 294.355469 390.953125 294.292969 390.953125 C 294.230469 390.953125 293.988281 391.089844 293.746094 391.246094 C 293.503906 391.414062 293.042969 391.6875 292.71875 391.867188 C 292.40625 392.042969 291.609375 392.546875 290.96875 392.976562 C 290.320312 393.417969 289.691406 393.804688 289.554688 393.847656 C 289.425781 393.886719 289.113281 394.097656 288.863281 394.316406 C 288.609375 394.550781 288.328125 394.726562 288.222656 394.726562 C 288.128906 394.726562 287.960938 394.820312 287.855469 394.9375 C 287.75 395.050781 287.425781 395.3125 287.132812 395.511719 C 285.957031 396.308594 285.582031 396.59375 283.894531 397.964844 C 281.753906 399.683594 281.09375 400.148438 280.988281 399.96875 C 280.9375 399.882812 280.582031 399.863281 279.722656 399.90625 C 279.058594 399.9375 277.960938 399.980469 277.269531 400.011719 C 275.078125 400.09375 273.945312 400.1875 272.601562 400.386719 C 271.878906 400.503906 270.894531 400.640625 270.402344 400.710938 C 269.910156 400.777344 269.089844 400.921875 268.566406 401.039062 C 268.054688 401.152344 267.394531 401.300781 267.101562 401.351562 C 266.816406 401.414062 266.34375 401.550781 266.050781 401.65625 C 265.769531 401.75 265.296875 401.875 265.003906 401.90625 C 264.71875 401.949219 264.4375 402.023438 264.375 402.066406 C 264.320312 402.117188 263.871094 402.253906 263.378906 402.378906 C 261.617188 402.832031 261.429688 402.882812 260.808594 403.195312 C 260.464844 403.363281 260.011719 403.542969 259.8125 403.585938 C 259.613281 403.625 259.34375 403.722656 259.21875 403.804688 C 259.089844 403.890625 258.882812 403.953125 258.765625 403.953125 C 258.652344 403.953125 258.15625 404.140625 257.695312 404.371094 C 257.226562 404.601562 256.765625 404.789062 256.667969 404.789062 C 256.585938 404.789062 256.375 404.882812 256.199219 405 C 256.03125 405.117188 255.820312 405.210938 255.746094 405.210938 C 255.558594 405.210938 251.773438 407.074219 251.25 407.433594 C 251.007812 407.589844 250.769531 407.726562 250.714844 407.726562 C 250.664062 407.726562 250.328125 407.914062 249.972656 408.144531 C 249.613281 408.375 249.289062 408.5625 249.238281 408.5625 C 249.183594 408.5625 248.765625 408.816406 248.304688 409.109375 C 247.84375 409.414062 247.183594 409.820312 246.847656 410.011719 C 246.511719 410.199219 245.726562 410.734375 245.085938 411.183594 C 244.457031 411.644531 243.796875 412.105469 243.628906 412.203125 C 243.460938 412.304688 242.621094 412.957031 241.753906 413.648438 C 240.894531 414.339844 239.875 415.136719 239.5 415.417969 C 238.691406 416.039062 235.316406 419.296875 234.75 420.019531 C 234.425781 420.429688 234.363281 420.566406 234.445312 420.722656 C 234.5 420.828125 234.675781 421.257812 234.824219 421.6875 C 234.980469 422.109375 235.136719 422.496094 235.179688 422.558594 C 235.222656 422.609375 235.316406 422.851562 235.390625 423.082031 C 235.820312 424.457031 238.367188 429.90625 239.707031 432.308594 C 240.546875 433.804688 241.648438 435.753906 242.003906 436.363281 C 242.203125 436.6875 242.589844 437.378906 242.886719 437.882812 C 243.167969 438.386719 243.683594 439.214844 244.007812 439.71875 C 244.332031 440.222656 244.886719 441.113281 245.242188 441.6875 C 246.039062 443 251.40625 451.050781 252.632812 452.746094 C 253.125 453.441406 253.882812 454.476562 254.300781 455.054688 C 254.71875 455.628906 255.695312 456.972656 256.46875 458.042969 C 257.894531 460.011719 262.226562 465.734375 264.238281 468.324219 C 265.359375 469.773438 266.523438 471.230469 268.933594 474.238281 C 269.679688 475.160156 270.578125 476.292969 270.945312 476.753906 C 271.691406 477.6875 273.683594 480.117188 276.472656 483.503906 C 278.054688 485.433594 278.726562 486.238281 280.085938 487.8125 C 280.214844 487.957031 280.988281 488.871094 281.816406 489.855469 C 283.828125 492.234375 285.402344 494.050781 286.859375 495.714844 C 287.519531 496.472656 288.304688 497.371094 288.589844 497.71875 C 288.871094 498.0625 289.65625 498.964844 290.320312 499.710938 C 290.980469 500.464844 292.519531 502.203125 293.726562 503.589844 C 294.941406 504.960938 296.566406 506.804688 297.34375 507.667969 C 298.117188 508.535156 299.34375 509.910156 300.066406 510.726562 C 302.363281 513.335938 304.785156 516.019531 306.210938 517.53125 C 306.964844 518.335938 308.035156 519.5 308.578125 520.109375 C 310.003906 521.722656 313.664062 525.6875 316.628906 528.820312 C 318.042969 530.308594 319.40625 531.777344 319.648438 532.078125 C 319.898438 532.382812 321.441406 534.007812 323.054688 535.707031 C 324.679688 537.394531 326.261719 539.070312 326.578125 539.429688 C 327.21875 540.152344 330.6875 543.789062 333.347656 546.515625 C 334.335938 547.519531 335.320312 548.558594 335.550781 548.820312 C 335.769531 549.082031 336.890625 550.257812 338.054688 551.441406 C 339.21875 552.625 340.898438 554.355469 341.789062 555.265625 C 348.054688 561.734375 352.625 566.367188 361.441406 575.195312 C 366.976562 580.730469 372.082031 585.804688 372.773438 586.464844 C 373.476562 587.125 375.910156 589.480469 378.171875 591.714844 L 382.292969 595.78125 L 427.492188 595.78125 L 428.46875 594.734375 C 429.003906 594.148438 429.832031 593.339844 430.300781 592.929688 C 432.578125 590.9375 461.320312 562.226562 466.6875 556.578125 C 467.265625 555.96875 468.679688 554.511719 469.832031 553.328125 C 472.996094 550.089844 477.839844 545.078125 478.480469 544.367188 C 478.792969 544.019531 479.664062 543.097656 480.417969 542.320312 C 482.914062 539.730469 485.546875 536.953125 486.183594 536.230469 C 486.53125 535.84375 487.871094 534.40625 489.171875 533.042969 C 490.472656 531.691406 492.003906 530.066406 492.578125 529.4375 C 493.15625 528.808594 494.339844 527.53125 495.199219 526.597656 C 496.070312 525.664062 497.097656 524.53125 497.496094 524.09375 C 498.398438 523.097656 499.140625 522.300781 500.753906 520.570312 C 501.457031 519.816406 502.378906 518.808594 502.800781 518.328125 C 503.21875 517.84375 503.953125 517.046875 504.414062 516.542969 C 504.886719 516.042969 505.640625 515.214844 506.101562 514.699219 C 506.5625 514.175781 507.621094 513 508.460938 512.070312 C 509.300781 511.144531 510.429688 509.867188 510.976562 509.25 C 511.519531 508.621094 512.234375 507.8125 512.558594 507.46875 C 512.882812 507.121094 513.511719 506.40625 513.964844 505.894531 C 514.425781 505.371094 515.242188 504.457031 515.796875 503.851562 C 516.355469 503.242188 517.351562 502.109375 518.019531 501.335938 C 519.289062 499.855469 520.964844 497.917969 522.558594 496.09375 C 523.082031 495.496094 523.941406 494.488281 524.488281 493.851562 C 525.023438 493.210938 525.765625 492.351562 526.132812 491.933594 C 526.5 491.523438 527.589844 490.253906 528.546875 489.101562 C 530.566406 486.699219 533.617188 483.042969 534.457031 482.027344 C 534.773438 481.648438 535.671875 480.558594 536.449219 479.625 C 537.222656 478.683594 538.523438 477.078125 539.332031 476.070312 C 540.140625 475.054688 541.722656 473.0625 542.855469 471.660156 C 543.984375 470.242188 545.265625 468.617188 545.703125 468.042969 C 546.132812 467.476562 546.972656 466.386719 547.550781 465.640625 C 548.914062 463.890625 552.382812 459.269531 553.535156 457.675781 C 554.027344 456.992188 554.78125 455.957031 555.210938 455.367188 C 557.457031 452.308594 563.609375 443.21875 565.148438 440.660156 C 565.484375 440.105469 566.074219 439.140625 566.449219 438.535156 C 567.140625 437.421875 568.628906 434.8125 569.46875 433.25 C 569.71875 432.789062 570.117188 432.054688 570.359375 431.625 C 570.988281 430.515625 572.070312 428.324219 572.699219 426.910156 C 572.992188 426.25 573.378906 425.441406 573.546875 425.125 C 573.714844 424.8125 573.914062 424.339844 573.976562 424.078125 C 574.050781 423.816406 574.257812 423.28125 574.457031 422.871094 C 574.65625 422.472656 574.816406 422.054688 574.816406 421.949219 C 574.816406 421.84375 574.941406 421.519531 575.085938 421.238281 C 575.328125 420.753906 575.339844 420.660156 575.222656 420.367188 C 574.960938 419.726562 571.175781 416.132812 568.628906 414.109375 C 566.503906 412.421875 562.132812 409.445312 560.160156 408.34375 C 558.890625 407.632812 553.652344 404.988281 553.167969 404.8125 C 553 404.75 552.339844 404.488281 551.699219 404.214844 C 549.636719 403.34375 545.839844 402.105469 543.785156 401.644531 C 543.585938 401.605469 542.90625 401.445312 542.265625 401.300781 C 540.285156 400.847656 539.046875 400.617188 538.25 400.542969 C 537.832031 400.511719 537.359375 400.441406 537.214844 400.378906 C 536.804688 400.230469 533.148438 400 529.835938 399.9375 L 528.1875 399.894531 L 527.371094 399.234375 C 526.910156 398.867188 526.238281 398.300781 525.863281 397.976562 C 525.242188 397.441406 524.089844 396.5625 522.664062 395.542969 C 521.5625 394.757812 518.335938 392.640625 517.738281 392.316406 C 517.390625 392.128906 516.878906 391.8125 516.59375 391.613281 C 515.765625 391.046875 508.175781 387.285156 507.609375 387.167969 C 507.328125 387.105469 507.097656 387.023438 507.097656 386.96875 C 507.097656 386.929688 506.886719 386.832031 506.625 386.761719 C 506.363281 386.6875 506.152344 386.59375 506.152344 386.539062 C 506.152344 386.5 505.976562 386.425781 505.765625 386.382812 C 505.546875 386.339844 504.980469 386.132812 504.507812 385.902344 C 504.035156 385.679688 503.585938 385.503906 503.511719 385.503906 C 503.4375 385.503906 502.90625 385.324219 502.328125 385.125 C 501.75 384.925781 501.144531 384.714844 500.964844 384.664062 C 500.796875 384.613281 500.242188 384.433594 499.75 384.253906 C 498.828125 383.929688 498.710938 383.898438 497.148438 383.511719 C 496.65625 383.394531 496.207031 383.25 496.152344 383.207031 C 496.089844 383.15625 495.808594 383.082031 495.515625 383.039062 C 495.230469 383.007812 494.800781 382.902344 494.570312 382.828125 C 493.429688 382.421875 486.71875 381.101562 484.191406 380.785156 C 483.679688 380.722656 483.082031 380.628906 482.882812 380.574219 C 482.683594 380.523438 482.066406 380.460938 481.519531 380.429688 C 480.167969 380.355469 479.371094 380.273438 479.089844 380.175781 C 478.953125 380.125 477.988281 380.074219 476.9375 380.0625 C 475.890625 380.050781 474.757812 380 474.421875 379.957031 C 473.050781 379.769531 461.898438 380.007812 460.574219 380.25 C 459.90625 380.375 460.011719 380.417969 457.609375 379.214844 C 456.5625 378.699219 455.304688 378.121094 454.800781 377.945312 C 454.308594 377.753906 453.804688 377.546875 453.679688 377.460938 C 453.5625 377.390625 453.207031 377.253906 452.890625 377.160156 C 452.578125 377.0625 452.0625 376.863281 451.75 376.707031 C 451.433594 376.550781 450.753906 376.289062 450.230469 376.132812 C 449.714844 375.972656 449.054688 375.753906 448.761719 375.648438 C 445.585938 374.496094 437.671875 372.398438 433.089844 371.496094 C 432.597656 371.402344 431.875 371.257812 431.464844 371.183594 C 430.207031 370.933594 425.300781 370.09375 424.808594 370.039062 C 424.546875 370.007812 424.054688 369.945312 423.710938 369.882812 C 423.363281 369.832031 422.628906 369.738281 422.085938 369.671875 C 421.539062 369.609375 420.59375 369.484375 420 369.402344 C 418.667969 369.210938 417 369.035156 416.171875 368.980469 C 415.824219 368.960938 415.480469 368.917969 415.386719 368.886719 C 415.238281 368.824219 413.320312 368.679688 411.550781 368.582031 C 411.265625 368.5625 410.722656 368.5 410.34375 368.4375 C 409.074219 368.226562 402.105469 368.058594 401.328125 368.226562 Z M 401.328125 368.226562 " fill-opacity="1" fill-rule="nonzero"/><path fill="#ffde59" d="M 382.890625 616.800781 L 382.890625 618.214844 L 385.289062 618.214844 L 385.34375 618.5 C 385.386719 618.664062 385.457031 618.886719 385.519531 619 C 385.582031 619.117188 385.699219 619.472656 385.773438 619.789062 C 385.929688 620.449219 386.160156 621.316406 387.105469 624.609375 C 388.226562 628.5625 388.445312 629.359375 388.601562 630.007812 C 388.6875 630.355469 388.832031 630.847656 388.917969 631.109375 C 389 631.371094 389.0625 631.695312 389.0625 631.84375 C 389.0625 631.988281 389.128906 632.199219 389.199219 632.3125 C 389.285156 632.429688 389.398438 632.796875 389.460938 633.132812 C 389.527344 633.46875 389.652344 633.886719 389.734375 634.074219 C 389.820312 634.265625 389.914062 634.621094 389.945312 634.882812 C 389.988281 635.144531 390.082031 635.492188 390.15625 635.667969 C 390.3125 636.003906 390.4375 636.433594 391.316406 639.703125 C 391.644531 640.890625 391.945312 641.988281 392 642.167969 C 392.050781 642.335938 392.167969 642.808594 392.273438 643.195312 C 392.375 643.625 392.511719 643.929688 392.617188 643.980469 C 392.710938 644.023438 398.46875 644.035156 405.40625 644.003906 L 418.027344 643.949219 L 418.152344 643.476562 C 418.226562 643.214844 418.382812 642.609375 418.507812 642.117188 C 418.835938 640.921875 419.609375 638.171875 419.933594 637.136719 C 420.070312 636.675781 420.292969 635.921875 420.417969 635.457031 C 420.53125 634.996094 420.699219 634.429688 420.785156 634.199219 C 420.867188 633.960938 420.929688 633.667969 420.929688 633.539062 C 420.929688 633.414062 421.097656 632.753906 421.289062 632.082031 C 421.789062 630.386719 423.730469 623.570312 423.980469 622.671875 C 424.085938 622.261719 424.316406 621.390625 424.496094 620.730469 C 424.851562 619.390625 424.976562 618.929688 425.144531 618.5 L 425.261719 618.203125 L 426.425781 618.226562 L 427.585938 618.257812 L 427.617188 616.820312 L 427.652344 615.382812 L 382.890625 615.382812 Z M 400.363281 618.015625 C 400.3125 618.382812 400.070312 618.394531 400.070312 618.027344 C 400.070312 617.859375 400.101562 617.691406 400.144531 617.648438 C 400.257812 617.535156 400.40625 617.753906 400.363281 618.015625 Z M 402.105469 617.753906 C 402.199219 617.996094 402.082031 618.320312 401.894531 618.320312 C 401.800781 618.320312 401.75 618.214844 401.75 618.027344 C 401.75 617.585938 401.980469 617.417969 402.105469 617.753906 Z M 403.6875 617.691406 C 403.78125 617.835938 403.625 618.320312 403.488281 618.320312 C 403.40625 618.320312 403.371094 618.195312 403.40625 617.953125 C 403.445312 617.597656 403.5625 617.480469 403.6875 617.691406 Z M 405.394531 617.921875 C 405.355469 618.351562 405.101562 618.445312 405.101562 618.027344 C 405.101562 617.859375 405.132812 617.691406 405.175781 617.660156 C 405.332031 617.492188 405.425781 617.605469 405.394531 617.921875 Z M 406.621094 618.003906 C 406.621094 618.195312 406.570312 618.371094 406.496094 618.394531 C 406.351562 618.445312 406.203125 617.972656 406.296875 617.734375 C 406.402344 617.449219 406.621094 617.636719 406.621094 618.003906 Z M 407.953125 617.710938 C 408.027344 617.933594 407.910156 618.320312 407.765625 618.320312 C 407.578125 618.320312 407.523438 618.203125 407.585938 617.867188 C 407.640625 617.585938 407.878906 617.480469 407.953125 617.710938 Z M 409.210938 617.710938 C 409.296875 617.941406 409.167969 618.320312 409.023438 618.320312 C 408.875 618.320312 408.8125 617.785156 408.949219 617.660156 C 409.054688 617.542969 409.167969 617.574219 409.210938 617.710938 Z M 410.28125 617.648438 C 410.460938 617.722656 410.5 618.078125 410.355469 618.308594 C 410.207031 618.539062 410.027344 618.339844 410.027344 617.941406 C 410.027344 617.554688 410.027344 617.554688 410.28125 617.648438 Z M 411.707031 617.953125 C 411.707031 618.203125 411.652344 618.320312 411.558594 618.320312 C 411.339844 618.320312 411.265625 618.164062 411.351562 617.847656 C 411.453125 617.4375 411.707031 617.511719 411.707031 617.953125 Z M 412.945312 617.984375 C 412.964844 618.234375 412.933594 618.320312 412.816406 618.320312 C 412.691406 618.320312 412.648438 618.214844 412.648438 617.941406 C 412.648438 617.472656 412.902344 617.503906 412.945312 617.984375 Z M 414.222656 617.941406 C 414.222656 618.234375 414.066406 618.464844 413.917969 618.382812 C 413.792969 618.300781 413.761719 617.773438 413.867188 617.660156 C 413.992188 617.535156 414.222656 617.722656 414.222656 617.941406 Z M 415.480469 618.015625 C 415.480469 618.214844 415.429688 618.320312 415.324219 618.320312 C 415.101562 618.320312 415.019531 618.066406 415.164062 617.804688 C 415.3125 617.511719 415.480469 617.617188 415.480469 618.015625 Z M 416.695312 617.742188 C 416.78125 617.953125 416.652344 618.425781 416.527344 618.425781 C 416.464844 618.425781 416.421875 618.234375 416.421875 618.003906 C 416.421875 617.585938 416.582031 617.4375 416.695312 617.742188 Z M 386.9375 617.859375 C 387.007812 618.046875 386.757812 618.257812 386.609375 618.109375 C 386.496094 617.996094 386.601562 617.691406 386.757812 617.691406 C 386.820312 617.691406 386.894531 617.765625 386.9375 617.859375 Z M 390.257812 617.773438 C 390.332031 617.902344 390.207031 618.320312 390.101562 618.320312 C 389.964844 618.320312 389.871094 618.035156 389.945312 617.847656 C 390.007812 617.679688 390.175781 617.636719 390.257812 617.773438 Z M 391.988281 618.121094 C 391.84375 618.394531 391.683594 618.371094 391.683594 618.078125 C 391.683594 617.765625 391.789062 617.660156 391.957031 617.804688 C 392.0625 617.890625 392.074219 617.972656 391.988281 618.121094 Z M 393.675781 617.953125 C 393.675781 618.140625 393.625 618.214844 393.46875 618.214844 C 393.308594 618.214844 393.257812 618.140625 393.257812 617.953125 C 393.257812 617.765625 393.308594 617.691406 393.46875 617.691406 C 393.625 617.691406 393.675781 617.765625 393.675781 617.953125 Z M 395.425781 617.859375 C 395.5 618.058594 395.332031 618.246094 395.113281 618.195312 C 394.996094 618.171875 394.988281 618.101562 395.050781 617.921875 C 395.15625 617.648438 395.332031 617.617188 395.425781 617.859375 Z M 397.03125 617.953125 C 397.03125 618.140625 396.976562 618.214844 396.84375 618.214844 C 396.582031 618.214844 396.515625 618.140625 396.582031 617.890625 C 396.664062 617.585938 397.03125 617.628906 397.03125 617.953125 Z M 398.8125 617.941406 C 398.8125 618.183594 398.582031 618.371094 398.457031 618.246094 C 398.339844 618.132812 398.394531 617.816406 398.53125 617.765625 C 398.769531 617.660156 398.8125 617.691406 398.8125 617.941406 Z M 417.976562 617.972656 C 417.953125 618.152344 417.871094 618.277344 417.765625 618.300781 C 417.617188 618.332031 417.578125 618.265625 417.578125 618.015625 C 417.578125 617.753906 417.617188 617.691406 417.796875 617.691406 C 417.964844 617.691406 418.007812 617.742188 417.976562 617.972656 Z M 419.253906 617.941406 C 419.253906 618.089844 419.203125 618.234375 419.136719 618.277344 C 418.960938 618.382812 418.804688 618.152344 418.886719 617.910156 C 418.980469 617.605469 419.253906 617.628906 419.253906 617.941406 Z M 420.460938 618.003906 C 420.460938 618.382812 420.15625 618.351562 420.113281 617.972656 C 420.082031 617.734375 420.113281 617.679688 420.269531 617.710938 C 420.398438 617.734375 420.460938 617.835938 420.460938 618.003906 Z M 421.769531 617.835938 C 421.769531 618.101562 421.644531 618.320312 421.496094 618.320312 C 421.351562 618.320312 421.289062 617.890625 421.421875 617.765625 C 421.550781 617.636719 421.769531 617.691406 421.769531 617.835938 Z M 423.027344 617.953125 C 423.027344 618.121094 422.964844 618.214844 422.871094 618.214844 C 422.714844 618.214844 422.648438 617.890625 422.785156 617.765625 C 422.921875 617.617188 423.027344 617.703125 423.027344 617.953125 Z M 388.089844 618.132812 C 388.058594 618.203125 388.035156 618.152344 388.035156 618.003906 C 388.035156 617.859375 388.058594 617.804688 388.089844 617.867188 C 388.109375 617.941406 388.109375 618.066406 388.089844 618.132812 Z M 388.699219 618.109375 C 388.644531 618.195312 388.582031 618.195312 388.519531 618.132812 C 388.457031 618.066406 388.445312 617.964844 388.488281 617.902344 C 388.539062 617.816406 388.601562 617.816406 388.664062 617.878906 C 388.730469 617.941406 388.738281 618.046875 388.699219 618.109375 Z M 424.914062 617.996094 C 424.914062 618.046875 424.839844 618.121094 424.746094 618.152344 C 424.453125 618.265625 424.179688 618.214844 424.179688 618.058594 C 424.179688 617.953125 424.296875 617.902344 424.546875 617.902344 C 424.746094 617.902344 424.914062 617.941406 424.914062 617.996094 Z M 408.75 621.371094 C 408.699219 621.738281 408.457031 621.746094 408.457031 621.378906 C 408.457031 621.214844 408.488281 621.046875 408.53125 621.003906 C 408.644531 620.886719 408.792969 621.109375 408.75 621.371094 Z M 416.277344 621.515625 C 416.191406 621.757812 415.960938 621.652344 415.921875 621.359375 C 415.867188 621.046875 416.128906 620.878906 416.257812 621.148438 C 416.308594 621.253906 416.320312 621.421875 416.277344 621.515625 Z M 418.835938 621.308594 C 418.835938 621.601562 418.65625 621.746094 418.488281 621.578125 C 418.414062 621.507812 418.414062 621.390625 418.5 621.203125 C 418.644531 620.886719 418.835938 620.949219 418.835938 621.308594 Z M 411.265625 621.296875 C 411.289062 621.402344 411.253906 621.539062 411.191406 621.601562 C 411.023438 621.769531 410.835938 621.539062 410.921875 621.253906 C 411.003906 621.003906 411.214844 621.023438 411.265625 621.296875 Z M 413.886719 621.316406 C 413.929688 621.578125 413.65625 621.714844 413.5 621.527344 C 413.339844 621.339844 413.46875 621.023438 413.6875 621.066406 C 413.78125 621.085938 413.867188 621.203125 413.886719 621.316406 Z M 421.246094 621.308594 C 421.246094 621.476562 421.183594 621.570312 421.089844 621.570312 C 420.992188 621.570312 420.929688 621.476562 420.929688 621.308594 C 420.929688 621.140625 420.992188 621.046875 421.089844 621.046875 C 421.183594 621.046875 421.246094 621.140625 421.246094 621.308594 Z M 407.460938 623.035156 C 407.460938 623.320312 407.230469 623.445312 407.136719 623.203125 C 407.050781 622.972656 407.167969 622.691406 407.335938 622.753906 C 407.398438 622.773438 407.460938 622.902344 407.460938 623.035156 Z M 412.523438 622.972656 C 412.546875 623.078125 412.511719 623.214844 412.449219 623.277344 C 412.28125 623.445312 412.09375 623.214844 412.179688 622.933594 C 412.261719 622.679688 412.472656 622.703125 412.523438 622.972656 Z M 417.554688 623.101562 C 417.535156 623.203125 417.441406 623.308594 417.335938 623.332031 C 417.210938 623.363281 417.15625 623.300781 417.15625 623.109375 C 417.15625 622.835938 417.347656 622.679688 417.503906 622.828125 C 417.554688 622.871094 417.578125 622.996094 417.554688 623.101562 Z M 422.578125 623.078125 C 422.484375 623.320312 422.1875 623.289062 422.1875 623.046875 C 422.1875 622.828125 422.398438 622.703125 422.546875 622.835938 C 422.597656 622.878906 422.609375 622.996094 422.578125 623.078125 Z M 409.609375 623.402344 C 409.609375 623.59375 409.558594 623.664062 409.398438 623.664062 C 409.035156 623.664062 409.148438 623.195312 409.535156 623.152344 C 409.578125 623.140625 409.609375 623.257812 409.609375 623.402344 Z M 414.589844 623.402344 C 414.589844 623.519531 414.503906 623.625 414.410156 623.644531 C 414.265625 623.675781 414.222656 623.613281 414.222656 623.402344 C 414.222656 623.195312 414.265625 623.132812 414.410156 623.164062 C 414.503906 623.183594 414.589844 623.289062 414.589844 623.402344 Z M 419.671875 623.445312 C 419.671875 623.5625 419.621094 623.6875 419.558594 623.730469 C 419.402344 623.824219 419.210938 623.601562 419.285156 623.414062 C 419.378906 623.171875 419.671875 623.203125 419.671875 623.445312 Z M 411.183594 624.660156 C 411.183594 624.828125 411.121094 624.925781 411.023438 624.925781 C 410.867188 624.925781 410.804688 624.597656 410.941406 624.472656 C 411.078125 624.328125 411.183594 624.410156 411.183594 624.660156 Z M 416.351562 624.609375 C 416.402344 624.828125 416.183594 625.082031 416.003906 624.976562 C 415.867188 624.890625 415.867188 624.683594 416.023438 624.527344 C 416.203125 624.347656 416.289062 624.367188 416.351562 624.609375 Z M 418.414062 625.082031 C 418.414062 625.3125 418.183594 625.5 418.058594 625.375 C 417.953125 625.269531 417.984375 624.976562 418.121094 624.839844 C 418.277344 624.683594 418.414062 624.777344 418.414062 625.082031 Z M 407.933594 625.082031 C 407.933594 625.269531 407.878906 625.34375 407.722656 625.34375 C 407.511719 625.34375 407.429688 625.050781 407.585938 624.890625 C 407.742188 624.726562 407.933594 624.828125 407.933594 625.082031 Z M 413.382812 624.964844 C 413.382812 624.988281 413.414062 625.082031 413.445312 625.175781 C 413.488281 625.289062 413.445312 625.34375 413.308594 625.34375 C 413.046875 625.34375 412.964844 625.257812 413.039062 625.070312 C 413.078125 624.945312 413.382812 624.851562 413.382812 624.964844 Z M 420.511719 625.488281 C 420.511719 625.617188 420.480469 625.753906 420.449219 625.792969 C 420.332031 625.898438 420.101562 625.753906 420.15625 625.59375 C 420.175781 625.511719 420.21875 625.375 420.25 625.28125 C 420.324219 625.050781 420.511719 625.207031 420.511719 625.488281 Z M 410.027344 626.390625 C 410.027344 626.527344 409.957031 626.601562 409.820312 626.601562 C 409.683594 626.601562 409.609375 626.527344 409.609375 626.390625 C 409.609375 626.253906 409.683594 626.183594 409.820312 626.183594 C 409.957031 626.183594 410.027344 626.253906 410.027344 626.390625 Z M 412.09375 626.664062 C 412.125 626.746094 412.082031 626.90625 411.988281 627 C 411.832031 627.144531 411.8125 627.144531 411.75 626.988281 C 411.664062 626.769531 411.757812 626.496094 411.917969 626.496094 C 411.980469 626.496094 412.050781 626.570312 412.09375 626.664062 Z M 414.621094 626.777344 C 414.601562 626.882812 414.496094 626.96875 414.378906 626.96875 C 414.265625 626.96875 414.160156 626.882812 414.136719 626.777344 C 414.105469 626.644531 414.167969 626.601562 414.378906 626.601562 C 414.589844 626.601562 414.652344 626.644531 414.621094 626.777344 Z M 417.1875 626.746094 C 417.261719 626.925781 417 627.167969 416.84375 627.074219 C 416.789062 627.042969 416.738281 626.914062 416.738281 626.800781 C 416.738281 626.558594 417.105469 626.515625 417.1875 626.746094 Z M 407.511719 627.230469 C 407.511719 627.472656 407.148438 627.523438 407.0625 627.292969 C 406.988281 627.105469 407.074219 627.019531 407.324219 627.019531 C 407.441406 627.019531 407.511719 627.09375 407.511719 627.230469 Z M 419.359375 627.597656 C 419.359375 627.765625 419.003906 627.996094 418.898438 627.890625 C 418.867188 627.859375 418.835938 627.734375 418.835938 627.628906 C 418.835938 627.492188 418.90625 627.441406 419.097656 627.441406 C 419.253906 627.441406 419.359375 627.503906 419.359375 627.597656 Z M 409.273438 628.402344 C 409.234375 628.707031 408.875 628.800781 408.875 628.507812 C 408.875 628.308594 408.992188 628.203125 409.222656 628.183594 C 409.273438 628.171875 409.296875 628.277344 409.273438 628.402344 Z M 413.414062 628.382812 C 413.476562 628.625 413.339844 628.738281 413.109375 628.65625 C 412.984375 628.613281 412.976562 628.550781 413.070312 628.382812 C 413.214844 628.121094 413.339844 628.109375 413.414062 628.382812 Z M 415.878906 628.46875 C 415.910156 628.644531 415.859375 628.699219 415.699219 628.699219 C 415.53125 628.699219 415.480469 628.632812 415.480469 628.425781 C 415.480469 628.078125 415.824219 628.109375 415.878906 628.46875 Z M 411.234375 628.867188 C 411.234375 628.96875 411.152344 629.074219 411.054688 629.097656 C 410.867188 629.128906 410.785156 628.8125 410.941406 628.65625 C 411.066406 628.539062 411.234375 628.65625 411.234375 628.867188 Z M 417.945312 629.273438 C 417.945312 629.390625 417.859375 629.496094 417.765625 629.515625 C 417.617188 629.546875 417.578125 629.484375 417.578125 629.273438 C 417.578125 629.066406 417.617188 629 417.765625 629.03125 C 417.859375 629.054688 417.945312 629.160156 417.945312 629.273438 Z M 407.492188 629.558594 C 407.578125 629.640625 407.585938 629.714844 407.503906 629.820312 C 407.335938 630.019531 407.125 629.988281 407.0625 629.757812 C 406.980469 629.429688 407.242188 629.304688 407.492188 629.558594 Z M 414.621094 630.132812 C 414.566406 630.40625 414.222656 630.4375 414.222656 630.175781 C 414.222656 630.019531 414.285156 629.957031 414.441406 629.957031 C 414.589844 629.957031 414.640625 630.007812 414.621094 630.132812 Z M 409.652344 630.4375 C 409.726562 630.636719 409.640625 630.792969 409.453125 630.792969 C 409.265625 630.792969 409.160156 630.457031 409.316406 630.355469 C 409.515625 630.238281 409.578125 630.25 409.652344 630.4375 Z M 412.523438 630.554688 C 412.492188 630.867188 412.261719 630.992188 412.167969 630.753906 C 412.074219 630.523438 412.1875 630.269531 412.386719 630.269531 C 412.511719 630.269531 412.546875 630.355469 412.523438 630.554688 Z M 420.511719 630.585938 C 420.511719 630.792969 420.460938 630.898438 420.355469 630.898438 C 420.199219 630.898438 420.132812 630.480469 420.269531 630.34375 C 420.417969 630.1875 420.511719 630.28125 420.511719 630.585938 Z M 416.71875 631.066406 C 416.664062 631.359375 416.421875 631.371094 416.421875 631.078125 C 416.421875 630.941406 416.457031 630.792969 416.496094 630.753906 C 416.601562 630.648438 416.757812 630.855469 416.71875 631.066406 Z M 411.246094 632.324219 C 411.183594 632.492188 410.867188 632.523438 410.867188 632.355469 C 410.867188 632.292969 410.921875 632.144531 410.984375 632.03125 C 411.089844 631.832031 411.109375 631.820312 411.203125 631.988281 C 411.253906 632.082031 411.277344 632.242188 411.246094 632.324219 Z M 408.332031 632.230469 C 408.363281 632.449219 408.089844 632.640625 407.984375 632.460938 C 407.890625 632.3125 408.039062 631.925781 408.175781 631.980469 C 408.246094 632 408.308594 632.113281 408.332031 632.230469 Z M 414.988281 632.144531 C 415.039062 632.375 414.988281 632.472656 414.777344 632.472656 C 414.640625 632.472656 414.589844 632.144531 414.714844 632.019531 C 414.832031 631.894531 414.933594 631.9375 414.988281 632.144531 Z M 418.414062 632.210938 C 418.414062 632.398438 418.363281 632.472656 418.207031 632.472656 C 417.964844 632.472656 417.953125 632.429688 418.101562 632.144531 C 418.257812 631.863281 418.414062 631.894531 418.414062 632.210938 Z M 412.910156 633.078125 C 412.910156 633.402344 412.710938 633.371094 412.671875 633.039062 C 412.640625 632.847656 412.671875 632.773438 412.777344 632.808594 C 412.847656 632.839844 412.910156 632.953125 412.910156 633.078125 Z M 416.738281 633.46875 C 416.738281 633.636719 416.675781 633.730469 416.582031 633.730469 C 416.421875 633.730469 416.359375 633.402344 416.496094 633.277344 C 416.632812 633.132812 416.738281 633.214844 416.738281 633.46875 Z M 410.070312 633.90625 C 410.113281 634 410.09375 634.128906 410.027344 634.191406 C 409.894531 634.328125 409.546875 634.011719 409.652344 633.84375 C 409.765625 633.675781 409.996094 633.707031 410.070312 633.90625 Z M 407.472656 634.453125 C 407.355469 634.640625 407.09375 634.589844 407.09375 634.378906 C 407.09375 634.273438 407.125 634.148438 407.167969 634.105469 C 407.273438 634 407.554688 634.316406 407.472656 634.453125 Z M 414.695312 634.359375 C 414.695312 634.441406 414.589844 634.527344 414.464844 634.546875 C 414.273438 634.578125 414.222656 634.527344 414.222656 634.359375 C 414.222656 634.191406 414.273438 634.136719 414.464844 634.167969 C 414.589844 634.191406 414.695312 634.273438 414.695312 634.359375 Z M 411.652344 634.671875 C 411.738281 634.808594 411.507812 635.113281 411.382812 635.027344 C 411.328125 634.996094 411.289062 634.882812 411.289062 634.765625 C 411.289062 634.558594 411.539062 634.496094 411.652344 634.671875 Z M 417.890625 635.761719 C 417.839844 635.816406 417.722656 635.824219 417.617188 635.785156 C 417.449219 635.722656 417.460938 635.699219 417.640625 635.5 C 417.816406 635.300781 417.839844 635.300781 417.902344 635.480469 C 417.945312 635.585938 417.933594 635.710938 417.890625 635.761719 Z M 408.75 636.046875 C 408.699219 636.414062 408.457031 636.421875 408.457031 636.054688 C 408.457031 635.886719 408.488281 635.722656 408.53125 635.679688 C 408.644531 635.5625 408.792969 635.785156 408.75 636.046875 Z M 413.382812 636.035156 C 413.382812 636.277344 413.257812 636.359375 413.078125 636.253906 C 412.890625 636.128906 413.027344 635.710938 413.238281 635.792969 C 413.308594 635.824219 413.382812 635.929688 413.382812 636.035156 Z M 415.878906 636.421875 C 415.847656 636.738281 415.617188 636.863281 415.523438 636.621094 C 415.460938 636.445312 415.636719 636.140625 415.816406 636.140625 C 415.867188 636.140625 415.898438 636.265625 415.878906 636.421875 Z M 410.804688 636.652344 C 410.898438 636.800781 410.761719 637.082031 410.59375 637.082031 C 410.511719 637.082031 410.449219 637 410.449219 636.894531 C 410.449219 636.589844 410.679688 636.445312 410.804688 636.652344 Z M 407.511719 637.648438 C 407.511719 637.734375 407.441406 637.828125 407.347656 637.859375 C 407.105469 637.953125 407.09375 637.941406 407.09375 637.710938 C 407.09375 637.578125 407.167969 637.503906 407.304688 637.503906 C 407.417969 637.503906 407.511719 637.566406 407.511719 637.648438 Z M 414.601562 638.226562 C 414.503906 638.371094 414.253906 638.371094 414.167969 638.238281 C 414.128906 638.171875 414.160156 638.046875 414.234375 637.964844 C 414.347656 637.828125 414.378906 637.828125 414.515625 637.964844 C 414.601562 638.046875 414.632812 638.164062 414.601562 638.226562 Z M 418.351562 638.015625 C 418.425781 638.121094 418.121094 638.40625 418.039062 638.308594 C 417.945312 638.226562 418.070312 637.921875 418.195312 637.921875 C 418.246094 637.921875 418.320312 637.964844 418.351562 638.015625 Z M 411.988281 638.730469 C 411.832031 638.886719 411.8125 638.886719 411.757812 638.738281 C 411.71875 638.644531 411.75 638.457031 411.820312 638.320312 L 411.949219 638.078125 L 412.050781 638.320312 C 412.136719 638.507812 412.125 638.605469 411.988281 638.730469 Z M 409.609375 638.550781 C 409.609375 638.792969 409.421875 638.929688 409.273438 638.78125 C 409.199219 638.707031 409.210938 638.605469 409.296875 638.457031 C 409.433594 638.207031 409.609375 638.257812 409.609375 638.550781 Z M 416.371094 638.917969 C 416.371094 639.054688 416.289062 639.136719 416.140625 639.160156 C 415.960938 639.191406 415.898438 639.136719 415.898438 638.992188 C 415.898438 638.886719 415.929688 638.761719 415.972656 638.71875 C 416.109375 638.582031 416.371094 638.707031 416.371094 638.917969 Z M 407.910156 639.726562 C 407.871094 640.027344 407.511719 640.125 407.511719 639.828125 C 407.511719 639.597656 407.597656 639.496094 407.796875 639.496094 C 407.890625 639.496094 407.933594 639.578125 407.910156 639.726562 Z M 412.074219 640.605469 C 412.074219 640.710938 411.988281 640.816406 411.894531 640.835938 C 411.707031 640.867188 411.621094 640.554688 411.78125 640.394531 C 411.90625 640.28125 412.074219 640.394531 412.074219 640.605469 Z M 414.589844 640.605469 C 414.589844 640.710938 414.503906 640.816406 414.410156 640.835938 C 414.222656 640.867188 414.136719 640.554688 414.296875 640.394531 C 414.421875 640.28125 414.589844 640.394531 414.589844 640.605469 Z M 409.609375 641.066406 C 409.609375 641.183594 409.535156 641.277344 409.453125 641.277344 C 409.367188 641.277344 409.296875 641.183594 409.296875 641.066406 C 409.296875 640.953125 409.367188 640.855469 409.453125 640.855469 C 409.535156 640.855469 409.609375 640.953125 409.609375 641.066406 Z M 407.734375 643.089844 C 407.648438 643.175781 407.617188 643.109375 407.617188 642.890625 C 407.617188 642.472656 407.765625 642.324219 407.808594 642.691406 C 407.828125 642.847656 407.796875 643.027344 407.734375 643.089844 Z M 407.734375 643.089844 " fill-opacity="1" fill-rule="nonzero"/><path fill="#ffde59" d="M 451.75 615.488281 C 449.925781 615.65625 448.457031 616.078125 446.84375 616.925781 C 444.453125 618.164062 442.589844 619.882812 441.214844 622.09375 C 440.566406 623.152344 439.746094 624.976562 439.589844 625.742188 C 439.246094 627.398438 439.148438 629.796875 439.359375 631.527344 C 439.453125 632.304688 440.070312 634.296875 440.566406 635.40625 C 441.308594 637.074219 443.542969 639.671875 445.136719 640.699219 C 445.535156 640.960938 445.890625 641.171875 445.921875 641.171875 C 445.964844 641.171875 446.300781 641.359375 446.664062 641.601562 C 447.042969 641.84375 447.503906 642.042969 447.691406 642.0625 C 447.871094 642.082031 448.238281 642.199219 448.5 642.3125 C 448.761719 642.429688 449.054688 642.535156 449.160156 642.535156 C 449.265625 642.535156 449.539062 642.628906 449.777344 642.753906 C 450.074219 642.910156 450.367188 642.964844 450.742188 642.945312 C 451.035156 642.933594 451.414062 642.976562 451.59375 643.046875 C 451.917969 643.183594 454.371094 643.152344 455.261719 643.007812 C 457.902344 642.578125 460.199219 641.558594 462.242188 639.894531 C 464.558594 638.015625 466.238281 635.125 466.898438 631.863281 C 467.128906 630.710938 467.097656 626.644531 466.855469 626.347656 C 466.769531 626.246094 466.667969 625.898438 466.625 625.574219 C 466.539062 624.820312 465.734375 623.035156 464.84375 621.621094 C 464.078125 620.40625 462.230469 618.5625 460.859375 617.648438 C 459.863281 616.976562 457.976562 616.160156 456.699219 615.855469 C 454.90625 615.417969 453.6875 615.320312 451.75 615.488281 Z M 454.582031 617.585938 C 455.460938 617.671875 456.214844 617.835938 456.414062 618.003906 C 456.476562 618.058594 456.707031 618.121094 456.9375 618.164062 C 457.546875 618.277344 459.496094 619.292969 460.042969 619.789062 C 460.292969 620.027344 460.703125 620.386719 460.953125 620.59375 C 461.550781 621.097656 462.589844 622.398438 462.933594 623.078125 C 463.082031 623.371094 463.3125 623.75 463.4375 623.929688 C 463.574219 624.097656 463.710938 624.398438 463.753906 624.589844 C 463.792969 624.777344 463.886719 625.058594 463.972656 625.21875 C 464.339844 625.960938 464.476562 627.03125 464.476562 629.273438 C 464.484375 632.167969 464.390625 632.609375 463.292969 634.828125 L 462.453125 636.515625 L 461.058594 637.871094 C 459.757812 639.148438 459.589844 639.273438 458.511719 639.796875 C 456.476562 640.804688 455.3125 641.066406 453.082031 641.054688 C 451.832031 641.054688 451.332031 641.015625 450.753906 640.847656 C 450.355469 640.730469 449.84375 640.59375 449.621094 640.542969 C 448.585938 640.269531 446.570312 639.023438 445.472656 637.984375 C 443.949219 636.539062 442.671875 634.304688 442.148438 632.1875 C 441.894531 631.171875 441.863281 630.867188 441.875 629.222656 C 441.875 627.574219 441.90625 627.28125 442.160156 626.359375 C 442.890625 623.59375 444.085938 621.738281 446.332031 619.859375 C 447.957031 618.5 451.433594 617.273438 453.164062 617.449219 C 453.457031 617.480469 454.085938 617.535156 454.582031 617.585938 Z M 454.582031 617.585938 " fill-opacity="1" fill-rule="nonzero"/><path fill="#ffde59" d="M 449.757812 621.707031 C 448.121094 621.789062 447.902344 621.851562 448.039062 622.199219 C 448.121094 622.398438 448.101562 635.921875 448.019531 636.621094 C 447.988281 636.925781 447.996094 637.1875 448.050781 637.21875 C 448.101562 637.25 448.6875 637.292969 449.347656 637.292969 C 450.199219 637.304688 450.535156 637.28125 450.511719 637.1875 C 450.503906 637.125 450.480469 635.679688 450.480469 633.980469 C 450.472656 631.78125 450.503906 630.847656 450.585938 630.753906 C 450.660156 630.6875 451.140625 630.605469 451.675781 630.574219 C 452.765625 630.5 454.015625 630.742188 454.601562 631.152344 C 455.019531 631.433594 455.703125 632.765625 455.785156 633.46875 C 455.816406 633.75 455.910156 634.273438 456.003906 634.621094 C 456.101562 634.964844 456.203125 635.480469 456.246094 635.773438 C 456.351562 636.515625 456.667969 637.292969 456.875 637.304688 C 457.894531 637.335938 459.296875 637.335938 459.296875 637.292969 C 459.296875 637.261719 459.171875 636.90625 459.023438 636.507812 C 458.753906 635.761719 458.394531 634.085938 458.25 632.941406 C 458.113281 631.800781 457.222656 630.40625 456.402344 630.039062 C 455.910156 629.828125 455.816406 629.734375 455.921875 629.578125 C 456.003906 629.453125 456.898438 629.011719 457.066406 629.011719 C 457.230469 629.011719 457.914062 628.300781 458.101562 627.933594 C 458.195312 627.742188 458.355469 627.511719 458.4375 627.410156 C 458.53125 627.304688 458.648438 626.882812 458.699219 626.464844 C 458.816406 625.4375 458.816406 625.375 458.679688 624.671875 C 458.53125 624 458.238281 623.457031 457.765625 623.027344 C 457.421875 622.710938 456.238281 622.09375 455.964844 622.09375 C 455.871094 622.09375 455.574219 621.988281 455.3125 621.875 C 454.894531 621.675781 454.632812 621.644531 453.113281 621.632812 C 452.160156 621.632812 450.648438 621.652344 449.757812 621.707031 Z M 452.660156 623.320312 C 452.933594 623.414062 453.320312 623.476562 453.511719 623.464844 C 454.851562 623.394531 456.257812 624.652344 456.257812 625.941406 C 456.257812 626.621094 456.109375 627.074219 455.710938 627.671875 C 455.355469 628.183594 455.242188 628.269531 454.777344 628.332031 C 454.632812 628.351562 454.347656 628.46875 454.148438 628.570312 C 453.847656 628.75 453.554688 628.792969 452.191406 628.824219 C 450.617188 628.855469 450.585938 628.855469 450.535156 628.625 C 450.503906 628.5 450.472656 627.28125 450.460938 625.929688 C 450.441406 623.226562 450.441406 623.214844 451.046875 623.445312 C 451.246094 623.519531 451.339844 623.507812 451.433594 623.402344 C 451.5 623.320312 451.65625 623.234375 451.78125 623.214844 C 451.90625 623.195312 452.042969 623.164062 452.085938 623.152344 C 452.128906 623.152344 452.390625 623.214844 452.660156 623.320312 Z M 452.660156 623.320312 " fill-opacity="1" fill-rule="nonzero"/></svg>