<svg xmlns="http://www.w3.org/2000/svg" xmlns:xlink="http://www.w3.org/1999/xlink" width="1080" zoomAndPan="magnify" viewBox="0 0 810 809.999993" height="1080" preserveAspectRatio="xMidYMid meet" version="1.0"><defs><clipPath id="81b34bcf31"><path d="M 54.375 52.441406 L 755.625 52.441406 L 755.625 753.691406 L 54.375 753.691406 Z M 54.375 52.441406 " clip-rule="nonzero"/></clipPath><clipPath id="49b167cdb1"><path d="M 405 52.441406 C 211.355469 52.441406 54.375 209.421875 54.375 403.066406 C 54.375 596.710938 211.355469 753.691406 405 753.691406 C 598.644531 753.691406 755.625 596.710938 755.625 403.066406 C 755.625 209.421875 598.644531 52.441406 405 52.441406 Z M 405 52.441406 " clip-rule="nonzero"/></clipPath></defs><rect x="-81" width="972" fill="#ffffff" y="-80.999999" height="971.999992" fill-opacity="1"/><rect x="-81" width="972" fill="#ffffff" y="-80.999999" height="971.999992" fill-opacity="1"/><g clip-path="url(#81b34bcf31)"><g clip-path="url(#49b167cdb1)"><path fill="#ffde59" d="M 54.375 52.441406 L 755.625 52.441406 L 755.625 753.691406 L 54.375 753.691406 Z M 54.375 52.441406 " fill-opacity="1" fill-rule="nonzero"/><path stroke-linecap="butt" transform="matrix(0.75, 0, 0, 0.75, 54.375001, 52.442329)" fill="none" stroke-linejoin="miter" d="M 467.500023 -0.00122975 C 209.307301 -0.00122975 -0.00000101929 209.306072 -0.00000101929 467.498794 C -0.00000101929 725.691515 209.307301 934.998817 467.500023 934.998817 C 725.692744 934.998817 935.000046 725.691515 935.000046 467.498794 C 935.000046 209.306072 725.692744 -0.00122975 467.500023 -0.00122975 Z M 467.500023 -0.00122975 " stroke="#000000" stroke-width="80" stroke-opacity="1" stroke-miterlimit="4"/></g></g><path fill="#000000" d="M 382.027344 205.859375 C 379.695312 206 376.582031 206.359375 375.082031 206.667969 C 373.582031 207 370.25 207.359375 367.640625 207.5 C 362.167969 207.832031 359.082031 208.222656 357.972656 208.75 C 357.082031 209.195312 354.222656 209.609375 350.195312 209.890625 C 348.082031 210.027344 347.167969 210.222656 346.195312 210.75 C 345.222656 211.25 344.195312 211.472656 342 211.667969 C 339.75 211.859375 338.695312 212.109375 337.554688 212.667969 C 336.582031 213.140625 335.277344 213.5 333.804688 213.640625 C 331.222656 213.945312 329.917969 214.304688 329.304688 214.890625 C 329.082031 215.109375 327.804688 215.5 326.472656 215.722656 C 325.109375 215.972656 323.527344 216.445312 322.917969 216.804688 C 322.304688 217.140625 321.054688 217.582031 320.140625 217.75 C 318.054688 218.167969 316.890625 218.582031 316.5 219.082031 C 316.304688 219.304688 315.222656 219.695312 314.027344 219.972656 C 312.804688 220.277344 311.640625 220.75 311.277344 221.082031 C 310.890625 221.445312 310.027344 221.777344 309.082031 221.945312 C 307.609375 222.167969 306.109375 222.890625 306.109375 223.332031 C 306.109375 223.445312 305.640625 223.640625 305.082031 223.75 C 303.832031 223.972656 302.445312 224.667969 302.140625 225.167969 C 302.027344 225.390625 301.25 225.75 300.445312 225.972656 C 299.609375 226.222656 298.640625 226.695312 298.277344 227.054688 C 297.945312 227.417969 296.917969 227.917969 296.027344 228.195312 C 295.027344 228.5 294.25 228.945312 293.972656 229.332031 C 293.75 229.695312 293.195312 230.054688 292.75 230.140625 C 292.277344 230.25 291.5 230.667969 291.027344 231.082031 C 290.527344 231.5 289.75 232 289.277344 232.195312 C 288.777344 232.390625 288.054688 232.917969 287.609375 233.359375 C 287.195312 233.804688 286.695312 234.167969 286.5 234.167969 C 286.304688 234.167969 285.582031 234.582031 284.917969 235.109375 C 284.222656 235.640625 283.277344 236.277344 282.804688 236.5 C 282.359375 236.75 281.804688 237.167969 281.609375 237.445312 C 281.417969 237.75 280.832031 238.195312 280.332031 238.445312 C 279.832031 238.695312 279.304688 239.222656 279.167969 239.582031 C 279 240 278.695312 240.277344 278.332031 240.277344 C 278.027344 240.277344 277.582031 240.582031 277.332031 240.972656 C 277.082031 241.359375 276.582031 241.832031 276.25 242.027344 C 274.777344 242.832031 270.832031 246.527344 268.195312 249.582031 C 266.304688 251.75 265.054688 253.167969 263.832031 254.5 C 263.25 255.109375 262.777344 255.777344 262.777344 255.945312 C 262.777344 256.140625 262.417969 256.554688 261.945312 256.890625 C 261.5 257.25 261.109375 257.695312 261.109375 257.890625 C 261.109375 258.109375 260.609375 258.890625 259.972656 259.609375 C 259.359375 260.359375 258.777344 261.304688 258.695312 261.695312 C 258.609375 262.109375 258.195312 262.695312 257.75 263.027344 C 257.304688 263.359375 256.945312 263.859375 256.945312 264.140625 C 256.945312 264.445312 256.554688 265.027344 256.109375 265.472656 C 255.582031 265.945312 255.082031 266.832031 254.832031 267.695312 C 254.609375 268.5 254.25 269.25 254.054688 269.359375 C 253.582031 269.640625 252.890625 271 252.640625 272.167969 C 252.527344 272.667969 252.140625 273.417969 251.777344 273.804688 C 251.390625 274.222656 250.890625 275.277344 250.640625 276.167969 C 250.390625 277.054688 250.082031 277.777344 249.972656 277.777344 C 249.472656 277.777344 248.832031 279.222656 248.582031 280.972656 C 248.417969 282.167969 248.082031 283.140625 247.667969 283.695312 C 247.25 284.277344 246.859375 285.417969 246.582031 287.054688 C 246.332031 288.390625 245.972656 289.640625 245.75 289.832031 C 245.140625 290.304688 244.75 291.777344 244.417969 294.667969 C 244.25 296.082031 243.890625 297.804688 243.609375 298.5 C 243.304688 299.167969 242.945312 300.777344 242.777344 302.027344 C 242.082031 307.609375 241.640625 310.582031 241.195312 312.640625 C 240.804688 314.472656 240.722656 316.5 240.722656 324.167969 C 240.722656 333.472656 240.917969 336.332031 241.804688 339.109375 C 242.027344 339.832031 242.332031 341.859375 242.5 343.609375 C 242.804688 346.859375 243.109375 348.304688 243.804688 349.332031 C 244 349.640625 244.304688 350.640625 244.445312 351.554688 C 244.777344 353.472656 245.5 355.554688 245.832031 355.554688 C 245.972656 355.554688 246.277344 356.554688 246.554688 357.804688 C 246.890625 359.332031 247.195312 360.167969 247.554688 360.359375 C 247.832031 360.554688 248.304688 361.5 248.640625 362.554688 C 248.945312 363.609375 249.390625 364.554688 249.667969 364.695312 C 249.945312 364.832031 250.332031 365.582031 250.527344 366.359375 C 250.722656 367.195312 251.140625 368 251.527344 368.277344 C 251.890625 368.554688 252.359375 369.277344 252.609375 369.832031 C 252.859375 370.417969 253.417969 371.332031 253.890625 371.859375 C 254.359375 372.359375 254.917969 373.222656 255.140625 373.75 C 255.332031 374.277344 255.695312 374.722656 255.917969 374.722656 C 256.140625 374.722656 256.5 375.140625 256.695312 375.609375 C 256.890625 376.109375 257.445312 376.917969 257.917969 377.417969 C 258.359375 377.890625 259.140625 378.777344 259.609375 379.359375 C 261.472656 381.609375 264.167969 384.472656 265.445312 385.582031 C 266.195312 386.222656 266.859375 386.832031 266.945312 386.917969 C 267.5 387.667969 272.027344 391.390625 272.332031 391.390625 C 272.554688 391.390625 273 391.75 273.332031 392.222656 C 273.667969 392.667969 274.109375 393.054688 274.359375 393.054688 C 274.582031 393.054688 275.109375 393.417969 275.527344 393.859375 C 275.917969 394.277344 276.832031 394.917969 277.5 395.277344 C 278.195312 395.609375 278.859375 396.082031 278.972656 396.304688 C 279.109375 396.527344 279.75 396.945312 280.390625 397.222656 C 281.054688 397.5 281.917969 398.027344 282.277344 398.417969 C 282.667969 398.804688 283.5 399.277344 284.140625 399.472656 C 284.75 399.667969 285.445312 400.082031 285.667969 400.417969 C 285.890625 400.722656 286.609375 401.167969 287.25 401.390625 C 287.917969 401.609375 288.890625 402.140625 289.390625 402.554688 C 289.890625 402.972656 290.554688 403.332031 290.859375 403.332031 C 291.527344 403.332031 292.417969 403.75 293.195312 404.445312 C 293.5 404.722656 294.5 405.222656 295.390625 405.527344 C 296.304688 405.832031 297.109375 406.222656 297.195312 406.332031 C 297.472656 406.75 299 407.445312 300.109375 407.640625 C 300.667969 407.75 301.5 408.140625 301.945312 408.5 C 302.359375 408.859375 303.5 409.359375 304.472656 409.609375 C 305.445312 409.859375 306.5 410.277344 306.804688 410.554688 C 307.667969 411.304688 307.945312 411.390625 309.777344 411.695312 C 310.832031 411.859375 311.75 412.222656 312.25 412.609375 C 312.722656 413 313.695312 413.390625 314.722656 413.554688 C 315.640625 413.722656 316.75 414.054688 317.167969 414.277344 C 318.695312 415.109375 319.359375 415.332031 321.667969 415.75 C 322.972656 416 324.332031 416.417969 324.722656 416.667969 C 325.609375 417.277344 326.082031 417.417969 328.832031 417.917969 C 330.195312 418.140625 331.417969 418.554688 331.890625 418.890625 C 332.445312 419.304688 333.527344 419.609375 335.222656 419.859375 C 336.917969 420.109375 338.027344 420.445312 338.554688 420.832031 C 339.140625 421.277344 340.167969 421.527344 342.417969 421.804688 C 344.582031 422.082031 345.890625 422.390625 346.859375 422.890625 C 347.695312 423.304688 348.917969 423.640625 350.140625 423.75 C 352.777344 424 354.359375 424.359375 355.722656 425 C 356.332031 425.304688 358.195312 425.75 359.890625 425.972656 C 361.554688 426.222656 363.667969 426.695312 364.582031 427.082031 C 365.5 427.445312 367.054688 427.804688 368.054688 427.917969 C 371.195312 428.222656 373.167969 428.640625 374.304688 429.167969 C 375.5 429.75 378.472656 430.25 380.554688 430.277344 C 381.359375 430.277344 382.277344 430.527344 383.140625 430.972656 C 384.109375 431.5 385.277344 431.777344 387.804688 432.082031 C 389.917969 432.332031 391.527344 432.667969 392.195312 433 C 393.140625 433.5 393.945312 433.667969 398.945312 434.445312 C 399.972656 434.609375 401.25 434.972656 401.75 435.277344 C 402.332031 435.609375 403.859375 436 405.667969 436.25 C 407.5 436.5 409.222656 436.945312 410.082031 437.359375 C 410.972656 437.777344 412.527344 438.140625 414.167969 438.359375 C 415.695312 438.554688 417.082031 438.890625 417.5 439.167969 C 418.527344 439.859375 419.945312 440.277344 421.222656 440.277344 C 422.695312 440.277344 424.332031 440.75 425.25 441.390625 C 425.667969 441.695312 427.109375 442.109375 428.609375 442.359375 C 430.054688 442.609375 431.445312 442.972656 431.667969 443.167969 C 432.277344 443.695312 433.5 444.109375 435.804688 444.582031 C 436.917969 444.804688 438.140625 445.25 438.527344 445.554688 C 438.890625 445.832031 440.167969 446.304688 441.332031 446.554688 C 442.609375 446.832031 443.777344 447.277344 444.25 447.667969 C 444.667969 448.027344 445.472656 448.390625 446.054688 448.472656 C 447.917969 448.777344 449.195312 449.195312 449.332031 449.582031 C 449.417969 449.777344 450.359375 450.222656 451.417969 450.554688 C 452.472656 450.859375 453.582031 451.359375 453.859375 451.640625 C 454.140625 451.917969 455.054688 452.359375 455.859375 452.640625 C 456.695312 452.917969 457.667969 453.390625 458.054688 453.722656 C 458.777344 454.359375 460.609375 455.277344 461.140625 455.277344 C 461.304688 455.277344 461.695312 455.582031 461.972656 455.945312 C 462.277344 456.332031 462.859375 456.695312 463.304688 456.804688 C 463.75 456.890625 464.332031 457.304688 464.582031 457.695312 C 464.832031 458.054688 465.667969 458.640625 466.417969 458.945312 C 467.140625 459.25 467.832031 459.722656 467.917969 460 C 468 460.277344 468.5 460.695312 469.027344 460.945312 C 469.527344 461.195312 470.054688 461.640625 470.140625 461.945312 C 470.25 462.25 470.695312 462.695312 471.140625 462.917969 C 471.582031 463.167969 472.109375 463.695312 472.332031 464.140625 C 472.554688 464.554688 473.054688 465.140625 473.445312 465.390625 C 473.859375 465.640625 474.167969 465.972656 474.167969 466.140625 C 474.167969 466.304688 474.582031 466.972656 475.109375 467.609375 C 475.640625 468.25 476.332031 469.332031 476.640625 470 C 476.945312 470.695312 477.472656 471.554688 477.777344 471.945312 C 478.109375 472.359375 478.417969 473.390625 478.582031 474.527344 C 478.75 475.640625 479.109375 476.832031 479.5 477.445312 C 480.109375 478.445312 480.140625 478.695312 480.140625 484.167969 C 480.140625 489.527344 480.109375 489.945312 479.5 491.195312 C 479.140625 491.972656 478.804688 493.332031 478.722656 494.390625 C 478.527344 496.640625 478.140625 498 477.5 498.75 C 477.25 499.054688 476.832031 500.054688 476.582031 500.945312 C 476.332031 501.859375 475.832031 502.917969 475.445312 503.304688 C 475.082031 503.695312 474.554688 504.527344 474.304688 505.140625 C 474.054688 505.75 473.5 506.609375 473.082031 507.082031 C 472.640625 507.527344 472.195312 508.167969 472.109375 508.5 C 472 508.832031 471.609375 509.222656 471.25 509.390625 C 470.859375 509.554688 470.554688 509.832031 470.554688 510 C 470.554688 510.445312 465.695312 515.195312 465.027344 515.417969 C 464.695312 515.527344 464 515.972656 463.472656 516.417969 C 462.972656 516.859375 462.109375 517.417969 461.527344 517.667969 C 460.972656 517.890625 460.445312 518.332031 460.359375 518.609375 C 460.277344 518.945312 459.832031 519.25 459.304688 519.417969 C 458.777344 519.554688 457.890625 520.054688 457.304688 520.5 C 456.722656 520.972656 455.554688 521.527344 454.695312 521.777344 C 453.832031 522.027344 452.804688 522.472656 452.417969 522.777344 C 452 523.109375 450.972656 523.554688 450.082031 523.777344 C 449.140625 524.027344 448.222656 524.472656 447.832031 524.859375 C 447.472656 525.25 446.972656 525.554688 446.722656 525.554688 C 444.859375 525.609375 441.972656 526.195312 441.332031 526.667969 C 440.472656 527.304688 439.167969 527.640625 435.695312 528.054688 C 434.332031 528.222656 432.667969 528.609375 432.027344 528.890625 C 430.167969 529.722656 423.804688 530.109375 412.222656 530.082031 C 399.832031 530.054688 393.832031 529.695312 392.25 528.917969 C 390.972656 528.25 388.304688 527.777344 385.804688 527.777344 C 383.832031 527.777344 382.5 527.445312 381.332031 526.609375 C 380.917969 526.332031 379.722656 526 378.554688 525.832031 C 376.222656 525.554688 375.277344 525.25 374.75 524.640625 C 374.554688 524.390625 373.472656 524 372.332031 523.722656 C 371.195312 523.472656 370.109375 523.109375 369.917969 522.917969 C 369.390625 522.417969 368.417969 521.945312 366.972656 521.5 C 366.25 521.304688 365.417969 520.859375 365.140625 520.554688 C 364.859375 520.25 364.167969 519.859375 363.582031 519.722656 C 363 519.554688 362.027344 519 361.390625 518.472656 C 360.75 517.945312 359.972656 517.5 359.667969 517.5 C 359.359375 517.5 358.75 517.109375 358.332031 516.667969 C 357.917969 516.195312 357.445312 515.832031 357.304688 515.832031 C 357 515.832031 354.082031 513.640625 352.445312 512.167969 C 351.859375 511.667969 351.167969 511.140625 350.890625 511.027344 C 350.609375 510.890625 350.277344 510.527344 350.140625 510.195312 C 349.972656 509.859375 349.554688 509.445312 349.222656 509.277344 C 348.859375 509.082031 348.332031 508.582031 348.054688 508.109375 C 347.777344 507.640625 347.304688 507.195312 347 507.109375 C 346.695312 507 346.304688 506.582031 346.109375 506.140625 C 345.945312 505.695312 345.417969 505 344.972656 504.554688 C 344.527344 504.140625 344.167969 503.667969 344.167969 503.5 C 344.167969 503.359375 343.667969 502.640625 343.054688 501.917969 C 342.445312 501.195312 341.945312 500.472656 341.945312 500.304688 C 341.945312 500.140625 341.582031 499.609375 341.167969 499.109375 C 340.722656 498.609375 340.082031 497.445312 339.722656 496.527344 C 339.359375 495.609375 338.859375 494.667969 338.609375 494.417969 C 338.359375 494.167969 338 493.332031 337.804688 492.609375 C 337.609375 491.859375 337.277344 490.917969 337.054688 490.472656 C 336.859375 490.054688 336.5 489.390625 336.277344 488.945312 C 336.054688 488.527344 335.75 487.277344 335.582031 486.167969 C 335.417969 485.082031 335.027344 483.640625 334.722656 482.972656 C 334.027344 481.445312 333.695312 479.140625 333.472656 474.027344 C 333.359375 471.722656 333.140625 469.640625 333 469.359375 C 332.304688 468 334.167969 468.054688 282.167969 468.054688 C 238.527344 468.054688 233.390625 468.109375 232.832031 468.5 C 232.277344 468.890625 232.222656 469.140625 232.222656 471.472656 C 232.222656 475.082031 232.695312 479.859375 233.332031 482.859375 C 233.609375 484.277344 234 486.609375 234.167969 488.054688 C 234.554688 491.667969 234.972656 493.667969 235.445312 494.195312 C 235.667969 494.445312 236.027344 496 236.25 497.777344 C 236.777344 501.695312 236.890625 502.109375 237.640625 503.472656 C 238 504.082031 238.359375 505.277344 238.472656 506.109375 C 238.667969 507.582031 239.332031 509.167969 239.777344 509.167969 C 239.890625 509.167969 240.054688 509.640625 240.140625 510.195312 C 240.5 512.417969 240.890625 513.75 241.390625 514.472656 C 241.695312 514.859375 242.109375 515.945312 242.359375 516.832031 C 242.582031 517.722656 243.082031 518.890625 243.445312 519.417969 C 243.832031 519.972656 244.390625 521.082031 244.695312 521.917969 C 245 522.722656 245.5 523.640625 245.804688 523.917969 C 246.109375 524.195312 246.527344 525.082031 246.777344 525.890625 C 247 526.695312 247.445312 527.582031 247.75 527.832031 C 248.054688 528.082031 248.445312 528.832031 248.609375 529.5 C 248.804688 530.167969 249.222656 531 249.554688 531.390625 C 249.890625 531.777344 250.417969 532.554688 250.722656 533.140625 C 251 533.722656 251.472656 534.332031 251.75 534.472656 C 252 534.609375 252.417969 535.195312 252.667969 535.777344 C 252.890625 536.332031 253.390625 537.109375 253.75 537.5 C 254.109375 537.890625 254.667969 538.722656 255 539.390625 C 255.332031 540.027344 255.832031 540.695312 256.109375 540.832031 C 256.390625 540.972656 256.75 541.472656 256.890625 541.917969 C 257.054688 542.390625 257.445312 542.917969 257.777344 543.109375 C 258.109375 543.304688 258.554688 543.859375 258.804688 544.359375 C 259.027344 544.859375 259.445312 545.332031 259.75 545.417969 C 260.027344 545.527344 260.277344 545.695312 260.277344 545.832031 C 260.277344 546.109375 263.140625 549.527344 264.390625 550.695312 C 264.859375 551.167969 265.277344 551.667969 265.277344 551.804688 C 265.277344 552.082031 269.5 556.167969 270.832031 557.167969 C 271.359375 557.582031 272.109375 558.25 272.5 558.667969 C 272.859375 559.109375 273.304688 559.445312 273.472656 559.445312 C 273.640625 559.445312 274.25 559.945312 274.804688 560.527344 C 275.390625 561.140625 276.082031 561.722656 276.390625 561.804688 C 276.667969 561.890625 277 562.195312 277.082031 562.5 C 277.167969 562.777344 277.695312 563.222656 278.222656 563.472656 C 278.75 563.722656 279.277344 564.109375 279.359375 564.332031 C 279.445312 564.554688 280.082031 565.082031 280.777344 565.5 C 281.5 565.890625 282.304688 566.472656 282.582031 566.75 C 282.890625 567.054688 283.640625 567.527344 284.304688 567.804688 C 284.972656 568.082031 285.582031 568.527344 285.667969 568.75 C 285.75 569 286.222656 569.359375 286.75 569.582031 C 287.25 569.777344 287.890625 570.222656 288.195312 570.554688 C 288.5 570.917969 289.304688 571.417969 289.972656 571.722656 C 290.667969 572 291.5 572.527344 291.832031 572.859375 C 292.167969 573.195312 293.082031 573.722656 293.890625 574 C 294.667969 574.277344 295.390625 574.667969 295.472656 574.859375 C 295.527344 575.054688 296.277344 575.5 297.140625 575.859375 C 298 576.195312 299 576.777344 299.390625 577.109375 C 299.75 577.472656 300.5 577.832031 301.027344 577.945312 C 301.554688 578.054688 302.25 578.417969 302.582031 578.777344 C 302.945312 579.167969 303.890625 579.609375 304.859375 579.859375 C 305.777344 580.109375 306.777344 580.527344 307.082031 580.832031 C 307.390625 581.109375 308.554688 581.640625 309.667969 581.972656 C 310.777344 582.332031 311.917969 582.832031 312.222656 583.109375 C 312.527344 583.390625 313.472656 583.804688 314.332031 584.027344 C 315.222656 584.25 316.390625 584.75 316.917969 585.109375 C 317.5 585.527344 318.777344 585.945312 320.027344 586.195312 C 321.417969 586.445312 322.332031 586.777344 322.722656 587.167969 C 323.027344 587.472656 323.777344 587.832031 324.359375 587.917969 C 327.054688 588.332031 328.304688 588.667969 328.75 589.167969 C 329.054688 589.5 330.054688 589.832031 331.75 590.109375 C 333.167969 590.359375 334.945312 590.890625 335.695312 591.25 C 336.527344 591.640625 338.027344 592.027344 339.417969 592.222656 C 340.777344 592.359375 342.390625 592.777344 343.277344 593.195312 C 344.804688 593.890625 346.5 594.25 350.140625 594.582031 C 351.222656 594.695312 352.332031 594.945312 352.667969 595.140625 C 353.667969 595.777344 355.332031 596.109375 358.917969 596.390625 C 361.167969 596.554688 362.890625 596.832031 363.777344 597.167969 C 365.582031 597.890625 368.582031 598.332031 371.582031 598.332031 C 374.25 598.332031 379.804688 598.972656 381.390625 599.445312 C 383.359375 600.027344 390.25 600.304688 406.390625 600.472656 C 424.277344 600.640625 437.667969 600.277344 441.390625 599.527344 C 445.554688 598.695312 446.332031 598.609375 451.390625 598.332031 C 456.640625 598.054688 458.332031 597.804688 459.75 597.054688 C 460.25 596.804688 462 596.554688 464.25 596.390625 C 468.054688 596.109375 469.359375 595.859375 470.390625 595.195312 C 470.722656 594.972656 471.917969 594.695312 473.054688 594.609375 C 476.390625 594.304688 478.222656 593.917969 479.777344 593.195312 C 480.582031 592.832031 482.25 592.390625 483.472656 592.25 C 485.832031 591.917969 487.304688 591.527344 488.195312 590.945312 C 488.5 590.75 489.890625 590.390625 491.25 590.140625 C 492.695312 589.890625 493.972656 589.472656 494.304688 589.195312 C 495.027344 588.554688 495.554688 588.359375 497.722656 588.054688 C 498.804688 587.917969 499.890625 587.554688 500.527344 587.140625 C 501.082031 586.75 502.304688 586.304688 503.304688 586.140625 C 504.332031 585.972656 505.417969 585.582031 505.945312 585.195312 C 506.417969 584.832031 507.445312 584.390625 508.195312 584.167969 C 508.972656 583.972656 510.140625 583.472656 510.832031 583.054688 C 511.527344 582.640625 512.832031 582.054688 513.75 581.804688 C 514.667969 581.554688 515.554688 581.109375 515.75 580.832031 C 515.972656 580.527344 516.777344 580.167969 517.722656 579.972656 C 518.75 579.722656 519.554688 579.359375 520 578.890625 C 520.390625 578.472656 521.167969 578.054688 521.75 577.945312 C 522.332031 577.832031 523.195312 577.390625 523.667969 576.917969 C 524.140625 576.472656 525 575.972656 525.582031 575.832031 C 526.167969 575.667969 526.804688 575.359375 527.027344 575.140625 C 527.667969 574.5 529.277344 573.609375 529.777344 573.609375 C 530.027344 573.609375 530.472656 573.332031 530.75 572.972656 C 531.027344 572.640625 531.804688 572.109375 532.5 571.804688 C 533.195312 571.527344 534.027344 570.945312 534.390625 570.5 C 534.75 570.082031 535.25 569.722656 535.527344 569.722656 C 536.027344 569.722656 537.222656 568.75 537.222656 568.332031 C 537.222656 568.222656 537.582031 568.027344 538.027344 567.917969 C 538.472656 567.832031 539.417969 567.25 540.082031 566.640625 C 540.777344 566.054688 541.472656 565.554688 541.640625 565.554688 C 541.945312 565.554688 542.777344 564.832031 545.082031 562.582031 C 545.527344 562.167969 546.25 561.609375 546.695312 561.332031 C 547.140625 561.054688 547.5 560.667969 547.5 560.445312 C 547.5 560.222656 547.777344 559.945312 548.109375 559.832031 C 548.417969 559.75 549.167969 559.195312 549.777344 558.640625 C 550.359375 558.082031 551.667969 556.890625 552.722656 555.972656 C 554.5 554.390625 556.027344 552.695312 557.445312 550.75 C 557.804688 550.25 558.332031 549.75 558.609375 549.609375 C 558.917969 549.472656 559.222656 549.140625 559.332031 548.832031 C 559.417969 548.554688 559.945312 547.832031 560.5 547.222656 C 561.054688 546.640625 561.972656 545.667969 562.527344 545.082031 C 563.082031 544.472656 563.609375 543.722656 563.722656 543.390625 C 563.832031 543.054688 564.027344 542.777344 564.195312 542.777344 C 564.527344 542.777344 565.832031 540.695312 565.832031 540.140625 C 565.832031 539.917969 566.140625 539.527344 566.5 539.277344 C 566.890625 539.054688 567.332031 538.417969 567.5 537.890625 C 567.667969 537.390625 568.082031 536.722656 568.417969 536.472656 C 568.75 536.195312 569.277344 535.417969 569.582031 534.722656 C 569.859375 534.027344 570.390625 533.222656 570.722656 532.917969 C 571.054688 532.609375 571.554688 531.722656 571.832031 530.972656 C 572.109375 530.195312 572.554688 529.332031 572.832031 529.054688 C 573.082031 528.777344 573.554688 527.777344 573.890625 526.859375 C 574.195312 525.945312 574.667969 524.917969 574.972656 524.609375 C 575.527344 524 576.109375 522.445312 576.109375 521.640625 C 576.109375 521.390625 576.5 520.777344 576.945312 520.332031 C 577.472656 519.777344 577.777344 519.195312 577.777344 518.695312 C 577.777344 517.5 578.332031 515.75 578.890625 515.140625 C 579.195312 514.804688 579.582031 513.582031 579.859375 512.082031 C 580.109375 510.695312 580.472656 509.390625 580.667969 509.167969 C 581.25 508.472656 581.640625 507.195312 582.082031 504.640625 C 582.332031 503.277344 582.695312 501.832031 582.890625 501.445312 C 583.417969 500.390625 583.832031 498.167969 584.167969 494.304688 C 584.359375 492.109375 584.640625 490.582031 585 489.859375 C 585.859375 488.082031 586.109375 483.609375 586.109375 470.695312 C 586.082031 458.195312 585.917969 455.5 585.027344 453.445312 C 584.667969 452.667969 584.359375 451 584.167969 448.804688 C 583.917969 446.027344 583.722656 445.109375 583.054688 443.75 C 582.609375 442.832031 582.109375 441.277344 581.972656 440.304688 C 581.804688 439.304688 581.359375 437.890625 580.972656 437.109375 C 580.582031 436.332031 580.027344 434.859375 579.722656 433.804688 C 579.390625 432.777344 579.027344 431.945312 578.859375 431.945312 C 578.5 431.945312 577.777344 430.222656 577.777344 429.390625 C 577.777344 429.027344 577.417969 428.304688 577 427.777344 C 576.554688 427.25 576.109375 426.472656 576.027344 426.082031 C 575.917969 425.695312 575.527344 424.945312 575.167969 424.417969 C 574.777344 423.890625 574.140625 422.890625 573.777344 422.167969 C 573.390625 421.445312 572.890625 420.75 572.667969 420.640625 C 572.472656 420.527344 572 419.777344 571.667969 418.972656 C 571.332031 418.167969 570.777344 417.332031 570.445312 417.109375 C 570.082031 416.890625 569.667969 416.332031 569.472656 415.890625 C 569.277344 415.417969 568.890625 415 568.582031 414.917969 C 568.277344 414.832031 567.859375 414.359375 567.667969 413.832031 C 567.445312 413.304688 566.945312 412.75 566.554688 412.554688 C 566.167969 412.390625 565.832031 412.054688 565.832031 411.804688 C 565.832031 411.445312 564.667969 409.972656 563.417969 408.777344 C 563.222656 408.609375 561.609375 407.054688 559.832031 405.332031 C 558.054688 403.640625 556.5 402.222656 556.390625 402.222656 C 556.167969 402.222656 555.054688 401.25 553.195312 399.5 C 552.722656 399.054688 552.082031 398.609375 551.75 398.5 C 551.417969 398.390625 550.972656 398.027344 550.75 397.695312 C 550.527344 397.359375 549.695312 396.777344 548.917969 396.417969 C 548.140625 396.027344 547.5 395.582031 547.5 395.390625 C 547.5 395.222656 547.027344 394.859375 546.417969 394.640625 C 545.832031 394.390625 545.167969 394 544.945312 393.777344 C 544.167969 393 542.417969 391.945312 541.945312 391.945312 C 541.667969 391.945312 541.25 391.640625 541.027344 391.277344 C 540.777344 390.917969 540 390.417969 539.277344 390.167969 C 538.582031 389.945312 537.695312 389.417969 537.332031 389.027344 C 536.972656 388.640625 536.417969 388.332031 536.109375 388.332031 C 535.390625 388.332031 534.667969 387.972656 533.75 387.109375 C 533.359375 386.75 532.582031 386.359375 532 386.25 C 531.445312 386.167969 530.667969 385.777344 530.277344 385.445312 C 529.609375 384.832031 529.25 384.667969 526.832031 383.890625 C 526.222656 383.695312 525.472656 383.304688 525.195312 383.027344 C 524.890625 382.75 523.945312 382.304688 523.082031 382.054688 C 522.222656 381.832031 521.082031 381.332031 520.554688 380.945312 C 520 380.582031 518.804688 380.140625 517.917969 379.945312 C 516.972656 379.777344 515.917969 379.332031 515.472656 378.972656 C 514.667969 378.332031 514.390625 378.222656 512.359375 377.917969 C 511.75 377.804688 510.804688 377.445312 510.25 377.054688 C 509.640625 376.640625 508.359375 376.195312 506.917969 375.945312 C 505.640625 375.695312 504.082031 375.195312 503.472656 374.859375 C 502.859375 374.5 501.5 374.054688 500.417969 373.859375 C 499.359375 373.695312 497.722656 373.195312 496.804688 372.75 C 495.890625 372.332031 494.195312 371.832031 493.054688 371.667969 C 491.804688 371.5 490.75 371.167969 490.417969 370.859375 C 489.640625 370.167969 489.054688 370 486.472656 369.722656 C 484.890625 369.554688 483.832031 369.277344 483 368.804688 C 482.25 368.359375 481.140625 368.054688 480 367.917969 C 477.277344 367.667969 475.195312 367.195312 474.722656 366.804688 C 474.222656 366.359375 472.667969 366 469.582031 365.582031 C 468.332031 365.390625 466.777344 364.972656 466.054688 364.609375 C 465.332031 364.25 463.945312 363.859375 463 363.777344 C 459.832031 363.445312 457.390625 363 456.804688 362.609375 C 456 362.109375 454.140625 361.695312 451.109375 361.417969 C 449.195312 361.222656 448.140625 360.972656 447.390625 360.554688 C 446.609375 360.082031 445.5 359.832031 442.722656 359.554688 C 440.167969 359.277344 438.832031 359 438.222656 358.640625 C 437.417969 358.140625 436.390625 357.945312 431 357.222656 C 429.777344 357.054688 428.667969 356.832031 428.5 356.695312 C 427.945312 356.222656 425.167969 355.609375 422.417969 355.304688 C 420.75 355.109375 419.054688 354.722656 418.082031 354.332031 C 417.082031 353.890625 415.445312 353.527344 413.609375 353.332031 C 411.554688 353.140625 410.277344 352.832031 409.304688 352.359375 C 407.917969 351.695312 405.195312 351.109375 403.332031 351.109375 C 402.804688 351.109375 401.722656 350.777344 400.972656 350.359375 C 400.027344 349.859375 398.722656 349.5 397 349.25 C 395.554688 349.054688 393.945312 348.667969 393.390625 348.359375 C 392.140625 347.695312 390.859375 347.304688 389.027344 347.054688 C 388.277344 346.945312 387.140625 346.582031 386.527344 346.222656 C 385.890625 345.859375 384.472656 345.390625 383.332031 345.140625 C 382.167969 344.890625 380.804688 344.390625 380.25 344 C 379.695312 343.640625 378.5 343.195312 377.554688 343.027344 C 376.417969 342.832031 375.5 342.445312 374.859375 341.945312 C 374.304688 341.5 373.359375 341.082031 372.640625 341 C 371.859375 340.859375 371.140625 340.554688 370.75 340.167969 C 370.417969 339.804688 369.445312 339.277344 368.609375 339.027344 C 367.777344 338.75 366.859375 338.304688 366.609375 338.027344 C 366.332031 337.75 365.472656 337.195312 364.667969 336.804688 C 363.859375 336.417969 363.054688 335.890625 362.890625 335.695312 C 362.722656 335.472656 362.140625 335.109375 361.609375 334.890625 C 361.082031 334.667969 360.445312 334.167969 360.195312 333.777344 C 359.945312 333.417969 359.445312 333 359.109375 332.890625 C 358.25 332.640625 352.527344 326.75 352.054688 325.640625 C 351.832031 325.167969 351.445312 324.582031 351.167969 324.390625 C 350.859375 324.195312 350.332031 323.222656 350 322.222656 C 349.640625 321.222656 349.140625 320.167969 348.859375 319.859375 C 348.277344 319.195312 347.890625 317.25 347.5 313.195312 C 347.359375 311.5 347.195312 309.945312 347.167969 309.722656 C 347.054688 309.109375 347.5 304.417969 347.890625 301.472656 C 348.140625 299.695312 348.417969 298.75 348.832031 298.195312 C 349.167969 297.777344 349.640625 296.804688 349.859375 296.027344 C 350.082031 295.277344 350.582031 294.332031 350.972656 293.972656 C 351.332031 293.582031 351.859375 292.777344 352.140625 292.195312 C 352.390625 291.582031 352.890625 290.917969 353.25 290.695312 C 353.582031 290.472656 354.082031 289.890625 354.304688 289.445312 C 354.554688 288.972656 354.917969 288.609375 355.140625 288.609375 C 355.332031 288.609375 355.777344 288.25 356.082031 287.804688 C 356.417969 287.359375 357.195312 286.722656 357.832031 286.390625 C 358.5 286.054688 359.277344 285.472656 359.609375 285.140625 C 359.945312 284.777344 360.667969 284.390625 361.25 284.277344 C 361.804688 284.195312 362.417969 283.859375 362.582031 283.554688 C 362.945312 282.972656 364.472656 282.222656 365.25 282.222656 C 365.527344 282.222656 366.140625 281.859375 366.640625 281.417969 C 367.332031 280.777344 367.972656 280.554688 369.667969 280.304688 C 370.832031 280.140625 372.109375 279.75 372.5 279.472656 C 373.445312 278.804688 374.777344 278.417969 376.945312 278.195312 C 379.027344 278 382.222656 277.277344 382.667969 276.890625 C 383.722656 276.082031 400.667969 275.445312 411.972656 275.832031 C 421.195312 276.140625 425.054688 276.472656 426.890625 277.109375 C 427.582031 277.332031 429.75 277.777344 431.695312 278.082031 C 435.359375 278.640625 436.5 278.917969 436.777344 279.417969 C 436.972656 279.695312 438.859375 280.109375 441.304688 280.417969 C 442.332031 280.554688 442.972656 280.804688 443.554688 281.359375 C 444.082031 281.890625 444.804688 282.222656 445.667969 282.332031 C 446.5 282.472656 447.25 282.804688 447.804688 283.304688 C 448.304688 283.777344 449.25 284.222656 450.140625 284.417969 C 450.945312 284.609375 451.695312 284.917969 451.777344 285.140625 C 451.859375 285.359375 452.582031 285.859375 453.390625 286.277344 C 454.195312 286.695312 455.277344 287.390625 455.777344 287.804688 C 456.277344 288.25 456.832031 288.609375 457.027344 288.609375 C 457.359375 288.609375 457.777344 289 460.140625 291.359375 C 460.75 292 461.390625 292.5 461.582031 292.5 C 461.75 292.5 462.027344 292.859375 462.222656 293.332031 C 462.417969 293.777344 462.804688 294.222656 463.082031 294.304688 C 463.390625 294.417969 463.804688 294.832031 464.027344 295.277344 C 464.25 295.695312 464.75 296.304688 465.109375 296.582031 C 465.472656 296.890625 465.972656 297.554688 466.195312 298.082031 C 466.417969 298.609375 466.917969 299.417969 467.304688 299.832031 C 467.695312 300.25 468.167969 301.054688 468.359375 301.609375 C 468.527344 302.195312 468.890625 302.890625 469.167969 303.195312 C 469.832031 303.972656 470.167969 304.695312 470.390625 305.890625 C 470.5 306.472656 470.859375 307.277344 471.222656 307.695312 C 471.695312 308.25 472.027344 309.25 472.359375 310.972656 C 472.609375 312.359375 473 313.832031 473.25 314.304688 C 474 315.832031 474.195312 316.777344 474.445312 320.527344 C 474.722656 324.640625 474.917969 325.082031 476.640625 325.554688 C 477.277344 325.722656 494.640625 325.832031 526.054688 325.832031 L 574.472656 325.832031 L 575.195312 325.109375 C 575.890625 324.417969 575.917969 324.332031 575.722656 321.722656 C 575.609375 320.222656 575.332031 318.277344 575.109375 317.359375 C 574.472656 314.859375 573.945312 311.832031 573.695312 308.890625 C 573.5 307.027344 573.222656 305.804688 572.722656 304.722656 C 572.332031 303.890625 571.917969 302.5 571.832031 301.667969 C 571.5 298.917969 571.054688 297.082031 570.554688 296.390625 C 570.304688 296 569.890625 294.667969 569.640625 293.390625 C 569.332031 291.804688 569 290.859375 568.527344 290.277344 C 568.054688 289.722656 567.75 288.945312 567.640625 287.917969 C 567.5 286.972656 567.140625 285.945312 566.667969 285.195312 C 566.25 284.554688 565.75 283.277344 565.554688 282.359375 C 565.332031 281.304688 564.917969 280.359375 564.417969 279.722656 C 563.972656 279.195312 563.609375 278.5 563.609375 278.195312 C 563.609375 277.609375 562.667969 275.890625 562.082031 275.417969 C 561.890625 275.277344 561.527344 274.5 561.277344 273.75 C 561.027344 272.972656 560.582031 272.140625 560.277344 271.890625 C 560 271.640625 559.609375 270.890625 559.417969 270.222656 C 559.222656 269.554688 558.75 268.640625 558.332031 268.195312 C 557.945312 267.722656 557.445312 267 557.25 266.554688 C 557.082031 266.109375 556.609375 265.527344 556.25 265.222656 C 555.859375 264.917969 555.554688 264.5 555.554688 264.277344 C 555.554688 264.054688 555.140625 263.417969 554.667969 262.859375 C 554.167969 262.277344 553.5 261.359375 553.222656 260.832031 C 552.945312 260.304688 552.332031 259.527344 551.917969 259.109375 C 551.472656 258.695312 551.109375 258.195312 551.109375 257.972656 C 551.109375 257.777344 550.695312 257.195312 550.222656 256.722656 C 549.722656 256.222656 548.917969 255.359375 548.417969 254.777344 C 545.222656 251.054688 538.527344 244.167969 538.109375 244.167969 C 537.859375 244.167969 537.027344 243.472656 534.722656 241.277344 C 534.195312 240.75 533.527344 240.277344 533.25 240.195312 C 533 240.082031 532.640625 239.695312 532.445312 239.304688 C 532.277344 238.917969 531.945312 238.609375 531.722656 238.609375 C 531.5 238.609375 530.832031 238.167969 530.222656 237.609375 C 529.609375 237.054688 528.695312 236.445312 528.195312 236.222656 C 527.695312 236.027344 526.917969 235.472656 526.445312 235 C 525.972656 234.554688 525.417969 234.167969 525.222656 234.167969 C 525 234.167969 524.359375 233.722656 523.804688 233.195312 C 523.222656 232.640625 522.390625 232.140625 521.917969 232.027344 C 521.472656 231.945312 520.859375 231.527344 520.554688 231.109375 C 520.222656 230.640625 519.640625 230.277344 519.027344 230.167969 C 518.5 230.054688 517.777344 229.667969 517.417969 229.304688 C 517.082031 228.945312 516.222656 228.472656 515.5 228.222656 C 514.777344 227.972656 513.945312 227.554688 513.667969 227.277344 C 513.359375 226.972656 512.527344 226.5 511.777344 226.222656 C 511.027344 225.945312 509.972656 225.390625 509.445312 224.972656 C 508.917969 224.554688 507.832031 224.082031 507.027344 223.890625 C 506.222656 223.722656 505.445312 223.390625 505.25 223.167969 C 504.722656 222.527344 504.054688 222.25 502.445312 221.945312 C 501.609375 221.777344 500.695312 221.390625 500.277344 221 C 499.859375 220.582031 498.859375 220.167969 497.667969 219.917969 C 496.527344 219.667969 495.554688 219.25 495.25 218.917969 C 494.945312 218.582031 494.667969 218.332031 494.609375 218.332031 C 493.695312 218.332031 489.859375 217.277344 489.027344 216.804688 C 488.417969 216.472656 486.890625 215.972656 485.609375 215.75 C 484.359375 215.5 483.140625 215.109375 482.917969 214.890625 C 482.332031 214.304688 481.027344 213.972656 478.222656 213.640625 C 476.859375 213.472656 475.554688 213.167969 475.304688 212.972656 C 474.5 212.277344 473.222656 211.945312 470.554688 211.695312 C 468.777344 211.527344 467.417969 211.195312 466.390625 210.75 C 465.167969 210.195312 464.054688 210 460.832031 209.722656 C 458.640625 209.554688 456.304688 209.222656 455.695312 209 C 455.082031 208.777344 454.222656 208.445312 453.75 208.304688 C 453.304688 208.167969 450.277344 207.859375 447.082031 207.640625 C 443.859375 207.445312 439.972656 207 438.472656 206.695312 C 436.945312 206.390625 433.582031 206 430.972656 205.832031 C 425.472656 205.5 388.222656 205.527344 382.027344 205.859375 Z M 382.027344 205.859375 " fill-opacity="1" fill-rule="nonzero"/></svg>