<svg xmlns="http://www.w3.org/2000/svg" xmlns:xlink="http://www.w3.org/1999/xlink" width="1080" zoomAndPan="magnify" viewBox="0 0 810 809.999993" height="1080" preserveAspectRatio="xMidYMid meet" version="1.0"><defs><clipPath id="4894e00468"><path d="M 81 52.441406 L 782.25 52.441406 L 782.25 753.691406 L 81 753.691406 Z M 81 52.441406 " clip-rule="nonzero"/></clipPath><clipPath id="4a6f52165d"><path d="M 431.625 52.441406 C 237.980469 52.441406 81 209.421875 81 403.066406 C 81 596.710938 237.980469 753.691406 431.625 753.691406 C 625.269531 753.691406 782.25 596.710938 782.25 403.066406 C 782.25 209.421875 625.269531 52.441406 431.625 52.441406 Z M 431.625 52.441406 " clip-rule="nonzero"/></clipPath></defs><g clip-path="url(#4894e00468)"><g clip-path="url(#4a6f52165d)"><path fill="#ffde59" d="M 81 52.441406 L 782.25 52.441406 L 782.25 753.691406 L 81 753.691406 Z M 81 52.441406 " fill-opacity="1" fill-rule="nonzero"/></g></g><path fill="#000000" d="M 400.777344 205.859375 C 398.445312 206 395.332031 206.359375 393.832031 206.667969 C 392.332031 207 389 207.359375 386.390625 207.5 C 380.917969 207.832031 377.832031 208.222656 376.722656 208.75 C 375.832031 209.195312 372.972656 209.609375 368.945312 209.890625 C 366.832031 210.027344 365.917969 210.222656 364.945312 210.75 C 363.972656 211.25 362.945312 211.472656 360.75 211.667969 C 358.5 211.859375 357.445312 212.109375 356.304688 212.667969 C 355.332031 213.140625 354.027344 213.5 352.554688 213.640625 C 349.972656 213.945312 348.667969 214.304688 348.054688 214.890625 C 347.832031 215.109375 346.554688 215.5 345.222656 215.722656 C 343.859375 215.972656 342.277344 216.445312 341.667969 216.804688 C 341.054688 217.140625 339.804688 217.582031 338.890625 217.75 C 336.804688 218.167969 335.640625 218.582031 335.25 219.082031 C 335.054688 219.304688 333.972656 219.695312 332.777344 219.972656 C 331.554688 220.277344 330.390625 220.75 330.027344 221.082031 C 329.640625 221.445312 328.777344 221.777344 327.832031 221.945312 C 326.359375 222.167969 324.859375 222.890625 324.859375 223.332031 C 324.859375 223.445312 324.390625 223.640625 323.832031 223.75 C 322.582031 223.972656 321.195312 224.667969 320.890625 225.167969 C 320.777344 225.390625 320 225.75 319.195312 225.972656 C 318.359375 226.222656 317.390625 226.695312 317.027344 227.054688 C 316.695312 227.417969 315.667969 227.917969 314.777344 228.195312 C 313.777344 228.5 313 228.945312 312.722656 229.332031 C 312.5 229.695312 311.945312 230.054688 311.5 230.140625 C 311.027344 230.25 310.25 230.667969 309.777344 231.082031 C 309.277344 231.5 308.5 232 308.027344 232.195312 C 307.527344 232.390625 306.804688 232.917969 306.359375 233.359375 C 305.945312 233.804688 305.445312 234.167969 305.25 234.167969 C 305.054688 234.167969 304.332031 234.582031 303.667969 235.109375 C 302.972656 235.640625 302.027344 236.277344 301.554688 236.5 C 301.109375 236.75 300.554688 237.167969 300.359375 237.445312 C 300.167969 237.75 299.582031 238.195312 299.082031 238.445312 C 298.582031 238.695312 298.054688 239.222656 297.917969 239.582031 C 297.75 240 297.445312 240.277344 297.082031 240.277344 C 296.777344 240.277344 296.332031 240.582031 296.082031 240.972656 C 295.832031 241.359375 295.332031 241.832031 295 242.027344 C 293.527344 242.832031 289.582031 246.527344 286.945312 249.582031 C 285.054688 251.75 283.804688 253.167969 282.582031 254.5 C 282 255.109375 281.527344 255.777344 281.527344 255.945312 C 281.527344 256.140625 281.167969 256.554688 280.695312 256.890625 C 280.25 257.25 279.859375 257.695312 279.859375 257.890625 C 279.859375 258.109375 279.359375 258.890625 278.722656 259.609375 C 278.109375 260.359375 277.527344 261.304688 277.445312 261.695312 C 277.359375 262.109375 276.945312 262.695312 276.5 263.027344 C 276.054688 263.359375 275.695312 263.859375 275.695312 264.140625 C 275.695312 264.445312 275.304688 265.027344 274.859375 265.472656 C 274.332031 265.945312 273.832031 266.832031 273.582031 267.695312 C 273.359375 268.5 273 269.25 272.804688 269.359375 C 272.332031 269.640625 271.640625 271 271.390625 272.167969 C 271.277344 272.667969 270.890625 273.417969 270.527344 273.804688 C 270.140625 274.222656 269.640625 275.277344 269.390625 276.167969 C 269.140625 277.054688 268.832031 277.777344 268.722656 277.777344 C 268.222656 277.777344 267.582031 279.222656 267.332031 280.972656 C 267.167969 282.167969 266.832031 283.140625 266.417969 283.695312 C 266 284.277344 265.609375 285.417969 265.332031 287.054688 C 265.082031 288.390625 264.722656 289.640625 264.5 289.832031 C 263.890625 290.304688 263.5 291.777344 263.167969 294.667969 C 263 296.082031 262.640625 297.804688 262.359375 298.5 C 262.054688 299.167969 261.695312 300.777344 261.527344 302.027344 C 260.832031 307.609375 260.390625 310.582031 259.945312 312.640625 C 259.554688 314.472656 259.472656 316.5 259.472656 324.167969 C 259.472656 333.472656 259.667969 336.332031 260.554688 339.109375 C 260.777344 339.832031 261.082031 341.859375 261.25 343.609375 C 261.554688 346.859375 261.859375 348.304688 262.554688 349.332031 C 262.75 349.640625 263.054688 350.640625 263.195312 351.554688 C 263.527344 353.472656 264.25 355.554688 264.582031 355.554688 C 264.722656 355.554688 265.027344 356.554688 265.304688 357.804688 C 265.640625 359.332031 265.945312 360.167969 266.304688 360.359375 C 266.582031 360.554688 267.054688 361.5 267.390625 362.554688 C 267.695312 363.609375 268.140625 364.554688 268.417969 364.695312 C 268.695312 364.832031 269.082031 365.582031 269.277344 366.359375 C 269.472656 367.195312 269.890625 368 270.277344 368.277344 C 270.640625 368.554688 271.109375 369.277344 271.359375 369.832031 C 271.609375 370.417969 272.167969 371.332031 272.640625 371.859375 C 273.109375 372.359375 273.667969 373.222656 273.890625 373.75 C 274.082031 374.277344 274.445312 374.722656 274.667969 374.722656 C 274.890625 374.722656 275.25 375.140625 275.445312 375.609375 C 275.640625 376.109375 276.195312 376.917969 276.667969 377.417969 C 277.109375 377.890625 277.890625 378.777344 278.359375 379.359375 C 280.222656 381.609375 282.917969 384.472656 284.195312 385.582031 C 284.945312 386.222656 285.609375 386.832031 285.695312 386.917969 C 286.25 387.667969 290.777344 391.390625 291.082031 391.390625 C 291.304688 391.390625 291.75 391.75 292.082031 392.222656 C 292.417969 392.667969 292.859375 393.054688 293.109375 393.054688 C 293.332031 393.054688 293.859375 393.417969 294.277344 393.859375 C 294.667969 394.277344 295.582031 394.917969 296.25 395.277344 C 296.945312 395.609375 297.609375 396.082031 297.722656 396.304688 C 297.859375 396.527344 298.5 396.945312 299.140625 397.222656 C 299.804688 397.5 300.667969 398.027344 301.027344 398.417969 C 301.417969 398.804688 302.25 399.277344 302.890625 399.472656 C 303.5 399.667969 304.195312 400.082031 304.417969 400.417969 C 304.640625 400.722656 305.359375 401.167969 306 401.390625 C 306.667969 401.609375 307.640625 402.140625 308.140625 402.554688 C 308.640625 402.972656 309.304688 403.332031 309.609375 403.332031 C 310.277344 403.332031 311.167969 403.75 311.945312 404.445312 C 312.25 404.722656 313.25 405.222656 314.140625 405.527344 C 315.054688 405.832031 315.859375 406.222656 315.945312 406.332031 C 316.222656 406.75 317.75 407.445312 318.859375 407.640625 C 319.417969 407.75 320.25 408.140625 320.695312 408.5 C 321.109375 408.859375 322.25 409.359375 323.222656 409.609375 C 324.195312 409.859375 325.25 410.277344 325.554688 410.554688 C 326.417969 411.304688 326.695312 411.390625 328.527344 411.695312 C 329.582031 411.859375 330.5 412.222656 331 412.609375 C 331.472656 413 332.445312 413.390625 333.472656 413.554688 C 334.390625 413.722656 335.5 414.054688 335.917969 414.277344 C 337.445312 415.109375 338.109375 415.332031 340.417969 415.75 C 341.722656 416 343.082031 416.417969 343.472656 416.667969 C 344.359375 417.277344 344.832031 417.417969 347.582031 417.917969 C 348.945312 418.140625 350.167969 418.554688 350.640625 418.890625 C 351.195312 419.304688 352.277344 419.609375 353.972656 419.859375 C 355.667969 420.109375 356.777344 420.445312 357.304688 420.832031 C 357.890625 421.277344 358.917969 421.527344 361.167969 421.804688 C 363.332031 422.082031 364.640625 422.390625 365.609375 422.890625 C 366.445312 423.304688 367.667969 423.640625 368.890625 423.75 C 371.527344 424 373.109375 424.359375 374.472656 425 C 375.082031 425.304688 376.945312 425.75 378.640625 425.972656 C 380.304688 426.222656 382.417969 426.695312 383.332031 427.082031 C 384.25 427.445312 385.804688 427.804688 386.804688 427.917969 C 389.945312 428.222656 391.917969 428.640625 393.054688 429.167969 C 394.25 429.75 397.222656 430.25 399.304688 430.277344 C 400.109375 430.277344 401.027344 430.527344 401.890625 430.972656 C 402.859375 431.5 404.027344 431.777344 406.554688 432.082031 C 408.667969 432.332031 410.277344 432.667969 410.945312 433 C 411.890625 433.5 412.695312 433.667969 417.695312 434.445312 C 418.722656 434.609375 420 434.972656 420.5 435.277344 C 421.082031 435.609375 422.609375 436 424.417969 436.25 C 426.25 436.5 427.972656 436.945312 428.832031 437.359375 C 429.722656 437.777344 431.277344 438.140625 432.917969 438.359375 C 434.445312 438.554688 435.832031 438.890625 436.25 439.167969 C 437.277344 439.859375 438.695312 440.277344 439.972656 440.277344 C 441.445312 440.277344 443.082031 440.75 444 441.390625 C 444.417969 441.695312 445.859375 442.109375 447.359375 442.359375 C 448.804688 442.609375 450.195312 442.972656 450.417969 443.167969 C 451.027344 443.695312 452.25 444.109375 454.554688 444.582031 C 455.667969 444.804688 456.890625 445.25 457.277344 445.554688 C 457.640625 445.832031 458.917969 446.304688 460.082031 446.554688 C 461.359375 446.832031 462.527344 447.277344 463 447.667969 C 463.417969 448.027344 464.222656 448.390625 464.804688 448.472656 C 466.667969 448.777344 467.945312 449.195312 468.082031 449.582031 C 468.167969 449.777344 469.109375 450.222656 470.167969 450.554688 C 471.222656 450.859375 472.332031 451.359375 472.609375 451.640625 C 472.890625 451.917969 473.804688 452.359375 474.609375 452.640625 C 475.445312 452.917969 476.417969 453.390625 476.804688 453.722656 C 477.527344 454.359375 479.359375 455.277344 479.890625 455.277344 C 480.054688 455.277344 480.445312 455.582031 480.722656 455.945312 C 481.027344 456.332031 481.609375 456.695312 482.054688 456.804688 C 482.5 456.890625 483.082031 457.304688 483.332031 457.695312 C 483.582031 458.054688 484.417969 458.640625 485.167969 458.945312 C 485.890625 459.25 486.582031 459.722656 486.667969 460 C 486.75 460.277344 487.25 460.695312 487.777344 460.945312 C 488.277344 461.195312 488.804688 461.640625 488.890625 461.945312 C 489 462.25 489.445312 462.695312 489.890625 462.917969 C 490.332031 463.167969 490.859375 463.695312 491.082031 464.140625 C 491.304688 464.554688 491.804688 465.140625 492.195312 465.390625 C 492.609375 465.640625 492.917969 465.972656 492.917969 466.140625 C 492.917969 466.304688 493.332031 466.972656 493.859375 467.609375 C 494.390625 468.25 495.082031 469.332031 495.390625 470 C 495.695312 470.695312 496.222656 471.554688 496.527344 471.945312 C 496.859375 472.359375 497.167969 473.390625 497.332031 474.527344 C 497.5 475.640625 497.859375 476.832031 498.25 477.445312 C 498.859375 478.445312 498.890625 478.695312 498.890625 484.167969 C 498.890625 489.527344 498.859375 489.945312 498.25 491.195312 C 497.890625 491.972656 497.554688 493.332031 497.472656 494.390625 C 497.277344 496.640625 496.890625 498 496.25 498.75 C 496 499.054688 495.582031 500.054688 495.332031 500.945312 C 495.082031 501.859375 494.582031 502.917969 494.195312 503.304688 C 493.832031 503.695312 493.304688 504.527344 493.054688 505.140625 C 492.804688 505.75 492.25 506.609375 491.832031 507.082031 C 491.390625 507.527344 490.945312 508.167969 490.859375 508.5 C 490.75 508.832031 490.359375 509.222656 490 509.390625 C 489.609375 509.554688 489.304688 509.832031 489.304688 510 C 489.304688 510.445312 484.445312 515.195312 483.777344 515.417969 C 483.445312 515.527344 482.75 515.972656 482.222656 516.417969 C 481.722656 516.859375 480.859375 517.417969 480.277344 517.667969 C 479.722656 517.890625 479.195312 518.332031 479.109375 518.609375 C 479.027344 518.945312 478.582031 519.25 478.054688 519.417969 C 477.527344 519.554688 476.640625 520.054688 476.054688 520.5 C 475.472656 520.972656 474.304688 521.527344 473.445312 521.777344 C 472.582031 522.027344 471.554688 522.472656 471.167969 522.777344 C 470.75 523.109375 469.722656 523.554688 468.832031 523.777344 C 467.890625 524.027344 466.972656 524.472656 466.582031 524.859375 C 466.222656 525.25 465.722656 525.554688 465.472656 525.554688 C 463.609375 525.609375 460.722656 526.195312 460.082031 526.667969 C 459.222656 527.304688 457.917969 527.640625 454.445312 528.054688 C 453.082031 528.222656 451.417969 528.609375 450.777344 528.890625 C 448.917969 529.722656 442.554688 530.109375 430.972656 530.082031 C 418.582031 530.054688 412.582031 529.695312 411 528.917969 C 409.722656 528.25 407.054688 527.777344 404.554688 527.777344 C 402.582031 527.777344 401.25 527.445312 400.082031 526.609375 C 399.667969 526.332031 398.472656 526 397.304688 525.832031 C 394.972656 525.554688 394.027344 525.25 393.5 524.640625 C 393.304688 524.390625 392.222656 524 391.082031 523.722656 C 389.945312 523.472656 388.859375 523.109375 388.667969 522.917969 C 388.140625 522.417969 387.167969 521.945312 385.722656 521.5 C 385 521.304688 384.167969 520.859375 383.890625 520.554688 C 383.609375 520.25 382.917969 519.859375 382.332031 519.722656 C 381.75 519.554688 380.777344 519 380.140625 518.472656 C 379.5 517.945312 378.722656 517.5 378.417969 517.5 C 378.109375 517.5 377.5 517.109375 377.082031 516.667969 C 376.667969 516.195312 376.195312 515.832031 376.054688 515.832031 C 375.75 515.832031 372.832031 513.640625 371.195312 512.167969 C 370.609375 511.667969 369.917969 511.140625 369.640625 511.027344 C 369.359375 510.890625 369.027344 510.527344 368.890625 510.195312 C 368.722656 509.859375 368.304688 509.445312 367.972656 509.277344 C 367.609375 509.082031 367.082031 508.582031 366.804688 508.109375 C 366.527344 507.640625 366.054688 507.195312 365.75 507.109375 C 365.445312 507 365.054688 506.582031 364.859375 506.140625 C 364.695312 505.695312 364.167969 505 363.722656 504.554688 C 363.277344 504.140625 362.917969 503.667969 362.917969 503.5 C 362.917969 503.359375 362.417969 502.640625 361.804688 501.917969 C 361.195312 501.195312 360.695312 500.472656 360.695312 500.304688 C 360.695312 500.140625 360.332031 499.609375 359.917969 499.109375 C 359.472656 498.609375 358.832031 497.445312 358.472656 496.527344 C 358.109375 495.609375 357.609375 494.667969 357.359375 494.417969 C 357.109375 494.167969 356.75 493.332031 356.554688 492.609375 C 356.359375 491.859375 356.027344 490.917969 355.804688 490.472656 C 355.609375 490.054688 355.25 489.390625 355.027344 488.945312 C 354.804688 488.527344 354.5 487.277344 354.332031 486.167969 C 354.167969 485.082031 353.777344 483.640625 353.472656 482.972656 C 352.777344 481.445312 352.445312 479.140625 352.222656 474.027344 C 352.109375 471.722656 351.890625 469.640625 351.75 469.359375 C 351.054688 468 352.917969 468.054688 300.917969 468.054688 C 257.277344 468.054688 252.140625 468.109375 251.582031 468.5 C 251.027344 468.890625 250.972656 469.140625 250.972656 471.472656 C 250.972656 475.082031 251.445312 479.859375 252.082031 482.859375 C 252.359375 484.277344 252.75 486.609375 252.917969 488.054688 C 253.304688 491.667969 253.722656 493.667969 254.195312 494.195312 C 254.417969 494.445312 254.777344 496 255 497.777344 C 255.527344 501.695312 255.640625 502.109375 256.390625 503.472656 C 256.75 504.082031 257.109375 505.277344 257.222656 506.109375 C 257.417969 507.582031 258.082031 509.167969 258.527344 509.167969 C 258.640625 509.167969 258.804688 509.640625 258.890625 510.195312 C 259.25 512.417969 259.640625 513.75 260.140625 514.472656 C 260.445312 514.859375 260.859375 515.945312 261.109375 516.832031 C 261.332031 517.722656 261.832031 518.890625 262.195312 519.417969 C 262.582031 519.972656 263.140625 521.082031 263.445312 521.917969 C 263.75 522.722656 264.25 523.640625 264.554688 523.917969 C 264.859375 524.195312 265.277344 525.082031 265.527344 525.890625 C 265.75 526.695312 266.195312 527.582031 266.5 527.832031 C 266.804688 528.082031 267.195312 528.832031 267.359375 529.5 C 267.554688 530.167969 267.972656 531 268.304688 531.390625 C 268.640625 531.777344 269.167969 532.554688 269.472656 533.140625 C 269.75 533.722656 270.222656 534.332031 270.5 534.472656 C 270.75 534.609375 271.167969 535.195312 271.417969 535.777344 C 271.640625 536.332031 272.140625 537.109375 272.5 537.5 C 272.859375 537.890625 273.417969 538.722656 273.75 539.390625 C 274.082031 540.027344 274.582031 540.695312 274.859375 540.832031 C 275.140625 540.972656 275.5 541.472656 275.640625 541.917969 C 275.804688 542.390625 276.195312 542.917969 276.527344 543.109375 C 276.859375 543.304688 277.304688 543.859375 277.554688 544.359375 C 277.777344 544.859375 278.195312 545.332031 278.5 545.417969 C 278.777344 545.527344 279.027344 545.695312 279.027344 545.832031 C 279.027344 546.109375 281.890625 549.527344 283.140625 550.695312 C 283.609375 551.167969 284.027344 551.667969 284.027344 551.804688 C 284.027344 552.082031 288.25 556.167969 289.582031 557.167969 C 290.109375 557.582031 290.859375 558.25 291.25 558.667969 C 291.609375 559.109375 292.054688 559.445312 292.222656 559.445312 C 292.390625 559.445312 293 559.945312 293.554688 560.527344 C 294.140625 561.140625 294.832031 561.722656 295.140625 561.804688 C 295.417969 561.890625 295.75 562.195312 295.832031 562.5 C 295.917969 562.777344 296.445312 563.222656 296.972656 563.472656 C 297.5 563.722656 298.027344 564.109375 298.109375 564.332031 C 298.195312 564.554688 298.832031 565.082031 299.527344 565.5 C 300.25 565.890625 301.054688 566.472656 301.332031 566.75 C 301.640625 567.054688 302.390625 567.527344 303.054688 567.804688 C 303.722656 568.082031 304.332031 568.527344 304.417969 568.75 C 304.5 569 304.972656 569.359375 305.5 569.582031 C 306 569.777344 306.640625 570.222656 306.945312 570.554688 C 307.25 570.917969 308.054688 571.417969 308.722656 571.722656 C 309.417969 572 310.25 572.527344 310.582031 572.859375 C 310.917969 573.195312 311.832031 573.722656 312.640625 574 C 313.417969 574.277344 314.140625 574.667969 314.222656 574.859375 C 314.277344 575.054688 315.027344 575.5 315.890625 575.859375 C 316.75 576.195312 317.75 576.777344 318.140625 577.109375 C 318.5 577.472656 319.25 577.832031 319.777344 577.945312 C 320.304688 578.054688 321 578.417969 321.332031 578.777344 C 321.695312 579.167969 322.640625 579.609375 323.609375 579.859375 C 324.527344 580.109375 325.527344 580.527344 325.832031 580.832031 C 326.140625 581.109375 327.304688 581.640625 328.417969 581.972656 C 329.527344 582.332031 330.667969 582.832031 330.972656 583.109375 C 331.277344 583.390625 332.222656 583.804688 333.082031 584.027344 C 333.972656 584.25 335.140625 584.75 335.667969 585.109375 C 336.25 585.527344 337.527344 585.945312 338.777344 586.195312 C 340.167969 586.445312 341.082031 586.777344 341.472656 587.167969 C 341.777344 587.472656 342.527344 587.832031 343.109375 587.917969 C 345.804688 588.332031 347.054688 588.667969 347.5 589.167969 C 347.804688 589.5 348.804688 589.832031 350.5 590.109375 C 351.917969 590.359375 353.695312 590.890625 354.445312 591.25 C 355.277344 591.640625 356.777344 592.027344 358.167969 592.222656 C 359.527344 592.359375 361.140625 592.777344 362.027344 593.195312 C 363.554688 593.890625 365.25 594.25 368.890625 594.582031 C 369.972656 594.695312 371.082031 594.945312 371.417969 595.140625 C 372.417969 595.777344 374.082031 596.109375 377.667969 596.390625 C 379.917969 596.554688 381.640625 596.832031 382.527344 597.167969 C 384.332031 597.890625 387.332031 598.332031 390.332031 598.332031 C 393 598.332031 398.554688 598.972656 400.140625 599.445312 C 402.109375 600.027344 409 600.304688 425.140625 600.472656 C 443.027344 600.640625 456.417969 600.277344 460.140625 599.527344 C 464.304688 598.695312 465.082031 598.609375 470.140625 598.332031 C 475.390625 598.054688 477.082031 597.804688 478.5 597.054688 C 479 596.804688 480.75 596.554688 483 596.390625 C 486.804688 596.109375 488.109375 595.859375 489.140625 595.195312 C 489.472656 594.972656 490.667969 594.695312 491.804688 594.609375 C 495.140625 594.304688 496.972656 593.917969 498.527344 593.195312 C 499.332031 592.832031 501 592.390625 502.222656 592.25 C 504.582031 591.917969 506.054688 591.527344 506.945312 590.945312 C 507.25 590.75 508.640625 590.390625 510 590.140625 C 511.445312 589.890625 512.722656 589.472656 513.054688 589.195312 C 513.777344 588.554688 514.304688 588.359375 516.472656 588.054688 C 517.554688 587.917969 518.640625 587.554688 519.277344 587.140625 C 519.832031 586.75 521.054688 586.304688 522.054688 586.140625 C 523.082031 585.972656 524.167969 585.582031 524.695312 585.195312 C 525.167969 584.832031 526.195312 584.390625 526.945312 584.167969 C 527.722656 583.972656 528.890625 583.472656 529.582031 583.054688 C 530.277344 582.640625 531.582031 582.054688 532.5 581.804688 C 533.417969 581.554688 534.304688 581.109375 534.5 580.832031 C 534.722656 580.527344 535.527344 580.167969 536.472656 579.972656 C 537.5 579.722656 538.304688 579.359375 538.75 578.890625 C 539.140625 578.472656 539.917969 578.054688 540.5 577.945312 C 541.082031 577.832031 541.945312 577.390625 542.417969 576.917969 C 542.890625 576.472656 543.75 575.972656 544.332031 575.832031 C 544.917969 575.667969 545.554688 575.359375 545.777344 575.140625 C 546.417969 574.5 548.027344 573.609375 548.527344 573.609375 C 548.777344 573.609375 549.222656 573.332031 549.5 572.972656 C 549.777344 572.640625 550.554688 572.109375 551.25 571.804688 C 551.945312 571.527344 552.777344 570.945312 553.140625 570.5 C 553.5 570.082031 554 569.722656 554.277344 569.722656 C 554.777344 569.722656 555.972656 568.75 555.972656 568.332031 C 555.972656 568.222656 556.332031 568.027344 556.777344 567.917969 C 557.222656 567.832031 558.167969 567.25 558.832031 566.640625 C 559.527344 566.054688 560.222656 565.554688 560.390625 565.554688 C 560.695312 565.554688 561.527344 564.832031 563.832031 562.582031 C 564.277344 562.167969 565 561.609375 565.445312 561.332031 C 565.890625 561.054688 566.25 560.667969 566.25 560.445312 C 566.25 560.222656 566.527344 559.945312 566.859375 559.832031 C 567.167969 559.75 567.917969 559.195312 568.527344 558.640625 C 569.109375 558.082031 570.417969 556.890625 571.472656 555.972656 C 573.25 554.390625 574.777344 552.695312 576.195312 550.75 C 576.554688 550.25 577.082031 549.75 577.359375 549.609375 C 577.667969 549.472656 577.972656 549.140625 578.082031 548.832031 C 578.167969 548.554688 578.695312 547.832031 579.25 547.222656 C 579.804688 546.640625 580.722656 545.667969 581.277344 545.082031 C 581.832031 544.472656 582.359375 543.722656 582.472656 543.390625 C 582.582031 543.054688 582.777344 542.777344 582.945312 542.777344 C 583.277344 542.777344 584.582031 540.695312 584.582031 540.140625 C 584.582031 539.917969 584.890625 539.527344 585.25 539.277344 C 585.640625 539.054688 586.082031 538.417969 586.25 537.890625 C 586.417969 537.390625 586.832031 536.722656 587.167969 536.472656 C 587.5 536.195312 588.027344 535.417969 588.332031 534.722656 C 588.609375 534.027344 589.140625 533.222656 589.472656 532.917969 C 589.804688 532.609375 590.304688 531.722656 590.582031 530.972656 C 590.859375 530.195312 591.304688 529.332031 591.582031 529.054688 C 591.832031 528.777344 592.304688 527.777344 592.640625 526.859375 C 592.945312 525.945312 593.417969 524.917969 593.722656 524.609375 C 594.277344 524 594.859375 522.445312 594.859375 521.640625 C 594.859375 521.390625 595.25 520.777344 595.695312 520.332031 C 596.222656 519.777344 596.527344 519.195312 596.527344 518.695312 C 596.527344 517.5 597.082031 515.75 597.640625 515.140625 C 597.945312 514.804688 598.332031 513.582031 598.609375 512.082031 C 598.859375 510.695312 599.222656 509.390625 599.417969 509.167969 C 600 508.472656 600.390625 507.195312 600.832031 504.640625 C 601.082031 503.277344 601.445312 501.832031 601.640625 501.445312 C 602.167969 500.390625 602.582031 498.167969 602.917969 494.304688 C 603.109375 492.109375 603.390625 490.582031 603.75 489.859375 C 604.609375 488.082031 604.859375 483.609375 604.859375 470.695312 C 604.832031 458.195312 604.667969 455.5 603.777344 453.445312 C 603.417969 452.667969 603.109375 451 602.917969 448.804688 C 602.667969 446.027344 602.472656 445.109375 601.804688 443.75 C 601.359375 442.832031 600.859375 441.277344 600.722656 440.304688 C 600.554688 439.304688 600.109375 437.890625 599.722656 437.109375 C 599.332031 436.332031 598.777344 434.859375 598.472656 433.804688 C 598.140625 432.777344 597.777344 431.945312 597.609375 431.945312 C 597.25 431.945312 596.527344 430.222656 596.527344 429.390625 C 596.527344 429.027344 596.167969 428.304688 595.75 427.777344 C 595.304688 427.25 594.859375 426.472656 594.777344 426.082031 C 594.667969 425.695312 594.277344 424.945312 593.917969 424.417969 C 593.527344 423.890625 592.890625 422.890625 592.527344 422.167969 C 592.140625 421.445312 591.640625 420.75 591.417969 420.640625 C 591.222656 420.527344 590.75 419.777344 590.417969 418.972656 C 590.082031 418.167969 589.527344 417.332031 589.195312 417.109375 C 588.832031 416.890625 588.417969 416.332031 588.222656 415.890625 C 588.027344 415.417969 587.640625 415 587.332031 414.917969 C 587.027344 414.832031 586.609375 414.359375 586.417969 413.832031 C 586.195312 413.304688 585.695312 412.75 585.304688 412.554688 C 584.917969 412.390625 584.582031 412.054688 584.582031 411.804688 C 584.582031 411.445312 583.417969 409.972656 582.167969 408.777344 C 581.972656 408.609375 580.359375 407.054688 578.582031 405.332031 C 576.804688 403.640625 575.25 402.222656 575.140625 402.222656 C 574.917969 402.222656 573.804688 401.25 571.945312 399.5 C 571.472656 399.054688 570.832031 398.609375 570.5 398.5 C 570.167969 398.390625 569.722656 398.027344 569.5 397.695312 C 569.277344 397.359375 568.445312 396.777344 567.667969 396.417969 C 566.890625 396.027344 566.25 395.582031 566.25 395.390625 C 566.25 395.222656 565.777344 394.859375 565.167969 394.640625 C 564.582031 394.390625 563.917969 394 563.695312 393.777344 C 562.917969 393 561.167969 391.945312 560.695312 391.945312 C 560.417969 391.945312 560 391.640625 559.777344 391.277344 C 559.527344 390.917969 558.75 390.417969 558.027344 390.167969 C 557.332031 389.945312 556.445312 389.417969 556.082031 389.027344 C 555.722656 388.640625 555.167969 388.332031 554.859375 388.332031 C 554.140625 388.332031 553.417969 387.972656 552.5 387.109375 C 552.109375 386.75 551.332031 386.359375 550.75 386.25 C 550.195312 386.167969 549.417969 385.777344 549.027344 385.445312 C 548.359375 384.832031 548 384.667969 545.582031 383.890625 C 544.972656 383.695312 544.222656 383.304688 543.945312 383.027344 C 543.640625 382.75 542.695312 382.304688 541.832031 382.054688 C 540.972656 381.832031 539.832031 381.332031 539.304688 380.945312 C 538.75 380.582031 537.554688 380.140625 536.667969 379.945312 C 535.722656 379.777344 534.667969 379.332031 534.222656 378.972656 C 533.417969 378.332031 533.140625 378.222656 531.109375 377.917969 C 530.5 377.804688 529.554688 377.445312 529 377.054688 C 528.390625 376.640625 527.109375 376.195312 525.667969 375.945312 C 524.390625 375.695312 522.832031 375.195312 522.222656 374.859375 C 521.609375 374.5 520.25 374.054688 519.167969 373.859375 C 518.109375 373.695312 516.472656 373.195312 515.554688 372.75 C 514.640625 372.332031 512.945312 371.832031 511.804688 371.667969 C 510.554688 371.5 509.5 371.167969 509.167969 370.859375 C 508.390625 370.167969 507.804688 370 505.222656 369.722656 C 503.640625 369.554688 502.582031 369.277344 501.75 368.804688 C 501 368.359375 499.890625 368.054688 498.75 367.917969 C 496.027344 367.667969 493.945312 367.195312 493.472656 366.804688 C 492.972656 366.359375 491.417969 366 488.332031 365.582031 C 487.082031 365.390625 485.527344 364.972656 484.804688 364.609375 C 484.082031 364.25 482.695312 363.859375 481.75 363.777344 C 478.582031 363.445312 476.140625 363 475.554688 362.609375 C 474.75 362.109375 472.890625 361.695312 469.859375 361.417969 C 467.945312 361.222656 466.890625 360.972656 466.140625 360.554688 C 465.359375 360.082031 464.25 359.832031 461.472656 359.554688 C 458.917969 359.277344 457.582031 359 456.972656 358.640625 C 456.167969 358.140625 455.140625 357.945312 449.75 357.222656 C 448.527344 357.054688 447.417969 356.832031 447.25 356.695312 C 446.695312 356.222656 443.917969 355.609375 441.167969 355.304688 C 439.5 355.109375 437.804688 354.722656 436.832031 354.332031 C 435.832031 353.890625 434.195312 353.527344 432.359375 353.332031 C 430.304688 353.140625 429.027344 352.832031 428.054688 352.359375 C 426.667969 351.695312 423.945312 351.109375 422.082031 351.109375 C 421.554688 351.109375 420.472656 350.777344 419.722656 350.359375 C 418.777344 349.859375 417.472656 349.5 415.75 349.25 C 414.304688 349.054688 412.695312 348.667969 412.140625 348.359375 C 410.890625 347.695312 409.609375 347.304688 407.777344 347.054688 C 407.027344 346.945312 405.890625 346.582031 405.277344 346.222656 C 404.640625 345.859375 403.222656 345.390625 402.082031 345.140625 C 400.917969 344.890625 399.554688 344.390625 399 344 C 398.445312 343.640625 397.25 343.195312 396.304688 343.027344 C 395.167969 342.832031 394.25 342.445312 393.609375 341.945312 C 393.054688 341.5 392.109375 341.082031 391.390625 341 C 390.609375 340.859375 389.890625 340.554688 389.5 340.167969 C 389.167969 339.804688 388.195312 339.277344 387.359375 339.027344 C 386.527344 338.75 385.609375 338.304688 385.359375 338.027344 C 385.082031 337.75 384.222656 337.195312 383.417969 336.804688 C 382.609375 336.417969 381.804688 335.890625 381.640625 335.695312 C 381.472656 335.472656 380.890625 335.109375 380.359375 334.890625 C 379.832031 334.667969 379.195312 334.167969 378.945312 333.777344 C 378.695312 333.417969 378.195312 333 377.859375 332.890625 C 377 332.640625 371.277344 326.75 370.804688 325.640625 C 370.582031 325.167969 370.195312 324.582031 369.917969 324.390625 C 369.609375 324.195312 369.082031 323.222656 368.75 322.222656 C 368.390625 321.222656 367.890625 320.167969 367.609375 319.859375 C 367.027344 319.195312 366.640625 317.25 366.25 313.195312 C 366.109375 311.5 365.945312 309.945312 365.917969 309.722656 C 365.804688 309.109375 366.25 304.417969 366.640625 301.472656 C 366.890625 299.695312 367.167969 298.75 367.582031 298.195312 C 367.917969 297.777344 368.390625 296.804688 368.609375 296.027344 C 368.832031 295.277344 369.332031 294.332031 369.722656 293.972656 C 370.082031 293.582031 370.609375 292.777344 370.890625 292.195312 C 371.140625 291.582031 371.640625 290.917969 372 290.695312 C 372.332031 290.472656 372.832031 289.890625 373.054688 289.445312 C 373.304688 288.972656 373.667969 288.609375 373.890625 288.609375 C 374.082031 288.609375 374.527344 288.25 374.832031 287.804688 C 375.167969 287.359375 375.945312 286.722656 376.582031 286.390625 C 377.25 286.054688 378.027344 285.472656 378.359375 285.140625 C 378.695312 284.777344 379.417969 284.390625 380 284.277344 C 380.554688 284.195312 381.167969 283.859375 381.332031 283.554688 C 381.695312 282.972656 383.222656 282.222656 384 282.222656 C 384.277344 282.222656 384.890625 281.859375 385.390625 281.417969 C 386.082031 280.777344 386.722656 280.554688 388.417969 280.304688 C 389.582031 280.140625 390.859375 279.75 391.25 279.472656 C 392.195312 278.804688 393.527344 278.417969 395.695312 278.195312 C 397.777344 278 400.972656 277.277344 401.417969 276.890625 C 402.472656 276.082031 419.417969 275.445312 430.722656 275.832031 C 439.945312 276.140625 443.804688 276.472656 445.640625 277.109375 C 446.332031 277.332031 448.5 277.777344 450.445312 278.082031 C 454.109375 278.640625 455.25 278.917969 455.527344 279.417969 C 455.722656 279.695312 457.609375 280.109375 460.054688 280.417969 C 461.082031 280.554688 461.722656 280.804688 462.304688 281.359375 C 462.832031 281.890625 463.554688 282.222656 464.417969 282.332031 C 465.25 282.472656 466 282.804688 466.554688 283.304688 C 467.054688 283.777344 468 284.222656 468.890625 284.417969 C 469.695312 284.609375 470.445312 284.917969 470.527344 285.140625 C 470.609375 285.359375 471.332031 285.859375 472.140625 286.277344 C 472.945312 286.695312 474.027344 287.390625 474.527344 287.804688 C 475.027344 288.25 475.582031 288.609375 475.777344 288.609375 C 476.109375 288.609375 476.527344 289 478.890625 291.359375 C 479.5 292 480.140625 292.5 480.332031 292.5 C 480.5 292.5 480.777344 292.859375 480.972656 293.332031 C 481.167969 293.777344 481.554688 294.222656 481.832031 294.304688 C 482.140625 294.417969 482.554688 294.832031 482.777344 295.277344 C 483 295.695312 483.5 296.304688 483.859375 296.582031 C 484.222656 296.890625 484.722656 297.554688 484.945312 298.082031 C 485.167969 298.609375 485.667969 299.417969 486.054688 299.832031 C 486.445312 300.25 486.917969 301.054688 487.109375 301.609375 C 487.277344 302.195312 487.640625 302.890625 487.917969 303.195312 C 488.582031 303.972656 488.917969 304.695312 489.140625 305.890625 C 489.25 306.472656 489.609375 307.277344 489.972656 307.695312 C 490.445312 308.25 490.777344 309.25 491.109375 310.972656 C 491.359375 312.359375 491.75 313.832031 492 314.304688 C 492.75 315.832031 492.945312 316.777344 493.195312 320.527344 C 493.472656 324.640625 493.667969 325.082031 495.390625 325.554688 C 496.027344 325.722656 513.390625 325.832031 544.804688 325.832031 L 593.222656 325.832031 L 593.945312 325.109375 C 594.640625 324.417969 594.667969 324.332031 594.472656 321.722656 C 594.359375 320.222656 594.082031 318.277344 593.859375 317.359375 C 593.222656 314.859375 592.695312 311.832031 592.445312 308.890625 C 592.25 307.027344 591.972656 305.804688 591.472656 304.722656 C 591.082031 303.890625 590.667969 302.5 590.582031 301.667969 C 590.25 298.917969 589.804688 297.082031 589.304688 296.390625 C 589.054688 296 588.640625 294.667969 588.390625 293.390625 C 588.082031 291.804688 587.75 290.859375 587.277344 290.277344 C 586.804688 289.722656 586.5 288.945312 586.390625 287.917969 C 586.25 286.972656 585.890625 285.945312 585.417969 285.195312 C 585 284.554688 584.5 283.277344 584.304688 282.359375 C 584.082031 281.304688 583.667969 280.359375 583.167969 279.722656 C 582.722656 279.195312 582.359375 278.5 582.359375 278.195312 C 582.359375 277.609375 581.417969 275.890625 580.832031 275.417969 C 580.640625 275.277344 580.277344 274.5 580.027344 273.75 C 579.777344 272.972656 579.332031 272.140625 579.027344 271.890625 C 578.75 271.640625 578.359375 270.890625 578.167969 270.222656 C 577.972656 269.554688 577.5 268.640625 577.082031 268.195312 C 576.695312 267.722656 576.195312 267 576 266.554688 C 575.832031 266.109375 575.359375 265.527344 575 265.222656 C 574.609375 264.917969 574.304688 264.5 574.304688 264.277344 C 574.304688 264.054688 573.890625 263.417969 573.417969 262.859375 C 572.917969 262.277344 572.25 261.359375 571.972656 260.832031 C 571.695312 260.304688 571.082031 259.527344 570.667969 259.109375 C 570.222656 258.695312 569.859375 258.195312 569.859375 257.972656 C 569.859375 257.777344 569.445312 257.195312 568.972656 256.722656 C 568.472656 256.222656 567.667969 255.359375 567.167969 254.777344 C 563.972656 251.054688 557.277344 244.167969 556.859375 244.167969 C 556.609375 244.167969 555.777344 243.472656 553.472656 241.277344 C 552.945312 240.75 552.277344 240.277344 552 240.195312 C 551.75 240.082031 551.390625 239.695312 551.195312 239.304688 C 551.027344 238.917969 550.695312 238.609375 550.472656 238.609375 C 550.25 238.609375 549.582031 238.167969 548.972656 237.609375 C 548.359375 237.054688 547.445312 236.445312 546.945312 236.222656 C 546.445312 236.027344 545.667969 235.472656 545.195312 235 C 544.722656 234.554688 544.167969 234.167969 543.972656 234.167969 C 543.75 234.167969 543.109375 233.722656 542.554688 233.195312 C 541.972656 232.640625 541.140625 232.140625 540.667969 232.027344 C 540.222656 231.945312 539.609375 231.527344 539.304688 231.109375 C 538.972656 230.640625 538.390625 230.277344 537.777344 230.167969 C 537.25 230.054688 536.527344 229.667969 536.167969 229.304688 C 535.832031 228.945312 534.972656 228.472656 534.25 228.222656 C 533.527344 227.972656 532.695312 227.554688 532.417969 227.277344 C 532.109375 226.972656 531.277344 226.5 530.527344 226.222656 C 529.777344 225.945312 528.722656 225.390625 528.195312 224.972656 C 527.667969 224.554688 526.582031 224.082031 525.777344 223.890625 C 524.972656 223.722656 524.195312 223.390625 524 223.167969 C 523.472656 222.527344 522.804688 222.25 521.195312 221.945312 C 520.359375 221.777344 519.445312 221.390625 519.027344 221 C 518.609375 220.582031 517.609375 220.167969 516.417969 219.917969 C 515.277344 219.667969 514.304688 219.25 514 218.917969 C 513.695312 218.582031 513.417969 218.332031 513.359375 218.332031 C 512.445312 218.332031 508.609375 217.277344 507.777344 216.804688 C 507.167969 216.472656 505.640625 215.972656 504.359375 215.75 C 503.109375 215.5 501.890625 215.109375 501.667969 214.890625 C 501.082031 214.304688 499.777344 213.972656 496.972656 213.640625 C 495.609375 213.472656 494.304688 213.167969 494.054688 212.972656 C 493.25 212.277344 491.972656 211.945312 489.304688 211.695312 C 487.527344 211.527344 486.167969 211.195312 485.140625 210.75 C 483.917969 210.195312 482.804688 210 479.582031 209.722656 C 477.390625 209.554688 475.054688 209.222656 474.445312 209 C 473.832031 208.777344 472.972656 208.445312 472.5 208.304688 C 472.054688 208.167969 469.027344 207.859375 465.832031 207.640625 C 462.609375 207.445312 458.722656 207 457.222656 206.695312 C 455.695312 206.390625 452.332031 206 449.722656 205.832031 C 444.222656 205.5 406.972656 205.527344 400.777344 205.859375 Z M 400.777344 205.859375 " fill-opacity="1" fill-rule="nonzero"/></svg>