<svg xmlns="http://www.w3.org/2000/svg" xmlns:xlink="http://www.w3.org/1999/xlink" width="1080" zoomAndPan="magnify" viewBox="0 0 810 809.999993" height="1080" preserveAspectRatio="xMidYMid meet" version="1.0"><defs><g/><clipPath id="dde2f0be01"><path d="M 30 30 L 780 30 L 780 780 L 30 780 Z M 30 30 " clip-rule="nonzero"/></clipPath><clipPath id="02046beacc"><path d="M 405 30 C 197.894531 30 30 197.894531 30 405 C 30 612.105469 197.894531 780 405 780 C 612.105469 780 780 612.105469 780 405 C 780 197.894531 612.105469 30 405 30 Z M 405 30 " clip-rule="nonzero"/></clipPath><clipPath id="ba8b8d06de"><path d="M 63.75 63.75 L 746.25 63.75 L 746.25 746.25 L 63.75 746.25 Z M 63.75 63.75 " clip-rule="nonzero"/></clipPath><clipPath id="017cf20d39"><path d="M 405 63.75 C 216.53125 63.75 63.75 216.53125 63.75 405 C 63.75 593.46875 216.53125 746.25 405 746.25 C 593.46875 746.25 746.25 593.46875 746.25 405 C 746.25 216.53125 593.46875 63.75 405 63.75 Z M 405 63.75 " clip-rule="nonzero"/></clipPath><clipPath id="4a82e139df"><path d="M 243 207.328125 L 567 207.328125 L 567 531 L 243 531 Z M 243 207.328125 " clip-rule="nonzero"/></clipPath></defs><rect x="-81" width="972" fill="#ffffff" y="-80.999999" height="971.999992" fill-opacity="1"/><rect x="-81" width="972" fill="#ffffff" y="-80.999999" height="971.999992" fill-opacity="1"/><g clip-path="url(#dde2f0be01)"><g clip-path="url(#02046beacc)"><path fill="#000000" d="M 30 30 L 780 30 L 780 780 L 30 780 Z M 30 30 " fill-opacity="1" fill-rule="nonzero"/></g></g><g clip-path="url(#ba8b8d06de)"><g clip-path="url(#017cf20d39)"><path stroke-linecap="butt" transform="matrix(0.75, 0, 0, 0.75, 63.75, 63.750017)" fill="none" stroke-linejoin="miter" d="M 454.999993 -0.0000223904 C 203.70833 -0.0000223904 -0.000000390432 203.708308 -0.000000390432 454.999971 C -0.000000390432 706.291635 203.70833 909.999965 454.999993 909.999965 C 706.291657 909.999965 909.999987 706.291635 909.999987 454.999971 C 909.999987 203.708308 706.291657 -0.0000223904 454.999993 -0.0000223904 Z M 454.999993 -0.0000223904 " stroke="#ffde59" stroke-width="78" stroke-opacity="1" stroke-miterlimit="4"/></g></g><g clip-path="url(#4a82e139df)"><path fill="#ffde59" d="M 394.335938 207.328125 C 310.847656 207.328125 243 275.175781 243 358.664062 C 243 442.152344 310.847656 510.003906 394.335938 510.003906 C 408.5 510.003906 422.335938 507.960938 435.613281 504.199219 L 435.613281 477.648438 C 425.320312 487.589844 413.65625 493.960938 401.214844 495.707031 L 401.214844 441.210938 L 435.613281 441.210938 L 435.613281 427.453125 L 401.214844 427.453125 L 401.214844 365.542969 L 435.613281 365.542969 L 435.613281 351.785156 L 401.214844 351.785156 L 401.214844 289.875 L 465.679688 289.875 C 471.832031 307.636719 475.730469 327.84375 476.589844 349.449219 L 483.765625 356.191406 L 490.5625 362.535156 L 493.761719 365.542969 L 531.675781 365.542969 C 531.136719 376.050781 529.472656 386.367188 526.625 396.363281 L 537.75 406.789062 C 542.933594 391.394531 545.675781 375.21875 545.675781 358.664062 C 545.675781 275.175781 477.824219 207.328125 394.335938 207.328125 Z M 387.457031 221.648438 L 387.457031 276.117188 L 328.585938 276.117188 C 331.164062 270.445312 333.90625 265.046875 336.941406 260.15625 C 350.671875 237.988281 368.378906 224.335938 387.457031 221.648438 Z M 401.214844 221.648438 C 425.320312 224.980469 446.46875 245.617188 460.226562 276.117188 L 401.214844 276.117188 Z M 445.929688 231.082031 C 469.308594 240.539062 489.40625 256.257812 504.320312 276.117188 L 474.949219 276.117188 C 467.425781 258.03125 457.511719 242.6875 445.929688 231.082031 Z M 342.234375 231.347656 C 336.027344 237.609375 330.277344 244.785156 325.253906 252.898438 C 320.84375 260.019531 316.921875 267.8125 313.507812 276.117188 L 284.410156 276.117188 C 299.214844 256.421875 319.097656 240.808594 342.234375 231.347656 Z M 275.273438 289.875 L 308.484375 289.875 C 302.4375 308.628906 298.863281 329.589844 298.246094 351.785156 L 256.917969 351.785156 C 258.046875 329.265625 264.632812 308.253906 275.273438 289.875 Z M 323.046875 289.875 L 387.457031 289.875 L 387.457031 351.785156 L 312.003906 351.785156 C 312.675781 329.265625 316.601562 308.199219 323.046875 289.875 Z M 480.003906 289.875 L 513.511719 289.875 C 524.125 308.253906 530.628906 329.292969 531.730469 351.785156 L 490.429688 351.785156 C 489.785156 329.5625 486.128906 308.605469 480.003906 289.875 Z M 256.917969 365.542969 L 298.246094 365.542969 C 298.863281 387.738281 302.4375 408.699219 308.484375 427.453125 L 275.273438 427.453125 C 264.632812 409.074219 258.046875 388.0625 256.917969 365.542969 Z M 312.003906 365.542969 L 387.457031 365.542969 L 387.457031 427.453125 L 323.046875 427.453125 C 316.601562 409.128906 312.675781 388.0625 312.003906 365.542969 Z M 462.804688 365.542969 C 459.152344 365.730469 456.25 368.742188 456.25 372.421875 L 456.25 504.84375 C 456.25 507.636719 457.914062 510.136719 460.492188 511.183594 C 463.074219 512.257812 466.03125 511.667969 467.992188 509.707031 L 488.707031 488.960938 L 505.988281 526.636719 C 507.570312 530.074219 511.65625 531.578125 515.121094 529.992188 L 541.671875 517.847656 C 545.109375 516.261719 546.617188 512.179688 545.03125 508.710938 L 527.105469 469.589844 L 559.433594 469.589844 C 562.253906 469.589844 564.808594 467.867188 565.828125 465.234375 C 566.875 462.601562 566.203125 459.617188 564.136719 457.683594 L 467.828125 367.398438 C 466.460938 366.132812 464.660156 365.460938 462.804688 365.542969 Z M 470.007812 388.304688 L 542.019531 455.828125 L 517.300781 455.828125 C 516.222656 455.828125 515.175781 456.070312 514.210938 456.554688 L 513.484375 456.933594 C 510.179688 458.597656 508.753906 462.574219 510.3125 465.933594 L 529.660156 508.175781 L 515.605469 514.625 L 497.09375 474.238281 C 496.179688 472.195312 494.269531 470.742188 492.066406 470.339844 C 489.835938 469.9375 487.578125 470.664062 485.996094 472.273438 L 470.007812 488.238281 Z M 284.410156 441.210938 L 313.507812 441.210938 C 316.921875 449.515625 320.84375 457.308594 325.253906 464.429688 C 330.277344 472.542969 336.027344 479.71875 342.234375 485.980469 C 319.097656 476.519531 299.214844 460.910156 284.410156 441.210938 Z M 328.585938 441.210938 L 387.457031 441.210938 L 387.457031 495.679688 C 368.378906 492.992188 350.671875 479.34375 336.941406 457.199219 C 333.90625 452.28125 331.164062 446.882812 328.585938 441.210938 Z M 328.585938 441.210938 " fill-opacity="1" fill-rule="nonzero"/></g><g fill="#ffde59" fill-opacity="1"><g transform="translate(120.227295, 332.748128)"><g><path d="M 70.625 30.078125 L 44.046875 28.703125 L 41.765625 72.640625 L 27.875 71.921875 L 30.15625 27.984375 L -1.359375 26.34375 L -0.4375 8.34375 L 85.453125 12.796875 L 82.171875 76.140625 L 68.265625 75.421875 Z M 70.625 30.078125 "/></g></g></g><g fill="#ffde59" fill-opacity="1"><g transform="translate(119.245894, 418.779017)"><g><path d="M 78.265625 -5.03125 L 90.71875 -7.25 L 93.71875 9.625 L 81.265625 11.84375 Z M 1.53125 8.59375 L 66.5625 -2.953125 L 69.5625 13.921875 L 4.53125 25.46875 Z M 1.53125 8.59375 "/></g></g></g><g fill="#ffde59" fill-opacity="1"><g transform="translate(126.652252, 460.270463)"><g><path d="M 2.96875 8.21875 L 50.5 -8.953125 C 53.90625 -10.179688 56.726562 -11.253906 58.96875 -12.171875 C 61.207031 -13.097656 63.191406 -13.9375 64.921875 -14.6875 L 70.484375 0.6875 C 69.828125 1.0625 67.78125 1.972656 64.34375 3.421875 C 60.90625 4.878906 58.613281 5.816406 57.46875 6.234375 L 57.546875 6.46875 C 62.492188 6.457031 66.078125 6.742188 68.296875 7.328125 C 70.515625 7.910156 72.359375 8.890625 73.828125 10.265625 C 75.304688 11.640625 76.5 13.582031 77.40625 16.09375 C 78.144531 18.164062 78.453125 19.9375 78.328125 21.40625 L 64.84375 26.28125 C 64.476562 23.476562 63.9375 21.078125 63.21875 19.078125 C 61.769531 15.054688 59.015625 12.515625 54.953125 11.453125 C 50.898438 10.398438 45.675781 11.03125 39.28125 13.34375 L 8.796875 24.34375 Z M 2.96875 8.21875 "/></g></g></g><g fill="#ffde59" fill-opacity="1"><g transform="translate(145.884043, 521.286254)"><g><path d="M 29.71875 37.203125 L 58.671875 14.078125 C 67.722656 6.847656 70.164062 0.625 66 -4.59375 C 63.832031 -7.289062 60.6875 -8.390625 56.5625 -7.890625 C 52.445312 -7.390625 48.195312 -5.382812 43.8125 -1.875 L 16.140625 20.21875 L 5.453125 6.828125 L 45.515625 -25.171875 C 48.273438 -27.378906 50.503906 -29.226562 52.203125 -30.71875 C 53.898438 -32.21875 55.414062 -33.570312 56.75 -34.78125 L 66.953125 -22 C 66.421875 -21.414062 64.90625 -19.992188 62.40625 -17.734375 C 59.914062 -15.484375 58.175781 -13.96875 57.1875 -13.1875 L 57.34375 -13 C 62.613281 -14.488281 67.117188 -14.710938 70.859375 -13.671875 C 74.609375 -12.628906 77.859375 -10.394531 80.609375 -6.96875 C 86.898438 0.914062 86.96875 8.695312 80.8125 16.375 L 81.03125 16.65625 C 86.4375 15.207031 90.992188 15.007812 94.703125 16.0625 C 98.410156 17.113281 101.773438 19.535156 104.796875 23.328125 C 108.804688 28.347656 110.15625 33.539062 108.84375 38.90625 C 107.53125 44.269531 103.675781 49.503906 97.28125 54.609375 L 64.515625 80.78125 L 53.890625 67.484375 L 82.84375 44.359375 C 91.894531 37.128906 94.34375 30.90625 90.1875 25.6875 C 88.101562 23.082031 85.128906 21.953125 81.265625 22.296875 C 77.410156 22.640625 73.195312 24.515625 68.625 27.921875 L 40.34375 50.5 Z M 29.71875 37.203125 "/></g></g></g><g fill="#ffde59" fill-opacity="1"><g transform="translate(230.43606, 616.173585)"><g><path d="M 20.125 13.109375 C 14.601562 9.890625 11.164062 5.878906 9.8125 1.078125 C 8.46875 -3.722656 9.378906 -8.847656 12.546875 -14.296875 C 15.984375 -20.210938 20.523438 -23.597656 26.171875 -24.453125 C 31.828125 -25.304688 38.332031 -23.644531 45.6875 -19.46875 L 58.125 -12.53125 L 59.8125 -15.421875 C 61.976562 -19.140625 62.9375 -22.285156 62.6875 -24.859375 C 62.4375 -27.441406 60.832031 -29.59375 57.875 -31.3125 C 55.144531 -32.894531 52.769531 -33.4375 50.75 -32.9375 C 48.726562 -32.4375 46.722656 -30.835938 44.734375 -28.140625 L 29.71875 -37.859375 C 33.894531 -42.867188 38.882812 -45.601562 44.6875 -46.0625 C 50.488281 -46.53125 56.957031 -44.6875 64.09375 -40.53125 C 71.3125 -36.332031 75.835938 -31.320312 77.671875 -25.5 C 79.503906 -19.6875 78.519531 -13.507812 74.71875 -6.96875 L 62.625 13.8125 C 60.769531 17.007812 59.847656 19.425781 59.859375 21.0625 C 59.867188 22.707031 60.722656 24.019531 62.421875 25 C 63.546875 25.65625 64.695312 26.1875 65.875 26.59375 L 61.21875 34.59375 C 60.207031 34.300781 59.296875 34.035156 58.484375 33.796875 C 57.679688 33.566406 56.898438 33.300781 56.140625 33 C 55.378906 32.695312 54.578125 32.347656 53.734375 31.953125 C 52.898438 31.566406 51.957031 31.070312 50.90625 30.46875 C 47.175781 28.300781 44.953125 25.785156 44.234375 22.921875 C 43.523438 20.054688 44.03125 16.738281 45.75 12.96875 L 45.4375 12.796875 C 36.9375 17.867188 28.5 17.972656 20.125 13.109375 Z M 53.375 -4.34375 L 45.703125 -8.65625 C 42.171875 -10.53125 39.503906 -11.570312 37.703125 -11.78125 C 35.898438 -12 34.253906 -11.695312 32.765625 -10.875 C 31.273438 -10.0625 29.914062 -8.59375 28.6875 -6.46875 C 27.113281 -3.757812 26.566406 -1.390625 27.046875 0.640625 C 27.535156 2.679688 28.816406 4.3125 30.890625 5.53125 C 33.210938 6.875 35.695312 7.46875 38.34375 7.3125 C 41 7.164062 43.519531 6.296875 45.90625 4.703125 C 48.300781 3.109375 50.226562 1.0625 51.6875 -1.4375 Z M 53.375 -4.34375 "/></g></g></g><g fill="#ffde59" fill-opacity="1"><g transform="translate(299.787707, 653.219507)"><g/></g></g><g fill="#ffde59" fill-opacity="1"><g transform="translate(343.815681, 670.172487)"><g><path d="M 80.0625 3.421875 L 61.953125 2.65625 L 53.1875 -38.046875 C 52.78125 -39.890625 52.015625 -44.441406 50.890625 -51.703125 L 47.140625 -38.1875 L 34.8125 1.484375 L 16.703125 0.71875 L 2.46875 -66 L 18.5625 -65.3125 L 27.25 -14.40625 L 28.296875 -18.890625 L 30.109375 -25.953125 L 42.171875 -64.296875 L 60.515625 -63.515625 L 68.96875 -24.28125 C 69.445312 -22.15625 70.117188 -18.238281 70.984375 -12.53125 L 73.03125 -20.53125 L 84.359375 -62.5 L 100.203125 -61.8125 Z M 80.0625 3.421875 "/></g></g></g><g fill="#ffde59" fill-opacity="1"><g transform="translate(455.865581, 670.034469)"><g><path d="M 34.546875 -9.359375 C 25.054688 -6.429688 16.898438 -6.992188 10.078125 -11.046875 C 3.253906 -15.097656 -1.816406 -22.507812 -5.140625 -33.28125 C -8.347656 -43.707031 -8.226562 -52.515625 -4.78125 -59.703125 C -1.34375 -66.898438 5.117188 -71.960938 14.609375 -74.890625 C 23.660156 -77.679688 31.503906 -76.8125 38.140625 -72.28125 C 44.785156 -67.75 49.894531 -59.6875 53.46875 -48.09375 L 53.609375 -47.625 L 13.125 -35.140625 C 15.019531 -28.992188 17.585938 -24.707031 20.828125 -22.28125 C 24.066406 -19.851562 27.785156 -19.285156 31.984375 -20.578125 C 37.773438 -22.367188 40.65625 -26.003906 40.625 -31.484375 L 56.5 -34.90625 C 55.550781 -22.09375 48.234375 -13.578125 34.546875 -9.359375 Z M 17.5625 -64.484375 C 13.707031 -63.296875 11.148438 -61.039062 9.890625 -57.71875 C 8.640625 -54.394531 8.703125 -50.304688 10.078125 -45.453125 L 34.5625 -53 C 32.6875 -57.988281 30.285156 -61.425781 27.359375 -63.3125 C 24.429688 -65.207031 21.164062 -65.597656 17.5625 -64.484375 Z M 17.5625 -64.484375 "/></g></g></g><g fill="#ffde59" fill-opacity="1"><g transform="translate(534.479383, 644.276177)"><g><path d="M 40.171875 -67.59375 C 46.304688 -58.570312 49.265625 -50.332031 49.046875 -42.875 C 48.828125 -35.425781 45.359375 -29.410156 38.640625 -24.828125 C 34.765625 -22.191406 30.835938 -20.753906 26.859375 -20.515625 C 22.890625 -20.273438 19.070312 -21.21875 15.40625 -23.34375 L 15.296875 -23.265625 C 16.097656 -22.085938 17.125 -20.421875 18.375 -18.265625 C 19.625 -16.117188 20.363281 -14.703125 20.59375 -14.015625 L 6.8125 -4.640625 C 4.957031 -7.953125 2.265625 -12.203125 -1.265625 -17.390625 L -43.75 -79.796875 L -29.578125 -89.4375 L -15.359375 -68.546875 L -9.515625 -59.53125 L -9.3125 -59.671875 C -10.882812 -68.847656 -7.453125 -76.3125 0.984375 -82.0625 C 7.441406 -86.457031 14.0625 -87.378906 20.84375 -84.828125 C 27.632812 -82.285156 34.078125 -76.539062 40.171875 -67.59375 Z M 25.375 -57.515625 C 21.15625 -63.703125 17.117188 -67.675781 13.265625 -69.4375 C 9.410156 -71.195312 5.585938 -70.785156 1.796875 -68.203125 C -2.046875 -65.585938 -3.875 -61.988281 -3.6875 -57.40625 C -3.5 -52.832031 -1.34375 -47.519531 2.78125 -41.46875 C 6.71875 -35.675781 10.769531 -31.835938 14.9375 -29.953125 C 19.101562 -28.066406 23.101562 -28.425781 26.9375 -31.03125 C 34.4375 -36.132812 33.914062 -44.960938 25.375 -57.515625 Z M 25.375 -57.515625 "/></g></g></g><g fill="#ffde59" fill-opacity="1"><g transform="translate(603.583269, 593.023699)"><g/></g></g><g fill="#ffde59" fill-opacity="1"><g transform="translate(634.177787, 561.135092)"><g><path d="M 16.03125 -65.28125 C 21.539062 -62.039062 24.535156 -57.238281 25.015625 -50.875 C 25.503906 -44.519531 23.40625 -37.363281 18.71875 -29.40625 C 14.113281 -21.582031 9.351562 -16.320312 4.4375 -13.625 C -0.476562 -10.9375 -5.945312 -10.441406 -11.96875 -12.140625 L -6.265625 -26.28125 C -3.128906 -25.425781 -0.472656 -25.570312 1.703125 -26.71875 C 3.890625 -27.863281 6.304688 -30.679688 8.953125 -35.171875 C 11.390625 -39.304688 12.632812 -42.628906 12.6875 -45.140625 C 12.75 -47.660156 11.660156 -49.582031 9.421875 -50.90625 C 7.597656 -51.976562 5.695312 -52.0625 3.71875 -51.15625 C 1.75 -50.257812 -0.671875 -48.207031 -3.546875 -45 C -10.109375 -37.625 -14.953125 -32.894531 -18.078125 -30.8125 C -21.210938 -28.738281 -24.359375 -27.601562 -27.515625 -27.40625 C -30.671875 -27.21875 -33.898438 -28.09375 -37.203125 -30.03125 C -42.640625 -33.238281 -45.644531 -37.828125 -46.21875 -43.796875 C -46.789062 -49.773438 -44.816406 -56.601562 -40.296875 -64.28125 C -36.316406 -71.050781 -31.796875 -75.722656 -26.734375 -78.296875 C -21.679688 -80.867188 -16.363281 -81.195312 -10.78125 -79.28125 L -17.109375 -65.375 C -19.671875 -66.320312 -22.007812 -66.304688 -24.125 -65.328125 C -26.238281 -64.359375 -28.347656 -62.082031 -30.453125 -58.5 C -32.515625 -55 -33.613281 -52.109375 -33.75 -49.828125 C -33.882812 -47.546875 -32.898438 -45.785156 -30.796875 -44.546875 C -29.148438 -43.578125 -27.445312 -43.484375 -25.6875 -44.265625 C -23.925781 -45.046875 -21.789062 -46.84375 -19.28125 -49.65625 C -15.75 -53.570312 -12.484375 -56.972656 -9.484375 -59.859375 C -6.484375 -62.742188 -3.703125 -64.835938 -1.140625 -66.140625 C 1.410156 -67.453125 4.09375 -68.113281 6.90625 -68.125 C 9.726562 -68.144531 12.769531 -67.195312 16.03125 -65.28125 Z M 16.03125 -65.28125 "/></g></g></g><g fill="#ffde59" fill-opacity="1"><g transform="translate(671.587507, 491.980519)"><g><path d="M -71.28125 -32.6875 L -83.296875 -36.640625 L -77.9375 -52.921875 L -65.921875 -48.96875 Z M 2.734375 -8.296875 L -60 -28.96875 L -54.640625 -45.25 L 8.09375 -24.578125 Z M 2.734375 -8.296875 "/></g></g></g><g fill="#ffde59" fill-opacity="1"><g transform="translate(684.323083, 452.494955)"><g><path d="M 5.203125 -25.140625 C 4.390625 -20.148438 2.410156 -16.53125 -0.734375 -14.28125 C -3.878906 -12.039062 -8.203125 -11.367188 -13.703125 -12.265625 L -52.125 -18.546875 L -53.46875 -10.296875 L -64.9375 -12.15625 L -63.453125 -21.25 L -77.890625 -29.046875 L -76.15625 -39.65625 L -60.859375 -37.15625 L -58.84375 -49.5 L -47.375 -47.640625 L -49.390625 -35.296875 L -15.546875 -29.765625 C -12.367188 -29.242188 -9.929688 -29.457031 -8.234375 -30.40625 C -6.535156 -31.363281 -5.484375 -33.109375 -5.078125 -35.640625 C -4.859375 -36.972656 -4.820312 -38.90625 -4.96875 -41.4375 L 5.5 -39.71875 C 6.175781 -35.332031 6.078125 -30.472656 5.203125 -25.140625 Z M 5.203125 -25.140625 "/></g></g></g><g fill="#ffde59" fill-opacity="1"><g transform="translate(693.092388, 401.549631)"><g><path d="M -1.140625 -35.765625 C -0.484375 -25.859375 -2.914062 -18.050781 -8.4375 -12.34375 C -13.957031 -6.644531 -22.335938 -3.425781 -33.578125 -2.6875 C -44.460938 -1.96875 -53.003906 -4.113281 -59.203125 -9.125 C -65.410156 -14.144531 -68.84375 -21.609375 -69.5 -31.515625 C -70.113281 -40.972656 -67.445312 -48.40625 -61.5 -53.8125 C -55.5625 -59.21875 -46.546875 -62.320312 -34.453125 -63.125 L -33.953125 -63.15625 L -31.15625 -20.890625 C -24.738281 -21.304688 -19.972656 -22.8125 -16.859375 -25.40625 C -13.753906 -28 -12.347656 -31.488281 -12.640625 -35.875 C -13.035156 -41.925781 -15.898438 -45.566406 -21.234375 -46.796875 L -20.90625 -63.03125 C -8.664062 -59.144531 -2.078125 -50.054688 -1.140625 -35.765625 Z M -58.6875 -31.96875 C -58.414062 -27.945312 -56.804688 -24.941406 -53.859375 -22.953125 C -50.921875 -20.972656 -46.929688 -20.09375 -41.890625 -20.3125 L -43.578125 -45.875 C -48.878906 -45.195312 -52.78125 -43.648438 -55.28125 -41.234375 C -57.789062 -38.828125 -58.925781 -35.738281 -58.6875 -31.96875 Z M -58.6875 -31.96875 "/></g></g></g></svg>