<svg xmlns="http://www.w3.org/2000/svg" xmlns:xlink="http://www.w3.org/1999/xlink" width="1080" zoomAndPan="magnify" viewBox="0 0 810 809.999993" height="1080" preserveAspectRatio="xMidYMid meet" version="1.0"><defs><g/><clipPath id="dc29241d59"><path d="M 63.75 63.75 L 746.25 63.75 L 746.25 746.25 L 63.75 746.25 Z M 63.75 63.75 " clip-rule="nonzero"/></clipPath><clipPath id="8a4b9bbecc"><path d="M 405 63.75 C 216.53125 63.75 63.75 216.53125 63.75 405 C 63.75 593.46875 216.53125 746.25 405 746.25 C 593.46875 746.25 746.25 593.46875 746.25 405 C 746.25 216.53125 593.46875 63.75 405 63.75 Z M 405 63.75 " clip-rule="nonzero"/></clipPath><clipPath id="65e3be69db"><path d="M 211.902344 279.167969 L 598.097656 279.167969 L 598.097656 528.585938 L 211.902344 528.585938 Z M 211.902344 279.167969 " clip-rule="nonzero"/></clipPath></defs><g clip-path="url(#dc29241d59)"><g clip-path="url(#8a4b9bbecc)"><path stroke-linecap="butt" transform="matrix(0.75, 0, 0, 0.75, 63.75, 63.750017)" fill="none" stroke-linejoin="miter" d="M 454.999993 -0.0000223904 C 203.70833 -0.0000223904 -0.000000390432 203.708308 -0.000000390432 454.999971 C -0.000000390432 706.291635 203.70833 909.999965 454.999993 909.999965 C 706.291657 909.999965 909.999987 706.291635 909.999987 454.999971 C 909.999987 203.708308 706.291657 -0.0000223904 454.999993 -0.0000223904 Z M 454.999993 -0.0000223904 " stroke="#ffde59" stroke-width="78" stroke-opacity="1" stroke-miterlimit="4"/></g></g><g clip-path="url(#65e3be69db)"><path fill="#ffde59" d="M 277.640625 279.164062 C 241.265625 279.164062 211.980469 306.558594 211.980469 340.582031 L 211.980469 467.246094 C 211.980469 501.269531 241.265625 528.660156 277.640625 528.660156 L 532.347656 528.660156 C 568.722656 528.660156 598.007812 501.269531 598.007812 467.246094 L 598.007812 340.582031 C 598.007812 306.554688 568.722656 279.164062 532.347656 279.164062 Z M 355.988281 328.390625 L 485.464844 402.691406 L 486.847656 403.828125 L 357.757812 478.808594 L 356.085938 479.4375 L 355.695312 330.152344 L 355.988281 328.386719 Z M 355.988281 328.390625 " fill-opacity="1" fill-rule="nonzero"/></g><g fill="#ffde59" fill-opacity="1"><g transform="translate(221.73383, 632.92095)"><g><path d="M 43.828125 -70.015625 L 52.359375 -70.015625 L 30.84375 -29.484375 L 30.84375 0 L 23.078125 0 L 23.078125 -29.484375 L 1.546875 -70.015625 L 10.078125 -70.015625 L 26.953125 -37.921875 Z M 43.828125 -70.015625 "/></g></g></g><g fill="#ffde59" fill-opacity="1"><g transform="translate(275.644114, 632.92095)"><g><path d="M 44.890625 -25.21875 C 44.890625 -20.425781 44.144531 -16.039062 42.65625 -12.0625 C 41.175781 -8.09375 38.882812 -4.925781 35.78125 -2.5625 C 32.675781 -0.207031 28.828125 0.96875 24.234375 0.96875 C 19.648438 0.96875 15.804688 -0.222656 12.703125 -2.609375 C 9.597656 -5.003906 7.300781 -8.171875 5.8125 -12.109375 C 4.332031 -16.054688 3.59375 -20.425781 3.59375 -25.21875 C 3.59375 -29.9375 4.332031 -34.28125 5.8125 -38.25 C 7.300781 -42.226562 9.597656 -45.410156 12.703125 -47.796875 C 15.804688 -50.191406 19.648438 -51.390625 24.234375 -51.390625 C 28.828125 -51.390625 32.675781 -50.191406 35.78125 -47.796875 C 38.882812 -45.410156 41.175781 -42.226562 42.65625 -38.25 C 44.144531 -34.28125 44.890625 -29.9375 44.890625 -25.21875 Z M 24.234375 -5.046875 C 28.828125 -5.046875 32.253906 -6.953125 34.515625 -10.765625 C 36.785156 -14.578125 37.921875 -19.394531 37.921875 -25.21875 C 37.921875 -31.488281 36.722656 -36.414062 34.328125 -40 C 31.929688 -43.582031 28.535156 -45.375 24.140625 -45.375 C 19.679688 -45.375 16.300781 -43.5 14 -39.75 C 11.707031 -36.007812 10.5625 -31.164062 10.5625 -25.21875 C 10.5625 -19.195312 11.722656 -14.328125 14.046875 -10.609375 C 16.378906 -6.898438 19.773438 -5.046875 24.234375 -5.046875 Z M 24.234375 -5.046875 "/></g></g></g><g fill="#ffde59" fill-opacity="1"><g transform="translate(324.124588, 632.92095)"><g><path d="M 23.859375 -5.046875 C 28.253906 -5.046875 33.066406 -7.597656 38.296875 -12.703125 L 38.296875 -50.421875 L 45.28125 -50.421875 L 45.28125 0 L 38.296875 0 L 38.296875 -6.78125 L 38.109375 -6.78125 C 33.390625 -1.613281 28.410156 0.96875 23.171875 0.96875 C 18.648438 0.96875 15.09375 -0.320312 12.5 -2.90625 C 9.914062 -5.488281 8.625 -9.015625 8.625 -13.484375 L 8.625 -50.421875 L 15.609375 -50.421875 L 15.609375 -13.671875 C 15.609375 -7.921875 18.359375 -5.046875 23.859375 -5.046875 Z M 23.859375 -5.046875 "/></g></g></g><g fill="#ffde59" fill-opacity="1"><g transform="translate(378.034871, 632.92095)"><g><path d="M 30.84375 -63.421875 L 30.84375 0 L 23.078125 0 L 23.078125 -63.421875 L 2.140625 -63.421875 L 2.140625 -70.015625 L 51.78125 -70.015625 L 51.78125 -63.421875 Z M 30.84375 -63.421875 "/></g></g></g><g fill="#ffde59" fill-opacity="1"><g transform="translate(431.945155, 632.92095)"><g><path d="M 23.859375 -5.046875 C 28.253906 -5.046875 33.066406 -7.597656 38.296875 -12.703125 L 38.296875 -50.421875 L 45.28125 -50.421875 L 45.28125 0 L 38.296875 0 L 38.296875 -6.78125 L 38.109375 -6.78125 C 33.390625 -1.613281 28.410156 0.96875 23.171875 0.96875 C 18.648438 0.96875 15.09375 -0.320312 12.5 -2.90625 C 9.914062 -5.488281 8.625 -9.015625 8.625 -13.484375 L 8.625 -50.421875 L 15.609375 -50.421875 L 15.609375 -13.671875 C 15.609375 -7.921875 18.359375 -5.046875 23.859375 -5.046875 Z M 23.859375 -5.046875 "/></g></g></g><g fill="#ffde59" fill-opacity="1"><g transform="translate(485.855427, 632.92095)"><g><path d="M 29.1875 -51.390625 C 32.613281 -51.390625 35.859375 -50.4375 38.921875 -48.53125 C 41.992188 -46.625 44.515625 -43.710938 46.484375 -39.796875 C 48.460938 -35.890625 49.453125 -31.03125 49.453125 -25.21875 C 49.453125 -19.332031 48.484375 -14.382812 46.546875 -10.375 C 44.609375 -6.363281 42.085938 -3.46875 38.984375 -1.6875 C 35.878906 0.0820312 32.484375 0.96875 28.796875 0.96875 C 25.953125 0.96875 23.363281 0.421875 21.03125 -0.671875 C 18.707031 -1.773438 16.445312 -3.328125 14.25 -5.328125 L 13 0 L 8.140625 0 C 8.398438 -2.320312 8.53125 -3.90625 8.53125 -4.75 L 8.53125 -70.015625 L 15.515625 -70.015625 L 15.515625 -45.484375 C 17.910156 -47.421875 20.222656 -48.890625 22.453125 -49.890625 C 24.679688 -50.890625 26.925781 -51.390625 29.1875 -51.390625 Z M 28.21875 -5.046875 C 33 -5.046875 36.566406 -6.882812 38.921875 -10.5625 C 41.285156 -14.25 42.46875 -19.003906 42.46875 -24.828125 C 42.46875 -31.609375 41.269531 -36.726562 38.875 -40.1875 C 36.488281 -43.644531 32.9375 -45.375 28.21875 -45.375 C 26.21875 -45.375 24.097656 -44.757812 21.859375 -43.53125 C 19.628906 -42.3125 17.515625 -40.601562 15.515625 -38.40625 L 15.515625 -11.828125 C 17.910156 -9.441406 20.078125 -7.710938 22.015625 -6.640625 C 23.953125 -5.578125 26.019531 -5.046875 28.21875 -5.046875 Z M 28.21875 -5.046875 "/></g></g></g><g fill="#ffde59" fill-opacity="1"><g transform="translate(539.765699, 632.92095)"><g><path d="M 43.640625 -28.890625 L 43.640625 -23.859375 L 10.859375 -23.859375 C 10.859375 -19.972656 11.566406 -16.609375 12.984375 -13.765625 C 14.410156 -10.921875 16.269531 -8.753906 18.5625 -7.265625 C 20.863281 -5.785156 23.304688 -5.046875 25.890625 -5.046875 C 28.929688 -5.046875 31.613281 -5.785156 33.9375 -7.265625 C 36.269531 -8.753906 38.207031 -10.859375 39.75 -13.578125 L 45.1875 -10.765625 C 42.789062 -6.628906 40.070312 -3.640625 37.03125 -1.796875 C 34 0.046875 30.285156 0.96875 25.890625 0.96875 C 21.554688 0.96875 17.738281 -0.046875 14.4375 -2.078125 C 11.144531 -4.117188 8.5625 -7.09375 6.6875 -11 C 4.8125 -14.914062 3.875 -19.65625 3.875 -25.21875 C 3.875 -31.03125 4.828125 -35.921875 6.734375 -39.890625 C 8.640625 -43.867188 11.128906 -46.78125 14.203125 -48.625 C 17.273438 -50.46875 20.6875 -51.390625 24.4375 -51.390625 C 30.1875 -51.390625 34.820312 -49.429688 38.34375 -45.515625 C 41.875 -41.609375 43.640625 -36.066406 43.640625 -28.890625 Z M 24.53125 -45.375 C 20.65625 -45.375 17.535156 -44.03125 15.171875 -41.34375 C 12.816406 -38.664062 11.441406 -34.835938 11.046875 -29.859375 L 36.65625 -29.859375 C 36.65625 -34.648438 35.570312 -38.429688 33.40625 -41.203125 C 31.238281 -43.984375 28.28125 -45.375 24.53125 -45.375 Z M 24.53125 -45.375 "/></g></g></g></svg>