<svg xmlns="http://www.w3.org/2000/svg" xmlns:xlink="http://www.w3.org/1999/xlink" width="1080" zoomAndPan="magnify" viewBox="0 0 810 809.999993" height="1080" preserveAspectRatio="xMidYMid meet" version="1.0"><defs><clipPath id="b09093d3ad"><path d="M 30 30 L 780 30 L 780 780 L 30 780 Z M 30 30 " clip-rule="nonzero"/></clipPath><clipPath id="d711379acd"><path d="M 405 30 C 197.894531 30 30 197.894531 30 405 C 30 612.105469 197.894531 780 405 780 C 612.105469 780 780 612.105469 780 405 C 780 197.894531 612.105469 30 405 30 Z M 405 30 " clip-rule="nonzero"/></clipPath><clipPath id="7d8d75fcb7"><path d="M 67.5 67.5 L 742.5 67.5 L 742.5 742.5 L 67.5 742.5 Z M 67.5 67.5 " clip-rule="nonzero"/></clipPath><clipPath id="648a81f130"><path d="M 405 67.5 C 218.605469 67.5 67.5 218.605469 67.5 405 C 67.5 591.394531 218.605469 742.5 405 742.5 C 591.394531 742.5 742.5 591.394531 742.5 405 C 742.5 218.605469 591.394531 67.5 405 67.5 Z M 405 67.5 " clip-rule="nonzero"/></clipPath></defs><rect x="-81" width="972" fill="#ffffff" y="-80.999999" height="971.999992" fill-opacity="1"/><rect x="-81" width="972" fill="#ffffff" y="-80.999999" height="971.999992" fill-opacity="1"/><g clip-path="url(#b09093d3ad)"><g clip-path="url(#d711379acd)"><path fill="#000000" d="M 30 30 L 780 30 L 780 780 L 30 780 Z M 30 30 " fill-opacity="1" fill-rule="nonzero"/></g></g><path fill="#ffde59" d="M 401.550781 463.433594 C 398.570312 459.742188 395.59375 456.050781 392.617188 452.359375 C 372.613281 427.113281 353.5625 401.15625 336.058594 374.246094 C 324.269531 356.148438 313.078125 337.570312 303.667969 318.042969 C 298.191406 306.492188 293.308594 294.824219 290.09375 282.441406 C 287.714844 273.152344 287.117188 263.863281 288.070312 254.339844 C 290.214844 232.191406 298.074219 212.425781 312.003906 195.160156 C 328.316406 174.917969 349.273438 161.816406 374.519531 155.625 C 384.519531 153.125 394.761719 152.054688 405.121094 152.53125 C 430.484375 153.484375 453.226562 161.460938 473.113281 177.296875 C 491.6875 192.0625 504.429688 210.757812 511.214844 233.5 C 514.429688 244.335938 515.980469 255.410156 515.621094 266.722656 C 515.382812 274.9375 513.359375 282.917969 510.738281 290.773438 C 505.738281 306.015625 498.832031 320.425781 491.09375 334.476562 C 487.164062 341.621094 482.996094 348.527344 478.945312 355.550781 C 478.234375 356.742188 477.519531 357.8125 476.683594 358.886719 C 472.875 364.007812 465.847656 365.433594 460.371094 362.21875 C 454.773438 359.003906 452.394531 351.980469 455.132812 346.265625 C 456.917969 342.574219 459.179688 339 461.324219 335.429688 C 470.375 319.828125 478.828125 303.875 485.140625 286.964844 C 486.6875 282.917969 488.117188 278.867188 489.070312 274.699219 C 490.496094 268.390625 490.257812 261.960938 489.664062 255.53125 C 489.425781 252.550781 489.1875 249.574219 488.59375 246.71875 C 487.640625 242.789062 486.449219 238.976562 485.019531 235.285156 C 481.925781 227.429688 478.234375 219.808594 472.992188 213.140625 C 460.609375 197.0625 444.414062 186.585938 425.246094 180.75 C 421.316406 179.558594 417.148438 178.964844 412.980469 178.605469 C 407.144531 178.132812 401.3125 178.25 395.476562 178.25 C 384.164062 178.25 373.683594 181.585938 363.5625 186.347656 C 349.632812 192.777344 338.441406 202.421875 329.269531 214.449219 C 324.152344 221.117188 320.816406 228.855469 317.601562 236.597656 C 314.863281 243.382812 313.792969 250.648438 313.316406 257.910156 C 312.957031 263.746094 312.839844 269.578125 314.265625 275.296875 C 315.339844 279.703125 316.886719 284.105469 318.554688 288.273438 C 325.460938 306.375 334.628906 323.28125 344.511719 339.832031 C 361.660156 368.53125 380.828125 395.796875 401.191406 422.234375 C 401.3125 422.351562 401.429688 422.472656 401.667969 422.710938 C 403.691406 420.089844 405.597656 417.589844 407.503906 415.089844 C 414.648438 405.324219 421.792969 395.5625 428.816406 385.796875 C 431.078125 382.699219 433.578125 379.960938 437.507812 379.007812 C 444.652344 377.222656 451.917969 382.105469 452.988281 389.367188 C 453.464844 393.058594 452.394531 396.273438 450.25 399.132812 C 440.246094 412.828125 430.246094 426.640625 420.003906 440.214844 C 414.289062 447.835938 408.21875 455.097656 402.382812 462.597656 C 402.023438 462.71875 401.785156 463.074219 401.550781 463.433594 Z M 401.550781 463.433594 " fill-opacity="1" fill-rule="evenodd"/><path fill="#ffde59" d="M 369.28125 238.5 C 374.996094 234.214844 380.355469 230.046875 385.710938 225.878906 C 388.449219 223.738281 391.1875 221.710938 393.929688 219.570312 C 398.332031 216.117188 404.644531 216.117188 409.050781 219.449219 C 430.007812 235.40625 450.964844 251.242188 471.921875 267.316406 C 473.707031 268.746094 475.492188 270.175781 477.042969 271.84375 C 478.828125 273.867188 479.421875 276.488281 479.421875 279.105469 C 479.421875 303.039062 479.421875 327.09375 479.421875 351.027344 C 479.421875 357.574219 474.304688 363.171875 467.753906 363.769531 C 461.085938 364.242188 455.25 359.71875 454.179688 353.171875 C 454.0625 352.335938 453.941406 351.382812 453.941406 350.550781 C 453.941406 329.710938 453.941406 308.753906 453.941406 287.917969 C 453.941406 286.371094 453.585938 285.417969 452.15625 284.34375 C 445.367188 279.34375 438.582031 274.105469 431.914062 268.984375 C 422.148438 261.484375 412.265625 253.980469 402.5 246.480469 C 401.785156 245.882812 401.3125 245.882812 400.597656 246.480469 C 384.164062 259.101562 367.613281 271.722656 351.0625 284.34375 C 346.773438 287.558594 342.128906 288.15625 337.367188 285.65625 C 332.605469 283.273438 330.222656 279.105469 330.460938 273.746094 C 330.582031 269.816406 332.367188 266.601562 335.460938 264.222656 C 337.84375 262.316406 340.34375 260.53125 342.726562 258.746094 C 343.441406 258.269531 343.679688 257.671875 343.679688 256.71875 C 343.679688 246.71875 343.679688 236.597656 343.679688 226.59375 C 343.679688 220.046875 348.441406 214.6875 354.992188 213.851562 C 361.0625 213.019531 367.015625 217.1875 368.683594 223.261719 C 368.921875 224.332031 369.160156 225.523438 369.160156 226.714844 C 369.28125 230.523438 369.28125 234.453125 369.28125 238.5 Z M 369.28125 238.5 " fill-opacity="1" fill-rule="evenodd"/><path fill="#ffde59" d="M 401.785156 283.511719 C 405.238281 283.511719 408.8125 283.511719 412.265625 283.511719 C 419.527344 283.511719 425.484375 289.464844 425.484375 296.730469 C 425.484375 303.753906 425.484375 310.660156 425.484375 317.6875 C 425.484375 325.070312 419.527344 331.023438 412.144531 331.023438 C 405.238281 331.023438 398.332031 331.023438 391.425781 331.023438 C 383.808594 331.023438 377.972656 325.1875 377.972656 317.449219 C 377.972656 310.660156 377.972656 303.875 377.972656 296.96875 C 377.972656 289.226562 383.808594 283.394531 391.546875 283.394531 C 395 283.511719 398.453125 283.511719 401.785156 283.511719 Z M 413.097656 307.328125 C 413.097656 303.992188 413.097656 300.539062 413.097656 297.207031 C 413.097656 296.253906 412.742188 295.894531 411.789062 295.894531 C 405.121094 295.894531 398.570312 295.894531 391.902344 295.894531 C 390.832031 295.894531 390.59375 296.253906 390.59375 297.324219 C 390.59375 303.875 390.59375 310.542969 390.59375 317.089844 C 390.59375 318.164062 390.953125 318.519531 392.023438 318.519531 C 398.570312 318.519531 405.238281 318.519531 411.789062 318.519531 C 412.859375 318.519531 413.21875 318.042969 413.21875 316.972656 C 412.980469 313.757812 413.097656 310.542969 413.097656 307.328125 Z M 413.097656 307.328125 " fill-opacity="1" fill-rule="evenodd"/><path fill="#ffde59" d="M 263.921875 574.542969 C 265.46875 574.542969 266.78125 575.136719 267.851562 576.207031 C 268.921875 577.28125 269.519531 578.589844 269.519531 580.136719 C 269.519531 581.6875 268.921875 582.996094 267.851562 584.066406 C 266.78125 585.140625 265.46875 585.734375 263.921875 585.734375 L 208.195312 585.734375 C 206.648438 585.734375 205.335938 585.140625 204.265625 584.066406 C 203.195312 582.996094 202.597656 581.6875 202.597656 580.136719 C 202.597656 578.828125 202.957031 577.636719 203.671875 576.683594 L 251.894531 518.816406 L 208.074219 518.816406 C 206.527344 518.816406 205.21875 518.21875 204.144531 517.148438 C 203.074219 516.074219 202.480469 514.765625 202.480469 513.21875 C 202.480469 511.671875 202.957031 510.359375 204.144531 509.289062 C 205.21875 508.21875 206.527344 507.621094 208.074219 507.621094 L 263.800781 507.621094 C 265.351562 507.621094 266.660156 508.21875 267.730469 509.289062 C 268.804688 510.359375 269.398438 511.671875 269.398438 513.21875 C 269.398438 514.648438 268.921875 515.839844 268.089844 516.789062 L 219.984375 574.421875 L 263.921875 574.421875 Z M 263.921875 574.542969 " fill-opacity="1" fill-rule="nonzero"/><path fill="#ffde59" d="M 295.953125 490.953125 C 295.953125 492.855469 295.238281 494.523438 293.929688 495.832031 C 292.5 497.261719 290.953125 497.859375 289.046875 497.859375 C 287.140625 497.859375 285.472656 497.144531 284.164062 495.832031 C 282.734375 494.523438 282.140625 492.855469 282.140625 490.953125 C 282.140625 489.046875 282.855469 487.378906 284.164062 486.070312 C 285.472656 484.640625 287.140625 484.046875 289.046875 484.046875 C 290.953125 484.046875 292.617188 484.757812 293.929688 486.070312 C 295.238281 487.378906 295.953125 489.046875 295.953125 490.953125 Z M 283.332031 513.21875 C 283.332031 511.671875 283.925781 510.359375 284.996094 509.289062 C 286.070312 508.21875 287.378906 507.621094 288.925781 507.621094 C 290.476562 507.621094 291.785156 508.21875 292.855469 509.289062 C 293.929688 510.359375 294.523438 511.671875 294.523438 513.21875 L 294.523438 580.019531 C 294.523438 581.566406 293.929688 582.875 292.855469 583.949219 C 291.785156 585.019531 290.476562 585.617188 288.925781 585.617188 C 287.378906 585.617188 286.070312 585.019531 284.996094 583.949219 C 283.925781 582.875 283.332031 581.566406 283.332031 580.019531 Z M 283.332031 513.21875 " fill-opacity="1" fill-rule="nonzero"/><path fill="#ffde59" d="M 308.457031 513.21875 C 308.457031 511.671875 309.050781 510.359375 310.121094 509.289062 C 311.195312 508.21875 312.503906 507.621094 314.050781 507.621094 C 315.601562 507.621094 316.910156 508.21875 317.980469 509.289062 C 319.054688 510.359375 319.648438 511.671875 319.648438 513.21875 L 319.648438 517.742188 C 326.671875 511.074219 335.007812 507.621094 344.652344 507.621094 C 354.65625 507.621094 363.230469 511.195312 370.253906 518.21875 C 377.28125 525.363281 380.851562 533.816406 380.851562 543.820312 L 380.851562 580.019531 C 380.851562 581.566406 380.257812 582.875 379.183594 583.949219 C 378.113281 585.019531 376.804688 585.617188 375.257812 585.617188 C 373.707031 585.617188 372.398438 585.019531 371.328125 583.949219 C 370.253906 582.875 369.660156 581.566406 369.660156 580.019531 L 369.660156 543.820312 C 369.660156 536.914062 367.160156 530.960938 362.277344 526.078125 C 357.394531 521.195312 351.441406 518.695312 344.535156 518.695312 C 337.628906 518.695312 331.675781 521.195312 326.792969 526.078125 C 321.910156 530.960938 319.410156 536.914062 319.410156 543.820312 L 319.410156 580.019531 C 319.410156 581.566406 318.816406 582.875 317.742188 583.949219 C 316.671875 585.019531 315.363281 585.617188 313.8125 585.617188 C 312.265625 585.617188 310.957031 585.019531 309.882812 583.949219 C 308.8125 582.875 308.21875 581.566406 308.21875 580.019531 L 308.21875 513.21875 Z M 308.457031 513.21875 " fill-opacity="1" fill-rule="nonzero"/><path fill="#ffde59" d="M 455.988281 573.945312 C 455.871094 574.066406 455.75 574.183594 455.75 574.183594 C 448.128906 581.804688 438.960938 585.617188 428.125 585.617188 C 417.410156 585.617188 408.121094 581.804688 400.617188 574.183594 C 392.996094 566.5625 389.1875 557.394531 389.1875 546.558594 C 389.1875 535.84375 393 526.554688 400.617188 519.054688 C 408.238281 511.433594 417.410156 507.621094 428.125 507.621094 C 438.960938 507.621094 448.128906 511.433594 455.75 519.054688 C 463.371094 526.671875 467.179688 535.84375 467.179688 546.558594 L 467.179688 585.496094 C 467.179688 593.59375 464.203125 600.738281 458.371094 606.691406 C 450.152344 614.90625 440.390625 618.957031 428.839844 618.957031 C 417.289062 618.957031 407.40625 614.90625 399.308594 606.691406 C 396.332031 603.714844 393.832031 600.5 391.925781 597.046875 C 391.332031 596.214844 391.09375 595.261719 391.09375 594.070312 C 391.09375 592.523438 391.6875 591.210938 392.761719 590.140625 C 393.832031 589.070312 395.140625 588.472656 396.6875 588.472656 C 398.238281 588.472656 399.546875 589.070312 400.617188 590.140625 C 401.09375 590.617188 401.453125 591.210938 401.808594 591.808594 C 403.238281 594.308594 405.023438 596.6875 407.167969 598.832031 C 413.121094 604.785156 420.386719 607.761719 428.839844 607.761719 C 437.292969 607.761719 444.4375 604.785156 450.511719 598.832031 C 454.203125 594.425781 456.105469 589.902344 456.105469 585.496094 L 456.105469 573.945312 Z M 428.125 518.816406 C 420.386719 518.816406 413.835938 521.554688 408.476562 526.910156 C 403 532.390625 400.378906 538.9375 400.378906 546.558594 C 400.378906 554.300781 403.121094 560.847656 408.476562 566.207031 C 413.957031 571.683594 420.503906 574.421875 428.125 574.421875 C 435.863281 574.421875 442.414062 571.683594 447.890625 566.207031 C 453.367188 560.730469 455.988281 554.179688 455.988281 546.558594 C 455.988281 538.820312 453.25 532.269531 447.890625 526.910156 C 442.414062 521.554688 435.746094 518.816406 428.125 518.816406 Z M 428.125 518.816406 " fill-opacity="1" fill-rule="nonzero"/><path fill="#ffde59" d="M 542.199219 573.945312 C 534.457031 581.804688 525.171875 585.617188 514.335938 585.617188 C 503.617188 585.617188 494.332031 581.804688 486.710938 574.183594 C 479.089844 566.5625 475.277344 557.394531 475.277344 546.558594 C 475.277344 535.84375 479.089844 526.554688 486.710938 519.054688 C 494.332031 511.433594 503.5 507.621094 514.335938 507.621094 C 525.171875 507.621094 534.339844 511.433594 541.960938 519.054688 C 549.582031 526.671875 553.390625 535.84375 553.390625 546.558594 L 553.390625 580.019531 C 553.390625 581.566406 552.796875 582.875 551.722656 583.949219 C 550.652344 585.019531 549.34375 585.617188 547.792969 585.617188 C 546.246094 585.617188 544.9375 585.019531 543.863281 583.949219 C 542.792969 582.875 542.199219 581.566406 542.199219 580.019531 Z M 514.335938 518.816406 C 506.59375 518.816406 500.046875 521.554688 494.566406 526.910156 C 489.089844 532.390625 486.472656 538.9375 486.472656 546.558594 C 486.472656 554.300781 489.210938 560.847656 494.566406 566.207031 C 500.046875 571.683594 506.59375 574.421875 514.335938 574.421875 C 522.074219 574.421875 528.625 571.683594 534.101562 566.207031 C 539.578125 560.730469 542.199219 554.179688 542.199219 546.558594 C 542.199219 538.820312 539.460938 532.269531 534.101562 526.910156 C 528.625 521.554688 522.074219 518.816406 514.335938 518.816406 Z M 514.335938 518.816406 " fill-opacity="1" fill-rule="nonzero"/><path fill="#ffde59" d="M 600.664062 574.542969 C 602.210938 574.542969 603.519531 575.136719 604.59375 576.207031 C 605.664062 577.28125 606.261719 578.589844 606.261719 580.136719 C 606.261719 581.6875 605.664062 582.996094 604.59375 584.066406 C 603.519531 585.140625 602.210938 585.734375 600.664062 585.734375 C 582.085938 585.734375 572.800781 576.445312 572.800781 557.871094 L 572.800781 518.933594 L 567.203125 518.933594 C 565.65625 518.933594 564.347656 518.339844 563.273438 517.265625 C 562.203125 516.195312 561.605469 514.886719 561.605469 513.335938 C 561.605469 511.789062 562.203125 510.480469 563.273438 509.40625 C 564.347656 508.335938 565.65625 507.742188 567.203125 507.742188 L 572.800781 507.742188 L 572.800781 479.878906 C 572.800781 478.328125 573.394531 477.019531 574.46875 475.949219 C 575.539062 474.875 576.847656 474.28125 578.398438 474.28125 C 579.945312 474.28125 581.253906 474.875 582.324219 475.949219 C 583.398438 477.019531 583.992188 478.328125 583.992188 479.878906 L 583.992188 507.742188 L 595.1875 507.742188 C 596.734375 507.742188 598.042969 508.335938 599.117188 509.40625 C 600.1875 510.480469 600.78125 511.789062 600.78125 513.335938 C 600.78125 514.886719 600.1875 516.195312 599.117188 517.265625 C 598.042969 518.339844 596.734375 518.933594 595.1875 518.933594 L 583.992188 518.933594 L 583.992188 557.871094 C 583.992188 568.945312 589.46875 574.542969 600.664062 574.542969 Z M 600.664062 574.542969 " fill-opacity="1" fill-rule="nonzero"/><g clip-path="url(#7d8d75fcb7)"><g clip-path="url(#648a81f130)"><path stroke-linecap="butt" transform="matrix(1.394898, 0, 0, 1.394898, 67.5, 67.500017)" fill="none" stroke-linejoin="miter" d="M 241.953162 -0.0000119035 C 108.327247 -0.0000119035 -0.000000074677 108.327236 -0.000000074677 241.95315 C -0.000000074677 375.579065 108.327247 483.906313 241.953162 483.906313 C 375.579077 483.906313 483.906324 375.579065 483.906324 241.95315 C 483.906324 108.327236 375.579077 -0.0000119035 241.953162 -0.0000119035 Z M 241.953162 -0.0000119035 " stroke="#ffde59" stroke-width="43.013897" stroke-opacity="1" stroke-miterlimit="4"/></g></g></svg>