<svg xmlns="http://www.w3.org/2000/svg" xmlns:xlink="http://www.w3.org/1999/xlink" width="1080" zoomAndPan="magnify" viewBox="0 0 810 809.999993" height="1080" preserveAspectRatio="xMidYMid meet" version="1.0"><defs><clipPath id="87c7204114"><path d="M 37.5 37.5 L 772.5 37.5 L 772.5 772.5 L 37.5 772.5 Z M 37.5 37.5 " clip-rule="nonzero"/></clipPath><clipPath id="10c049b1fd"><path d="M 405 37.5 C 202.035156 37.5 37.5 202.035156 37.5 405 C 37.5 607.964844 202.035156 772.5 405 772.5 C 607.964844 772.5 772.5 607.964844 772.5 405 C 772.5 202.035156 607.964844 37.5 405 37.5 Z M 405 37.5 " clip-rule="nonzero"/></clipPath></defs><path fill="#ffde59" d="M 401.242188 468.625 C 398 464.609375 394.757812 460.589844 391.519531 456.570312 C 369.734375 429.082031 348.988281 400.816406 329.929688 371.511719 C 317.09375 351.804688 304.90625 331.578125 294.664062 310.3125 C 288.699219 297.738281 283.382812 285.03125 279.882812 271.546875 C 277.289062 261.433594 276.640625 251.320312 277.675781 240.945312 C 280.011719 216.828125 288.570312 195.308594 303.738281 176.507812 C 321.503906 154.464844 344.320312 140.203125 371.808594 133.460938 C 382.699219 130.738281 393.851562 129.570312 405.132812 130.089844 C 432.75 131.125 457.515625 139.8125 479.167969 157.058594 C 499.394531 173.136719 513.265625 193.492188 520.65625 218.257812 C 524.160156 230.054688 525.84375 242.113281 525.453125 254.429688 C 525.195312 263.378906 522.992188 272.066406 520.140625 280.621094 C 514.691406 297.21875 507.171875 312.90625 498.746094 328.207031 C 494.464844 335.984375 489.929688 343.507812 485.519531 351.15625 C 484.742188 352.453125 483.964844 353.621094 483.054688 354.785156 C 478.90625 360.363281 471.257812 361.917969 465.292969 358.417969 C 459.199219 354.917969 456.605469 347.265625 459.589844 341.042969 C 461.535156 337.023438 463.996094 333.132812 466.332031 329.242188 C 476.183594 312.257812 485.390625 294.882812 492.261719 276.472656 C 493.949219 272.066406 495.503906 267.65625 496.542969 263.117188 C 498.097656 256.246094 497.835938 249.246094 497.1875 242.242188 C 496.929688 239 496.671875 235.761719 496.023438 232.648438 C 494.984375 228.371094 493.6875 224.21875 492.132812 220.199219 C 488.761719 211.644531 484.742188 203.34375 479.039062 196.085938 C 465.550781 178.582031 447.917969 167.171875 427.042969 160.816406 C 422.765625 159.519531 418.226562 158.871094 413.6875 158.484375 C 407.335938 157.964844 400.984375 158.09375 394.628906 158.09375 C 382.3125 158.09375 370.902344 161.726562 359.882812 166.910156 C 344.710938 173.914062 332.523438 184.414062 322.539062 197.511719 C 316.964844 204.773438 313.332031 213.199219 309.832031 221.628906 C 306.851562 229.019531 305.683594 236.925781 305.164062 244.835938 C 304.777344 251.191406 304.644531 257.542969 306.203125 263.765625 C 307.371094 268.5625 309.054688 273.359375 310.871094 277.898438 C 318.390625 297.605469 328.375 316.019531 339.136719 334.042969 C 357.804688 365.289062 378.679688 394.980469 400.851562 423.765625 C 400.984375 423.894531 401.113281 424.023438 401.371094 424.285156 C 403.574219 421.429688 405.652344 418.707031 407.726562 415.984375 C 415.503906 405.351562 423.285156 394.722656 430.933594 384.089844 C 433.398438 380.71875 436.121094 377.734375 440.398438 376.699219 C 448.179688 374.753906 456.085938 380.070312 457.253906 387.980469 C 457.773438 392 456.605469 395.5 454.273438 398.609375 C 443.382812 413.523438 432.488281 428.5625 421.339844 443.34375 C 415.117188 451.640625 408.503906 459.550781 402.148438 467.71875 C 401.761719 467.847656 401.5 468.238281 401.242188 468.625 Z M 401.242188 468.625 " fill-opacity="1" fill-rule="evenodd"/><path fill="#ffde59" d="M 366.105469 223.703125 C 372.328125 219.035156 378.164062 214.496094 383.996094 209.957031 C 386.980469 207.625 389.960938 205.421875 392.945312 203.085938 C 397.742188 199.324219 404.613281 199.324219 409.410156 202.957031 C 432.230469 220.332031 455.050781 237.574219 477.871094 255.078125 C 479.816406 256.636719 481.761719 258.191406 483.445312 260.007812 C 485.390625 262.210938 486.039062 265.0625 486.039062 267.914062 C 486.039062 293.976562 486.039062 320.167969 486.039062 346.230469 C 486.039062 353.359375 480.464844 359.453125 473.332031 360.101562 C 466.070312 360.621094 459.71875 355.695312 458.550781 348.5625 C 458.421875 347.65625 458.292969 346.617188 458.292969 345.710938 C 458.292969 323.019531 458.292969 300.199219 458.292969 277.511719 C 458.292969 275.824219 457.902344 274.789062 456.347656 273.621094 C 448.957031 268.175781 441.566406 262.46875 434.304688 256.894531 C 423.671875 248.726562 412.910156 240.558594 402.28125 232.390625 C 401.5 231.742188 400.984375 231.742188 400.203125 232.390625 C 382.3125 246.132812 364.289062 259.875 346.265625 273.621094 C 341.597656 277.121094 336.542969 277.769531 331.355469 275.046875 C 326.167969 272.453125 323.578125 267.914062 323.835938 262.082031 C 323.964844 257.800781 325.910156 254.300781 329.28125 251.707031 C 331.875 249.632812 334.597656 247.6875 337.191406 245.742188 C 337.96875 245.226562 338.226562 244.578125 338.226562 243.539062 C 338.226562 232.648438 338.226562 221.628906 338.226562 210.734375 C 338.226562 203.605469 343.414062 197.769531 350.546875 196.863281 C 357.15625 195.953125 363.640625 200.492188 365.457031 207.105469 C 365.714844 208.273438 365.976562 209.570312 365.976562 210.867188 C 366.105469 215.015625 366.105469 219.292969 366.105469 223.703125 Z M 366.105469 223.703125 " fill-opacity="1" fill-rule="evenodd"/><path fill="#ffde59" d="M 401.5 272.710938 C 405.261719 272.710938 409.152344 272.710938 412.910156 272.710938 C 420.820312 272.710938 427.304688 279.195312 427.304688 287.105469 C 427.304688 294.753906 427.304688 302.273438 427.304688 309.925781 C 427.304688 317.964844 420.820312 324.445312 412.78125 324.445312 C 405.261719 324.445312 397.742188 324.445312 390.222656 324.445312 C 381.921875 324.445312 375.570312 318.09375 375.570312 309.664062 C 375.570312 302.273438 375.570312 294.882812 375.570312 287.363281 C 375.570312 278.9375 381.921875 272.582031 390.351562 272.582031 C 394.109375 272.710938 397.871094 272.710938 401.5 272.710938 Z M 413.820312 298.644531 C 413.820312 295.015625 413.820312 291.253906 413.820312 287.625 C 413.820312 286.585938 413.429688 286.199219 412.394531 286.199219 C 405.132812 286.199219 398 286.199219 390.738281 286.199219 C 389.574219 286.199219 389.3125 286.585938 389.3125 287.753906 C 389.3125 294.882812 389.3125 302.144531 389.3125 309.277344 C 389.3125 310.445312 389.703125 310.832031 390.871094 310.832031 C 398 310.832031 405.261719 310.832031 412.394531 310.832031 C 413.558594 310.832031 413.949219 310.3125 413.949219 309.148438 C 413.6875 305.644531 413.820312 302.144531 413.820312 298.644531 Z M 413.820312 298.644531 " fill-opacity="1" fill-rule="evenodd"/><path fill="#ffde59" d="M 251.382812 589.613281 C 253.066406 589.613281 254.492188 590.261719 255.660156 591.425781 C 256.828125 592.59375 257.476562 594.019531 257.476562 595.707031 C 257.476562 597.390625 256.828125 598.816406 255.660156 599.984375 C 254.492188 601.152344 253.066406 601.800781 251.382812 601.800781 L 190.703125 601.800781 C 189.015625 601.800781 187.589844 601.152344 186.421875 599.984375 C 185.253906 598.816406 184.605469 597.390625 184.605469 595.707031 C 184.605469 594.28125 184.996094 592.984375 185.773438 591.945312 L 238.285156 528.929688 L 190.570312 528.929688 C 188.886719 528.929688 187.460938 528.28125 186.292969 527.117188 C 185.125 525.949219 184.476562 524.523438 184.476562 522.835938 C 184.476562 521.152344 184.996094 519.726562 186.292969 518.558594 C 187.460938 517.390625 188.886719 516.742188 190.570312 516.742188 L 251.25 516.742188 C 252.9375 516.742188 254.363281 517.390625 255.53125 518.558594 C 256.699219 519.726562 257.347656 521.152344 257.347656 522.835938 C 257.347656 524.394531 256.828125 525.691406 255.917969 526.726562 L 203.539062 589.480469 L 251.382812 589.480469 Z M 251.382812 589.613281 " fill-opacity="1" fill-rule="nonzero"/><path fill="#ffde59" d="M 286.257812 498.589844 C 286.257812 500.664062 285.480469 502.480469 284.054688 503.90625 C 282.5 505.464844 280.8125 506.113281 278.738281 506.113281 C 276.664062 506.113281 274.851562 505.332031 273.421875 503.90625 C 271.867188 502.480469 271.21875 500.664062 271.21875 498.589844 C 271.21875 496.515625 271.996094 494.703125 273.421875 493.273438 C 274.851562 491.71875 276.664062 491.070312 278.738281 491.070312 C 280.8125 491.070312 282.628906 491.847656 284.054688 493.273438 C 285.480469 494.703125 286.257812 496.515625 286.257812 498.589844 Z M 272.515625 522.835938 C 272.515625 521.152344 273.164062 519.726562 274.332031 518.558594 C 275.496094 517.390625 276.925781 516.742188 278.609375 516.742188 C 280.296875 516.742188 281.722656 517.390625 282.886719 518.558594 C 284.054688 519.726562 284.703125 521.152344 284.703125 522.835938 L 284.703125 595.574219 C 284.703125 597.261719 284.054688 598.6875 282.886719 599.855469 C 281.722656 601.023438 280.296875 601.667969 278.609375 601.667969 C 276.925781 601.667969 275.496094 601.023438 274.332031 599.855469 C 273.164062 598.6875 272.515625 597.261719 272.515625 595.574219 Z M 272.515625 522.835938 " fill-opacity="1" fill-rule="nonzero"/><path fill="#ffde59" d="M 299.875 522.835938 C 299.875 521.152344 300.523438 519.726562 301.6875 518.558594 C 302.855469 517.390625 304.28125 516.742188 305.96875 516.742188 C 307.652344 516.742188 309.078125 517.390625 310.246094 518.558594 C 311.414062 519.726562 312.0625 521.152344 312.0625 522.835938 L 312.0625 527.765625 C 319.710938 520.503906 328.789062 516.742188 339.289062 516.742188 C 350.179688 516.742188 359.515625 520.632812 367.167969 528.28125 C 374.816406 536.0625 378.707031 545.269531 378.707031 556.160156 L 378.707031 595.574219 C 378.707031 597.261719 378.058594 598.6875 376.890625 599.855469 C 375.722656 601.023438 374.296875 601.667969 372.613281 601.667969 C 370.925781 601.667969 369.5 601.023438 368.332031 599.855469 C 367.167969 598.6875 366.519531 597.261719 366.519531 595.574219 L 366.519531 556.160156 C 366.519531 548.640625 363.796875 542.15625 358.480469 536.839844 C 353.164062 531.523438 346.679688 528.800781 339.160156 528.800781 C 331.640625 528.800781 325.15625 531.523438 319.839844 536.839844 C 314.523438 542.15625 311.800781 548.640625 311.800781 556.160156 L 311.800781 595.574219 C 311.800781 597.261719 311.152344 598.6875 309.988281 599.855469 C 308.820312 601.023438 307.394531 601.667969 305.707031 601.667969 C 304.023438 601.667969 302.597656 601.023438 301.429688 599.855469 C 300.261719 598.6875 299.613281 597.261719 299.613281 595.574219 L 299.613281 522.835938 Z M 299.875 522.835938 " fill-opacity="1" fill-rule="nonzero"/><path fill="#ffde59" d="M 460.519531 588.964844 C 460.390625 589.09375 460.261719 589.222656 460.261719 589.222656 C 451.964844 597.519531 441.980469 601.671875 430.179688 601.671875 C 418.511719 601.671875 408.398438 597.519531 400.230469 589.222656 C 391.929688 580.925781 387.78125 570.941406 387.78125 559.140625 C 387.78125 547.472656 391.929688 537.359375 400.230469 529.191406 C 408.527344 520.894531 418.511719 516.742188 430.179688 516.742188 C 441.980469 516.742188 451.964844 520.894531 460.261719 529.191406 C 468.558594 537.488281 472.707031 547.472656 472.707031 559.140625 L 472.707031 601.539062 C 472.707031 610.355469 469.46875 618.136719 463.113281 624.621094 C 454.167969 633.566406 443.535156 637.972656 430.957031 637.972656 C 418.382812 637.972656 407.621094 633.566406 398.804688 624.621094 C 395.5625 621.378906 392.839844 617.878906 390.765625 614.117188 C 390.117188 613.210938 389.855469 612.171875 389.855469 610.875 C 389.855469 609.191406 390.503906 607.765625 391.671875 606.597656 C 392.839844 605.429688 394.265625 604.78125 395.949219 604.78125 C 397.636719 604.78125 399.0625 605.429688 400.230469 606.597656 C 400.746094 607.117188 401.136719 607.765625 401.527344 608.414062 C 403.082031 611.136719 405.027344 613.726562 407.359375 616.0625 C 413.84375 622.542969 421.753906 625.785156 430.957031 625.785156 C 440.164062 625.785156 447.945312 622.542969 454.554688 616.0625 C 458.574219 611.265625 460.648438 606.335938 460.648438 601.539062 L 460.648438 588.964844 Z M 430.179688 528.929688 C 421.753906 528.929688 414.621094 531.914062 408.785156 537.75 C 402.824219 543.710938 399.96875 550.84375 399.96875 559.140625 C 399.96875 567.570312 402.953125 574.699219 408.785156 580.535156 C 414.75 586.5 421.882812 589.480469 430.179688 589.480469 C 438.609375 589.480469 445.738281 586.5 451.703125 580.535156 C 457.667969 574.570312 460.519531 567.441406 460.519531 559.140625 C 460.519531 550.714844 457.539062 543.582031 451.703125 537.75 C 445.738281 531.914062 438.480469 528.929688 430.179688 528.929688 Z M 430.179688 528.929688 " fill-opacity="1" fill-rule="nonzero"/><path fill="#ffde59" d="M 554.394531 588.964844 C 545.964844 597.519531 535.851562 601.667969 524.054688 601.667969 C 512.382812 601.667969 502.269531 597.519531 493.972656 589.222656 C 485.675781 580.925781 481.523438 570.941406 481.523438 559.140625 C 481.523438 547.472656 485.675781 537.359375 493.972656 529.191406 C 502.269531 520.894531 512.253906 516.742188 524.054688 516.742188 C 535.851562 516.742188 545.835938 520.894531 554.132812 529.191406 C 562.433594 537.488281 566.582031 547.472656 566.582031 559.140625 L 566.582031 595.574219 C 566.582031 597.261719 565.933594 598.6875 564.765625 599.855469 C 563.597656 601.023438 562.171875 601.667969 560.488281 601.667969 C 558.800781 601.667969 557.375 601.023438 556.207031 599.855469 C 555.042969 598.6875 554.394531 597.261719 554.394531 595.574219 Z M 524.054688 528.929688 C 515.625 528.929688 508.496094 531.914062 502.53125 537.75 C 496.566406 543.710938 493.714844 550.84375 493.714844 559.140625 C 493.714844 567.570312 496.695312 574.699219 502.53125 580.535156 C 508.496094 586.5 515.625 589.480469 524.054688 589.480469 C 532.480469 589.480469 539.613281 586.5 545.578125 580.535156 C 551.539062 574.570312 554.394531 567.441406 554.394531 559.140625 C 554.394531 550.714844 551.410156 543.582031 545.578125 537.75 C 539.613281 531.914062 532.480469 528.929688 524.054688 528.929688 Z M 524.054688 528.929688 " fill-opacity="1" fill-rule="nonzero"/><path fill="#ffde59" d="M 618.054688 589.613281 C 619.742188 589.613281 621.167969 590.261719 622.335938 591.425781 C 623.5 592.59375 624.148438 594.019531 624.148438 595.707031 C 624.148438 597.390625 623.5 598.816406 622.335938 599.984375 C 621.167969 601.152344 619.742188 601.800781 618.054688 601.800781 C 597.828125 601.800781 587.714844 591.6875 587.714844 571.460938 L 587.714844 529.0625 L 581.621094 529.0625 C 579.9375 529.0625 578.511719 528.414062 577.34375 527.246094 C 576.175781 526.078125 575.527344 524.652344 575.527344 522.96875 C 575.527344 521.28125 576.175781 519.855469 577.34375 518.6875 C 578.511719 517.519531 579.9375 516.875 581.621094 516.875 L 587.714844 516.875 L 587.714844 486.53125 C 587.714844 484.847656 588.363281 483.421875 589.53125 482.253906 C 590.699219 481.085938 592.125 480.4375 593.808594 480.4375 C 595.496094 480.4375 596.921875 481.085938 598.089844 482.253906 C 599.253906 483.421875 599.902344 484.847656 599.902344 486.53125 L 599.902344 516.875 L 612.089844 516.875 C 613.777344 516.875 615.203125 517.519531 616.371094 518.6875 C 617.539062 519.855469 618.183594 521.28125 618.183594 522.96875 C 618.183594 524.652344 617.539062 526.078125 616.371094 527.246094 C 615.203125 528.414062 613.777344 529.0625 612.089844 529.0625 L 599.902344 529.0625 L 599.902344 571.460938 C 599.902344 583.519531 605.867188 589.613281 618.054688 589.613281 Z M 618.054688 589.613281 " fill-opacity="1" fill-rule="nonzero"/><g clip-path="url(#87c7204114)"><g clip-path="url(#10c049b1fd)"><path stroke-linecap="butt" transform="matrix(0.75, 0, 0, 0.75, 37.500002, 37.500018)" fill="none" stroke-linejoin="miter" d="M 490.000054 -0.0000241512 C 219.380231 -0.0000241512 -0.00000215123 219.380209 -0.00000215123 490.000032 C -0.00000215123 760.619854 219.380231 980.000088 490.000054 980.000088 C 760.619876 980.000088 980.00011 760.619854 980.00011 490.000032 C 980.00011 219.380209 760.619876 -0.0000241512 490.000054 -0.0000241512 Z M 490.000054 -0.0000241512 " stroke="#ffde59" stroke-width="80" stroke-opacity="1" stroke-miterlimit="4"/></g></g></svg>